<svg viewBox="0 0 299.99394 430.433" version="1.1" id="svg1" xmlns:svg="http://www.w3.org/2000/svg">
   <g id="full" transform="matrix(3.7795198,0,0,3.7795198,-905.09484,-28.284262)">
      <g id="rest" transform="translate(239.4735,7.4835597)">
         <path
            d="m 47.2577,0 c -1.3978,5.29e-4 -1.21444,0.747448 -2.00501,0.41619 -1.12581,-0.471488 -1.7198,-0.444765 -2.2786,0.102658 -0.575461,0.795337 -0.349251,0.740833 -0.720991,1.277144 0,0.150812 -0.0873,0.139435 -0.49609,-0.0635 -1.42002,-0.704321 -2.70563,-0.238125 -3.25861,0.03784 -0.58314,0.462756 -1.20438,0.883708 -1.77376,1.944687 -0.49081,0.985309 -1.25916,0.729456 -1.20597,0.66675 0.0423,-0.05001 0.17409,-0.30771 0.29262,-0.573087 0.55484,-1.240367 -0.80962,0.983191 -1.46499,1.395412 -0.83027,0.47625 -1.63063,1.645709 -1.64174,2.397654 -0.001,0.08546 -0.11721,0.151607 -0.40852,0.232834 -0.65537,0.182827 -1.10437,0.762793 -1.1766,1.519766 -0.0749,0.785019 -1.21338,1.14353 -1.21338,0.173302 0.008,-1.24751 -0.78793,1.325828 -0.0582,1.910562 0.0132,0.31617 -0.33973,0.32358 -0.62045,0.0537 -0.36856,-0.32624 -0.59663,-1.259421 -0.34528,-1.411557 0.0566,-0.03439 0.0873,-0.07673 0.0693,-0.09446 -0.15319,-0.149225 -0.5207,0.538691 -0.45746,0.855926 0.0191,0.09525 0.0548,0.277811 0.0794,0.405611 0.0251,0.12964 0.19843,0.41275 0.39211,0.64082 0.19076,0.22436 0.30427,0.40825 0.25215,0.40825 -0.4109,0 -1.09908,1.53961 -0.78793,1.76239 0.23653,0.16933 -1.08294,1.13691 -1.22344,2.0947 -0.23018,-0.13917 -0.39687,1.02024 -0.19843,1.3806 0.12435,0.22595 0.12356,0.24289 -0.037,0.73501 -0.19262,0.58976 -0.28919,1.77165 -0.13706,1.67984 -0.0828,0.16934 0.35587,0.88186 0.2757,1.09088 -0.0968,0.0947 -0.10584,0.17912 -0.0754,0.68897 7.9e-4,0.0132 0.2323,0.40667 0.26696,1.61555 0.0251,0.86625 0.0373,0.95197 0.15452,1.09008 0.0463,0.0553 0.0619,0.12224 0.0344,0.14949 -0.0653,0.0638 0.18177,0.37042 0.14393,0.50933 -0.03032,0.119027 -0.04745,0.241027 -0.0511,0.3638 0.68475,1.22502 -0.0778,0.82418 0.16325,1.88383 l -0.38867,0.78396 c 0.55774,0.38709 0.65167,2.51645 1.16205,2.74876 -0.0016,-0.0049 -0.0027,-0.01 -0.003,-0.0151 h 5.3e-4 c 0.007,0.007 0.0481,0.11615 0.1053,0.2966 -1.0623,-1.06548 -3.47556,-0.98875 -2.97312,1.00647 0.26987,2.55535 0.77311,5.02444 1.68619,7.40198 0.73369,2.01983 1.73117,3.86874 3.02075,5.53668 0.36459,1.9042 0.67283,3.60997 1.33508,5.49063 0.58341,2.21324 0.45906,2.28177 0.55536,2.85697 0.0754,0.29501 0.28311,0.93504 0.43763,1.37398 0.24156,0.39449 0.18626,1.94601 0.0463,3.80815 -0.45244,0.57917 -1.42637,1.38165 -3.42451,2.19842 -2.92735,1.19645 -2.9546,2.09735 -4.35636,2.82417 -1.81134,0.939 -7.29483,3.21045 -8.65823,3.86476 -1.94283,0.9324 -5.03528,2.88026 -5.80866,3.35677 -5.6007,3.45308 -3.5859,3.61739 -5.22552,4.66963 -1.72693,1.10861 -2.24367,3.22342 -3.07022,5.08979 -0.81783,1.84706 -0.63209,3.72243 -1.35652,5.77057 -0.7247,2.04787 -0.46276,4.43018 -0.38524,7.24296 -0.79375,7.638518 -0.43841,9.195598 0.37809,9.791438 0.60008,0.32702 1.81319,1.25492 3.47927,0.67548 0.5006,0.0564 -0.11906,-0.77179 2.85512,-0.48339 3.56447,-0.90779 20.20094,9.48266 34.57205,10.25498 12.039071,-1.57982 25.664051,-4.10051 34.857001,-7.11147 2.65483,-2.40136 2.78686,1.1385 2.78686,-3.06731 v -0.004 c 0,-4.43971 0,-11.371788 -0.41699,-17.324388 -0.10689,-1.52876 1.17131,-3.33983 -2.92735,-11.30459 -0.9435,-1.83303 -2.92444,-2.87681 -4.25238,-4.11136 -1.32794,-1.23454 -2.45401,-1.9124 -3.87085,-2.95301 -1.50548,-1.17211 -2.37067,-1.87537 -3.12738,-2.21694 -0.0887,-0.04076 -0.174928,-0.0867 -0.25823,-0.13759 -0.25056,-0.20717 -0.70618,-0.55351 -1.19063,-0.94774 -0.72681,-0.67733 -1.44833,-1.48246 -1.85605,-1.95262 -0.0029,-0.01034 -0.0056,-0.02074 -0.008,-0.0312 -1.41579,-2.06005 -0.0831,-4.52596 0.0794,-6.74423 0.0675,-2.17964 2.01136,-3.44064 2.43761,-5.48164 1.16469,-1.17739 0.85725,-2.89586 1.23004,-4.59316 -0.37306,-1.96507 0.54425,-3.62162 2.30479,-4.23519 1.11919,-2.11032 1.79229,-4.45558 2.1635,-6.79371 0.29712,-2.20874 1.8452,-5.46629 -0.2757,-7.04982 -1.31762,-1.14538 -2.85618,2.0574 -2.658,-0.0794 -0.0034,-0.0026 -0.0067,-0.0053 -0.01,-0.008 0.0878,-0.29183 -0.37571,-2.92047 -0.39952,-3.25173 -0.15664,-2.19842 0.29157,-0.23839 -0.073,-3.25543 -0.0722,-0.5977 -0.0616,-0.70723 0.0987,-1.03108 0.38735,-0.78423 0.40825,-1.08268 0.35719,-2.05132 -0.0442,-0.84508 -0.0339,-1.02526 0.0825,-1.40176 0.13731,-0.4445 0.25452,-1.10728 0.21722,-1.23031 -0.0114,-0.0381 -0.0362,-0.20955 -0.0542,-0.381 -0.0865,-0.81148 -0.70379,-2.27727 -0.96176,-2.28415 -0.10478,-0.003 0.0863,0.39952 0.0804,0.64823 -0.004,0.1479 -0.28019,-0.0945 -0.32385,-0.21061 C 66.3177,12.279452 65.29271,10.11225 64.29814,9.593403 63.61445,9.277292 63.7097,9.109546 63.55995,9.109546 c 0.31168,0.497417 1.11628,1.801019 0.62336,2.528356 -0.57203,0.50853 -0.49583,-0.818089 -0.39158,-1.246714 0.099,-0.407459 -0.31142,-1.446742 -0.5215,-1.319477 -0.20214,0.120914 0.15531,-0.380736 0.19156,-0.500857 0.0767,-0.254 0.39105,-1.518708 -0.53261,-2.633662 -0.31062,-0.375179 -0.34766,-0.345281 -0.11668,0.09366 0.43154,0.821002 -0.0204,1.946539 -0.91016,2.268008 -0.15479,0.05556 -0.15505,0.06085 0.0249,-0.381 C 62.2331,7.165915 62.27834,6.933082 62.21061,6.464769 61.92962,4.520082 59.92143,4.175329 59.7812,4.211313 60.11299,4.397579 61.27451,6.41 60.43419,5.958621 60.22253,5.839823 59.38591,5.82289 58.99486,5.929251 58.64561,6.024241 58.5964,5.969471 58.81812,5.732666 60.04473,4.421656 58.38023,2.737583 58.07173,2.737583 c -0.5088,0 1.44462,0.946679 -0.0897,2.129895 -0.36619,0.281517 -0.37201,0.280988 -0.36248,-0.0344 0.12091,-4.015582 -6.52992,-1.960298 -6.18438,-3.203575 0.0804,-0.28919 0.0434,-0.851694 -0.0728,-1.10834 -0.10927,-0.242358 -0.10953,-0.242623 -0.0738,0.138906 0.0198,0.20955 0.006,0.490273 -0.0299,0.623359 -0.30904,1.137179 -2.01481,-0.751946 -4.28705,-0.847725 -0.19394,-0.0082 -0.30427,-0.04233 -0.28654,-0.0889 0.0452,-0.115623 0.62706,-0.244211 0.88847,-0.196321 0.18918,0.0344 0.23283,0.05821 0.16298,-0.01455 C 47.56588,0.103912 47.31796,9.94e-4 47.25949,9.94e-4 Z m -3.06044,13.677632 c -0.44,0.50933 -0.98795,0.44027 -1.19406,0.43657 -0.205051,-0.003 -0.205051,-0.003 0.055,0.15081 0.31115,0.18388 0.77258,0.12435 1.15305,-0.14923 0.12383,-0.0889 0.25189,-0.16166 0.28496,-0.16166 1.34144,0 -0.75724,0.6186 -0.82894,0.60325 -0.15425,-0.0397 -0.1569,-0.0352 -0.0439,0.0754 0.22675,0.22225 1.34937,0.0585 1.47479,0.23495 0.0423,0.0595 0.0479,0.0349 0.0172,-0.072 -0.0418,-0.14525 -0.0291,-0.15742 0.11536,-0.11244 0.11721,0.62441 0.83211,0.70061 1.30122,1.14035 0.80142,0.76041 2.17514,1.21179 2.65324,1.29302 0.47969,0.0815 0.98319,0.096 1.23825,0.0354 0.28099,-0.0664 0.2831,-0.0672 -0.0177,-0.0831 -0.16537,-0.008 -0.32465,-0.0206 -0.35401,-0.0275 -0.82815,-0.18812 -2.54344,-1.22635 -2.39819,-1.59517 0.27834,-0.2085 0.64955,0.17197 0.93054,0.27834 0.66622,0.24606 2.22938,0.31776 2.82919,-0.61675 0.38418,-0.6985 0.25188,0.25744 -0.17145,0.33391 -0.10451,0.0188 0.95515,-0.25268 0.93028,-0.59796 0.22039,0.62389 1.55733,1.09564 2.21271,1.5367 -0.0389,0.0619 0.94535,0.13044 1.06045,0.0743 0.05669,-0.02365 0.116033,-0.04034 0.17674,-0.0497 0.14102,-0.0212 0.25717,-0.0513 0.62389,-0.16404 0.21166,-0.0648 0.43656,-0.22649 0.73871,-0.53129 0.5207,-0.52519 0.57335,-0.53313 0.72761,-0.10927 0.27172,0.7456 0.86174,1.76186 2.07433,1.86373 0.21299,0.0177 0.508,0.0926 0.6559,0.16668 0.37359,0.18654 0.39053,0.16881 0.0871,-0.091 -0.14472,-0.12382 -0.29157,-0.21616 -0.32623,-0.20611 -0.0344,0.0106 -0.0447,-0.0106 -0.0217,-0.0466 -0.61119,-0.61621 -1.22423,-1.27926 -1.41684,-2.15423 -0.15055,-1.16788 -0.11695,-1.22476 0.14763,-0.25083 0.23813,0.87577 0.26062,0.91017 1.54411,2.34791 0.18336,0.20532 0.46302,0.41117 0.73766,0.5424 0.24659,0.11827 -1.08267,0.52334 -1.08267,0.58076 0,0.0714 0.0434,0.0892 0.14155,0.0587 0.18203,-0.0265 0.68606,1.3671 1.21973,2.0611 0.49927,0.8644 1.04695,0.51859 0.69056,0.80513 0,0.10054 0.14129,0.12091 0.14129,0.2323 0,0.0426 -0.26644,-0.16933 -0.59188,-0.47148 -1.05568,-0.97949 -1.30175,-1.04564 -0.3122,-0.0839 0.36089,0.3511 0.67918,0.63182 0.70696,0.62415 0.0691,0.37835 0.8263,0.8845 0.48022,0.8845 -0.0886,-0.0974 -1.02658,-1.12025 -1.29434,-1.1774 -0.12568,0 0.58685,0.71068 0.58685,0.79719 0,0.10663 0.86254,0.87604 0.74453,0.98955 -0.0738,0.0714 -0.64029,-0.66543 -0.71702,-0.59003 -0.0783,0.0767 0.3683,0.42122 0.38285,0.68025 0.006,0.0953 2.67388,1.28005 3.37609,2.9882 -0.77417,1.82669 0.0267,3.85869 -0.20029,5.77559 -0.0378,3.81424 -0.47678,7.60942 -0.65008,11.41333 -0.51118,3.25438 -0.58473,6.82943 -2.7432,9.51786 -0.5043,-0.95779 -0.0167,1.13559 -0.5035,0.18521 0.50614,1.18798 -1.11972,-0.23442 -0.3818,0.88503 -0.86519,0.78078 -1.65259,2.4347 -2.22356,1.45124 0.25665,0.73951 0.13653,1.37001 -0.39317,0.16933 -0.112504,-0.195147 -0.223103,-0.391386 -0.33178,-0.58869 0.18732,0.37783 0.56224,1.22238 0.40084,1.53591 -0.49715,-1.10411 -1.10304,-1.83965 -0.47334,-0.18415 0.84932,2.25319 -2.18889,-3.02207 -0.81041,-0.37518 0.38311,1.52373 0.18362,1.46209 -0.68554,0.32279 0.47202,0.98425 0.45958,1.80658 -0.20638,0.39582 -0.83661,-1.31498 -0.76993,-0.94139 -0.22304,0.22198 0.78555,2.56038 -2.12116,-2.43681 -0.7112,0.0804 0.92154,1.91083 -0.005,1.11258 -0.41883,0.43789 0.39687,1.02764 0.24182,2.46433 -0.16087,0.60246 -0.37703,-2.24235 -0.0735,2.68181 -0.36407,0.7575 -0.55377,-1.47479 -0.63447,0.14023 -0.61833,0.58076 -0.449,-1.38695 -0.66199,-1.1311 -0.52996,0.1815 -0.53684,1.66688 -0.694,-2.52307 -1.28111,-1.29646 0.31379,0.7964 -0.29925,2.59027 -0.69824,0.57706 -0.52043,-0.84773 -1.92325,-2.36538 -0.59134,-0.5043 0.62336,0.85673 -0.0635,2.70722 -0.12912,0.76915 -0.56726,-1.79044 0.42069,3.2557 -0.26961,0.46434 -0.68897,-2.3032 -0.43206,3.51155 -0.55615,0.62971 -0.36169,-2.76596 -0.81148,2.72891 -0.72337,0.30401 0.16298,-0.94457 -1.31022,-3.05806 -0.57574,-0.95991 0.38735,1.04113 -0.67654,2.58365 -0.22727,0.72972 -0.0564,-1.18613 -0.88212,-2.9427 -0.48816,-0.67998 0.60457,0.91757 -0.38523,0.41116 -0.14261,1.58115 -0.27146,-0.60695 -0.0675,-2.59953 -0.58632,-0.9234 0.0661,-0.75988 -0.32491,-3.39196 -0.24236,-1.11283 -0.0138,1.00541 -0.43841,2.77971 -0.72495,0.84296 -0.635,-0.9316 -0.0844,2.42491 -0.51912,0.28681 -0.0751,-0.82894 -1.16099,-0.87683 -0.20637,-2.09259 0.84984,-2.36167 -1.54252,3.19431 -0.59928,0.38788 0.69665,-2.78765 -1.13559,3.48694 -0.67548,0.49583 -0.31142,-1.36896 -0.17383,3.53483 -0.59161,1.13691 -0.2167,-1.07156 0.6985,-3.41365 -0.3646,-1.19327 -0.20955,1.18084 -0.547691,2.10714 -0.425981,0.33523 0.146581,-0.84852 1.486961,-2.69955 0.124621,-1.19486 -0.759351,0.41857 -1.023411,3.36074 -0.833441,1.09167 0.51091,-1.05225 -0.0865,-1.7735 -0.38708,-0.30903 -0.40481,1.01864 -0.19421,-0.508 0.0394,-0.93293 h -2.7e-4 c -0.40851,0.52494 0.41117,-1.76874 -0.23786,-0.12356 -0.61859,0.38021 -0.38549,2.86068 -0.73686,0.97791 -0.38894,0.18256 0.0595,-1.56184 -0.51435,-0.13971 -1.51606,0.62627 1.82192,-3.4962 0.0754,-1.4642 -0.59664,0.42175 -1.42266,2.37331 -0.89588,0.3048 -0.28575,-0.64611 1.14353,-2.10741 0.72125,-1.82748 -1.14008,0.79825 -1.07685,1.51183 -1.47028,2.52466 -0.79852,-1.14988 2.36511,-3.82429 0.1524,-1.93305 -0.88953,0.59134 1.1938,-1.56527 -0.0794,-0.30983 -0.9279,0.8054 0.007,-0.90196 -0.76333,0.32121 -1.44991,0.45111 1.42399,-2.1299 -0.43497,-0.58553 -1.59359,2.75273 -1.63857,0.95436 -0.83423,-0.0582 -1.04855,0.84403 -1.25942,1.59438 -1.09855,0.53949 -0.47731,0.66781 -0.99748,0.13123 -1.12554,-0.36327 -0.47043,0.1905 -1.57163,-2.1471 -1.68751,-3.45731 -1.37451,-3.53881 -1.88384,-7.33928 -2.54953,-11.05906 -0.56409,-2.5863 -0.98187,-5.21917 -1.1938,-7.86818 0.082,-1.3462 0.34264,-5.54778 0.54425,-5.91661 0.0151,-0.0275 0.35983,-0.41831 0.50059,-0.56356 0.0228,0.002 0.0458,-0.0167 0.0582,-0.0508 2.58e-4,-6.42e-4 4.36e-4,-0.0013 5.3e-4,-0.002 v -5.3e-4 h -7.9e-4 c -0.005,7.9e-4 -0.0262,0.0206 -0.0577,0.0532 -0.0099,-0.0011 -0.0191,-0.0055 -0.0262,-0.0124 -0.0291,-0.0265 0.022,-0.15029 0.11297,-0.27543 0.091,-0.12542 0.16748,-0.25929 0.17092,-0.29819 0.0111,-0.14658 0.25109,-0.65564 0.45773,-0.97128 0.89112,-1.35943 -0.17727,-0.096 -0.17727,0.0635 -5.3e-4,0.0847 -0.26987,0.15875 -0.11668,0.0537 0.0815,-0.0556 0.0815,-0.0712 0,-0.0984 0.0564,-0.8636 1.50469,-3.03504 0.87022,-2.44661 -0.84006,1.211 -0.96917,0.90117 -0.16352,-0.24447 0.91705,-1.29143 0.25665,-0.65485 -0.0167,-0.36301 -0.16324,0.20558 -0.25611,0.27834 -0.25611,0.20188 0,-0.16325 0.1098,-0.35454 0.46143,-0.80328 1.20597,-1.53908 -0.34396,0.0688 -0.3683,0.045 -0.0701,-0.0688 0.20108,-0.51858 0.50721,-0.84137 0.37994,-0.40085 -0.31327,-1.34223 -0.43471,-1.38166 -0.17436,-0.0569 -0.0931,-0.49953 0.0918,-0.49953 0.34819,0 0.88714,-1.47929 1.19512,-1.69492 0.32702,-0.20982 0.32914,0.16034 0.61013,0.25082 0.20055,0.0654 -0.73898,1.15174 -1.16311,1.34488 -0.54875,0.25003 -0.72205,0.37624 -0.51541,0.37624 0.55404,0 1.39012,-0.34131 1.78673,-0.72999 0.13732,-0.13414 0.24951,-0.22542 0.24951,-0.20267 0,0.0357 0.23918,-0.25241 0.83661,-1.00859 0.17859,-0.22595 0.31009,-0.67442 0.20717,-0.70802 -0.0987,-0.0318 -0.003,-0.6104 0.0905,-0.46329 0.0344,0.0542 0.59134,0.65987 0.94244,0.82391 0.3937,0.14552 1.61793,0.0839 1.58195,-0.0799 -0.009,-0.0397 0.037,-0.0804 0.10133,-0.091 0.0646,-0.0106 0.17595,-0.0529 0.24765,-0.0937 0.34661,-0.19711 -1.93357,0.58314 -2.27806,-0.7874 -0.1233,-0.49054 -0.068,-0.81491 0.13917,-0.81491 0.14922,0 0.81915,-1.10252 0.81915,-0.41381 0,0.0608 1.07553,1.97617 2.75907,1.36604 0.0582,-0.0212 0.1614,-0.0556 0.22966,-0.0775 0.40085,-0.12647 0.0148,-0.17039 -0.72601,-0.0825 -0.35005,0.0415 -0.82815,-0.13626 -0.79375,-0.29554 -0.22411,-0.12779 -0.69162,-0.52864 -0.80857,-0.83899 -0.0653,-0.17357 -0.14076,-0.34661 -0.16669,-0.38471 0.42095,-2.10767 0.53234,0.16405 1.10331,0.76174 0.50324,0.45773 0.61966,0.51064 1.07315,0.48683 0.40058,-0.0212 0.72046,0.16669 0.72973,0.42757 0.35771,1.04457 0.0164,0.11298 0.52017,0.58764 0.24288,0.29474 0.37359,0.50244 0.7231,0.67945 0.1741,0.20108 2.513011,0.39052 2.729441,-0.40534 0.0836,-0.30692 0.055,-0.32094 -0.29368,-0.14288 -1.202011,0.61357 -2.419881,-0.45164 -1.798381,-1.57268 0.8689,-1.56686 3.448051,-2.19604 2.818351,-1.61661 z m -2.434431,44.27353 c 0.0167,-0.0217 0.0352,-0.0476 0.0564,-0.0794 -0.0188,0.018 -0.0376,0.045 -0.0564,0.0794 z M 68.88262,28.175742 c 1.66423,1.23455 0.80831,3.77587 0.53658,5.48217 -0.0979,2.34236 -0.88159,4.73419 -2.28388,6.4344 2.19974,-1.76027 -1.22608,4.29842 -1.65921,1.21312 -0.79904,-2.41486 2.33363,-3.09828 2.73341,-4.85828 0.19447,-0.91996 -1.27,-3.5613 -0.57361,-1.19645 0.75353,1.19142 -1.14697,3.48589 -1.18613,1.14697 -0.70009,-1.65021 0.49636,-3.78301 1.77535,-4.58946 0.77656,0.55562 0.50642,2.30214 0.78635,0.50879 0.19843,-1.05648 0.55403,-4.1275 -0.76835,-1.90209 -0.67363,0.77364 -1.61211,3.29301 -2.16165,2.83316 -0.45694,-2.42544 0.17357,-4.454 2.80114,-5.07206 z m -42.125631,2.85724 c 1.39012,0.002 2.33362,3.62161 1.30254,3.10621 -0.61463,-0.95356 -2.21879,-2.67759 -1.13215,-0.46302 0.0958,0.96678 0.4609,3.65733 0.91096,1.43324 2.13863,1.01151 -0.64029,3.54912 1.08241,4.99957 0.76385,0.87498 1.41923,2.94931 0.96917,3.65442 -1.55099,-2.26695 -2.24314,-5.01385 -3.11785,-7.59142 -0.18389,-1.60787 -1.07659,-3.67639 -0.15108,-5.12763 0.0458,-0.008 0.091,-0.0114 0.136,-0.0114 z m 18.401771,0.71014 c -0.0484,0.0939 -0.0884,0.2196 -0.0884,0.27913 0,0.0595 -0.0558,0.15161 -0.12435,0.20479 -0.0564,0.0442 -0.082,0.0669 -0.0767,0.0725 0.004,0.004 0.0267,-0.002 0.0664,-0.0151 -0.0106,0.4834 0.13758,1.28006 0.13546,1.64571 -0.006,0.34581 0.0161,0.60113 0.099,1.12369 0.0418,0.26458 0.023,0.30744 -0.28178,0.63817 -0.17992,0.195 -0.39105,0.45032 -0.46964,0.56727 -0.0154,0.023 -0.0212,0.036 -0.0185,0.0397 l 2.7e-4,5.3e-4 h 2.6e-4 c 0.0164,0.008 0.16828,-0.12938 0.39132,-0.35931 0.5162,-0.53181 0.51594,-0.53181 0.48684,-1.02817 -0.0164,-0.27305 -0.0307,-1.13638 -0.0307,-1.91823 -0.0526,-0.41354 -0.0767,-1.27529 -0.0892,-1.25068 z m -0.64003,6.43731 c -0.23336,0.28893 -0.29713,0.45217 -0.13626,0.34846 0.19659,-0.12647 -0.0878,0.41169 -0.4056,0.76782 -0.0516,0.0577 -0.2167,0.26617 -0.36645,0.46302 -0.715171,0.93874 -0.742421,0.96176 -0.70062,0.5879 0.0217,-0.19394 0.12965,-0.42677 0.25559,-0.5498 0.28363,-0.27781 0.26379,-0.43074 0.0754,-0.23442 -0.824711,0.85937 0.61436,-1.1258 -0.10848,-0.35534 -0.279931,0.29845 -0.475721,0.70221 -0.475721,0.98161 0,0.24447 -0.18098,0.21828 -0.18283,0.0667 -10e-4,-0.0799 -0.0288,-0.0733 -0.086,0.0212 -0.0466,0.0767 -0.0497,0.16192 -0.007,0.18944 0.072,0.0466 -0.0728,0.85196 -0.25876,1.43854 -0.0632,0.19923 -0.0537,0.24262 0.0455,0.20293 0.17727,-0.0709 0.16113,0.25215 -0.027,0.54028 -0.15187,0.23284 -0.15187,0.23389 0.0386,0.0609 0.20293,-0.18468 0.42862,0.0291 0.43286,0.41011 10e-4,0.0881 0.072,0.13176 0.18785,0.11536 0.588701,-0.0841 0.788201,0.21563 0.400051,0.60166 -0.20505,0.20426 -0.542661,0.62045 -0.750091,0.92498 -0.20744,0.3048 -0.39317,0.5043 -0.41249,0.44397 -0.0439,-0.13705 -0.37967,0.15849 -0.37967,0.33417 0,0.0656 -0.0347,0.13335 -0.0773,0.15081 -0.0423,0.0175 -0.19236,0.22331 -0.33312,0.4572 -0.15531,0.25824 -0.27199,0.37492 -0.29712,0.29687 -0.0228,-0.0709 0.005,-0.15875 0.0622,-0.19553 0.14552,-0.0939 0.4617,-0.76359 0.36036,-0.76359 -0.0463,0 -0.11139,0.0746 -0.14499,0.16537 -0.0333,0.091 -0.14446,0.25294 -0.24686,0.35983 -0.124698,0.134284 -0.240478,0.276581 -0.3466,0.42598 -0.0238,0.0352 -0.0386,0.0508 -0.0442,0.0492 h -8e-4 v -2.7e-4 h -2.6e-4 c -0.0109,-0.0106 0.0378,-0.13493 0.1352,-0.33734 0.13811,-0.28628 0.26459,-0.55271 0.28178,-0.59161 0.0169,-0.0392 -0.0135,-0.0712 -0.0677,-0.0712 -0.054,0 -0.0984,0.0566 -0.0984,0.12568 0,0.0688 -0.10848,0.2286 -0.24156,0.3548 -0.17621,0.16749 -0.22648,0.18601 -0.186,0.068 0.0492,-0.14287 0.0185,-0.13943 -0.26961,0.0291 -0.29819,0.17463 -0.32015,0.17622 -0.263,0.0217 0.0468,-0.12726 0.002,-0.11112 -0.18468,0.0659 -0.55113,0.52361 -0.87339,0.95727 -1.13559,1.52718 -0.132029,0.289095 -0.268925,0.575943 -0.41063,0.86042 -0.22225,0.42969 -0.0606,0.29422 0.28178,-0.23548 0.372,-0.57573 0.41989,-0.55721 0.0942,0.0365 -0.36089,0.65776 -0.22278,0.81413 0.17727,0.20082 0.53446,-0.81968 -0.0209,0.35322 -0.1225,0.35322 -0.037,0 -0.15928,0.17013 -0.27173,0.37836 -0.38973,0.72284 0.002,0.3503 0.68871,-0.65458 0.18362,-0.27041 -0.0238,0.55933 -0.16669,0.55933 -0.0318,0 -0.1262,0.11774 -0.20981,0.26088 -0.0762,0.13017 -0.11404,0.19526 -0.11113,0.20187 v 2.7e-4 h 8e-4 c 0.008,-10e-4 0.0519,-0.0529 0.13308,-0.14949 0.12806,-0.15214 0.2503,-0.19765 0.45747,-0.17039 0.19764,0.0262 0.31009,-0.0111 0.37306,-0.12356 0.081,-0.14473 0.0902,-0.14209 0.0953,0.0286 0.005,0.18917 0.005,0.18917 0.10901,0 0.16774,-0.30692 0.44,-0.51303 0.59531,-0.45085 0.1053,0.0421 0.12965,0.0167 0.0892,-0.0929 -0.0132,-0.40614 0.34264,-0.14976 -0.0593,0.34607 -0.11457,0.127 -0.077,0.13494 -0.13335,0.15346 -0.0855,0.0519 0.37174,-0.15981 0.46434,-0.21802 0.01,-0.11694 0.29792,-0.12435 0.4146,-0.23839 0.11642,-0.11403 0.24739,-0.20743 0.29105,-0.20743 0.18256,0 0.5789,-0.64505 0.46037,-0.18918 -0.0614,0.23654 -0.0614,0.23654 0.12727,0.0103 0.12938,-0.15504 0.63844,-0.34501 0.63844,-0.31194 0,0.0585 0.0608,0.0818 0.13573,0.0521 0.0746,-0.0299 0.11297,-0.0926 0.0855,-0.13891 -0.0278,-0.0468 0.0135,-0.0847 0.0913,-0.0847 0.0781,0 0.141811,-0.0452 0.141811,-0.10054 0,-0.1479 0.12251,0.0789 0.33867,-0.10451 0.13123,-0.11086 0.14182,-0.10319 0.0868,0.063 -0.0291,0.0873 -0.0444,0.13414 -0.0389,0.14102 v 2.7e-4 h 2.7e-4 v 2.6e-4 h 7.9e-4 v 2.7e-4 h 5.3e-4 c 0.01,7.9e-4 0.045,-0.0466 0.11642,-0.14182 0.0778,-0.10424 0.20955,-0.17462 0.29262,-0.1569 0.0836,0.018 0.24527,-0.0878 0.36143,-0.23653 0.15451,-0.19791 0.19473,-0.21908 0.15187,-0.0799 -0.0317,0.10424 0.0275,0.0511 0.13202,-0.11827 0.22622,-0.36619 0.30745,-0.39317 0.23125,-0.0765 -0.0638,0.26511 0.0204,0.46302 0.15901,0.37385 0.0609,-0.0392 0.0505,-0.0897 -0.0291,-0.14208 -0.0958,-0.0635 -0.0878,-0.0828 0.036,-0.0828 0.0873,-7.9e-4 0.15875,-0.0653 0.15875,-0.1434 0,-0.078 0.0333,-0.14208 0.0741,-0.14208 0.054,-0.1196 0.30084,0.0926 0.39397,0 0.12806,-0.1532 0.1778,-0.17807 0.14023,-0.0709 0.51726,-0.60325 0.39343,-0.81174 0.50641,-0.003 0.0228,0.0667 0.005,0.19499 -0.0389,0.28495 -0.0603,0.12198 -0.0487,0.15082 0.0452,0.11324 0.0693,-0.0278 0.17145,-0.15478 0.22728,-0.28204 -0.004,-0.19844 0.37994,-0.24712 0.21881,-0.16881 -0.16828,0.0709 -0.13838,0.22411 0.082,0.42334 0.25347,0.22913 0.26643,0.22648 0.52625,-0.10134 0.21802,-0.27516 0.22225,-0.27596 0.37704,-0.09 0.109,0.13124 0.17621,0.15478 0.22172,0.078 0.0357,-0.0603 0.009,-0.15081 -0.0601,-0.20108 -0.0974,-0.0709 -0.0997,-0.10213 -0.0111,-0.13944 0.0627,-0.0265 0.091,-0.0873 0.0627,-0.13493 -0.028,-0.0476 -0.0161,-0.0865 0.0265,-0.0865 0.0431,0 0.0608,-0.15955 0.0402,-0.35481 -0.0212,-0.19526 -0.0148,-0.33205 0.014,-0.30427 0.0286,0.0283 0.0627,0.21378 0.0754,0.41248 0.0246,0.37809 0.38761,0.67602 0.53049,0.43524 0.0937,-0.15822 0.30268,0.15637 0.23547,0.35455 -0.0349,0.10213 0.0132,0.0751 0.12409,-0.0699 0.0995,-0.13018 0.18257,-0.19394 0.18415,-0.14209 0.007,0.19897 0.17992,-0.20108 0.18389,-0.42597 0.004,-0.23151 0.007,-0.23257 0.14155,-0.0471 0.0754,0.10398 0.17304,0.18917 0.2167,0.18917 0.0437,0 0.1098,0.0318 0.14737,0.0709 0.17674,0.18442 0.22675,0.0439 0.0529,-0.14896 -0.10901,-0.12091 -0.1741,-0.24527 -0.14446,-0.27596 0.0926,-0.0968 0.40216,0.24474 0.40322,0.44609 0.001,0.14023 0.022,0.15822 0.0775,0.0667 0.0622,-0.10213 0.14235,-0.0942 0.43021,0.0423 0.19447,0.0921 0.39476,0.18574 0.4445,0.20796 0.0503,0.0225 0.0397,-0.0159 -0.0225,-0.0847 -0.1389,-0.15346 -0.14658,-0.27702 -0.0175,-0.27702 0.0529,0 0.0746,0.0363 0.0484,0.0804 -0.0661,0.11113 0.32676,0.31618 0.6403,0.33417 0.14287,0.008 0.31511,0.0513 0.38338,0.0963 0.0783,0.0516 0.15266,0.0336 0.20293,-0.0492 0.0474,-0.0778 0.0799,-0.0871 0.0807,-0.0225 8e-4,0.0593 0.11377,0.13706 0.25109,0.17304 0.13758,0.0357 0.38259,0.17039 0.54504,0.29898 0.16246,0.12885 0.29528,0.18918 0.29528,0.13441 0,-0.0545 -0.0513,-0.10266 -0.11377,-0.1069 -0.0852,-0.006 -0.0862,-0.0188 -0.004,-0.0535 0.0601,-0.0257 0.25797,0.095 0.43947,0.26776 0.45667,0.43392 0.63685,0.53711 0.47943,0.27438 -0.0648,-0.10848 -0.14923,-0.19712 -0.18707,-0.19712 -0.0378,0 -0.0688,-0.0426 -0.0688,-0.0947 0,-0.12541 0.33576,-0.12435 0.40932,0 0.0315,0.0529 0.10556,0.0675 0.16457,0.0323 0.059,-0.0354 0.0767,-0.0294 0.0397,0.0132 -0.0992,0.1143 0.10504,0.32861 0.25558,0.26829 0.0714,-0.0286 0.12965,0.004 0.12965,0.072 0,0.0915 0.0267,0.096 0.10213,0.0175 0.0561,-0.0593 0.15875,-0.0836 0.22781,-0.0556 0.091,0.0362 0.10953,0.001 0.0656,-0.12568 -0.0431,-0.12435 0.023,-0.0926 0.22357,0.10769 0.1561,0.1561 0.28548,0.31591 0.28681,0.3548 10e-4,0.0392 0.0741,0.14658 0.16139,0.23866 0.0873,0.0923 0.22754,0.27331 0.31168,0.40216 0.1524,0.2331 0.1524,0.2331 0.10663,-0.003 -0.045,-0.23283 -0.0434,-0.23362 0.10954,-0.0471 0.25479,0.31089 0.0979,-0.0728 -0.34052,-0.83132 -0.4326,-0.7493 -0.41857,-0.96467 0.0169,-0.25717 0.33152,0.53816 0.49371,0.57679 0.19314,0.046 -0.2196,-0.38815 -0.22833,-0.42466 -0.10054,-0.42466 0.15108,0 0.43471,0.56647 0.39423,0.78793 -0.0177,0.0966 -0.027,0.14764 -0.023,0.15425 v 2.7e-4 h 2.6e-4 v 2.6e-4 h 8e-4 c 0.007,-0.003 0.0288,-0.0529 0.0706,-0.15028 0.055,-0.12832 0.0537,-0.33417 -0.004,-0.5678 -0.0497,-0.20161 -0.11271,-0.46302 -0.14023,-0.58102 -0.0273,-0.11801 -0.0857,-0.2376 -0.12965,-0.26591 -0.10689,-0.0688 -0.10318,-0.41883 0.005,-0.41883 0.0849,0 0.20902,0.30242 0.23284,0.56779 0.0193,0.22093 0.34501,0.94642 0.42439,0.94642 0.0815,0 -0.0701,-0.45588 -0.20982,-0.63156 -0.0516,-0.0646 -0.0635,-0.16828 -0.0265,-0.23072 0.045,-0.0749 0.0291,-0.0884 -0.0471,-0.0397 -0.0844,0.0545 -0.0984,0.0206 -0.0532,-0.12806 0.0357,-0.11695 0.002,-0.32544 -0.0796,-0.49636 -0.0775,-0.16219 -0.11826,-0.33337 -0.0905,-0.38047 0.0281,-0.0468 -0.003,-0.0735 -0.0696,-0.0593 -0.11377,-0.43524 -0.75485,-0.77681 -0.75803,-0.78581 -0.0331,-0.10795 -0.081,-0.17463 -0.10662,-0.1479 -0.0254,0.0267 0.019,0.18573 0.0992,0.35322 0.0781,0.16324 0.11377,0.23891 0.10213,0.24712 -0.0106,0.006 -0.0556,-0.036 -0.13785,-0.11377 -0.10001,-0.0942 -0.18204,-0.22887 -0.18204,-0.29898 0,-0.0699 -0.078,-0.127 -0.17383,-0.127 -0.0958,0 -0.18785,-0.0413 -0.20452,-0.0916 -0.0193,-0.0569 -0.0796,-0.0574 -0.16669,0 -0.11588,0.0767 -0.11271,0.0916 0.023,0.0916 0.10213,7.9e-4 0.15875,0.0749 0.15875,0.2069 0,0.11298 0.0587,0.27305 0.13018,0.35534 0.14102,0.16219 0.7792,1.46923 0.77655,1.58988 0,0.002 -5.3e-4,0.004 -0.001,0.005 v 2.6e-4 h -2.9e-4 l -2.7e-4,2.7e-4 h -2.6e-4 l -2.6e-4,2.6e-4 h -0.001 c -0.0196,5.3e-4 -0.12648,-0.16933 -0.25348,-0.40481 -0.247315,-0.460122 -0.499017,-0.917873 -0.75507,-1.37319 -0.17569,-0.31036 -0.71173,-0.91599 -0.71147,-0.80407 0,0.0521 0.0815,0.22225 0.18071,0.37862 0.24871,0.39158 0.2294,0.62389 -0.0228,0.27305 -0.32067,-0.44609 -0.70379,-0.84878 -0.70379,-0.73978 0,0.0548 0.0601,0.18204 0.13335,0.28311 0.0733,0.10107 0.13467,0.25823 0.13626,0.34925 0.002,0.0913 0.054,0.16721 0.11642,0.16721 0.0788,0.001 0.0735,0.0275 -0.0169,0.0873 -0.10901,0.072 -0.1106,0.11113 -0.01,0.2376 0.0664,0.0833 0.0974,0.17568 0.0688,0.20532 -0.0283,0.0296 -0.13653,-0.1098 -0.24025,-0.30983 -0.18891,-0.36407 -0.18891,-0.36407 -0.13123,0.0145 0.0579,0.37862 0.0579,0.37862 -0.32808,-0.21828 -0.45694,-0.70644 -0.97843,-1.30307 -1.0623,-1.2155 -0.0328,0.0344 0.0291,0.16061 0.13758,0.28073 0.10848,0.12038 0.19711,0.26273 0.19711,0.31644 0,0.0534 0.0818,0.17462 0.18151,0.26881 0.10001,0.0942 0.18177,0.21564 0.18177,0.26988 0,0.0542 -0.14526,-0.0482 -0.32279,-0.22754 -0.22517,-0.22754 -0.39027,-0.31697 -0.54505,-0.29581 -0.12223,0.0167 -0.22225,-0.009 -0.22225,-0.0574 0,-0.0484 -0.15081,-0.29368 -0.33496,-0.54504 -0.38947,-0.53128 -0.52493,-0.40481 -0.16801,0.15743 0.35295,0.55589 0.23019,0.6686 -0.15531,0.14234 -0.18124,-0.24712 -0.3466,-0.50006 -0.36777,-0.56171 -0.0214,-0.0619 -0.0683,-0.0844 -0.10398,-0.0495 -0.0754,0.0725 0.0812,0.41884 0.31353,0.69401 0.0881,0.10424 0.18706,0.2958 0.22013,0.42598 0.0497,0.19579 0.0431,0.20822 -0.0386,0.0728 -0.0542,-0.09 -0.22304,-0.30295 -0.37491,-0.47308 -0.15187,-0.17013 -0.39741,-0.52229 -0.54531,-0.78264 -0.26881,-0.47334 -0.26881,-0.4736 -0.20955,-0.11853 0.0751,0.44926 -0.0217,0.44635 -0.38682,-0.0119 -0.22648,-0.28469 -0.26617,-0.38973 -0.18177,-0.48313 0.0865,-0.0958 0.0688,-0.0984 -0.0902,-0.0132 -0.29898,0.16007 -0.47545,0.11986 -0.18785,-0.0426 0.13758,-0.0778 0.25003,-0.16351 0.25003,-0.19103 0,-0.0275 -0.0415,-0.023 -0.0926,0.01 -0.33602,0.21643 -0.75353,0.0405 -0.58367,-0.24606 0.0728,-0.1225 0.313,-0.10716 0.313,0.0198 0,0.0746 0.0397,0.072 0.13309,-0.009 0.0733,-0.0632 0.18573,-0.0963 0.24976,-0.0733 0.0643,0.023 0.32438,-0.0794 0.57838,-0.22754 0.254,-0.14843 0.48207,-0.24871 0.50694,-0.22225 0.0251,0.0259 0.0476,-0.006 0.05,-0.0712 0.002,-0.0651 0.0307,-0.18389 0.0627,-0.26379 0.0426,-0.10584 -0.0534,-0.20241 -0.35242,-0.35375 -0.22622,-0.11457 -0.41116,-0.17092 -0.41116,-0.12541 0,0.0458 -0.13282,0.10901 -0.29501,0.14128 -0.16246,0.0317 -0.42334,0.18336 -0.58024,0.33655 -0.20028,0.1958 -1.17342,1.14036 -1.29063,1.14036 -0.0492,0 -0.11007,-0.0529 -0.13547,-0.11801 -0.0273,-0.0709 -0.0487,-0.0516 -0.0529,0.0474 -0.0148,0.33788 -1.36737,0.14076 -1.36895,-0.19949 -5.3e-4,-0.0804 0.0553,-0.1061 0.14843,-0.0688 0.11774,0.0471 0.12753,0.0325 0.046,-0.0696 -0.0564,-0.0712 -0.0759,-0.15716 -0.0429,-0.19156 0.0328,-0.0344 0.0119,-0.0622 -0.0463,-0.0622 -0.0582,0 -0.10663,0.0317 -0.10742,0.0709 -0.005,0.22331 -0.1651,0.33682 -0.28972,0.20452 -0.10663,-0.11324 -0.10689,-0.16933 -10e-4,-0.37015 0.0619,-0.11747 0.0931,-0.17648 0.10398,-0.17462 l 2.6e-4,2.6e-4 5.3e-4,2.7e-4 c 0.009,0.007 -5.3e-4,0.0717 -0.0196,0.1979 -0.022,0.14288 -0.005,0.26009 0.0386,0.26009 0.0712,0 0.11272,-0.13758 0.091,-0.30057 -0.0143,-0.10848 1.39012,-0.055 1.46156,0.0556 0.0418,0.064 0.0672,0.0445 0.0683,-0.0524 10e-4,-0.15266 0.25612,-0.32067 0.34528,-0.22754 0.0667,0.0693 -0.25294,0.12462 -0.25294,0.26062 0,0.0516 0.22807,-0.1233 0.50668,-0.38894 0.27887,-0.26538 0.56144,-0.4826 0.62812,-0.4826 0.0669,0 0.136,-0.045 0.15346,-0.10001 0.0177,-0.0548 0.10266,-0.0714 0.18891,-0.0373 0.086,0.0344 0.1315,0.10504 0.10054,0.15689 -0.031,0.0524 0.0296,0.0463 0.13679,-0.0132 0.23283,-0.13123 0.25506,-0.21378 0.0339,-0.12753 -0.13917,0.0545 -0.1434,0.0423 -0.0344,-0.0976 0.10742,-0.13758 0.10425,-0.15954 -0.0228,-0.15954 -0.081,0 -0.1479,0.0529 -0.14869,0.11827 -0.001,0.09 -0.0193,0.0884 -0.077,-0.006 -0.059,-0.0968 -0.13415,-0.073 -0.33973,0.10716 -0.89244,0.78263 -1.98014,1.00912 -3.07499,0.64029 -0.55774,-0.18759 -0.62309,-0.19262 -0.71966,-0.0548 -0.19527,0.27834 -0.5207,0.041 -0.20691,-0.32041 0.0839,-0.0966 -0.0492,-0.32279 -0.0857,-0.29528 -0.41116,0.30533 -0.18441,0.36619 -0.73845,0.66225 -0.18653,0.10425 -0.39105,0.18945 -0.45429,0.18945 -0.13652,0 -0.15531,0.43603 -0.0225,0.52149 0.0508,0.0328 0.0653,0.10451 0.0328,0.15981 -0.0376,0.0635 -0.09,0.0437 -0.14235,-0.054 -0.0455,-0.0847 -0.13176,-0.15267 -0.19155,-0.15267 -0.0667,8e-4 -0.0564,0.037 0.027,0.0931 0.11747,0.0794 0.11509,0.0934 -0.0172,0.0934 -0.29792,0.003 -0.26591,-0.19896 0.09,-0.56991 0.18732,-0.195 0.31961,-0.35666 0.30718,-0.37386 l -5.3e-4,-5.2e-4 c -8.98e-4,-5.61e-4 -0.0019,-8.39e-4 -0.003,-8e-4 -0.031,0 0.0556,-0.10848 0.19235,-0.2405 0.13679,-0.1323 0.24871,-0.26644 0.24871,-0.29872 0,-0.0728 -0.33999,0.22596 -0.61383,0.53922 -0.17728,0.20294 -0.22067,0.21643 -0.30428,0.0945 -0.0815,-0.11827 -0.0889,-0.11298 -0.0442,0.0304 0.0754,0.24236 -0.118,0.61066 -0.22674,0.4318 -0.15822,-0.26035 0.16668,-0.83079 0.39132,-0.68633 0.0606,0.0389 0.0733,0.0201 0.0328,-0.0482 -0.04,-0.0675 0.15663,-0.37385 0.49477,-0.77152 1.25756,-1.4777 -0.0818,-0.16166 -0.76835,0.76941 -0.14976,0.20267 -0.29978,0.36883 -0.33364,0.36883 -0.145001,0 -0.164571,-0.32465 -0.0291,-0.48102 0.0812,-0.0934 0.12091,-0.21431 0.0884,-0.26908 -0.0328,-0.0548 -0.006,-0.0815 0.0593,-0.0585 0.0651,0.0225 0.2196,-0.0952 0.34343,-0.26141 0.12409,-0.16615 0.15478,-0.24394 0.0683,-0.1725 -0.32385,0.26749 -0.13574,-0.055 0.35189,-0.60325 0.27781,-0.31221 0.54584,-0.653 0.59531,-0.75724 0.05,-0.10398 -0.0386,-0.0402 -0.19685,0.14208 -0.15795,0.18203 -0.43709,0.50191 -0.62018,0.71014 -0.55774,0.63553 -0.61542,0.72575 -0.41381,0.64664 0.14949,-0.0582 0.15611,-0.0471 0.0516,0.0868 -0.068,0.0873 -0.18335,0.12885 -0.26564,0.096 -0.10716,-0.0431 -0.13017,-0.0175 -0.0878,0.0974 0.0312,0.0855 0.0228,0.17727 -0.0193,0.20453 -0.149221,0.096 -0.163511,-0.42254 -0.0167,-0.60643 0.0804,-0.10107 0.23469,-0.30295 0.3429,-0.449 0.118173,-0.159126 0.239284,-0.31605 0.36327,-0.47069 0.0918,-0.11271 0.22807,-0.28363 0.30295,-0.37968 0.0751,-0.0963 0.25136,-0.31961 0.39238,-0.49609 0.17595,-0.22093 0.52493,-1.2663 0.19791,-0.87657 z m 6.60771,0.44635 c -0.11272,0.003 -0.001,0.38709 0.33549,1.07501 0.50535,1.03187 0.0632,3.07498 -0.60722,2.80696 -0.068,-0.0272 -0.10054,-0.0106 -0.0728,0.0365 0.0281,0.0474 -0.009,0.14817 -0.082,0.22437 -0.15584,0.16245 -0.0937,0.26696 0.1106,0.18521 0.10583,-0.0423 0.12805,-0.0159 0.0847,0.10107 -0.0317,0.0873 -0.0185,0.15875 0.0299,0.15875 0.0481,0 0.0878,-0.0669 0.0878,-0.1487 0,-0.1053 0.0529,-0.1307 0.1815,-0.0881 0.10001,0.0331 0.18177,0.0233 0.18177,-0.0212 0,-0.0447 0.16219,-0.26776 0.3601,-0.49583 0.78316,-0.9017 0.66833,-2.42596 -0.2667,-3.53563 -0.17198,-0.20373 -0.28628,-0.30003 -0.34317,-0.29845 z m -6.9395,4.18174 c 0.0908,0 0.21617,0.0479 0.46673,0.1442 0.62283,0.23945 0.59002,0.19844 0.4019,0.49795 -0.16378,0.26008 -0.48101,-0.009 -0.33258,-0.28258 0.0291,-0.0537 0.0153,-0.0608 -0.0307,-0.0172 -0.11112,0.10584 -0.1098,0.28469 0.002,0.36566 0.0503,0.0362 0.0587,0.0998 0.0188,0.14128 -0.0397,0.0413 -0.11483,-0.004 -0.16669,-0.1008 -0.0759,-0.14129 -0.11006,-0.15081 -0.17118,-0.0476 -0.12462,0.21061 -0.32967,-0.10584 -0.19315,-0.10584 0.0601,0 0.10901,-0.0664 0.10901,-0.14763 0.0537,0.005 0.32015,-0.47863 -0.0151,-0.16934 -0.0995,0.0939 -0.16669,0.11298 -0.16669,0.0476 0,-0.0601 -0.0413,-0.10927 -0.0923,-0.10927 -0.0508,0 -0.072,0.0958 -0.0471,0.21299 v -7.9e-4 c 0.036,0.1688 -0.11456,0.38735 -0.72496,1.05277 -0.617801,0.67363 -1.077381,1.01415 -0.681301,0.50483 0.578911,-0.74454 1.159671,-1.39092 1.250691,-1.39092 0.0624,-5.3e-4 0.11377,-0.0402 0.11377,-0.0878 0,-0.0476 -0.0513,-0.1053 -0.11377,-0.12832 -0.0741,-0.027 -0.0352,-0.10848 0.11218,-0.23495 0.11271,-0.096 0.16933,-0.1442 0.25982,-0.1442 z m 14.61003,12.18618 c 0.0532,0.15822 0.10901,0.28575 0.16722,0.3855 -0.0445,-0.12806 -0.10054,-0.25956 -0.16722,-0.3855 z m -25.229871,0.9189 h 10e-4 c 0.008,2.7e-4 0.0151,0.007 0.022,0.0201 0.62442,1.24513 5.65732,4.58999 5.86317,4.68683 1.95765,0.86757 3.08901,1.60417 5.262821,1.8751 0.86572,0.29475 2.94799,0.4109 3.79413,0.49319 1.016,-0.10372 1.96479,-0.56436 3.30835,-1.16893 2.27594,-1.09802 4.08199,-1.16099 5.9608,-2.81993 0.39634,1.44912 -0.77603,3.09139 -0.94536,5.11916 -0.2159,1.86557 0.50456,-1.68487 0.70564,-2.2823 0.76174,-2.24896 0.5252,-3.5851 2.40321,-5.26785 2.0029,-1.5457 0.13547,2.65059 0.36486,3.69596 -0.25796,2.15636 -0.4228,4.327 -0.82735,6.46324 0.0344,0.0204 0.0683,0.0397 0.10081,0.0577 -0.0714,0.33655 -0.18177,0.74375 -0.37571,1.33297 -1.1385,11.15087 -22.018101,7.86845 -25.700041,-1.63512 -0.0275,-0.22172 -0.11297,-0.50218 -0.27781,-0.84878 -0.26961,-1.00463 -0.34925,-2.07169 -0.20029,-3.19167 -0.0209,-1.20227 0.127,-2.43946 0.045,-3.63908 0.16669,-1.62375 0.38418,-2.88317 0.49477,-2.89058 z"
            style="fill:#000000;fill-rule:evenodd;stroke-width:0.350435" id="torso" />
      </g>
      <g id="eyebrows" transform="translate(239.4735,7.4835597)">
         <path
            d="m 33.356489,25.675432 c -0.10636,0.13203 -0.33443,-0.0111 -0.36116,-0.0103 0.068,0.10425 -0.2323,0.39873 -0.36539,0.35851 -0.0704,-0.0212 -1.03134,0.56462 -1.11125,0.63526 -0.1778,0.1569 -0.5408,1.49543 -0.87762,1.70683 -0.0926,0.1905 0.0833,0.4408 -0.12356,0.59267 -0.1905,0 0.30877,0.20637 0.15954,0.42968 -0.1598,0.2368 0.55828,-0.21272 0.21088,0.14446 -0.14817,0.15267 -0.22172,0.36936 -0.12489,0.36936 0.6186,-0.60245 1.36102,-0.9517 2.13625,-1.29725 0.18547,-0.0868 0.20373,-0.0352 0.0762,0.1143 0.25188,-0.0259 3.37926,-0.4273 3.56579,-0.55695 0.0744,-0.0519 0.78211,-0.0672 0.898,-0.0635 0.63552,0.43974 3.13346,-0.0855 3.51631,0.17965 0.47307,0.0447 2.506131,-1.82588 2.557201,-1.91558 h 2.6e-4 c -0.0444,-0.13599 -0.22675,-0.31512 -0.32279,-0.40931 -0.13071,-0.12806 -0.314061,-0.37862 -0.407721,-0.55748 -0.0892,-0.16986 -0.13203,-0.25135 -0.14738,-0.25135 h -5.3e-4 c -0.0159,0 0.0106,0.186 0.0114,0.19235 0.0185,0.14685 0.0836,0.3519 0.14394,0.45509 0.220401,0.37808 0.0344,0.35983 -0.31486,-0.0312 -0.46037,-0.51568 -1.0623,-0.87763 -1.21205,-0.72867 -0.0405,0.0402 -0.0601,0.0632 -0.0587,0.0704 0.26696,-0.118 0.22754,0.26591 0.3765,0.26591 0.0831,0 0.62204,0.67495 -0.0863,0.095 -0.36777,-0.3011 -0.75539,-0.39105 -1.74096,-0.40164 -0.41169,-0.004 -1.33773,-0.0378 -2.05819,-0.0741 -1.03452,-0.0526 -1.43431,-0.0397 -1.90236,0.0614 -0.73713,0.15955 -0.6432,0.0635 0.21855,-0.2241 0.65458,-0.21907 -2.01031,0.26961 -2.65536,0.85064 z"
            style="fill:#000000;fill-rule:evenodd;stroke-width:0.350435" id="eyebrow-left" />
         <path
            d="m 57.45104,23.541042 c 0.4355,0.18679 -0.53711,0.002 -0.0931,0.17833 0.13652,0.0542 0.0614,0.0725 -0.27993,0.0672 -0.25665,-0.004 -0.69744,0.037 -0.97949,0.0905 -0.96361,0.28945 -3.71343,1.13956 -2.98529,0.44529 0.21166,-0.15822 0.16907,-0.15346 -0.46646,0.0503 -1.39833,0.44847 -0.97208,0.62071 -1.33139,0.62071 -0.0423,0 0.0296,-0.12806 0.1606,-0.28416 0.41858,-0.50059 0.15611,-0.4781 -0.40666,0.0344 -0.51673,0.42545 -0.002,-0.24897 -0.1016,-0.15081 -0.009,0.009 -0.33946,0.0841 -0.42386,0.32676 -0.18468,0.53022 -0.18045,-0.36936 -0.35349,0.0315 -0.36591,0.84799 -0.7821,1.27317 -0.4953,0.50615 0.12145,-0.32465 0.12436,-0.37783 0.0159,-0.29581 -0.16589,0.12541 -0.41539,0.79904 -0.4773,1.28852 -0.0175,0.13785 -0.0437,0.24659 -0.0852,0.32967 h 2.6e-4 c 0.50191,0.1016 1.53987,0.72787 1.73752,1.08744 0.20399,-0.22754 1.12739,-0.43736 1.69413,-0.48048 0.26722,0.005 0.72707,-0.0273 1.02208,-0.0714 0.29501,-0.0442 0.97975,-0.087 1.13295,-0.0696 0.15928,0.0177 0.37359,-0.0153 0.47625,-0.0746 2.10238,-1.20888 -0.22305,0.20584 0.17833,0.20584 0.56329,-0.42359 1.20253,-0.55139 1.87378,-0.72178 0.21166,-0.0651 -0.0503,0.16748 -0.26988,0.23945 -0.0569,0.0188 -0.0775,0.0593 -0.046,0.0905 0.0317,0.0312 0.18997,-0.0564 0.35243,-0.19447 0.27252,-0.2323 0.57335,-0.33999 1.10622,-0.39688 0.30321,-0.032 0.11112,0.15875 0.4945,0.0339 0.70221,-0.22357 -0.0786,0.2331 -0.0825,0.56674 0.23152,-0.28099 2.12276,-0.4019 1.63566,-0.30612 -0.195,0.0376 -0.40481,0.11642 -0.46646,0.17542 -0.17939,0.11006 0.81148,0.001 0.96097,0.007 0.34131,0.009 -0.42069,0.2667 -0.79296,0.2667 -0.12356,0 -0.18997,0 -0.19182,0.0132 -10e-4,0.0193 0.62574,0.25664 0.70167,0.14472 0.054,-0.0796 1.03981,-0.34475 1.28217,-0.34475 0.10425,0 0.13653,0.0521 0.10716,0.10689 0.32861,0.0455 0.58923,0.0675 0.8935,-0.0339 0.12065,-0.26087 -0.67628,-1.47743 -0.6784,-1.47822 h 8e-4 c -0.11086,-0.0503 -0.0926,-0.17595 -0.23813,-0.24977 0.12303,0.49927 -0.60854,-0.71173 -1.46499,-1.1647 -1.30175,-0.50561 -1.7145,-0.6133 -2.51011,-0.65431 -0.20902,-0.0106 -0.60642,0.0185 -0.60642,0.0643 z"
            style="fill:#000000;fill-rule:evenodd;stroke-width:0.350435" id="eyebrow-right" />
      </g>
      <g id="eyes" transform="translate(239.4735,7.4835597)">
         <g id="eye-left">
            <path
               d="m 38.466389,29.419282 c -0.88001,-0.0619 -3.46102,0.3982 -4.91067,2.18493 -0.0699,0.12092 -0.0566,0.15796 0.0564,0.15796 0.200106,0 0.470011,-0.396469 0.5588,-0.43418 0.03513,-0.01237 0.574743,-0.369254 0.74456,-0.52443 0.35851,-0.3265 0.44662,-0.37836 1.09405,-0.63923 1.52136,-0.41302 3.30465,-0.72126 4.74663,0.049 0.10715,0.12832 1.98675,0.87312 1.05568,0.0815 -0.13229,-0.17198 -0.612347,-0.544152 -0.59451,-0.53923 -2.281075,-0.382947 -2.75088,-0.33655 -2.75088,-0.33655 z m -4.1148,2.25558 c -0.11457,0 -0.89085,0.62971 -0.83741,0.67918 0.0291,0.027 -0.0423,0.14632 -0.15928,0.26459 -0.20293,0.20637 -0.21616,0.21775 0.0405,0.0659 0.13864,-0.0825 0.32914,-0.14209 0.42281,-0.13335 0.0937,0.009 0.19182,0.009 0.21748,0 0.272,-0.031 0.99801,0.27834 1.3126,0.42889 0.32729,0.19208 0.38232,-0.0905 0.0847,-0.43445 -0.28178,-0.32491 -0.29554,-0.52123 -0.0368,-0.52123 0.06862,0 1.117161,-0.725048 1.21708,-0.63207 0.599941,-0.147845 1.035391,-0.530588 3.44934,-0.09605 1.21232,0.21829 1.85578,0.7157 1.28931,0.99695 -0.31538,0.1569 0.0103,0.28258 0.49874,0.19315 0.59531,-0.10927 0.74957,-0.38867 0.38735,-0.70115 -0.31909,-0.27569 -1.53458,-0.89482 -1.7563,-0.89482 -0.0818,0 -1.135357,-0.322082 -1.63724,-0.3264 -2.41618,-0.18785 -3.96082,1.11099 -4.49263,1.11099 z"
               style="fill:#000000;fill-rule:evenodd;stroke-width:0.350435" id="eye-left" />
            <ellipse style="opacity:1;fill:#000000;fill-opacity:1;fill-rule:evenodd;stroke:none;stroke-width:0.269958"
               cx="36.502861" cy="34.235939" rx="1.5047474" ry="1.155269"
               transform="matrix(0.99793363,-0.06425323,0.05788827,0.99832307,0,0)" id="eyeball-left" />
         </g>
         <g id="eye-right">
            <path
               d="m 54.33848,27.679912 c -0.89403,0.0283 -1.95104,0.67919 -1.97697,0.67919 -0.17198,0 -0.65008,0.53075 -0.8673,0.61542 -0.14288,0.0561 -0.53896,0.8472 -0.53896,1.07712 0,0 1.22846,-0.70353 1.50707,-1.00251 0.13732,-0.15451 0.37835,-0.33602 0.53551,-0.40243 1.37769,-0.69691 3.27237,-0.75486 4.72811,-0.32173 1.34673,0.5461 1.4142,1.49331 1.97114,1.0205 0.29052,-0.22331 -0.0164,-0.16167 -0.109,-0.38392 -0.19871,-0.67495 -3.25544,-1.34487 -5.2496,-1.28164 z m 1.13268,1.39647 c -0.63897,0.0259 -1.38695,-0.0225 -1.92723,0.23178 -0.690403,0.217702 -1.967167,1.083954 -2.28229,1.74122 -0.14208,0.29634 -0.0172,0.56409 0.26326,0.56409 0.0691,0 0.19262,0.0831 0.30321,0.14023 0.98187,0.50615 0.3556,-0.10662 0.26591,-0.54768 -0.34579,-0.293858 0.189169,-0.596237 0.50641,-0.82683 2.335775,-1.290665 4.614145,-0.892699 5.40888,-0.36062 0.18362,0.16774 0.21193,0.61171 0.0503,0.78634 -0.22067,0.23812 0.48709,0.0296 1.3581,-0.40058 0.23204,-0.11457 0.18336,-0.36883 -0.0709,-0.36883 -0.24528,0 0.003,-0.06627 -0.56091,-0.33598 -1.22026,-0.58208 -2.24976,-0.66649 -3.3147,-0.62309 z"
               style="fill:#000000;fill-rule:evenodd;stroke-width:0.350435" id="eye-right" />
            <ellipse style="fill:#000000;fill-opacity:1;fill-rule:evenodd;stroke:none;stroke-width:0.269958"
               cx="53.45216" cy="33.894699" rx="1.5047474" ry="1.155269"
               transform="matrix(0.99793363,-0.06425323,0.05788827,0.99832307,0,0)" id="eyeball-right" />
         </g>
      </g>
      <g id="mouth" transform="translate(239.4735,7.4835597)">
         <path
            d="m 50.50149,47.932182 c -0.26511,0.0111 -0.64744,0.10054 -1.35229,0.30586 -0.259279,0.06368 -1.725299,0.03312 -1.91399,0.0648 0,0 -1.758405,0.002 -2.017435,-0.01471 -0.846392,0.04481 -1.742003,0.357401 -2.546626,0.662696 -1.492705,0.737026 -1.358532,0.922573 -2.70937,0.75156 -0.548407,0.278274 1.912528,0.856557 2.67306,0.71197 3.025589,-0.89496 6.168118,-0.660654 9.264381,-0.64585 2.26801,-0.0193 2.84083,-0.32067 3.09245,-0.56039 0.65881,-0.62838 -0.0833,-0.0868 -0.68553,0.009 -0.516285,0.08314 -1.557939,-0.917955 -3.57135,-1.27156 -0.07706,-0.013 -0.155314,-0.01752 -0.23336,-0.0135 z m 0.98058,0.34423 c 0.395913,0.108485 1.16734,0.35217 1.16734,0.35217 0.253132,0.103876 1.327756,0.624378 0.70723,0.6694 -1.30149,-0.0474 -1.81378,0.0065 -2.25802,-0.03267 -0.492652,-0.05494 -4.262906,0.01687 -6.44307,0.250161 -0.33778,0.106609 -1.932326,0.446671 -2.113219,0.467275 -0.508791,0.14552 -1.490903,0.159931 -1.415532,-0.0096 1.159383,-0.702215 2.389847,-1.325026 3.836625,-1.41153 1.119556,-0.0011 3.052912,0.09802 4.211476,-0.17606 2.113407,-0.32176 1.953028,-0.214914 2.30717,-0.109146 z"
            style="fill:#000000;fill-opacity:1;fill-rule:evenodd;stroke-width:0.350435" id="mouth" />
         <path
            d="m 53.80323,49.701452 c -0.0474,2.6e-4 -0.28311,0.11536 -0.64797,0.32332 -1.54781,0.88106 -4.05289,1.25968 -7.55041,1.25968 -1.43008,-0.002 -3.486681,-0.73607 -3.534041,-0.6477 0.0204,0.0212 0.186,0.0635 0.36856,0.0947 0.18256,0.031 2.243401,0.73686 3.397781,0.73025 3.20807,-0.019 6.42726,-0.60695 7.83484,-1.63169 0.04875,-0.04878 0.113875,-0.11155 0.13124,-0.12856 z"
            style="fill:#000000;fill-rule:evenodd;stroke-width:0.350435" id="lower-lip" />
      </g>
      <g id="soul-patch" transform="translate(239.4735,7.4835597)">
         <path
            d="m 49.15767,51.693502 c -0.88318,0.14896 -1.97194,0.023 -2.86729,0.0683 -0.32411,0.0947 -0.69426,0.0807 -1.04484,0.0855 -0.29686,0.004 -0.18097,0.10662 -0.37624,0.12382 -0.34316,0.0302 -0.3765,0.35772 -0.66198,0.90355 -0.13573,0.12912 -0.11986,0.55563 0.0185,0.50007 0.14816,-0.0593 0.0556,0.89032 0.11985,0.83449 0.5133,-1.13347 0.71015,-0.55483 0.72946,-0.36592 0,0.0767 -0.0579,0.78185 0.0418,0.40508 0.1561,-0.58923 0.31115,-0.61013 0.32147,-0.0688 0,0.26723 0.0349,0.37412 0.1135,0.34687 0.0653,-0.0228 0.10716,-0.17595 0.0984,-0.36248 -0.0275,-0.59928 0.18098,0.49133 0.23998,0.517 0.19315,-0.16008 -0.009,-0.44953 0.0998,-0.60405 0.127,0.0971 0.20849,0.37889 0.20849,0.64559 0.25824,-0.52282 1.14962,-0.52653 1.27662,-0.1487 0.0781,0.24924 0.13679,0.21484 0.1143,-0.0482 -0.10531,-1.23957 0.72046,0.3773 0.90964,0.17992 -0.20903,-0.34026 -0.0881,-0.31406 0.29739,-0.20029 -0.2122,-0.77417 0.75353,-0.41011 0.73025,-0.89562 0.0955,-0.50324 -0.0802,-0.54451 0.47466,-0.44344 0.082,0.0151 0.23283,0.19659 0.16827,0.11562 -0.0495,-0.0622 -0.11721,-0.29104 -0.15081,-0.50879 -0.23177,-1.51183 1.12845,2.27065 0.28893,-0.26009 -0.27702,-0.79533 -0.26908,-0.98954 -0.5416,-0.83767 -0.11298,-0.0646 -0.2212,-0.19367 -0.60855,0.0185 z"
            style="fill:#000000;fill-rule:evenodd;stroke-width:0.350435" id="soul-patch" />
      </g>
   </g>
</svg>