<svg xmlns="http://www.w3.org/2000/svg" fill="currentColor" viewBox="0 0 201 258">
  <g id="huma-proper">
    <g id="hair-group">
      <path id="hair" fill="currentColor"
        d="M101.73.27c1.461-.59 5.365.89 8.731 3.307.977.702 1.979 1.268 2.226 1.258.248-.01 1.816-.085 3.485-.167 4.613-.226 7.444.54 10.144 2.74a24.796 24.796 0 0 0 2.477 1.739c.694.411 1.805 1.2 2.47 1.75 1.213 1.008 1.573 1.1 1.575.402.01-2.972 1.824-3.014 4.116-.096 2.084 2.654 2.672 4.102 2.672 6.589 0 3.198 2.13 2.992 3.33-.323.776-2.143 1.345-1.496 4.132 4.698.51 1.133.705 1.317 2.602 2.45 4.654 2.78 5.545 4.433 5.872 10.9.205 4.047.22 4.134.978 5.679 2.351 4.796 2.477 12.52.556 34.153h-6.456c-.005-7.306-1.239-14.015-3.439-17.665-1.066-1.769-2.45-4.774-3.332-7.238-.848-2.369-1.323-3.094-4.166-6.354a268.364 268.364 0 0 1-3.235-3.76c-.694-.845-.74-.863-2.077-.822-.904.027-1.89-.129-2.914-.459-1.548-.498-1.549-.499-3.377.438-2.573 1.317-4.48 1.58-7.718 1.06-2.392-.383-2.392-.384-5.152.287-7.382 1.793-10.548 1.603-14.313-.856-2.053-1.34-1.74-1.34-3.362.017-6.288 5.263-17.28 3.802-19.117-2.54-.352-1.22-.539-1.213-1.799.067-2.1 2.132-4.587 2.615-8.493 1.649-.377-.093-.502.01-.62.513-.412 1.733-4.245 6.372-5.544 6.709-.614.159-.722.303-.869 1.17-.093.544-.913 2.542-1.825 4.44-.91 1.898-1.862 3.938-2.115 4.534-.408.96-.52 1.066-1.002.945-.594-.149-.556-.236-1.67 3.874-.965 3.563-2.243 12.299-2.243 15.335h-5.215l-.346-4.202c-.237-2.756-.537-7.816-.667-11.245-.223-5.926-.582-13.567-.83-17.715-.216-3.59 1.358-7.7 3.805-9.934 1.54-1.407 2.024-2.166 2.246-3.533.795-4.88 2.899-7.95 6.794-9.913 1.666-.84 2.397-1.489 2.675-2.379.674-2.158 2.296-3.795 5.45-5.502 2.313-1.25 3.174-2.027 4.458-4.02 3.113-4.826 7.713-6.626 13.273-5.193 1.926.497 1.927.497 4.118-.319 5.678-2.112 9.414-1.897 13.104.753 1.246.895 1.301.831.765-.893-.507-1.63-.544-2.172-.158-2.328ZM83.434 35.656c-1.482-1.11-1.358-.346.169 1.033 2.278 2.059 6.018 2.308 8.31.555 1.75-1.34 1.295-1.654-.986-.679-2.663 1.14-5.163.835-7.493-.91Zm29.607-2.934c.947-1.377.748-1.399-.87-.1-2.07 1.662-5.184 3.028-7.492 3.286-1.579.177-1.968.434-.946.626 2.627.493 7.807-1.629 9.308-3.813Zm-42.494-.535c-1.648-.78-1.594-.768-1.594-.316 0 1.612 3.75 2.653 5.323 1.477.858-.64.849-.953-.02-.704-1.253.36-2.242.237-3.71-.457Zm65.183-2.672c0-.34-.21-.27-1.896.622-.86.454-1.912.967-2.338 1.14-.774.315-.774.316-.129.409 1.098.158 4.363-1.467 4.363-2.171Zm-61.785 1.038c.855-.855.748-1.111-.373-.89-.52.102-1.497.184-2.17.181-.674-.003-1.425-.091-1.67-.197-.314-.135-.234.027.267.547 1.013 1.05 3.07 1.236 3.946.36Zm37.258-5.646c.16-1.937-.372-1.58-1.286.865-.25.667-1.057 2.098-1.795 3.178-1.496 2.194-1.54 2.482-.229 1.518 1.81-1.332 3.145-3.574 3.31-5.56Zm-35.593-.491c-1.383-.976-1.384-.976-1.248-.137.373 2.297 3.76 2.826 7.167 1.119 3.268-1.637 3.406-2.379.184-.993-1.661.715-2.492.946-3.454.963-1.153.021-1.389-.063-2.649-.952Zm20.054-5.85c-1.91-.73-3.745-.514-2.225.262 1.48.755 3.911 3.22 4.666 4.731.78 1.562.887 1.107.23-.979-.771-2.445-1.524-3.575-2.671-4.013Zm31.163 1.177c-1.357-.516-2.555-.404-3.702.348-.86.564-.611.682.819.387 1.486-.306 2.213-.183 3.459.588.431.266.825.443.876.391.195-.195-.92-1.511-1.452-1.714ZM116.386 13.9c-.425-.525-.426-.525-.31.08.134.698.735 1.337.735.78-.001-.185-.192-.572-.425-.86Z" />
    </g>

    <g id="beard-group" fill="currentColor">
      <path id="beard"
        d="M99.567 169.591c.503-.602 1.809.101 1.608.704-.302.703-1.708.502-1.708-.101l.1-.703v.1Zm-3.315-.301c.402-.402 1.206-.201 1.206.301.1.804-.503 1.306-1.005 1.005-.502-.301-.603-.904-.2-1.306Zm7.937 0c.2-.502.904-.502 1.306 0 .301.402 0 1.206-.503 1.206-.502 0-1.004-.704-.703-1.206h-.1Zm3.616-.301c.402-.402 1.206-.201 1.206.301.1.703-.503 1.306-1.005 1.005-.502-.402-.603-1.005-.201-1.306Zm-15.873-.201c.201-.402 1.105-.402 1.507 0 .402.502 0 1.004-.703 1.004s-1.005-.402-.804-1.004Zm2.512-.804c.2-.502.603-.502 1.004 0 .503.502.402 1.005-.2 1.005-.603 0-1.005-.603-.804-1.005Zm7.735.1c.503-.602.704-.602 1.105-.2.603.602.302 1.004-.703 1.004-.603 0-.703-.301-.301-.804h-.101Zm8.439-.502c.402-.301.502-.301 1.005.201.703.502.301 1.206-.603 1.005-.603 0-1.005-.904-.402-1.206Zm-12.256.302c.402-.402.904-.302 1.205.2.302.503-.1 1.005-.904.704-.603-.101-.703-.503-.301-1.005v.101Zm8.137-.302c.201-.301.703 0 .703.402 0 .1-.201.301-.402.301-.401 0-.602-.502-.301-.803v.1Zm-18.987 0c.1-.1.302-.201.603 0 .502.302.603.703.1.703-.401 0-.904-.401-.703-.703Zm26.12-.804c.402-.401 1.105-.2 1.205.302.101.804-.502 1.306-1.004 1.004-.503-.401-.603-.904-.201-1.306Zm-22.805.603c.201 0 .402.101.402.302 0 .201-.2.301-.402.301a.303.303 0 0 1-.301-.301.3.3 0 0 1 .301-.302Zm-2.21-1.406c.201-.503.804-.402 1.105 0 .302.603 0 1.205-.502 1.205-.603 0-1.005-.703-.603-1.205Zm11.754 0c.301-.503.804-.503 1.005 0 .301.402 0 1.205-.503 1.205-.402 0-.803-.703-.502-1.205Zm7.836 0c.201-.503.301-.503.804 0 .502.402.201 1.205-.302 1.205-.502 0-.803-.703-.603-1.205h.101Zm-3.818-.101c.302-.301 1.005 0 1.005.503 0 .401-.502.803-1.005.703-.301-.201-.401-.904 0-1.206Zm-7.735-.1c.402-.201.804 0 1.005.502 0 .603-.302 1.005-.905.804-.502-.201-.602-1.206-.1-1.306Zm-4.119.1c.402-.402.804-.402 1.105.201.201.302.201.503 0 .804-.703.603-1.708-.301-1.004-1.005h-.1Zm-11.151 0c.301-.201.804-.1.904.302 0 .402-.402.803-.803.602-.302-.2-.302-.602 0-.904h-.101Zm34.458-.301c.301-.301.804-.101 1.005.301.301.402 0 .804-.804.804-.402 0-.502-.804-.201-1.206v.101Zm-3.918.502c.301-.603 1.005-.703 1.005-.201 0 .402-1.005 1.005-1.105.804v-.603h.1Zm-27.124-.301c0-.302.703-.201 1.004.1.201.201.201.402.1.402-.2.201-1.104-.201-1.104-.502Zm-2.01-1.708c.402-.402 1.206-.201 1.206.301.1.704-.502 1.306-1.005 1.005-.502-.402-.602-1.005-.2-1.306Zm35.061.101c.302-.402 1.206 0 1.206.502 0 .402-.402.703-1.005.703-.402 0-.502-1.005-.201-1.205Zm-31.243 0c.2-.503.904-.503 1.306 0 .301.301 0 1.004-.603 1.004-.402 0-.804-.603-.703-1.004Zm7.836-.101c.301-.603 1.205 0 1.205.703 0 .201-.2.402-.401.402-.503 0-1.005-.603-.804-1.004v-.101Zm11.754.101c.301-.402.703-.503 1.004 0 .302.301 0 1.004-.402 1.004-.602 0-1.004-.603-.703-1.004h.101Zm7.635-.101c.201-.402.904-.301 1.205 0 .302.402 0 1.005-.603 1.005-.301 0-.703-.603-.602-1.005Zm-23.207 0c.201-.502 1.105-.301 1.105.402 0 .402-.1.603-.502.603-.502.1-.803-.402-.603-1.005Zm19.389 0c.201-.502 1.105-.301 1.105.402 0 .402-.1.603-.502.603-.502.1-.804-.402-.603-1.005Zm-7.836-.1c.302-.302 1.005-.201 1.306.201.402.502-.201 1.004-.904.904-.402-.201-.603-.804-.301-1.105h-.101Zm-3.315-.201.603.301c.402.201 0 1.005-.603 1.005s-1.005-.804-.502-1.005l.502-.301Zm-18.786.201c.301-.302.904-.201 1.005.201 0 .502-.503.904-.804.602-.402-.201-.402-.502-.201-.803Zm41.691-1.206a.705.705 0 0 1 1.052.042.705.705 0 0 1 .154.36c0 .703-.503 1.205-1.005.904-.603-.301-.603-.904-.201-1.306Zm-44.705-.603c.201-.502 1.005-.402 1.105 0 .201.603 0 1.005-.402 1.005-.401 0-.904-.603-.703-1.005Zm7.736 0c.2-.502.703-.502 1.004 0 .402.402.201 1.005-.402 1.005-.502 0-.803-.502-.602-1.005Zm3.616 0c.201-.502 1.206-.502 1.306 0 .201.603 0 1.005-.502 1.005s-1.005-.603-.804-1.005Zm4.019 0c.2-.703 1.205-.201 1.205.603 0 .201-.2.402-.502.402-.603 0-1.005-.502-.703-1.005Zm4.018 0c.201-.703 1.206-.201 1.206.603 0 .201-.201.402-.603.402-.603 0-.904-.502-.603-1.005Zm3.717.101c.201-.603 1.005-.603 1.306 0 .301.603 0 .904-.603.904-.602 0-.803-.301-.602-1.005l-.101.101Zm8.037-.101c.201-.502.703-.502 1.005 0 .301.503 0 1.005-.704 1.005-.402 0-.602-.502-.301-1.005Zm7.635.101c.201-.703 1.005-.503 1.005.201 0 .402 0 .602-.302.602-.603.101-1.004-.2-.703-.803Zm-35.06-.101c.3-.703 1.406-.301 1.305.402-.1.603-1.004.703-1.205.302v-.704h-.1Zm31.242 0c.201-.703 1.306-.301 1.206.402-.101.603-1.005.703-1.206.302v-.704Zm-7.835 0c.2-.502.803-.402 1.105.101.201.301.201.502 0 .603-.804.502-1.407 0-1.005-.704h-.1Zm15.47 0c.101-.402 1.005-.502 1.306-.1.201.301-.301.804-.803.804-.503 0-.704-.201-.503-.704Zm4.32-1.607c.302-.402.804-.301 1.105.201.302.402 0 1.004-.502 1.004-.603 0-1.005-.803-.603-1.205Zm-2.009-.603c.402-.201 1.005.302 1.005.703 0 .603-.503 1.005-1.005.704-.301-.302-.402-1.306 0-1.407Zm-47.116.402c.201-.502 1.306-.402 1.306.201a.87.87 0 0 1-.402.703c-.502.302-1.105-.301-.904-.904Zm31.344-.201c.402-.402 1.306-.1 1.306.402s-.704 1.005-1.105.703c-.503-.402-.603-.703-.201-1.105Zm-11.654 0c.201-.301 1.005 0 1.005.402.2.502-.201.804-.603.703-.402-.201-.703-.904-.402-1.105Zm-7.735-.1c.301-.302.402-.302 1.005 0 .3.301.2 1.004-.302 1.205-.703.201-1.205-.703-.703-1.205Zm15.571-.101c.402-.201 1.105.302 1.005.804 0 .703-1.105.703-1.206 0 0-.302 0-.703.201-.804Zm15.572 0c.502-.201.602-.201 1.004.201.502.603-.301 1.507-1.004 1.005-.302-.402-.302-1.005 0-1.206Zm-35.061 0c.301-.301.804 0 1.004.302.402.502-.2 1.205-.803 1.004-.302-.201-.502-1.004-.201-1.306Zm27.627-.1c.2-.101.703.301.703.602 0 .603-.603 1.005-1.005.704-.402-.402-.402-1.005 0-1.206l.302-.1Zm-19.992.602c0-.502.703-.602 1.105 0 .301.201.301.302 0 .603-.502.402-1.005 0-1.005-.603h-.1Zm-11.453-.401c.603-.402 1.005 0 1.005.602-.1.503-.2.603-.703.603-.603 0-.904-.703-.302-1.205Zm19.49.1c.402-.502 1.105 0 1.004.603 0 .301-.2.502-.602.502-.603 0-.804-.603-.402-1.105Zm15.37-.1c.302-.402.904-.302 1.206.201.201.301.1.502-.101.803-.703.603-1.708-.301-1.004-1.004h-.101Zm12.357-.603c.402-.302.904-.201 1.004.201.302.603 0 1.004-.602 1.004-.704 0-1.005-.803-.402-1.205Zm-6.53-1.306c.201-.502.402-.502 1.004 0 .402.603.201 1.205-.401 1.205-.503 0-1.005-.602-.603-1.205Zm-23.407.1c.301-.502.502-.602 1.004 0 .402.402.302 1.005-.2 1.005-.603.201-1.106-.502-.804-1.005Zm3.918-.1c.401-.502.602-.402 1.004 0 .502.603.302 1.306-.301 1.205-.703-.1-1.005-.803-.703-1.205Zm-27.125 0c.402-.502.603-.402 1.005.1.402.603 0 1.206-.603 1.005-.603 0-.703-.703-.402-1.105Zm11.654.1c.401-.301.703-.301 1.004.101.503.502-.1 1.105-.803.904-.503-.201-.603-.603-.201-1.005Zm3.817-.1c.201-.502.502-.402 1.005.1.502.402.502.503.2.804-.602.603-1.506-.1-1.205-1.005v.101Zm27.325.1c.402-.301.704-.301 1.005.101.502.502-.1 1.105-.804.904-.502-.201-.602-.603-.201-1.005Zm-7.836 0c.302-.502.503-.602 1.005-.1.402.402.301.904-.301 1.004-.503.302-1.005-.301-.704-.904Zm-31.042-.301c.402-.301 1.206.201 1.206.703 0 .302-.804.703-1.005.603-.301-.201-.402-1.005-.2-1.306Zm4.019.1c.301-.301.602-.2.904.302.301.502-.402 1.205-.904.803-.402-.401-.402-.703 0-1.004v-.101Zm31.444 0c.301 0 .602.101.703.302.603.703-.502 1.205-1.206.703-.401-.301-.401-.402-.1-.703.1-.201.402-.302.603-.302Zm-19.992.101c.402-.402.502-.402.904 0s.201 1.004-.301 1.004c-.603 0-1.005-.602-.603-1.004Zm11.854-.201c.402-.201.503-.201.804.201.502.502.201 1.004-.402 1.004-.602 0-1.004-.803-.402-1.205Zm19.289.201c.402-.402.603-.402 1.004 0 .302.402.101 1.004-.401 1.004-.603 0-1.005-.602-.603-1.004Zm5.123-.402c.402-.402 1.206-.201 1.306.402 0 .703-.602 1.205-1.105.904-.502-.301-.603-.904-.201-1.306Zm-1.205.402c.1-.402.603-.502.603 0 0 .301-.402.603-.603.502v-.502Zm-17.38-2.009c.603-.503.904-.302 1.005.502 0 .804-.402 1.206-1.005.703-.402-.402-.402-.803 0-1.205Zm-35.161.201c.301-.402.804-.302 1.105.201.201.301.201.401-.1.703-.704.703-1.708-.201-1.005-1.005v.101Zm31.143 0c.301-.402.803-.302 1.105.201.201.301.201.401-.101.703-.703.703-1.707-.201-1.004-1.005v.101Zm15.471.301c0-.703.502-.804 1.004-.301.503.502.503.703 0 1.004-.703.302-1.004.101-1.004-.703Zm-19.49-.502c.503-.402 1.306.1 1.306.803 0 .402-.502.704-1.004.503-.402-.101-.503-1.005-.201-1.306h-.101Zm-31.142.201c.2-.402.703-.402 1.004 0 .402.401.201 1.105-.301 1.105s-.904-.603-.703-1.005v-.1Zm8.438-.302c.704.101.704 1.407 0 1.407-.502 0-.803-.603-.703-1.005.1-.301.402-.402.703-.402Zm18.987.302c.1-.503.703-.302 1.005.201.301.301.2.502-.1.703-.704.502-1.307 0-1.005-1.005l.1.101Zm-4.018.201c.1-.603.301-.603.904-.402.402.201.402 1.004-.1 1.205-.503.302-1.005-.201-.804-.904v.101Zm31.143 0c.2-.603.703-.603 1.105 0 .201.301.201.502-.201.703-.603.402-1.105 0-.904-.804v.101Zm-38.979-.201c.2-.402.703-.402 1.005 0 .401.401.2 1.004-.302 1.004-.402 0-.804-.603-.703-1.004Zm42.796.1c.402-.502.603-.502.804-.301.201.201-.703 1.205-1.005 1.205-.301 0-.201-.502.201-1.004v.1Zm-46.614-.1c.302-.603 1.206-.302 1.206.301 0 .402-.2.603-.502.703-.603 0-.904-.402-.704-1.004Zm31.244 0c.201-.603 1.105-.302 1.105.301 0 .402-.101.603-.503.703-.502 0-.904-.402-.602-1.004Zm3.717.201c0-.503 0-.503.402-.503.703.101 1.004.804.703 1.105-.402.402-1.005 0-1.105-.703v.101Zm-27.125 0c-.1-.603.302-.704 1.005-.201.402.502.2.904-.402.904-.502 0-.603-.101-.603-.603v-.1Zm41.189-1.206c.603-.402.603.301 0 .804-.301.402-.603.602-.703.502-.101-.201.301-1.105.703-1.306Zm-23.608-.301c0-.503.502-.402 1.005 0 .301.502.301.502 0 .502-.603 0-1.005-.201-1.005-.502Zm-19.49-.704c.302-.703.403-.703.804 0 .603.905 0 1.708-.803.905-.201-.302-.201-.503 0-.905Zm4.22-.301c.2-.1.703.402.703.804 0 .602-.502.904-1.004.502-.402-.301-.402-1.005 0-1.206l.301-.1Zm23.206.904c.302-.201.904 0 .904.201 0 .402-.703.502-1.004.201-.201-.201-.201-.301 0-.402h.1Zm3.717-.804c.302-.401.402-.401.804.101.502.603.502.804 0 1.105-.603.502-1.406-.603-.804-1.206Zm-50.43-.1c.501-.301 1.205.502 1.004 1.005-.502.703-1.105.502-1.206-.201 0-.402 0-.704.201-.804Zm3.616.301c.2-.502 1.004-.401 1.205.201.302.603.1.804-.502.804-.603 0-1.005-.402-.703-1.005Zm4.018 0c.1-.401.703-.401 1.005 0 .402.503.1 1.005-.402 1.005s-.804-.502-.603-1.005Zm19.289.101c.301-.502.703-.502 1.004 0 .502.402.201 1.004-.402 1.004-.703 0-.904-.502-.602-1.004Zm3.817-.101c.201-.502 1.005-.401 1.306.101.301.603 0 1.004-.603 1.004-.602 0-.904-.502-.703-1.004v-.101Zm4.019 0c.301-.703 1.306-.201 1.306.603 0 .302-.201.402-.603.402-.603 0-.904-.402-.703-1.005Zm13.562.503c.301-.101.602 0 .602.301l-.401.201c-.503 0-.603-.301-.201-.502Zm9.644-.503c.201-.401.804-.401 1.205 0 .402.503.101 1.005-.502 1.005s-.904-.402-.703-1.005Zm-3.617-.1c.402-.301.804-.301 1.005.201.301.502-.201 1.004-.804.904-.502-.1-.603-.904-.201-1.105Zm-12.457.301c.101-.301.302-.201.603 0 .703.402.804.904.201.704-.703-.201-1.005-.503-.804-.804v.1Zm20.996-1.306c.302-.602.603-.703.905-.301 0 .201-.101.502-.503.804-.703.602-1.004.301-.502-.503h.1Zm1.909-.301c.302-.301.804-.301 1.005 0 .1.301-.402.904-.904.904-.402 0-.503-.502-.101-.904Zm-25.617.201c0-.302.803-.302 1.004.1.201.201.302.402.201.503-.201.201-1.205-.302-1.205-.603Zm-2.914-.703c.402-.302.603-.201.905.1.401.502.1 1.105-.503 1.105-.602 0-.904-.904-.402-1.205Zm16.476-.201c.603 0 1.005.602.603 1.004-.503.603-1.005.402-1.005-.301 0-.502 0-.703.402-.703Zm-31.444.703c.502-.301 1.004-.201 1.004.201 0 .201-.2.402-.703.402-.803 0-1.004-.201-.301-.603Zm34.86-.402c.2-.603 1.105-.301 1.105.402 0 .402-.101.502-.503.603-.502 0-.803-.402-.602-1.005Zm-50.632 0c.3-.603.502-.603 1.004-.201.502.502.301 1.105-.2 1.206-.704 0-1.106-.503-.804-1.005Zm20.192-.301c.603.1.603 1.205 0 1.306-.603 0-1.005-.603-.703-1.005 0-.201.402-.301.603-.301h.1Zm7.334-.201c.904 0 1.306 1.205.602 1.507-.401.1-1.004-.402-1.004-1.005 0-.301.201-.502.402-.502Zm-3.918.201c.402-.201.803 0 1.004.502.201.502-.2.904-.803.804-.402 0-.603-1.005-.201-1.306Zm-27.326 0c.402-.302.503-.302.804.1.402.502.201 1.105-.402 1.105-.602 0-1.004-.904-.401-1.205Zm7.736.1c.502-.603 1.206-.201 1.005.603 0 .402-.1.502-.603.502-.603 0-.804-.603-.402-1.004v-.101Zm50.933-.301c.302 0 .704.603.704 1.004 0 .302-.302.402-.704.402-.602 0-.803-.603-.401-1.004.1-.302.301-.402.401-.402Zm-19.087.402c0-.402 0-.402.603 0 .803.602.904 1.004.301 1.004a1.005 1.005 0 0 1-1.005-1.004h.101Zm-43.198.1c0-.402.603-.402.904.101v.602c-.301.201-1.005-.301-1.005-.703h.101Zm39.581-1.004c.402-.503.603-.503 1.005 0 .502.502.402 1.004-.301 1.004-.704 0-1.005-.603-.704-1.004Zm28.531-1.206c.502.1.502.603-.1 1.206-.804.703-1.005.401-.503-.603.201-.402.503-.703.603-.603Zm-38.979.904c.201-.201.503-.1.503.201l-.201.402c-.302 0-.502-.402-.302-.603Zm-27.626-.703c.402-.402.803-.402 1.105 0a.58.58 0 0 1-.402 1.005c-.603 0-1.005-.503-.703-1.005Zm26.02.603.3.201-.3.201c-.202 0-.403 0-.403-.201l.402-.201Zm32.448-.603c.1-.402.603-.402 1.004 0 .402.502.101 1.005-.401 1.005-.503 0-.804-.402-.603-1.005Zm3.918 0c.502-.402.803-.301 1.004 0 .402.502 0 1.005-.602 1.005-.503 0-.804-.804-.402-1.005Zm-58.468 0c.2-.603 1.105-.301 1.105.402 0 .402-.1.502-.502.603-.503 0-.804-.402-.603-1.005Zm50.531 0c.201-.603 1.105-.301 1.105.402 0 .402-.1.502-.502.603-.502 0-.804-.402-.603-1.005Zm-46.513 0c.201-.603 1.306-.201 1.206.502-.1.503-1.005.703-1.206.201v-.703Zm-11.251-.502c0-.804.602-1.005 1.105-.302.402.402 0 1.005-.704 1.005-.3 0-.401-.201-.401-.703Zm5.224-1.507c.301-.503 1.105-.302 1.205.402 0 .602-.402 1.004-1.005.703-.3-.101-.401-.503-.1-1.005l-.1-.1Zm62.385-.101c.302-.301.804-.1 1.005.302.402.502-.201 1.205-.804 1.004-.301-.201-.502-1.004-.201-1.306Zm-58.568.101c.201-.402 1.005-.302 1.306.201.201.301.201.502-.1.703-.603.603-1.507 0-1.206-.904Zm54.651 0c.401-.503 1.004-.302 1.004.502 0 .502-.1.703-.402.703-.602 0-1.004-.703-.602-1.105v-.1Zm-62.185-.101c.401-.502 1.306.201 1.105.804-.201.603-1.306.402-1.306-.201l.2-.603Zm58.267.302c.2-.503.502-.603 1.004-.302.402.302.201 1.005-.301 1.105-.603.101-.904-.301-.703-.803Zm11.653-.302c.402-.502.904.101.502.603l-.502.301c-.201 0-.201-.703 0-1.004v.1Zm-59.975-2.009c.502-.201.603-.201.904.402.302.703-.402 1.406-1.004 1.004-.302-.401-.302-1.306 0-1.406h.1Zm-8.238.301c.201-.401 1.306-.301 1.407 0 .1.503-.302 1.005-.703 1.005-.402 0-.904-.703-.704-1.005Zm62.286.101c.201-.502 1.205-.402 1.406 0 .101.402-.201 1.004-.703 1.004-.402 0-.804-.602-.703-1.004Zm-66.103 0c.301-.603 1.205-.302 1.205.301 0 .402-.2.603-.502.603-.603.1-.904-.402-.703-1.005v.101Zm70.121.1c0-.402 0-.502.402-.402.703 0 1.005.704.703 1.106-.402.401-1.004 0-1.105-.704Zm-10.849 0c.401 0 .401.603.1.804-.301.201-.603-.1-.502-.502 0-.201.301-.302.402-.302Zm-51.436-.1c0-.603 1.105-.402 1.205.301 0 .603-.502.804-1.004.402a1.003 1.003 0 0 1-.302-.703h.1Zm55.052-.302c.603 0 1.005.503.402 1.005-.402.502-1.005.201-1.005-.502 0-.402.101-.603.603-.603v.1Zm11.252-1.205c.401-.201.502-.201.803 0 .402.402.302 1.306 0 1.406-.502.201-1.004-.401-1.004-1.004 0-.101 0-.402.201-.402Zm-64.395-.603c.3-.502.803-.402 1.105.201.301.502.1.904-.402.904-.603 0-1.005-.602-.703-1.105Zm51.033.201c.302-.301.804-.301 1.005 0 .1.302-.502.904-1.005.904-.401 0-.401-.502 0-.904Zm7.535-.402c.402-.301 1.205.503 1.005 1.005-.201.502-1.106.301-1.206-.402 0-.301 0-.603.201-.703v.1Zm-69.82-.301c.804 0 1.306 1.205.703 1.507-.502.201-.703 0-1.004-.904 0-.402 0-.603.301-.603Zm65.802.502c.301-.502.502-.603.803-.201.402.402.402 1.005 0 1.206-.603.201-1.105-.402-.803-1.005Zm7.835-.201c.201-.301.804-.201 1.005.402.502.804-.603 1.206-1.105.402-.201-.301-.201-.502 0-.703l.1-.101Zm-69.92 0c.301-.301.603-.301 1.005.201.2.503-.402 1.206-.904 1.005-.402-.201-.503-.804 0-1.206h-.101Zm3.817 0c.302-.301.804-.1 1.005.402.1.603-.2 1.005-.804.804-.502-.201-.602-.804-.2-1.206Zm-1.908-2.009c.2-.201.803 0 1.004.402.302.502-.2 1.205-.803 1.005-.402-.201-.503-1.005-.201-1.306v-.101Zm58.568.402c.402-.502.804-.502.904.1 0 .603-.502 1.005-1.004.905-.402-.201-.402-.503 0-1.005h.1Zm-62.486-.301c.502-.201 1.004 0 1.004.401.1.704-.502 1.206-1.004.804-.302-.402-.302-1.005 0-1.205Zm73.939.2c.301-.401.502-.401 1.004 0 .302.503.302.503 0 .905-.703.602-1.607-.201-1.004-.905Zm-66.304 0c.1-.401.402-.401.904 0 .502.302.301 1.005-.301 1.005-.503 0-.804-.502-.603-1.005Zm58.267 0c.201-.401.402-.401 1.004 0 .402.302.302 1.005-.2 1.005-.503 0-1.005-.603-.804-1.005Zm4.018 0c.201-.401.503-.401 1.005 0 .402.503.301.905-.302 1.005-.602 0-.904-.502-.703-1.005Zm-73.939-1.205c.402-.301.503-.301 1.005.1.402.503 0 1.005-.703 1.005-.603 0-.703-.603-.302-1.005v-.1Zm71.93-.804c.904-.603 1.808.503 1.005 1.206-.201.201-.402 0-.804-.302-.603-.602-.603-.602-.201-1.004v.1Zm-66.002 0c.401-.402 1.205-.1 1.205.402 0 .402-.502.804-.804.804-.502 0-.803-.804-.401-1.206Zm62.285.302c.502-.503.502-.503 1.005-.201.401.301 0 1.004-.503 1.004-.703.201-1.004-.301-.502-.803Zm11.653-.503c.302-.301.704-.1 1.005.402.502.603.201 1.105-.502.904l-.503-.1c-.201 0-.301-1.005 0-1.206Zm-70.12.201c.4-.402.602-.402 1.004.101.401.402.401.502 0 .803-.603.704-1.507-.201-1.005-1.004v.1Zm66.202-.1c.302-.302.503-.302 1.005.1.402.503.402.703-.201 1.005-.804.402-1.406-.502-.804-1.005v-.1Zm-73.838-.101c.402-.402 1.306.302 1.105.804-.2.603-1.205.502-1.205-.1l.1-.704Zm11.252.804c-.1-.402.602-.301.703 0 .1.301 0 .402-.201.402s-.402-.201-.502-.402Zm60.979-2.712c.603 0 1.005.602.703 1.004-.502.603-1.105.402-1.105-.301 0-.603 0-.703.402-.703Zm-73.939.703c0-.804.603-1.005.804-.302.2.603 0 1.005-.402 1.005-.301 0-.402-.301-.402-.703Zm7.233-.402c.201-.402 1.005-.402 1.306 0 .302.402 0 1.005-.602 1.005-.402 0-.804-.704-.603-1.005h-.1Zm4.019.1c0-.602.502-.502.904 0 .402.704.402 1.005 0 1.005a1.006 1.006 0 0 1-1.005-1.005h.1Zm58.669-.1c.401-.402.602-.402.904 0 .201.603-.101 1.005-.703 1.005-.503 0-.603-.603-.201-1.005Zm7.534 0c.101-.402.904-.402 1.105 0 .201.402.201.603 0 .804-.603.602-1.406 0-1.105-.804Zm4.019-.201c.201-.201.401-.1.602.1.101.302-.301 1.106-.602 1.106-.201 0-.302-1.005 0-1.206Zm-78.058.201c.301-.603 1.205-.301 1.205.402 0 .402-.2.502-.502.603-.603 0-.904-.402-.703-1.005Zm-1.708-2.009c.402-.402.703-.302 1.005.201.301.402 0 1.004-.603 1.004-.502 0-.804-.803-.402-1.205Zm73.838-.201c.503-.101.603-.101 1.005.201.603.703-.201 1.607-1.005 1.004-.301-.301-.401-1.004 0-1.205Zm-3.616.603c.301-.603.603-.603.804-.101.2.402-.503 1.105-.804.804-.201-.201-.201-.402 0-.703Zm7.936-.704c.201-.1.703.402.703.704 0 .502-.703 1.004-1.004.602-.402-.401-.402-1.004 0-1.205h.301v-.101Zm-70.121-.201c.301 0 1.306 1.005 1.205 1.206-1.004.804-2.009.301-1.607-.703.1-.302.301-.503.402-.503Zm-4.22.603c.101-.502.603-.502 1.005 0 .302.402 0 1.005-.502 1.005s-.703-.402-.502-1.005Zm-7.634.101c-.1-.804.502-1.005 1.105-.402.602.603.401 1.105-.402 1.105-.603 0-.703 0-.703-.703Zm1.607-2.612c.402-.302 1.507.502 1.406 1.004-.2.402-.803.704-1.205.603-.302-.201-.502-1.306-.201-1.607Zm8.037.201c.2-.201.402-.101.803.201.704.703.302 1.406-.502 1.105-.402-.101-.603-1.005-.301-1.306Zm73.939 0c.301-.302 1.607.1 1.607.703 0 .402-1.005.804-1.507.603-.301-.101-.402-1.005-.1-1.306Zm-3.617-.101c.402 0 1.005.603.804 1.005-.302.904-1.608.402-1.306-.503.1-.301.301-.502.502-.502Zm-74.441.402c.2-.502.502-.502 1.005 0 .401.402.3 1.005-.201 1.005-.603 0-1.005-.603-.804-1.005Zm70.925.402c.201-.201.502-.201.502.201l-.402.402c-.301.1-.401-.302-.1-.603Zm-77.756-2.21c.1-.704.502-.804 1.004-.201.603.502.502 1.004 0 1.306-.703.201-1.205-.402-1.004-1.105Zm8.94-.201c.603-.503 1.206-.201 1.206.502 0 .804-.703 1.005-1.205.502-.503-.502-.503-.502 0-1.004Zm74.341-.101c.804 0 1.005 1.005.302 1.105-.603.201-.905 0-.905-.703 0-.402.101-.502.603-.402Zm-78.258.503c0-.603.301-.704.803-.402.503.301.302 1.004-.301 1.004-.302 0-.402-.1-.502-.602Zm80.468-1.105c.101-.503 1.005-.503 1.407 0 .402.502.1 1.004-.603 1.004-.804 0-1.005-.402-.804-1.004Zm-5.324.2c.201-.2.502-.2.603 0 0 .201 0 .402-.302.503-.402.301-.703-.101-.301-.503Zm-76.55-.602c.2-.302.502-.201.502.1 0 .201-.201.402-.302.402-.402 0-.502-.301-.2-.502Zm3.314-.904c.603 0 1.306.703 1.005 1.004-.402.402-1.306 0-1.306-.603 0-.301 0-.502.301-.502v.101Zm-5.324-.603c.1-.603.402-.603 1.005 0 .703.502.401 1.306-.503 1.306-.301 0-.703-.904-.502-1.306Zm82.076.402c.201-.302.502-.302.703 0 0 .201 0 .301-.201.402-.502.2-.703 0-.502-.402Zm1.909-.503c.301-.301.703-.301.703 0 0 .302-.703.603-.904.402l.201-.402Zm-85.793-.502c0-.301.2-.301.402-.1.2.201.2.301 0 .502-.402.301-.603 0-.402-.402Zm86.597-1.105c.2-.502 1.305-.402 1.607.1.301.503 0 1.005-.904 1.005-.603 0-1.005-.502-.703-1.005v-.1Zm-4.019.402c.402 0 .301.402 0 .603-.201 0-.402-.101-.402-.302 0-.201.201-.301.402-.301ZM60.589 127.8c.2-.502 1.004-.402 1.205.201.402.603.1 1.105-.602 1.004-.603 0-.905-.502-.603-1.205Zm-3.818-.302c.201-.502.904-.602 1.306 0 .201.201.201.302-.1.603-.804.603-1.407.201-1.206-.603Zm2.11-1.406c.301-.301 1.406.402 1.406 1.005 0 .301-.703.703-1.105.502-.502-.101-.703-1.206-.301-1.507Zm83.081.201c.401-.502 1.004-.402 1.406 0 .301.402.301.502.101.703-.905.703-2.211 0-1.507-.703Zm3.415-.201c.201-.502 1.105-.502 1.507 0 .402.502 0 1.005-.703 1.005s-1.005-.402-.804-1.005Zm-.803-.904c.1-.402.401-.502.602-.201.101.301-.502.904-.703.703v-.502h.101Zm-85.693 0c.1-.402.402-.502.603-.101 0 0 0 .302-.302.402-.502.302-.502.201-.301-.301Zm-2.31-1.607c.3-.704 1.406 0 1.205.803-.1.603-1.105.603-1.206 0v-.803Zm87.701-.905c.201-.401 1.005-.401 1.206 0 .301.503 0 1.306-.503 1.306-.401 0-.904-.904-.703-1.306Zm2.11.603c.201-.402.402-.402.502-.201.201.101.201.302 0 .402-.603.402-.703.301-.502-.201Z" />

      <path id="moustache"
        d="M100.42 133.827c.201-.2-.201-.803-.502-.803-.1 0-.201.201-.201.502 0 .402.402.603.703.301Zm-1.808-.1c0-.301-.402-.502-.603-.301-.2.301-.1.502.201.502.201 0 .402 0 .402-.201Zm4.722-.1c0-.201-.201-.302-.302-.302-.1 0-.201.101-.201.302 0 .2.101.301.302.301.201 0 .301-.101.201-.301Zm5.726-.201c0-.402-.302-.503-.503-.201-.2.201 0 .502.302.502 0 0 .201-.1.201-.301Zm5.425-.704c0-.602-1.005-.703-1.105-.201-.201.402.301.804.803.704.201 0 .302-.201.302-.503Zm-17.48 0c-.1-.502-1.005-.703-1.206-.301-.2.402.402 1.005.904.804.201 0 .301-.302.301-.503Zm8.639-.301c-.201-.301-.703-.301-.904 0-.502.402.301 1.105.904.603.201-.201.201-.302 0-.503v-.1Zm-17.38.301c0-.502-1.004-.703-1.105-.301-.3.301 0 .603.603.603.502 0 .603 0 .502-.302Zm14.969-1.004c-.603-.502-.703-.502-1.205 0-.503.502-.101 1.507.703 1.306.703-.101.904-.804.402-1.306h.1Zm-8.84 0c-.603-.502-.804-.502-1.106-.101-.502.503-.2 1.306.402 1.407.905.1 1.306-.703.704-1.306Zm17.379-.101c-.502-.401-.603-.401-1.004 0-.402.603-.101 1.306.602 1.306.804 0 1.005-.904.402-1.306Zm-10.548.201c-.502-.402-.502-.402-.703-.201-.302.302-.201 1.005.201 1.005.502.301.803-.301.401-.804h.101Zm8.84.201c-.401-.502-.803-.603-1.004-.201-.101.503.402 1.005.904.804.201-.201.201-.301 0-.603h.1Zm-17.781-.201c-.201-.201-.402-.201-.603-.1-.402.201-.1.904.301.904.503 0 .704-.402.302-.804Zm-6.73-.201c-.403-.301-.805-.401-1.005-.201-.503.503.3 1.306 1.004 1.005.402-.1.402-.301 0-.804Zm13.46-.201c-.401-.401-1.004-.401-1.205 0-.1.302.302 1.005.703 1.005.402 0 .804-.804.503-1.005Zm8.841-.1c-.201-.402-1.004-.301-1.205 0-.201.603.1 1.005.603 1.005.401 0 .803-.603.602-1.005Zm8.74.402c-.1-.703-1.004-.904-1.205-.302-.101.201 0 .503.201.704.402.502 1.004.201 1.004-.402Zm-26.42 0c-.202-.603-.905-.804-1.005-.302-.302.402 0 .804.502.804.402 0 .502-.201.402-.502h.1Zm44.001-.402-.402-.201c-.301 0-.502 0-.502.201 0 0 .201.201.502.201l.402-.201Zm-24.412-1.406c-.301-.402-.804-.503-1.005-.302-.301.302-.201 1.005.101 1.005.603.301 1.205-.302.904-.703Zm-26.32.2c-.101-.502-.905-.803-1.206-.502-.201.302-.201 1.005.1 1.005.603.301 1.105 0 1.005-.503h.1Zm17.58 0c-.1-.602-1.005-.803-1.306-.301-.1.502.502 1.005 1.005.904.2 0 .301-.402.301-.603Zm17.581 0c-.101-.602-1.005-.803-1.206-.301-.201.502.402 1.005 1.005.904l.201-.603Zm-37.673-.2c-.302-.201-.402-.201-.502.1-.201.603.2 1.005.502.502.2-.201.2-.301 0-.602Zm11.251.502c.402-.502-.602-1.206-1.004-.804l-.201.603c0 .402 1.004.603 1.306.201h-.1Zm-22.402-.302c0-.602-.502-.803-.703-.301-.201.402 0 .804.502.804.2 0 .301-.201.2-.503Zm2.511.101c-.1-.402-.502-.603-.703-.301-.301.301-.1.703.302.703.3 0 .401-.101.401-.402Zm15.07-.101c0-.502-.403-.703-.603-.502-.402.402-.201 1.005.301 1.005.301 0 .402-.101.301-.503Zm2.51.302c0-.302-.501-.703-.702-.502-.302.301-.1.703.301.703.2 0 .402 0 .402-.201Zm6.33-.603c-.502-.502-.703-.402-.703.301 0 .302 0 .503.301.503.502 0 .603-.402.301-.804h.1Zm11.251.603c0-.302-.502-.703-.703-.502-.301.301-.1.703.302.703.201 0 .401 0 .401-.201Zm6.229-.603c-.301-.402-.603-.402-.703 0-.201.502 0 .804.402.804.502 0 .602-.402.301-.804Zm2.411.402c0-.402-.402-.603-.703-.301-.302.301-.101.703.301.703s.502-.101.402-.402Zm17.581 0c0-.402-.402-.603-.704-.301-.301.301-.1.703.302.703s.502-.101.402-.402Zm2.411-.301c-.201-.402-.603-.503-.804-.302-.402.402-.201 1.005.201 1.005.603 0 .804-.302.603-.703Zm-13.563.502c.201-.302-.401-1.005-.602-.804l-.201.603c0 .402.603.603.803.201Zm-24.01-.302c-.2-.502-.502-.502-.703 0 0 .201 0 .402.201.402.502.201.703 0 .502-.402Zm6.43 0c.1-.301-.402-.703-.703-.401v.502c0 .502.602.502.703 0v-.101Zm-10.649-.401c0-.905-.502-1.005-.804-.402-.2.301-.2.502 0 .803.503.503.905.302.804-.401Zm36.769.703c.602 0 .502-.703 0-.904-.302 0-.402.1-.402.402 0 .301.1.502.402.502Zm-19.088-.603c0-.804-.502-1.105-1.004-.603-.302.402 0 1.005.602 1.105.302.101.402 0 .402-.502Zm8.74.301c.603-.502 0-1.406-.703-1.105-.402.101-.301 1.206 0 1.306.301 0 .603 0 .703-.201Zm-17.48-.301c0-.502-.402-1.005-.804-.804-.201.101-.301.503-.301.704.1.703 1.005.803 1.005.1h.1Zm-17.882-.703c-.2-.201-.402-.201-.603 0-.301.502-.2 1.205.402 1.205.502 0 .703-.803.201-1.205Zm-11.452.703-.201-.301c-.201 0-.302.1-.302.301 0 .201.1.402.302.301l.2-.301Zm55.554-.703c-.402-.402-.603-.302-.603.201 0 .301.101.402.402.402.503 0 .603-.201.201-.603Zm-57.564-1.105c-.401-.302-.803-.402-1.004 0-.1.502.1.803.502.803.603 0 .804-.401.502-.803Zm53.044 0c-.101-.302-.804-.402-1.005-.101-.402.302-.201 1.005.201 1.005.502 0 1.004-.603.804-1.005v.101Zm8.74.301c0-.603-1.005-.804-1.206-.201l.101.503c.401.401 1.004.2 1.004-.302h.101Zm-44.203-.201c-.402-.502-.904-.502-.904 0 0 .603.603.904 1.004.603.1-.201 0-.402-.1-.603Zm17.782-.1c-.402-.402-1.106-.302-1.106.201a.58.58 0 0 0 1.005.402c.301-.201.301-.302 0-.603h.101Zm-26.522.1c-.201-.402-.703-.502-1.005-.1-.2.301.503 1.004.804.703.201-.201.201-.402.201-.603Zm35.161.402c.402-.402.201-.804-.502-.804-.402 0-.603.101-.603.402 0 .603.703.804 1.105.402Zm-18.183-.703c-.402-.101-.502 0-.402.402 0 .402.2.502.502.502.703 0 .603-.804 0-1.005l-.1.101Zm11.151.1c-.201-.602-.703-.502-.703.201 0 .302.1.503.301.503.402 0 .603-.302.402-.704Zm26.421-.201c-.402-.301-.603-.201-.804.101-.1.402.101.804.503.804.502 0 .703-.704.301-.905Zm-17.581.101c-.401-.402-.904-.402-.904.201a.58.58 0 0 0 1.005.402v-.603h-.101Zm8.941.201c-.301-.603-.904-.603-.904 0 0 .402.302.703.804.502.301 0 .301-.201 0-.502h.1Zm-26.722.402c.301-.201.1-.905-.201-.905-.2 0-.301.201-.402.402-.2.402.302.904.603.503Zm-17.38-.603c-.301-.402-.602-.402-.803 0-.201.603.301 1.004.703.603.301-.201.301-.402 0-.603h.1Zm-9.142.703c.503 0 .402-.904 0-1.005-.401 0-.401 0-.401.503 0 .301.2.502.401.502Zm17.58 0c.503 0 .403-.904 0-1.005-.4 0-.4 0-.4.503 0 .301.3.502.4.502Zm-3.616-1.105c-.2-.603-.703-.804-1.004-.201-.1.402 0 1.005.301 1.105.502.201.804-.301.703-.904Zm-17.58 0c0-.402-.603-.703-.904-.402-.302.302-.1 1.105.2 1.306.503.201.804-.201.704-.804v-.1Zm8.84 0c-.401-.603-.904-.703-1.004-.1-.302.703.301 1.306.904.803.301-.301.301-.502.1-.803v.1Zm17.58 0c-.2-.502-.803-.703-1.004-.402-.301.302-.2 1.105.1 1.206.603.201 1.206-.402 1.005-.804h-.1Zm17.581 0c-.2-.502-.803-.703-1.004-.402-.302.302-.201 1.105.1 1.206.603.201 1.206-.402 1.005-.804h-.101Zm17.581 0c-.201-.502-.804-.703-1.005-.402-.301.302-.201 1.105.101 1.206.603.201 1.205-.402 1.004-.804h-.1Zm-26.421-.201c-.603-.603-1.005-.402-1.005.301 0 .704.101.905.603.704.603-.101.804-.603.402-1.005Zm17.58 0c-.502-.502-1.004-.502-1.105 0-.201.603.302 1.206.704 1.005.703-.402.803-.603.401-1.005Zm-45.709.603c.2-.201-.2-.703-.502-.703l-.201.301c0 .402.402.603.703.301v.101Zm43.901 0c.101-.201-.301-.703-.603-.703l-.2.401c0 .402.502.603.803.302Zm-35.06-.201c-.1-.402-.503-.603-.704-.402-.301.301-.2.703.302.703.301 0 .401 0 .401-.301Zm17.58.201c0-.302-.603-.804-.703-.603-.302.301-.101.703.301.703l.402-.1Zm8.64-.201c0-.502-.503-.703-.704-.301-.2.301 0 .602.503.602.201 0 .301-.1.201-.301Zm17.58 0c0-.402-.402-.603-.703-.402-.301.301-.1.703.301.703.302 0 .503 0 .402-.301Zm-35.261-.201c0-.402-.402-.402-.603 0 0 .201 0 .402.2.502.403.101.604 0 .503-.502h-.1Zm33.352-.502c.302-.302-.2-1.206-.703-1.206-.402 0-.502.201-.402.603 0 .703.704 1.005 1.105.603Zm-52.54-.201c0-.804-1.005-1.306-1.306-.603-.201.502.1 1.005.703 1.005.402 0 .603-.201.603-.402Zm8.64-.503c-.302-.602-1.005-.602-1.206-.1-.201.402.301 1.005.803 1.005.503 0 .704-.402.402-1.005v.1Zm8.94.503c0-.804-1.004-1.306-1.306-.603-.2.502.1 1.005.703 1.005.402 0 .603-.201.603-.402Zm8.64-.503c-.201-.502-1.005-.703-1.206-.1-.2.402.302 1.005.804 1.005s.603-.302.402-.905Zm17.58.503c0-.804-1.004-1.306-1.205-.603-.201.502 0 1.005.703 1.005.402 0 .502-.201.502-.402Zm-8.74-.201c0-.603-1.004-.703-1.205-.201l.1.603c.402.301 1.005 0 1.005-.402h.1Zm-11.251-.402c0-.301-.603-.703-.804-.603l-.301.201c-.302 0-.302.603 0 .804.301.201 1.004 0 1.004-.402h.1Zm34.659-.703c-.704-.502-1.005-.402-1.005.201 0 .301.101.602.502.803 1.005.402 1.407-.401.503-1.004Zm-63.793.402c-.2 0-.301 0-.301.301 0 .1.1.301.301.301l.201-.201-.2-.401Zm17.782.201c0-.503-.302-.804-.502-.603-.302.301-.201 1.004.2 1.004.1 0 .302-.201.302-.401Zm2.612 0c.301-.804-1.005-1.608-1.507-.804-.302.603.1 1.205.804 1.205.3 0 .602-.201.703-.401Zm14.868.1c-.101-.402-.603-.402-.603 0 0 .1.201.301.402.301s.301-.1.201-.301Zm26.321-.502c-.402-.402-.402-.402-.402.201 0 .602.301.803.602.401 0-.2 0-.502-.2-.602Zm-59.573.803c1.105-.201 1.004-1.607-.201-1.607-.402 0-.503.201-.603.603-.201.703 0 1.004.803 1.004Zm9.443-1.105c-.201-.502-1.206-.602-1.407-.1-.2.603 0 1.004.603 1.205.804 0 1.206-.502.904-1.105h-.1Zm43.901-.1c-.402-.502-1.206-.502-1.406 0-.201.703.1 1.205.703 1.205.803-.1 1.105-.703.703-1.205Zm-46.513.402c-.301-.302-.402-.302-.502 0-.201.602.2 1.004.602.602.201-.2.201-.301-.1-.602Zm35.061-.201c-.201 0-.302 0-.302.502 0 .301 0 .502.302.402.401-.101.401-.703 0-.904Zm8.94.201c-.301-.402-.301-.402-.502 0-.201.502.302 1.004.603.602.301-.2.201-.301 0-.602h-.101Zm-6.228.201c.201-.904-1.005-1.407-1.407-.603-.2.603 0 1.004.704 1.004.502 0 .703 0 .803-.401h-.1Zm-39.38-.904c-.302-.302-.402-.302-.503 0-.2.502 0 1.004.402 1.004s.502-.603.1-1.004Zm43.901 0c-.402-.302-.402-.302-.503 0-.201.502 0 1.004.302 1.004.402 0 .502-.603.201-1.004Zm-8.539.602a.432.432 0 0 0-.402-.402c-.302 0-.402 0-.402.402 0 .302.1.503.402.402a.432.432 0 0 0 .402-.402Zm-26.623.402c.402-.301.302-1.004-.1-1.004-.2 0-.402.1-.502.301-.1.402.301.904.603.703Zm44.002-.904c-.301-.402-.301-.402-.502 0-.402.603 0 1.205.502.703.302-.301.302-.402 0-.703Zm-46.915-.301c-.301-.402-.803-.402-1.004 0-.201.201.1.602.602.602.503 0 .704-.301.402-.602Zm35.161 0c-.201-.402-.502-.402-.703 0 0 .201 0 .401.201.502.402.201.603 0 .502-.502Zm-44.102.201c0-.402-.402-.603-.703-.402-.301.301-.1.803.301.703.201 0 .402-.201.402-.301Zm52.943 0c0-.402-.402-.603-.603-.402-.301.301-.201.803.201.703.201 0 .402-.201.402-.301Zm-47.82-.302c.402 0 .302-1.004-.2-1.004l-.502.1c-.201.301.3 1.005.703 1.005v-.101Zm9.243-.502c-.402-.502-1.206-.502-1.206 0 0 .402.603.603 1.005.402.402 0 .402-.201.201-.402Zm35.161-.302c-.502-.502-1.105-.401-1.105.201 0 .503.502.804 1.005.402.201-.201.201-.402 0-.603h.1Zm-37.572-.2c-.301-.503-1.206-.704-1.306-.201-.301.803.402 1.306 1.206.803.3-.201.3-.301.1-.602Zm-8.84-.503c-.503-.502-.804-.703-1.206-.201-.603.503 0 1.507.703 1.507.703-.201 1.005-.803.502-1.306Zm44.102.603c0-.703-.704-1.005-1.507-.703-.402.201-.302 1.004.201 1.105.401.301 1.306 0 1.306-.402Zm8.338-.402c-.603-.502-.804-.502-1.005-.301-.603.603.402 1.607 1.005 1.004.502-.301.502-.301 0-.703Zm-10.549.502c0-.401-.1-.502-.401-.502-.302 0-.503.101-.402.402.1.603.803.603.803 0v.1Zm-35.16-.602c-.302-.503-.603-.402-.905 0-.301.703.302 1.105.804.602.301-.2.301-.401.1-.602Zm-8.74.201c0-.503-.503-.603-.804-.201-.201.201-.201.502-.1.703.1.402 1.004 0 1.004-.502h-.1Zm52.741 0c-.402-.603-.804-.704-1.005-.201-.1.502.402 1.004.904.803.201-.201.201-.301 0-.602h.101Zm-2.21-.704c-.201-.401-1.005-.401-1.206 0-.1.503 0 1.005.503 1.005.401 0 .803-.603.703-1.005Zm-44.102.402c0-.201-.201-.402-.503-.402-.401 0-.502 0-.502.402 0 .302.1.402.502.402.302 0 .503-.201.503-.402Z" />
    </g>

    <g id="ears-jaw">
      <path id="ears-jaw_2" fill="currentColor"
        d="M150.644 75.344h6.454c-.689 7.763-.7 7.665.839 7.123 5.488-1.932 10.002 4.7 8.971 13.183-1.946 16.01-7.286 26.341-14.526 28.103-1.944.473-2.771-.901-2.771.914 0 5.361-3.622 18.592-10.993 27.508-20.469 27.922-59.82 25.791-74.71 0-5.75-9.96-9.748-20.632-10.517-27.508-.198-1.767-1.1-2.186-2.37-2.506-6.512-1.641-11.711-11.124-13.249-24.165-1.13-9.59 2.633-17.235 7.643-15.524 1.752.599 2.084.31 1.63-5.784h5.216c0 1.858-.595 1.74 5.856 1.153 4.28-.389 18.135-.74 24.194-.614 7.704.162 9.854.605 12.415 2.558 2.369 1.805 9.219 1.534 13.688-.542 3.825-1.777 3.091-1.697 16.516-1.8 10.883-.084 15.416.022 22.849.536 2.543.176 2.84.036 2.865-2.635ZM53.13 86.443c-1.391-3.055-1.001 4.433.584 11.223 1.015 4.345 1.116 5.96.725 11.577-.761 10.966-.208 15.104 3.495 26.147 2.385 7.114 3.462 10.429 7.425 16.109 5.155 7.387 11.78 12.774 17.187 15.384 4.146 2.002 10.235 3.741 12.725 3.863.85.042 2.203.067 2.203.067s1.731.058 3.096.067c7.547.05 11.691-.731 18.692-4.558 2.611-1.427 7.23-3.469 14.246-10.537 7.016-7.068 10.943-14.03 13.378-23.715 2.605-9.719 2.033-7.783 2.209-18.835.171-10.768.392-12.998 1.651-16.676 1.792-5.233 1.679-10.054-.201-8.62-1.016.776-.942.517-1.224 4.287-.805 10.783-5.147 16.057-14.367 17.451-14.28 2.159-24.631-2.057-26.253-10.693-.196-1.04-.509-2.417-.695-3.058-.186-.64-.487-2.427-.668-3.97-.564-4.82-.818-5.06-5.439-5.166-4.41-.1-4.63.108-5.238 4.957-.517 4.126-1.687 9.809-3.368 16.366-1.942 7.576-1.9 7.34-1.51 8.654 1.74 5.858 12.831 6.51 17.79 1.046 2.794-3.079 4.949-1.649 3.103 2.057-3.817 7.661-19.678 7.617-23.64-.067-1.196-2.321-.207-10.225 1.653-13.193.453-.724.152-.617-.873.309-4.832 4.366-20.137 4.592-28.42.419-4.757-2.396-6.272-5.724-7.559-16.611-.24-2.028-.558-3.956-.707-4.285Zm52.998 59.079c1.559-.26 4.619 1.165 2.622 2.318-1.672.794-10.635 1.338-10.635.645-.001-.346-1.968-.83-3.374-.83-1.21 0-1.581.194-1.482-.835.094-.98.485-1.04 7.082-1.084 2.877-.02 5.481-.116 5.787-.214Zm55.314-58.785c-4.083-1.977-7.948 3.222-6.911 9.296.202 1.183.109 1.203 1.853-.396 3.962-3.631 5.606-4.445 5.979-2.962.392 1.569-3.766 5.871-6.03 6.239-1.02.165-1.023.586-.013 2.166 2.432 3.802 2.366 8.369-.119 8.369-.916 0-1.074-.384-1.03-2.499.057-2.805-.966-3.777-1.295-1.23-.082.644-.449 3.123-.814 5.511-1.321 8.637-.953 9.705 2.237 6.48 6.961-7.037 11.221-28.516 6.143-30.974Zm-114.619.632c-8.257-5.823-7.798 17.498.552 27.995.985 1.239 3.805 3.652 4.274 3.658.473.006-.69-14.143-1.317-16.03-.184-.552-1.137 1.569-1.511 3.363-.718 3.442-2.239 3.157-2.233-.419.004-2.189.517-3.499 2.027-5.17.98-1.085 1.077-.952-2.113-2.86-3.218-1.926-4.212-3.499-3.455-5.472.335-.872 2.212.243 5.134 3.05 1.02.979 1.854 1.695 1.854 1.591 0-1.752-1.603-8.997-1.991-9.002-.122 0-.671-.317-1.22-.704Zm33.151-6.2c-21.029-.76-23.278-.106-22.962 6.674.69 14.836 3.506 18.12 16.034 18.698 12.733.588 16.507-1.55 17.947-10.166 2.4-14.371 2.139-14.732-11.019-15.207Zm59.368.228c-7.472-.494-21.197-.326-24.35.298-4.016.795-4.552 1.818-4.356 8.299.359 11.817 4.503 16.159 15.748 16.499 15.711.476 19.379-3.15 19.46-19.236.025-5.165-.29-5.45-6.502-5.86Z" />
    </g>

    <g id="body-neck">
      <path id="torso" fill="currentColor" fill-rule="evenodd"
        d="M75.274 162.337s-2.986 11.231-1.472 18.199c4.677 21.515 47.91 20.197 54.073 0 2.186-7.163.517-11.091-.35-19.008l2.024-.292c.032 6.571.38 16.326.38 16.326s19.267 5.064 27.323 8.433c27.783 11.621 31.407 24.465 38.769 47.133 2.891 8.904 4.012 22.791 4.034 23.965-4.034 0-167.515.046-200 .046-.044-2.521 1.17-13.008 2.004-17.328 2.828-14.632 5.845-26.095 12.592-36.024 3.157-4.646 13.377-9.921 22.83-14.75 11.764-6.01 23.877-9.739 31.823-11.475 1.198-.261 1.768-.431 3.075-.637.72-6.254.434-9.55.261-16.48l2.634 1.892Z"
        clip-rule="evenodd" />

      <g id="overlay-shirt" fill="currentColor">
        <path
          d="M141.514 182.012c9.643 1.873 29.089 10.56 37.248 18.719 6.245 6.245 13.45 23.093 14.972 28.771 3.421 12.77 4.578 19.02 4.578 26.47h-25.006v-24.095h-1.296v24.095H27.951c0-.062-.384-21.185-.384-22.717h-1.44v22.717H2.234c0-1.392 1.513-18.354 2.682-22.717 4.898-18.278 5.868-23.711 14.525-32.367 5.328-3.827 26.626-15.247 41.926-20.211 0 17.254 18.883 29.727 39.795 29.671 22.646-.062 40.352-9.574 40.352-28.336Z" />
        <path
          d="M72.312 178c0 12.122 13 19.631 28.85 19.631 17.562 0 28.612-10.966 28.612-18.835 2.604.383 8.654 2.183 10.373 2.821 0 37.521-77.587 36.137-77.587-1.384 3.895-1.15 6.357-1.689 9.752-2.233Z" />
      </g>
    </g>

    <g id="face">
      <path id="smile" fill="currentColor"
        d="M119.666 133.669c.379-.144 3.135-1.236 3.135-1.236 5.246-2.219 5.576 1.079.375 3.751-12.659 6.503-37.03 5.901-44.687-1.104-2.255-2.063-.4-2.462 4.542-.976 10.64 3.199 22.078 3.494 32.313.835 2.408-.625 3.451-1.016 4.322-1.27Z" />

      <g id="eye-right">
        <path id="eye-ellipse-r" fill="currentColor"
          d="M130.612 87.341a3.693 3.693 0 1 1-7.385 0 3.693 3.693 0 0 1 7.385 0Zm-5.17 0a1.477 1.477 0 1 0 2.954 0 1.477 1.477 0 0 0-2.954 0Z" />
        <path id="eye-under-r" stroke="currentColor" stroke-linecap="round" stroke-opacity="1" stroke-width="2"
          d="M124.016 92.75c2.916.11 3.003.046 5.809.001" />
      </g>

      <g id="eye-left">
        <path id="eye-ellipse-l" fill="currentColor"
          d="M79.409 87.341a3.693 3.693 0 1 1-7.385 0 3.693 3.693 0 0 1 7.385 0Zm-5.17 0a1.477 1.477 0 1 0 2.954 0 1.477 1.477 0 0 0-2.954 0Z" />
        <path id="eye-under-l" stroke="currentColor" stroke-linecap="round" stroke-opacity="1" stroke-width="2"
          d="M72.813 92.75c2.916.11 3.003.046 5.81.001" />
      </g>

      <path id="eyebrow-right" fill="currentColor"
        d="M110.663 71.88c.41-3.489 2.738-5.326 8.369-6.607 9.563-2.176 24.262 3.016 24.262 8.569 0 1.133-1.419 1.37-5.119.855-.919-.128-7.313-.3-14.21-.38-14.435-.17-13.586-.014-13.302-2.438Z" />

      <path id="eyebrow-left" fill="currentColor"
        d="M73.63 64.942c.919-.135 1.92-.29 2.226-.343 3.095-.54 9.06.331 11.619 1.696 4.88 2.602 6.53 8.696 2.254 8.33-3.736-.322-18.655-.393-22.618-.109-6.004.43-6.948.41-7.521-.165-2.224-2.225 6.932-8.361 14.04-9.409Z" />
    </g>
  </g>
</svg>