<svg fill="currentColor" viewBox="0 0 201 259">
  <g id="huma">
    <g id="face" fill="currentColor" fill-opacity="1">
      <path id="face-hair-ears" fill-rule="evenodd"
        d="M102.134.996c-.384.155-.347.696.157 2.318.534 1.716.48 1.78-.761.888-3.672-2.638-7.391-2.852-13.044-.749-2.181.812-2.181.812-4.099.317-5.534-1.426-10.113.365-13.212 5.17-1.278 1.983-2.136 2.756-4.437 4.001-3.14 1.7-4.755 3.329-5.426 5.477-.276.886-1.003 1.533-2.661 2.368-3.879 1.955-5.973 5.01-6.764 9.868-.222 1.36-.702 2.116-2.236 3.516-2.435 2.224-4.002 6.316-3.788 9.888.248 4.13.604 11.735.827 17.634.128 3.414.427 8.45.664 11.193.87 10.108.8 10.652-1.28 9.94-4.986-1.702-8.733 5.908-7.607 15.454 1.53 12.981 6.706 22.421 13.189 24.054 1.264.319 1.582.77 1.779 2.53.765 6.844 4.487 16.32 10.729 27.316 2.969 5.231 8.619 9.196 8.619 9.196 14.437 14.255 41.817 14.326 57.657.393 0 0 5.939-5.122 7.811-7.47 5.599-7.025 8.936-14.522 10.998-24.706.887-4.377 1.367-5.203 3.303-5.675 7.206-1.754 12.521-12.037 14.458-27.973 1.027-8.443-3.467-15.047-8.929-13.123-1.532.54-1.521.638-.835-7.09 1.913-21.535 1.787-29.223-.553-33.997-.754-1.538-.769-1.624-.973-5.652-.326-6.438-1.212-8.084-5.845-10.851-1.889-1.128-2.083-1.31-2.59-2.438-2.775-6.166-3.341-6.81-4.114-4.677-1.194 3.3-3.314 3.506-3.314.322 0-2.475-.585-3.918-2.66-6.56-2.282-2.904-4.087-2.862-4.097.096-.002.695-.36.604-1.568-.399a23.281 23.281 0 0 0-2.458-1.743c-.69-.41-1.8-1.189-2.466-1.732-2.687-2.19-5.506-2.95-10.098-2.726-1.661.082-3.222.156-3.468.166-.247.01-1.244-.554-2.216-1.252-3.351-2.407-7.237-3.879-8.692-3.292Zm15.011 14.423c0 .555-.597-.082-.73-.777-.115-.602-.115-.602.308-.08.232.287.422.673.422.857Zm-21.049 3.79c1.142.436 1.89 1.561 2.658 3.995.655 2.076.549 2.529-.228.974-.751-1.504-3.17-3.957-4.644-4.71-1.514-.772.312-.987 2.214-.26Zm31.02 1.17c.529.202 1.64 1.513 1.446 1.707-.051.05-.444-.124-.872-.39-1.241-.766-1.965-.89-3.443-.585-1.424.294-1.672.177-.816-.385 1.143-.748 2.334-.86 3.685-.346Zm-48.345 5.6c.958-.016 1.785-.247 3.439-.959 3.206-1.38 3.07-.641-.184.989-3.392 1.699-6.763 1.172-7.134-1.115-.135-.835-.135-.835 1.242.137 1.255.885 1.489.97 2.637.949Zm32.793-.459c-.164 1.978-1.493 4.21-3.295 5.535-1.305.96-1.261.674.229-1.51.734-1.076 1.537-2.5 1.786-3.164.91-2.433 1.439-2.79 1.28-.86Zm24.415 4.586c0 .701-3.25 2.319-4.344 2.161-.641-.092-.641-.092.13-.406.423-.172 1.47-.683 2.326-1.136 1.678-.888 1.888-.956 1.888-.619Zm-64.034.328c.67.003 1.642-.078 2.16-.18 1.116-.22 1.223.035.372.886-.873.874-2.92.687-3.928-.357-.5-.518-.578-.68-.266-.545.244.105.992.194 1.662.197Zm-.851 2.333c1.46.691 2.445.813 3.692.455.865-.248.874.063.02.701-1.567 1.17-5.299.134-5.299-1.471 0-.45-.053-.461 1.587.315Zm42.3.532c-1.495 2.174-6.651 4.285-9.265 3.795-1.018-.191-.631-.447.941-.623 2.297-.257 5.397-1.617 7.458-3.271 1.611-1.294 1.808-1.27.866.1ZM83.922 36.22c2.32 1.736 4.808 2.038 7.46.905 2.27-.971 2.723-.658.98.676-2.28 1.745-6.004 1.496-8.271-.553-1.52-1.373-1.644-2.133-.169-1.028Zm-4.972 1.791c1.828 6.314 12.77 7.769 19.03 2.53 1.614-1.352 1.301-1.35 3.344-.016 3.748 2.447 6.9 2.636 14.249.851 2.747-.667 2.747-.667 5.128-.285 3.223.517 5.121.256 7.682-1.056 1.821-.932 1.821-.932 3.362-.435 1.019.328 2.001.482 2.901.455 1.331-.04 1.377-.022 2.067.82.389.474 1.837 2.158 3.22 3.743 2.83 3.244 3.303 3.966 4.148 6.325.878 2.452 2.255 5.443 3.316 7.203 2.19 3.634 3.42 9.74 3.425 17.012.003 3.212-.15 3.383-2.852 3.196-7.4-.511-11.911-.617-22.744-.534-13.365.103-12.634.023-16.441 1.792-4.449 2.067-11.268 2.337-13.625.54-2.55-1.944-4.69-2.385-12.358-2.546-6.032-.127-19.823.223-24.083.61-6.422.585-5.83.702-5.83-1.148 0-3.022 1.273-11.718 2.234-15.265 1.108-4.09 1.07-4.003 1.662-3.854.48.12.59.015.997-.942.25-.593 1.199-2.623 2.106-4.513.907-1.89 1.724-3.878 1.816-4.42.146-.863.253-1.007.865-1.165 1.293-.335 5.108-4.953 5.517-6.678.119-.5.243-.603.619-.51 3.888.962 6.364.48 8.454-1.642 1.254-1.274 1.44-1.28 1.791-.068Zm1.525 43.517c13.098.472 13.358.831 10.968 15.137-1.433 8.577-5.19 10.705-17.864 10.12-12.47-.576-15.274-3.845-15.96-18.612-.315-6.75 1.923-7.4 22.856-6.645Zm59.096.228c6.184.409 6.497.691 6.472 5.833-.08 16.013-3.731 19.622-19.37 19.149-11.194-.339-15.319-4.662-15.676-16.425-.196-6.451.338-7.47 4.336-8.26 3.138-.622 16.8-.789 24.238-.297Zm-85.817 5.022c.148.327.465 2.246.704 4.265 1.282 10.837 2.789 14.15 7.524 16.535 8.246 4.154 23.481 3.93 28.29-.417 1.02-.922 1.32-1.028.869-.307-1.85 2.954-2.836 10.822-1.645 13.133 3.944 7.648 19.732 7.692 23.531.066 1.838-3.69-.307-5.112-3.088-2.048-4.937 5.439-15.978 4.79-17.709-1.041-.388-1.309-.43-1.072 1.504-8.614 1.673-6.528 2.837-12.185 3.352-16.291.606-4.828.824-5.035 5.214-4.935 4.6.105 4.853.345 5.414 5.143.18 1.535.479 3.314.665 3.952.185.637.496 2.007.691 3.043 1.615 8.597 11.919 12.793 26.134 10.644 9.177-1.388 13.498-6.637 14.301-17.37.28-3.754.206-3.496 1.218-4.267 1.872-1.429 1.984 3.37.2 8.58-1.253 3.66-1.473 5.88-1.644 16.599-.174 11.002-.109 10.441-2.198 18.748-2.424 9.641-6.333 16.571-13.318 23.607-5.042 5.079-11.036 9.13-11.075 7.484-.008-.331-.771-.403-1.074-.1-.288.289-.284.393.036.881.363.554.363.554-2.237 1.975-6.969 3.81-10.924 4.836-18.437 4.787-2.135-.015-3.713-.071-3.505-.125.864-.228.632-1.623-.27-1.623-.504 0-.725.576-.431 1.124.812 1.518-8.2-.684-13.734-3.356-5.383-2.598-13.405-9.391-15.884-13.449a64.055 64.055 0 0 0-1.224-1.863c-2.772-4.085-5.017-8.955-7.392-16.036-3.686-10.993-4.236-15.112-3.478-26.027.388-5.592.288-7.2-.722-11.525-1.579-6.758-1.967-14.212-.582-11.172Zm107.817.293c5.054 2.448.813 23.827-6.116 30.832-3.176 3.21-3.542 2.148-2.227-6.45.364-2.377.729-4.846.811-5.486.327-2.535 1.345-1.567 1.288 1.224-.043 2.106.114 2.489 1.025 2.489 2.475 0 2.54-4.546.12-8.331-1.006-1.573-1.003-1.992.012-2.156 2.254-.366 6.394-4.65 6.002-6.211-.37-1.477-2.007-.666-5.951 2.949-1.736 1.592-1.643 1.572-1.844.394-1.033-6.046 2.815-11.222 6.88-9.254Zm-114.095.63c.547.385 1.094.7 1.215.7.386 0 1.983 7.217 1.983 8.961 0 .104-.83-.61-1.846-1.584-2.909-2.794-4.777-3.904-5.11-3.036-.754 1.964.235 3.53 3.439 5.447 3.175 1.9 3.078 1.767 2.103 2.847-1.503 1.664-2.014 2.968-2.017 5.147-.006 3.559 1.508 3.843 2.222.417.372-1.786 1.321-3.898 1.504-3.348.625 1.879 1.782 15.963 1.311 15.957-.467-.006-3.273-2.409-4.254-3.642-8.312-10.449-8.77-33.663-.55-27.867Zm77.062 35.167c-.176.457.062.997.439.997.444 0 .883-.598.731-.994-.166-.433-1.005-.435-1.17-.003Zm20.169-.017c-.161.421.293 1.236.689 1.236.464 0 .782-.709.524-1.169-.258-.462-1.045-.506-1.213-.067Zm-68.508.172c-.586.586-.052 1.629.752 1.47.68-.134.896-.769.434-1.279-.47-.52-.803-.574-1.186-.191Zm4.609.177c0 .365.114.458.498.404.275-.039.499-.221.499-.404 0-.182-.225-.364-.499-.403-.384-.054-.498.039-.498.403Zm-6.196.101c-.154.185-.22.492-.147.682.178.466 1.081.005.983-.502-.096-.494-.503-.581-.836-.18Zm8.645.098c-.333.623.248 1.061.748.562.28-.282.305-.434.107-.673-.348-.42-.587-.389-.855.111Zm36.603-.273c-.409.165-.337.914.111 1.149.474.248 1.384-.06 1.384-.469 0-.643-.746-.983-1.495-.68Zm7.115.184c-.193.503.372 1.046.806.775.252-.157.275-.299.095-.588-.335-.537-.735-.62-.901-.187Zm1.618-.183c-.629.629.385 1.613 1.096 1.062.406-.314.403-.337-.105-.767-.557-.472-.755-.531-.991-.295Zm18.256.271c-.267.499-.109.592.429.252.248-.158.267-.272.075-.464-.191-.192-.316-.139-.504.212Zm-61.967.119c-.315.821.443 1.305 1.243.795.257-.164.277-.302.089-.607-.322-.518-1.16-.637-1.332-.188Zm-27.476.225c-.067.175-.088.5-.045.72.105.545 1.145.547 1.25.002.152-.791-.93-1.44-1.205-.722Zm60.889.066c.111.577.845.642.845.074 0-.318-.143-.46-.46-.46-.317 0-.436.12-.385.386Zm-39.59.055c-.189.304.275.889.705.889.45 0 .278-.974-.188-1.063-.202-.038-.435.04-.518.174Zm43.758.231c0 .559.559.8 1.003.432.252-.21.272-.349.081-.579-.392-.472-1.084-.378-1.084.147Zm-35.008.111c0 .409.53.646 1.022.457.29-.111.305-.2.084-.467-.358-.431-1.106-.425-1.106.01Zm-13.807.469c-.304.304-.147.774.236.701.213-.041.387-.215.387-.386 0-.35-.39-.548-.623-.315Zm8.6.078c-.199.322.075.665.53.665.55 0 .728-.239.438-.589-.291-.351-.775-.389-.968-.076Zm35.257.119a.354.354 0 0 0 .208.471c.433.166.631-.034.464-.47-.168-.438-.504-.439-.672-.001Zm8.877-.197c-.304.304-.146.774.236.701.213-.041.387-.215.387-.386 0-.35-.39-.548-.623-.315Zm-49.467.371c-.173.451.024 1.037.347 1.037.418 0 .515-.689.15-1.054-.325-.325-.367-.324-.497.017Zm43.649 0c-.172.451.024 1.037.348 1.037.417 0 .515-.689.149-1.054-.325-.325-.366-.324-.497.017Zm8.812.067c-.346.647.036 1.206.504.738.294-.294.299-.402.037-.76-.298-.408-.311-.407-.541.022Zm-69.705.212c-.205.536-.17.571.315.311.247-.132.39-.335.32-.451-.197-.317-.484-.253-.635.14Zm11.696.22c-.173.69.13 1.045.807.945 1.157-.172 1.031-1.515-.141-1.515-.377 0-.563.159-.666.57Zm8.861-.251c-.235.614.02 1.12.6 1.188.765.089 1.202-.436.873-1.05-.283-.53-1.286-.624-1.473-.138Zm5.307.028c-.16.417.232.872.571.662.365-.226.289-1.009-.098-1.009-.187 0-.4.156-.473.347Zm3.505.033c-.306.571.083 1.171.76 1.171.304 0 .611-.161.688-.362.33-.858-1.02-1.611-1.448-.809Zm26.196-.061c-.26.678.014 1.121.694 1.121.529 0 .677-.106.736-.529.114-.807-1.147-1.329-1.43-.592Zm8.677.093c-.218.687.098 1.17.717 1.096.742-.09 1.119-.687.729-1.157-.403-.486-1.284-.449-1.446.061Zm21.058-.048c-.077.2-.09.414-.029.475.177.176.794-.425.66-.643-.19-.308-.478-.231-.631.168Zm-33.143.301c0 .333.115.453.388.401.213-.041.387-.222.387-.401 0-.18-.174-.36-.387-.402-.273-.052-.388.068-.388.402Zm20.828.075c0 .342.194.607.57.778 1.001.457 1.396-.315.488-.952-.696-.487-1.058-.428-1.058.174Zm-54.152.055c-.199.519.218.936.577.577.209-.209.191-.343-.08-.615-.317-.317-.362-.313-.497.038Zm8.87-.198c-.273.274-.137.954.192.954.182 0 .332-.193.332-.43 0-.463-.292-.755-.523-.524Zm26.226.426c0 .354.104.531.277.473.414-.138.459-.756.067-.907-.255-.098-.344.014-.344.434Zm8.731-.272c-.201.525.258.985.621.621.209-.209.187-.348-.102-.638-.346-.345-.38-.344-.519.017Zm8.774.199c0 .612.295.798.567.358.082-.133-.012-.404-.209-.601-.33-.331-.358-.312-.358.243Zm-32.96-.139c-.332.135-.365.659-.053.852.334.206 1.106-.098 1.106-.435 0-.23-.548-.635-.738-.546-.02.01-.162.068-.314.129Zm-28.194.395c0 .19.1.345.221.345.122 0 .222-.094.222-.208 0-.115-.1-.271-.222-.346-.122-.075-.221.019-.221.209Zm4.29.013c-.213.553.094.997.688.997.392 0 .56-.12.56-.399 0-.796-.99-1.271-1.248-.598Zm8.692.028c-.174.452.237.969.77.969.55 0 .718-.345.43-.882-.287-.538-1.008-.59-1.2-.087Zm8.812-.028c-.212.553.094.997.688.997.393 0 .561-.12.561-.399 0-.796-.991-1.271-1.25-.598Zm8.64.003c-.165.43.301.994.821.994.53 0 .64-.223.411-.831-.216-.571-1.034-.679-1.232-.163Zm4.352-.022c0 .193.158.351.351.351.193 0 .312-.118.263-.263-.137-.411-.614-.479-.614-.088Zm13.153.019c-.212.553.095.997.689.997.392 0 .561-.12.561-.399 0-.796-.992-1.271-1.25-.598Zm8.824.275c.073.637.708.948 1.111.545.328-.328-.196-1.153-.731-1.153-.36 0-.436.122-.38.608Zm19.094-.275c-.227.593.1.997.807.997.763 0 1.087-.488.662-1-.354-.427-1.304-.425-1.469.003Zm-86.123.037c-.348.347-.14 1.376.305 1.518.447.141 1.098-.205 1.098-.585 0-.524-1.09-1.248-1.404-.933Zm49.564.184c-.076.199-.037.465.088.59.362.361 1.051.118 1.051-.371 0-.564-.937-.744-1.139-.219Zm33.179-.028c-.672.81.612 1.463 1.478.751.226-.185.208-.315-.09-.643-.44-.487-1.035-.533-1.388-.108Zm-72.987.723c-.295.295-.154 1.142.214 1.284.493.189.793-.147.702-.787-.073-.512-.61-.804-.916-.497Zm8.593.315c-.239.753.427 1.322.942.807.297-.297.33-.471.142-.768-.359-.571-.909-.59-1.084-.039Zm8.841-.136c-.164.428-.027 1.068.248 1.155.476.151.835-.316.69-.897-.156-.621-.737-.781-.938-.258Zm8.712-.179c-.273.273-.167 1.138.155 1.261.542.208 1.17-.423.884-.89-.265-.433-.79-.621-1.04-.371Zm8.707.487c0 .765.124.908.663.767.57-.149.716-.648.309-1.056-.543-.542-.972-.415-.972.289Zm8.797-.487c-.273.273-.166 1.138.155 1.261.542.208 1.17-.423.885-.89-.266-.433-.79-.621-1.04-.371Zm8.621.208c-.231.603.258 1.246.748.983.628-.336.711-.591.322-.981-.447-.447-.899-.448-1.07-.002Zm8.883-.208c-.273.273-.166 1.138.156 1.261.542.208 1.169-.423.884-.89-.266-.433-.79-.621-1.04-.371Zm-72.94.522c-.27.846.325 1.155 1.11.581.36-.262.378-.362.127-.665-.408-.493-1.07-.447-1.238.084Zm18.943.002c0 .426.433.601.737.298.167-.168-.252-.741-.543-.741-.107 0-.194.2-.194.443Zm8.793-.3c-.313.314-.136.744.307.744.31 0 .437-.121.388-.37-.079-.408-.457-.611-.695-.374Zm8.628.198a.354.354 0 0 0 .207.471c.434.166.631-.034.464-.47-.168-.438-.503-.439-.671-.001Zm8.87-.191c-.303.303-.128.737.297.737.244 0 .444-.088.444-.195 0-.29-.573-.71-.741-.542Zm8.614.06c-.195.315.053.677.465.677.194 0 .305-.156.264-.37-.087-.445-.529-.631-.729-.307Zm8.744.233c0 .426.434.601.737.298.168-.168-.251-.741-.542-.741-.107 0-.195.2-.195.443Zm8.794-.3c-.314.314-.136.744.307.744.31 0 .436-.121.388-.37-.079-.408-.457-.611-.695-.374Zm-67.647.62c-.241.63.02 1.12.639 1.191.715.083.98-.368.615-1.05-.282-.527-1.071-.616-1.254-.141Zm12.14.159c.04.285.222.519.405.519.48 0 .414-.865-.073-.959-.315-.06-.39.038-.333.44Zm8.677-.131c-.201.526.272.896.695.545.262-.218.284-.359.093-.59-.332-.399-.623-.383-.787.045Zm8.826.131c.04.285.223.519.406.519.48 0 .415-.865-.073-.959-.315-.06-.39.038-.333.44Zm8.679-.131c-.185.481.284.934.619.598.284-.283.108-.946-.251-.946-.13 0-.295.157-.368.348Zm8.788.207c0 .334.127.554.319.554.42 0 .602-.318.434-.756-.216-.562-.753-.418-.753.202Zm8.641-.104c0 .526.587.824.937.475.174-.175.162-.337-.042-.584-.402-.483-.895-.424-.895.109Zm8.863-.02c0 .513.34.765.796.59.259-.1.279-.225.092-.574-.304-.57-.888-.58-.888-.016Zm8.726-.109c-.159.414.073.787.49.787.452 0 .665-.667.289-.906-.441-.279-.638-.249-.779.119Zm-63.287.177c-.166.453.063.831.503.831.55 0 .76-.386.43-.785-.329-.396-.796-.419-.933-.046Zm8.794-.034c-.234.379.504 1.017.816.704a.612.612 0 0 0 .12-.6c-.154-.399-.715-.462-.936-.104Zm8.765.207c0 .527.587.825.936.475.174-.174.163-.336-.042-.583-.401-.484-.894-.424-.894.108Zm8.679.031c.049.344.22.517.516.517.66 0 .594-.866-.073-.96-.43-.061-.504.013-.443.443Zm8.825-.031c0 .56.559.8 1.003.432.252-.21.272-.348.081-.579-.392-.472-1.084-.377-1.084.147Zm8.641-.03c0 .552.658.79 1.063.385.415-.415.162-.805-.522-.805-.383 0-.541.123-.541.42Zm9.011-.272c-.318.318-.139.96.268.96.499 0 1.009-.552.809-.876-.16-.259-.849-.312-1.077-.084Zm8.574.184c-.077.2-.037.465.088.59.361.362 1.05.118 1.05-.371 0-.564-.937-.744-1.138-.219Zm12.469.666c-.216.563.099.997.724.997.798 0 1.173-.389.889-.921-.268-.501-1.429-.556-1.613-.076Zm-59.955.43c-.385.464-.195 1.121.325 1.121.536 0 .712-.808.258-1.186-.244-.202-.373-.188-.583.065Zm8.63.124c-.19.356-.187.549.012.79.481.579.909.382.833-.385-.084-.85-.5-1.049-.845-.405Zm8.892-.24c-.159.099-.255.417-.214.708.097.685.931.739 1.027.066.079-.557-.41-1.023-.813-.774Zm8.586.161c-.331.399-.027 1.034.549 1.148.272.053.364-.095.364-.586 0-.754-.499-1.062-.913-.562Zm8.945-.203c-.398.139-.342 1.157.073 1.316.192.074.495-.011.672-.189.534-.533-.025-1.378-.745-1.127Zm8.807.282c0 .295.148.443.444.443.502 0 .567-.23.177-.621-.391-.39-.621-.325-.621.178Zm11.744.129c0 .193.118.312.263.263.411-.137.479-.614.087-.614a.351.351 0 0 0-.35.351Zm-81.891.397c-.188.49.062.74.4.401.2-.2.2-.324.004-.521-.197-.197-.294-.169-.404.12Zm10.636-.001c-.167.433.06.805.491.805.217 0 .31-.169.264-.482-.086-.584-.575-.794-.755-.323Zm4.34.029c0 .203.107.333.238.29.131-.044.238-.174.238-.29 0-.116-.107-.246-.238-.29-.13-.044-.238.087-.238.29Zm8.798-.194c-.256.257-.178.925.12 1.026.565.19 1.077-.107 1.009-.584-.066-.465-.813-.758-1.129-.442Zm4.427.004c-.341.342-.144.966.306.966.345 0 .441-.12.388-.482-.074-.5-.43-.748-.694-.484Zm4.427.005c-.081.081-.148.331-.148.554 0 .45.97.588 1.225.175.295-.477-.674-1.132-1.077-.729Zm4.284.406c0 .335.126.555.319.555.467 0 .645-.415.337-.786-.4-.482-.656-.391-.656.231Zm4.283-.205c-.173.452.475 1.012.957.827.177-.068.292-.336.255-.594-.085-.6-1.003-.776-1.212-.233Zm4.49-.186c-.073.073-.132.323-.132.555 0 .521.737.448.839-.083.07-.361-.462-.716-.707-.472Zm4.447-.015c-.26.261-.158.909.163 1.032.553.213 1.165-.404.817-.823-.309-.372-.728-.462-.98-.209Zm4.196.205c-.166.434.013.756.42.756.456 0 .629-.419.324-.786-.346-.418-.576-.408-.744.03Zm4.371-.004c-.173.452.475 1.012.957.827.177-.068.292-.336.255-.594-.085-.6-1.003-.776-1.212-.233Zm4.511-.206c-.084.084-.153.336-.153.559 0 .442.546.556.789.164.175-.284-.41-.949-.636-.723Zm8.71.284c0 .318.142.46.459.46.568 0 .504-.734-.074-.845-.266-.051-.385.068-.385.385Zm4.579-.279c-.324.325-.138.961.282.961.522 0 .726-.283.544-.756-.138-.362-.563-.468-.826-.205Zm-63.365.217c-.313.314-.136.744.307.744.31 0 .436-.121.388-.37-.08-.408-.457-.611-.695-.374Zm8.795.179c-.2.518.217.892.548.493.201-.243.185-.375-.073-.589-.271-.225-.359-.207-.475.096Zm8.703-.172c-.304.303-.129.737.297.737.244 0 .443-.088.443-.195 0-.291-.572-.71-.74-.542Zm8.633.191a.352.352 0 0 0 .208.47c.433.167.631-.033.464-.469-.168-.438-.504-.439-.672-.001ZM107.1 130c-.303.303-.129.737.297.737.244 0 .443-.088.443-.195 0-.291-.572-.71-.74-.542Zm8.648-.007c-.314.314-.136.744.307.744.31 0 .436-.121.388-.37-.08-.408-.458-.611-.695-.374Zm17.504 0c-.314.314-.136.744.307.744.31 0 .436-.121.388-.37-.079-.408-.458-.611-.695-.374Zm-72.493.513c-.146.46.21 1.339.54 1.339.905 0 1.179-.785.492-1.407-.535-.485-.863-.463-1.032.068Zm83.634-.094c-.153.184-.228.385-.167.446.156.157.839-.131.839-.354 0-.366-.399-.421-.672-.092Zm-1.886.561c-.203.33.033.509.457.347.196-.075.294-.237.218-.36-.179-.291-.491-.285-.675.013Zm-76.725.706c.076.534.945.82 1.33.436.282-.283-.385-.935-.958-.935-.333 0-.425.124-.372.499Zm23.758-.194c-.179.468.073.803.603.803.335 0 .428-.123.375-.496-.083-.58-.788-.801-.978-.307Zm8.71-.028c-.141.396.243 1.053.617 1.053.464 0 .816-.757.499-1.075-.339-.338-.99-.326-1.116.022Zm8.784.055c-.195.511.079.998.563.998.45 0 .821-.712.577-1.106-.211-.342-.996-.267-1.14.108Zm8.641.002c-.078.204.013.518.205.711.471.471 1.095.201 1.005-.435-.087-.615-1-.824-1.21-.276Zm17.868-.112c0 .121.199.221.443.221s.443-.1.443-.221c0-.122-.199-.222-.443-.222s-.443.1-.443.222Zm-48.598.147c-.479.479.362 1.313 1.055 1.047.44-.169.44-.405 0-.846-.366-.366-.806-.45-1.055-.201Zm8.725.173c-.458.552-.196 1.333.474 1.411.867.1 1.244-.668.629-1.283-.532-.532-.747-.557-1.103-.128Zm8.758.028c-.565.565-.117 1.542.64 1.393.706-.139.933-.766.464-1.285-.496-.548-.649-.563-1.104-.108Zm8.746-.028c-.498.6-.197 1.342.544 1.342.808 0 1.082-.89.422-1.373-.503-.368-.639-.364-.966.031Zm-19.042.108c-.377.234-.163.901.29.901.486 0 .667-.444.322-.789-.19-.19-.418-.232-.612-.112Zm8.766-.059c-.262.262-.157.909.168 1.034.531.204.867-.41.451-.826-.404-.405-.418-.409-.619-.208Zm8.574.183c-.193.503.371 1.046.806.776.252-.158.275-.299.095-.589-.335-.536-.735-.619-.901-.187Zm-46.685.039c-.255.255-.161.517.185.517.183 0 .333-.15.333-.333 0-.346-.263-.439-.518-.184Zm81.471.406c-.227.593.1.997.807.997.763 0 1.087-.488.662-1-.354-.427-1.304-.425-1.469.003Zm-56.684.098c-.229.372.081.678.687.678.41 0 .537-.102.483-.388-.083-.436-.947-.65-1.17-.29Zm8.629.021c-.224.363.45.967.89.799a.492.492 0 0 0 .292-.53c-.085-.449-.95-.646-1.182-.269Zm8.905-.082c-.528.528.274 1.216.855.734.252-.21.272-.348.081-.579-.27-.325-.696-.395-.936-.155Zm8.571.191c-.158.412.286.802.809.711.182-.032.332-.257.332-.499 0-.569-.937-.743-1.141-.212Zm25.329.031c-.371.371-.146.753.302.513.247-.132.391-.335.319-.451-.152-.245-.412-.272-.621-.062Zm-79.827.646c-.184.733.337 1.307.997 1.098.575-.183.605-.812.062-1.304-.572-.518-.893-.456-1.06.206Zm8.971-.146c-.527.433-.527.433-.04.927.54.55 1.175.298 1.175-.467 0-.718-.55-.941-1.135-.46Zm-3.92.405c.05.436.194.609.51.609.52 0 .74-.745.301-1.023-.582-.369-.884-.215-.811.414Zm77.287-.084c0 .665.286.884.902.688.696-.221.481-1.084-.292-1.173-.522-.06-.61.01-.61.485Zm-41.434.139c0 .426.434.601.737.297.168-.167-.252-.74-.542-.74-.107 0-.195.199-.195.443Zm8.796-.302c-.178.177.023.524.302.524.115 0 .208-.15.208-.333 0-.342-.261-.44-.51-.191Zm-10.427.234c-.249.25-.151.511.191.511.183 0 .333-.093.333-.208 0-.28-.347-.48-.524-.303Zm4.733.179a.33.33 0 0 0 .326.332c.198 0 .275-.13.198-.332-.07-.183-.217-.333-.326-.333-.108 0-.198.15-.198.333Zm-41.064.923c-.3.301-.146 1.419.215 1.557.39.15 1-.142 1.133-.543.165-.494-.995-1.367-1.348-1.014Zm3.909.437c-.187.486.213 1.078.728 1.078.541 0 .654-.623.196-1.081-.457-.457-.748-.456-.924.003Zm4.067-.215c-.323.324-.135 1.156.294 1.292.853.271 1.2-.431.54-1.092-.377-.377-.603-.431-.834-.2Zm69.529.32c-.287.905.972 1.403 1.311.519.136-.355-.414-.987-.861-.987-.166 0-.368.211-.45.468Zm4.033-.32c-.276.276-.149 1.134.187 1.263.478.184 1.438-.231 1.438-.622 0-.543-1.235-1.031-1.625-.641Zm-7.09.665c-.285.285-.149.725.185.597.182-.07.332-.266.332-.436 0-.326-.269-.41-.517-.161Zm-76.105 1.681c.06.636.146.72.73.72.775 0 .992-.531.442-1.081-.65-.65-1.252-.465-1.172.361Zm11.428-.142c-.453.996.657 1.423 1.585.61.128-.112-.9-1.189-1.133-1.189-.104 0-.307.261-.452.579Zm-7.566-.019c-.403.403-.138 1.214.397 1.214.505 0 .91-.655.656-1.058-.325-.516-.646-.563-1.053-.156Zm3.74.103c-.18.57.026.889.574.889.547 0 .784-.563.42-1-.381-.461-.827-.411-.993.111Zm69.74-.294c-.388.157-.345.85.074 1.199.682.565 1.489-.36.862-.988-.373-.373-.477-.396-.936-.211Zm3.988 0c-.347.14-.359.79-.021 1.128.348.348 1.074-.054 1.074-.594 0-.318-.506-.772-.738-.663l-.315.129Zm-7.601.542c-.182.34-.184.534-.006.711.33.33 1.014-.352.831-.828-.186-.486-.529-.437-.825.117Zm-71.555 1.971c0 .431.112.665.319.665.438 0 .623-.361.456-.889-.223-.701-.775-.542-.775.224Zm3.41-.348c-.221.575.088 1.05.633.973.366-.052.499-.219.499-.625 0-.654-.908-.933-1.132-.348Zm3.84-.04c-.14.387.238 1.053.596 1.053.534 0 .889-.617.573-.998-.334-.403-1.033-.436-1.17-.055Zm3.828.122c0 .511.42.931.931.931.49 0 .502-.198.054-.837-.415-.593-.985-.648-.985-.094Zm58.54-.133c-.407.407-.325 1.064.133 1.064.618 0 .948-.44.69-.921-.255-.477-.455-.511-.823-.143Zm3.501.399c0 .746.612.93 1.107.332.346-.416-.058-.997-.691-.997-.315 0-.416.162-.416.665Zm3.908-.333c-.305.796.531 1.344 1.133.742.176-.176.187-.383.037-.665-.264-.492-.992-.54-1.17-.077Zm3.994-.184c-.228.228-.174 1.182.066 1.182.297 0 .723-.848.559-1.113-.155-.252-.414-.28-.625-.069Zm-79.322 1.773c-.082.081-.148.38-.148.665 0 .626 1.032.751 1.261.152.197-.513-.734-1.197-1.113-.817Zm3.745.2c-.387.388-.122 1.204.39 1.204.362 0 .813-.452.813-.813 0-.513-.816-.778-1.203-.391Zm3.864-.018c-.585.705.404 1.576 1.053.926.326-.326.322-.392-.052-.806-.486-.537-.64-.555-1-.12Zm61.902-.007c-.405.297-.401.324.117.876.409.435.604.511.831.323.785-.652-.123-1.802-.948-1.199Zm3.947-.057c-.624.624.046 1.49.828 1.072.548-.294.573-.525.109-.99-.418-.418-.587-.432-.937-.082Zm3.87-.118c-.222.223-.177 1.182.056 1.182.112 0 .336.049.498.108.646.238.954-.248.55-.865-.365-.557-.803-.726-1.104-.425Zm-11.563.522c-.458.507-.205.977.456.847.601-.118.955-.816.546-1.076-.464-.296-.543-.278-1.002.229Zm-54.558.272c.05.153.258.309.461.349.257.05.328-.034.235-.277-.157-.41-.832-.479-.696-.072Zm-13.305.211c-.459.458-.32 1.064.244 1.064.792 0 1.112-.441.671-.928-.428-.473-.559-.493-.915-.136Zm4 .986c-.381.157-.349.851.055 1.186.444.368 1.045-.108.952-.754-.066-.462-.492-.645-1.008-.432Zm3.866-.004c-.296.296-.154 1.143.216 1.285.553.212 1.128-.441.82-.93-.264-.42-.79-.6-1.036-.355Zm3.692.192c-.2.519.081.998.584.998.632 0 .84-.654.326-1.03-.53-.387-.753-.379-.91.032Zm54.576.068c-.468.518-.472.844-.011 1.021.485.186 1.006-.281.924-.83-.09-.607-.466-.685-.913-.191Zm3.474-.065c-.152.397.287.995.731.995.514 0 .636-.697.181-1.03-.53-.387-.753-.379-.912.035Zm3.99-.003c-.213.554.1 1.035.621.958.622-.092.743-.479.29-.932-.447-.447-.746-.455-.911-.026Zm3.892.019c-.572.691.362 1.488.998.852.343-.344.343-.397-.009-.786-.46-.508-.613-.518-.989-.066Zm-75.438 2.032c.194.784.447 1.034.88.867.683-.262.116-1.477-.69-1.477-.26 0-.305.144-.19.61Zm3.933-.346c-.379.378-.334 1.055.081 1.214.525.202 1.143-.505.85-.97-.312-.494-.605-.571-.93-.244Zm3.747.02c-.4.399-.287 1.004.217 1.164.588.187.95-.162.766-.74-.174-.55-.652-.756-.983-.424Zm3.728.182c-.288.537.062 1.086.69 1.086.542 0 .72-.343.446-.856-.343-.64-.861-.745-1.136-.23Zm54.283.003c-.303.566.204 1.227.772 1.009.413-.159.46-.835.084-1.212-.378-.378-.57-.332-.856.203Zm4.038-.27c-.163.101-.263.422-.222.713.091.643.998.87 1.215.304.184-.48-.586-1.27-.993-1.017Zm3.704.165c-.202.244-.215.441-.048.708.512.812 1.621.412 1.173-.424-.29-.543-.802-.672-1.125-.284Zm-11.229.346c-.353.353-.339.842.024.842.476 0 1.119-.578.949-.853-.204-.331-.637-.326-.973.011Zm13.305.324c-.152.061-.277.295-.277.52 0 .546.597 1.118 1.004.962.393-.151.43-.993.06-1.363-.284-.284-.354-.294-.787-.119Zm-33.291.296c-.305.098-2.897.193-5.761.212-6.567.044-6.956.104-7.05 1.08-.099 1.025.271 1.368 1.476 1.368 1.4 0 3.358.482 3.358.826 0 .69 8.924.149 10.586-.642 2.998-1.426.718-3.91-2.609-2.844Zm-28.527.812c-.367.148-.355 1.064.018 1.374.546.454 1.183-.241.864-.942-.265-.583-.375-.637-.882-.432Zm-11.934.392c-.221.575.088 1.05.633.973.366-.052.499-.219.499-.625 0-.655-.908-.934-1.132-.348Zm3.794-.1c-.187.302.281 1.113.642 1.113.431 0 .866-.604.716-.995-.142-.372-1.148-.459-1.358-.118Zm3.874.184c0 .237.149.554.33.705.476.395 1.045.102.96-.496-.096-.676-1.29-.869-1.29-.209Zm54.286.16c0 .686.575.953 1.044.484.469-.47.203-1.045-.484-1.045-.452 0-.56.108-.56.561Zm3.845-.226c-.147.383.282.995.697.995.424 0 .8-.565.645-.97-.175-.454-1.17-.473-1.342-.025Zm3.947.123c.099.666.742 1.067 1.115.694.372-.372-.029-1.016-.694-1.115-.401-.059-.48.02-.421.421Zm-11.193.31c-.143.371.187.656.52.451.331-.205.267-.776-.087-.776-.17 0-.365.147-.433.325Zm-56.498 1.153c-.081.081-.147.38-.147.665 0 .607 1.03.757 1.25.181.23-.598-.664-1.285-1.103-.846Zm3.758.191c-.224.585-.161.935.194 1.071.592.227 1.025-.099.953-.718-.079-.682-.921-.941-1.147-.353Zm3.774-.018c-.314.817.567 1.499 1.164.902.262-.263.287-.436.104-.729-.316-.504-1.1-.611-1.268-.173Zm50.476.145c-.178.559.141.935.701.827.499-.096.681-.836.27-1.097-.493-.312-.815-.223-.971.27Zm3.877-.124c-.374.451-.029 1.099.586 1.099.317 0 .419-.161.419-.662 0-.765-.539-1-1.005-.437Zm3.93-.202c-.296.296-.154 1.143.216 1.285.553.212 1.128-.441.82-.931-.265-.419-.791-.599-1.036-.354Zm3.759.008c-.217.216-.18.96.047.96.106 0 .315-.145.462-.323.393-.474-.08-1.067-.509-.637Zm-71.05 1.625c0 .503.1.665.415.665.634 0 1.037-.581.692-.997-.495-.597-1.108-.414-1.108.332Zm3.323.554c-.34.409.054.998.668.998.496 0 .749-.625.416-1.026-.33-.397-.74-.386-1.084.028Zm3.853-.015c-.221.575.088 1.05.633.973.366-.052.499-.219.499-.625 0-.655-.908-.934-1.132-.348Zm3.982.015c-.07.183-.068.489.006.681.183.477 1.107.316 1.207-.211.134-.699-.962-1.124-1.213-.47Zm46.314-.015c-.22.575.089 1.05.633.973.366-.052.5-.219.5-.625 0-.655-.908-.934-1.133-.348Zm3.983.015c-.199.519.081.998.584.998.564 0 .809-.557.441-1.001-.352-.424-.862-.422-1.025.003Zm3.939-.135c-.415.264-.109 1.133.4 1.133.621 0 1.018-.586.677-.998-.311-.374-.635-.415-1.077-.135Zm3.624.469c-.519 1.004-.299 1.316.421.596.603-.604.672-1.046.188-1.207-.137-.046-.411.229-.609.611Zm-40.215.442c0 .122.15.222.333.222.183 0 .332-.1.332-.222s-.15-.222-.332-.222c-.183 0-.333.1-.333.222Zm1.927-.08c-.177.177.023.523.302.523.115 0 .209-.149.209-.332 0-.343-.262-.441-.511-.191Zm10.466.209c-.394.475.002 1.09.701 1.09.642 0 .807-.581.307-1.081-.45-.45-.64-.451-1.008-.009Zm-35.843.731c-.52.33-.223 1.246.404 1.246.626 0 .863-.606.437-1.119-.306-.369-.43-.388-.841-.127Zm3.723.262c-.31.581.098 1.145.761 1.05.583-.084.707-.679.239-1.148-.476-.475-.705-.453-1 .098Zm4.005-.135c-.426.513-.19 1.119.437 1.119.412 0 .57-.134.626-.529.11-.785-.583-1.17-1.063-.59Zm19.505-.11c-.37.229-.213 1.209.206 1.282.555.095.946-.291.791-.781-.167-.525-.603-.744-.997-.501Zm3.529.315c0 .627.525 1.126.994.945.713-.273.228-1.472-.595-1.472-.272 0-.399.167-.399.527Zm8.642-.143c0 .524.414.946.93.946.591 0 .485-.352-.266-.887-.628-.447-.664-.45-.664-.059Zm18.621-.062c-.425.512-.19 1.119.434 1.119.351 0 .575-.143.624-.399.077-.398-.309-1.042-.624-1.042-.092 0-.288.145-.434.322Zm-61.606.205c0 .409.587.877.877.698.16-.1.161-.276.002-.574-.264-.493-.88-.58-.88-.124Zm26.706-.094c-.283.456.117 1.148.621 1.076.677-.096.679-1.148.002-1.245-.262-.037-.543.039-.623.169Zm11.219-.017c-.521.33-.224 1.246.403 1.246s.864-.605.438-1.119c-.307-.369-.43-.388-.841-.127Zm15.917.471c0 .745.612.929 1.107.332.346-.416-.058-.997-.691-.997-.315 0-.416.162-.416.665Zm3.853-.348c-.221.575.088 1.05.633.973.366-.052.499-.219.499-.625 0-.655-.908-.934-1.132-.348Zm-34.707.362c-.622.367-.449.684.332.609.458-.044.72-.189.72-.399 0-.408-.535-.515-1.052-.21Zm41.363.311c-.552.842-.286 1.148.448.516.368-.317.568-.656.476-.805-.246-.399-.533-.309-.924.289Zm1.943-.281c-.399.399-.32.842.15.842.499 0 1.009-.553.809-.877-.191-.308-.632-.293-.959.035Zm-25.525.182c0 .283 1.059.783 1.251.591.078-.078.015-.294-.139-.48-.315-.379-1.112-.459-1.112-.111Zm-38.96.858c-.167.104-.262.458-.22.824.084.739.754.888 1.153.256.306-.486-.46-1.374-.932-1.08Zm19.203.35c-.191.418-.184.627.031.886.67.807 1.37-.011.782-.911-.43-.654-.505-.652-.813.025Zm30.989-.227c-.609.61.198 1.767.853 1.223.418-.347.407-.504-.077-1.103-.376-.464-.424-.472-.776-.12Zm-46.603.233c-.211.549.093.998.675.998.674 0 .799-.187.555-.831-.215-.57-1.034-.68-1.23-.167Zm3.988 0c-.2.519.082.998.584.998.564 0 .81-.557.441-1.001-.352-.424-.862-.422-1.025.003Zm15.485-.185c-.38.153-.349.847.053 1.18.468.389 1 .112 1-.521 0-.413-.47-.915-.739-.789-.02.01-.161.068-.314.13Zm3.75.241c-.293.567-.077.942.54.942.638 0 .917-.531.527-1.001-.366-.441-.824-.416-1.068.059Zm3.808-.056c-.21.549.093.998.676.998.686 0 .885-.304.576-.882-.28-.524-1.067-.596-1.252-.116Zm3.989 0c-.213.553.094.998.688.998.392 0 .561-.12.561-.399 0-.796-.992-1.271-1.249-.599Zm19.451-.136c-.406.258-.232 1 .257 1.094.622.12 1.074-.368.805-.87-.242-.453-.586-.525-1.062-.224Zm3.653.136c-.209.546.092.998.665.998.632 0 .91-.532.521-1.001-.353-.425-1.022-.424-1.186.003Zm-15.987.117c-.191.309.051.556.75.768.647.196.567-.251-.128-.712-.341-.227-.507-.242-.622-.056Zm-3.209.525c0 .324.46.577 1.049.577.3 0 .292-.062-.052-.443-.463-.512-.997-.584-.997-.134Zm7.958-.076c-.238.147-.249.253-.05.452.278.279.955.129.955-.211 0-.31-.554-.458-.905-.241Zm1.625-.074c-.437.157-.323.506.166.506.244 0 .443-.094.443-.209 0-.284-.274-.417-.609-.297Zm13.99.46c-.349.226-.811 1.168-.652 1.328.075.074.403-.133.73-.46.566-.566.505-1.247-.078-.868Zm-21.443.827c-.446.447-.456.857-.028 1.211.548.455 1.037.098.959-.699-.082-.825-.427-1.015-.931-.512Zm-39.064.246c-.187.486.213 1.078.728 1.078.497 0 .677-.667.302-1.118-.355-.429-.858-.409-1.03.04Zm3.93-.042c-.599.721.392 1.589 1.056.925.282-.282.31-.456.125-.751-.324-.514-.837-.589-1.181-.174Zm3.83.027c-.191.501.202 1.093.726 1.093.664 0 .589-1.305-.08-1.4-.314-.045-.554.069-.645.307Zm4-.03c-.22.575.09 1.05.634.973.366-.052.5-.219.5-.625 0-.655-.909-.934-1.133-.348Zm3.76.018c-.152.397.287.995.73.995.442 0 .622-.609.297-1.001-.353-.425-.862-.422-1.027.006Zm3.95.274c.055.478.186.61.606.61.663 0 .819-.387.345-.861-.574-.574-1.032-.453-.95.251Zm3.834-.155c-.205.646.263 1.151.802.863.51-.273.552-.997.07-1.183-.567-.217-.72-.161-.872.32Zm3.972-.151c-.346.901.203 1.46.915.932.347-.258.385-.403.189-.724-.319-.52-.94-.637-1.104-.208Zm3.823-.155c-.275.275-.15 1.133.185 1.262.486.186.997-.072.997-.503 0-.658-.781-1.16-1.182-.759Zm3.851.172c-.599.721.392 1.589 1.056.925.282-.282.311-.456.125-.751-.324-.514-.837-.589-1.181-.174Zm7.831-.003c-.221.575.088 1.05.633.973.366-.052.499-.219.499-.625 0-.655-.908-.934-1.132-.348Zm3.718.141c.099.666.742 1.067 1.115.694.372-.372-.029-1.016-.694-1.115-.401-.059-.48.02-.421.421Zm3.951.194c0 .785.28 1.002.881.68.539-.288.562-.521.1-.984-.559-.559-.981-.429-.981.304Zm3.873-.197c-.229.724.327 1.205.9.779.347-.258.385-.402.188-.723-.358-.586-.911-.614-1.088-.056Zm3.805-.05c-.39.431-.488.925-.183.925.299 0 1.163-1.018 1-1.18-.237-.238-.424-.18-.817.255Zm-55.972 1.69c-.383.461-.194 1.107.345 1.185.709.102 1.036-.435.624-1.023-.397-.567-.604-.602-.97-.162Zm3.905-.174c-.225.225-.176 1.138.07 1.29.257.159 1.112-.259 1.112-.544 0-.496-.877-1.051-1.182-.746Zm3.888.115c-.364.364-.338.733.075 1.076.491.408 1.202-.282.855-.831-.31-.494-.604-.571-.93-.245Zm7.567.069c-.313.815.587 1.533 1.179.941.304-.304.291-.387-.128-.806-.55-.551-.876-.593-1.051-.135Zm3.892.019c-.366.441-.015 1.09.59 1.09.498 0 .678-.668.303-1.119-.342-.412-.532-.406-.893.029Zm3.799.062c-.288.538.186 1.217.771 1.105.555-.107.66-.703.205-1.159-.467-.466-.705-.453-.976.054Zm3.956-.062c-.37.446-.027 1.06.649 1.161.645.096.852-.529.356-1.077-.476-.527-.627-.539-1.005-.084Zm4.04-.156c-.52.33-.223 1.246.404 1.246s.863-.606.437-1.119c-.306-.37-.43-.388-.841-.127Zm3.717.274c-.303.567.164 1.181.733.963.522-.201.639-.707.253-1.093-.458-.457-.688-.427-.986.13Zm11.562-.075c-.278.519.084 1.157.656 1.157.613 0 .777-.597.307-1.116-.486-.538-.693-.547-.963-.041Zm3.946-.043c-.366.441-.015 1.09.591 1.09.497 0 .677-.668.302-1.119-.341-.412-.532-.406-.893.029Zm3.859-.009c-.072.188-.076.398-.008.465.194.195.596-.135.596-.488 0-.425-.423-.409-.588.023Zm-42.574.146c-.402.402-.32.795.202.96.663.211 1.268-.404.87-.883-.34-.412-.711-.439-1.072-.077Zm26.968.09c-.252.303-.233.403.126.665.733.536 1.776-.022 1.243-.665-.163-.196-.471-.356-.685-.356-.214 0-.522.16-.684.356Zm4.052-.09c-.402.402-.32.795.202.96.663.211 1.268-.404.871-.883-.342-.412-.712-.439-1.073-.077Zm10.253 1.151c-.541.396-.241 1.242.44 1.242.547 0 .85-.457.65-.98-.179-.464-.656-.579-1.09-.262Zm-46.97.663c-.554.405-.337 1.133.338 1.133.43 0 .566-.127.618-.581.08-.683-.4-.96-.956-.552Zm3.814-.167c-.296.296-.154 1.143.216 1.285.553.212 1.128-.441.82-.931-.264-.419-.79-.6-1.036-.354Zm3.877.126c-.538.538-.011 1.429.686 1.161.543-.208.67-.827.236-1.144-.478-.35-.587-.352-.922-.017Zm11.704.06c-.422.509-.183 1.114.441 1.114.398 0 .57-.134.62-.483.091-.636-.677-1.093-1.061-.631Zm3.786-.119c-.156.096-.251.413-.21.704.103.725 1.15.763 1.252.046.078-.548-.591-1.029-1.042-.75Zm3.859.151c-.407.408-.36.729.155 1.054.404.255 1.058-.151 1.058-.656 0-.535-.81-.801-1.213-.398Zm3.927-.212c-.38.154-.348.849.056 1.184.409.339.997-.055.997-.669 0-.303-.513-.75-.739-.644-.02.01-.161.068-.314.129Zm3.743.149c-.569.685.426 1.559 1.057.928.263-.263.287-.436.103-.729-.317-.503-.835-.592-1.16-.199Zm4.012-.149c-.369.15-.352.845.028 1.16.662.551 1.498-.358.889-.967-.354-.355-.46-.377-.917-.193Zm3.989.013c-.384.138-.348 1.058.055 1.392.414.344.997-.057.997-.684 0-.449-.617-.864-1.052-.708Zm-46.898.422c-.217.565.429 1.145.926.832.21-.134.383-.431.383-.662 0-.57-1.1-.713-1.31-.17Zm15.6.057c0 .689.615 1.058 1.045.628.295-.295.308-.418.073-.701-.404-.487-1.117-.44-1.117.073Zm3.948-.302c-.224.224.064.955.432 1.096.448.172.78-.164.68-.688-.076-.398-.84-.679-1.112-.408Zm29.308.416c-.366.441.059 1.243.66 1.243.535 0 .805-.591.495-1.083-.305-.486-.825-.558-1.155-.16Zm-46.692 1.578c-.15.389.284.995.71.995.413 0 .593-.373.429-.889-.165-.518-.953-.591-1.14-.106Zm3.768-.003c-.07.183-.068.489.006.681.182.477 1.106.315 1.207-.211.133-.699-.963-1.124-1.213-.47Zm3.988 0c-.2.519.082.998.584.998.564 0 .81-.557.441-1.001-.352-.424-.862-.422-1.025.003Zm3.596.028c-.174.452.237.97.77.97.516 0 .716-.33.538-.889-.171-.541-1.11-.599-1.308-.081Zm3.937-.028c-.212.553.095.998.689.998.392 0 .56-.12.56-.399 0-.796-.991-1.271-1.249-.599Zm3.989 0c-.213.553.094.998.688.998.392 0 .56-.12.56-.399 0-.796-.99-1.271-1.248-.599Zm3.798.109c-.189.596.029.889.664.889.667 0 .862-.31.556-.882-.307-.575-1.039-.579-1.22-.007Zm3.963-.125c-.304.792.295 1.258 1.021.795.258-.164.277-.301.087-.606-.324-.522-.94-.627-1.108-.189Zm3.939.071c-.264.514-.091.943.38.943.602 0 .927-.446.672-.921-.276-.517-.791-.527-1.052-.022Zm3.81-.055c-.071.183-.068.489.006.681.182.477 1.107.315 1.207-.211.133-.699-.963-1.124-1.213-.47Zm3.794.12c-.182.573.132.949.7.84.269-.052.411-.27.411-.631 0-.741-.889-.909-1.111-.209Zm3.793-.1c-.179.465.02.756.517.756.488 0 .993-.557.795-.877-.222-.359-1.161-.273-1.312.121Zm-36.64 1.9c-.403.402-.336.928.157 1.236.545.34 1.177-.195 1.075-.912-.077-.542-.82-.737-1.233-.324Zm3.792.078c-.147.383.282.994.697.994.517 0 .864-.623.554-.997-.357-.43-1.085-.428-1.25.003Zm3.996-.019c-.22.576.088 1.051.633.973.366-.052.5-.218.5-.625 0-.654-.909-.933-1.133-.348Zm3.84-.039c-.16.446.263 1.052.734 1.052.272 0 .436-.15.436-.399 0-.743-.949-1.273-1.17-.653Zm3.829-.059c-.429.273-.026 1.001.553 1.001.58 0 .983-.728.554-1.001-.182-.116-.432-.212-.553-.212-.122 0-.372.096-.554.212Zm3.914-.071c-.312.313-.127.937.32 1.079.663.211 1.269-.404.871-.883-.293-.353-.929-.458-1.191-.196Zm3.841.185c-.34.409.054.997.668.997.496 0 .749-.624.416-1.025-.329-.397-.741-.387-1.084.028Zm3.853-.016c-.221.576.088 1.051.633.973.366-.052.499-.218.499-.625 0-.654-.908-.933-1.132-.348Zm3.839-.039c-.138.386.239 1.052.597 1.052.534 0 .889-.617.573-.997-.334-.404-1.033-.437-1.17-.055Zm3.977.092c-.279.279-.152 1.182.167 1.182.6 0 1.015-.272 1.015-.665 0-.511-.827-.873-1.182-.517Zm-1.986 1.322c-.329.328-.16 1.19.232 1.187.711-.007 1.081-.383.807-.822-.266-.428-.792-.613-1.039-.365Zm-30.954.31c0 .266.913.656 1.174.502.097-.058.06-.246-.083-.418-.3-.361-1.091-.422-1.091-.084Zm3.8.152c-.285.533.069 1.171.65 1.171.531 0 .8-.592.491-1.083-.325-.516-.889-.56-1.14-.088Zm3.957-.051c-.573.691.4 1.581 1.033.946.267-.266.285-.436.086-.806-.293-.549-.734-.604-1.119-.14Zm4.041-.167c-.468.163-.328 1.121.189 1.285.588.187.95-.162.767-.74-.155-.486-.523-.696-.956-.545Zm3.738.231c-.251.469.065 1.158.531 1.158.461 0 .777-.71.521-1.169-.277-.495-.784-.489-1.052.011Zm3.996-.117c-.362.362-.317 1.044.08 1.196.39.15.994-.285.994-.716 0-.449-.763-.791-1.074-.48Zm3.759.117c-.25.469.065 1.158.531 1.158.569 0 .807-.786.36-1.191-.505-.457-.631-.452-.891.033Zm3.73.069c-.136.254-.189.52-.119.59.223.223 1.237-.363 1.237-.715 0-.502-.832-.409-1.118.125Zm-24.266 1.557c-.162.26.266.631.734.637.424.005.33-.396-.152-.654-.304-.163-.475-.158-.582.017Zm3.006.086c0 .183.15.333.332.333a.333.333 0 1 0-.332-.333Zm15.864-.169c-.292.292-.107.723.31.723.244 0 .443-.139.443-.308 0-.335-.538-.631-.753-.415Zm4.113.031c-.515.327-.22 1.238.426 1.313.912.106 1.322-.561.67-1.089-.58-.47-.677-.489-1.096-.224Zm-16.08.388c-.173.452.238.969.77.969.602 0 .744-.416.305-.9-.474-.524-.89-.551-1.075-.069Zm3.908-.101c-.436.436-.317.829.298.984.733.183 1.179-.215.841-.751-.305-.485-.788-.584-1.139-.233Zm3.849.22c-.388.554-.281.85.305.85 1.044 0 1.352-.394.765-.981-.464-.465-.67-.44-1.07.131Zm-10.245.74c-.227.592.1.997.806.997.764 0 1.087-.488.663-1-.355-.427-1.305-.426-1.469.003Zm12.242.459c-.19.496.247 1.203.744 1.203.519 0 .803-.793.441-1.23-.353-.425-1.018-.41-1.185.027Zm-4.641.243c-.081.081-.148.38-.148.664 0 .649 1.465.78 1.705.153.23-.6-1.084-1.29-1.557-.817Z"
        clip-rule="evenodd" />
      <path id="eyebrow-right"
        d="M111.022 72.276c.408-3.471 2.726-5.3 8.33-6.576 9.52-2.165 24.152 3.002 24.152 8.53 0 1.128-1.414 1.364-5.097.85-.914-.126-7.279-.297-14.144-.377-14.369-.17-13.524-.014-13.241-2.427Z" />
      <path id="smile"
        d="M119.669 132.301c.376-.143 3.12-1.23 3.12-1.23 5.222-2.209 5.551 1.074.374 3.733-12.602 6.473-36.862 5.874-44.483-1.099-2.244-2.054-.398-2.451 4.52-.972 10.593 3.184 21.978 3.479 32.167.832 2.396-.622 3.434-1.011 4.302-1.264Z" />
      <path id="eyebrow-left"
        d="M74.158 65.37c.914-.135 1.911-.289 2.216-.342 3.08-.537 9.018.33 11.565 1.688 4.858 2.59 6.5 8.657 2.244 8.291-3.719-.32-18.57-.39-22.515-.107-5.975.428-6.915.408-7.486-.164-2.214-2.216 6.9-8.323 13.976-9.366Z" />
      <g id="eye-right">
        <path id="ani-eye"
          d="M121.684 96.425c.212-.57 7.954-.211 8.043.372.195 1.29-.099 1.383-4.108 1.317-3.877-.064-4.449-.309-3.935-1.69Zm3.985-9.117c5.311-.786 7.874 5.675 3.128 7.886-2.121.988-4.32.62-5.926-.989-2.544-2.55-1.009-6.333 2.798-6.897Zm1.922 3.243c-.841-.761-2.697-.165-2.697.867 0 1.14 1.506 1.797 2.549 1.113.669-.439.744-1.44.148-1.98Z" />
        <path id="image 6 (Traced)"
          d="M115.367 89.609c0-1.553 6.273-4.611 10.193-4.97 4.901-.448 9.732 1.093 12.821 4.09 2.981 2.893 1.233 2.817-5.177-.226-4.923-2.337-8.783-2.189-13.974.536-2.466 1.294-3.863 1.5-3.863.57Z" />
      </g>
      <g id="eye-left">
        <path id="image 6 (Traced)_2"
          d="M64.413 90.638c-1-1.871 5.098-5.234 10.84-5.977 6.859-.887 13.304 1.398 13.304 4.718 0 .996-.695.87-3.034-.553-1.836-1.115-3.242-1.523-5.265-1.526-4.79-.209-9.52 1.274-12.547 2.679-2.605 1.209-2.965 1.28-3.298.66Z" />
        <path id="ani-eye_2"
          d="M73.903 96.296c.13-.207 7.654-.054 8.003.162.265.164.064 1.167-.293 1.463-1.624.548-5.327.441-7.32 0-.561-.317-.607-1.274-.39-1.625Zm1.254-8.37c1.926-.763 4.548-.511 4.548-.511 5.254 2.972 2.569 8.928-2.672 8.225-4.108-.551-5.334-5.589-1.876-7.713Zm3.907 2.681c-.534-.534-1.49-.573-2.18-.09-1.138.799-.06 2.583 1.348 2.23 1.24-.311 1.637-1.334.832-2.14Z" />
      </g>
    </g>
    <g id="body-neck">
      <path id="torso" fill="currentColor" fill-opacity="1" fill-rule="evenodd"
        d="m75.795 162.32-1.428 17.838c-.005-.001-.412-.076-2.404.153-1.397 3.025-2.756 11.713.78 15.537 15.5 16.76 43.524 16.378 56.044-1.847 3.139-4.57 4.571-10.505 3.064-12.479-1.92-.525-3.696-1.086-3.696-1.086.101-7.673-.089-11.184-.952-19.065l2.618-.146c.033 6.54.082 9.22.619 14.523 1.096.455 3.294 2.134 4.789 3.064 2.279 1.417 14.15 3.704 22.169 7.059 27.655 11.567 32.358 17.285 38.591 46.916.421 2.002.861 4.443.979 5.423.117.98.4 2.587.628 3.571.229.984.61 3.424.847 5.423.725 6.105.817 6.65 1.191 7.077.26.297.368.857.389 2.026.036 1.91-193.863 2.709-199.108.82-1.017-.366-1.21-2.106-.342-3.095.227-.259.464-1.555.753-4.11.546-4.821 1.214-9.224 1.59-10.483.164-.547.396-1.593.515-2.324 2.672-16.311 5.303-23.651 12.02-33.535 3.142-4.624 8.913-8.353 22.724-14.681 3.6-1.65 8.904-4.161 11.786-5.581 2.881-1.419 14.624-3.913 16.156-4.579 1.532-.666 3.007-1.158 3.243-1.263.704-.314 2.38-.591 3.553-.634.718-6.225.433-9.507.26-16.404l2.622 1.882Z"
        clip-rule="evenodd" />
      <g id="overlay-shirt" fill="currentColor">
        <path
          d="M151.506 185.483c2.238.847 23.648 7.823 30.975 17.025 11.73 13.5 10.415 25.967 10.929 29.09 1.336 8.127 2.235 13.441 3.296 24.968l-22.77-.054v-24.967h-4.31v23.984H28.696c-.002-.062-.384-21.088-.384-22.613h-2.725s.525 18.668.525 22.613H3.461l3.101-22.004c.05-2.588 7.428-27.17 12.73-29.485 9.708-9.957 31.767-18.046 33.34-18.557 3.89 25.534 27.148 35.004 47.964 34.947 22.542-.061 49.021-8.897 50.91-34.947Z" />
        <path
          d="M69.009 180.438c-8.16 19.935 18.426 31.285 33.638 30.1 17.535-1.366 31.861-10.907 33.023-29.283 2.681-1.179 11.406 2.438 13.101 3.232 0 42.108-88.7 46.304-93.46.497 2.04-2.718 12.286-4.549 13.698-4.546Z" />
      </g>
    </g>
  </g>
</svg>