<?xml version="1.0" encoding="UTF-8" standalone="no"?>
<!-- Created with Inkscape (http://www.inkscape.org/) -->

<svg width="20.027933mm" height="28.853369mm" viewBox="0 0 20.027933 28.853369" version="1.1" id="svg1"
  xml:space="preserve" inkscape:version="1.4.2 (ebf0e940d0, 2025-05-08)" sodipodi:docname="my-svg-hero-resized.svg"
  xmlns:inkscape="http://www.inkscape.org/namespaces/inkscape"
  xmlns:sodipodi="http://sodipodi.sourceforge.net/DTD/sodipodi-0.dtd" xmlns="http://www.w3.org/2000/svg"
  xmlns:svg="http://www.w3.org/2000/svg">
  <sodipodi:namedview id="namedview1" pagecolor="#505050" bordercolor="#eeeeee" borderopacity="1"
    inkscape:showpageshadow="0" inkscape:pageopacity="0" inkscape:pagecheckerboard="0" inkscape:deskcolor="#505050"
    inkscape:document-units="mm" inkscape:zoom="0.73638604" inkscape:cx="152.09414" inkscape:cy="23.764709"
    inkscape:window-width="1268" inkscape:window-height="1355" inkscape:window-x="1284" inkscape:window-y="40"
    inkscape:window-maximized="0" inkscape:current-layer="layer1" />
  <defs id="defs1" />
  <g inkscape:label="Layer 1" inkscape:groupmode="layer" id="layer1" transform="translate(-121.74854,-137.44415)">
    <g id="g1" transform="matrix(0.26458333,0,0,0.26458333,103.98127,112.58022)">
      <path fill-rule="evenodd"
        d="m 110.568,146.75 c 0.177,-0.223 0.014,-0.452 -0.234,-0.483 -0.172,-0.097 -0.158,-0.318 -0.384,-0.362 -0.312,-0.191 -0.688,-0.373 -0.831,-0.733 -0.087,-0.255 0.087,-0.505 0.269,-0.667 0.218,-0.42 0.7,-0.6 1.147,-0.626 0.422,-0.034 0.847,-0.01 1.268,-0.048 0.835,0.038 1.666,-0.342 2.496,-0.116 0.294,0.047 0.418,0.36 0.514,0.604 0.039,0.162 0.171,0.429 0.063,0.545 -0.122,-0.1 -0.188,-0.496 -0.343,-0.418 0.02,0.259 0.168,0.508 0.125,0.77 -0.22,0.1 -0.256,-0.259 -0.387,-0.338 -0.098,0.21 -0.024,0.47 -0.127,0.68 -0.134,0.116 -0.202,-0.356 -0.238,-0.092 -0.02,0.212 -0.241,0.536 -0.393,0.211 -0.114,-0.206 -0.025,0.2 -0.039,0.292 0.058,0.195 -0.101,0.419 -0.27,0.202 -0.217,-0.206 -0.077,0.346 -0.203,0.377 -0.119,-0.073 -0.241,-0.445 -0.355,-0.35 0.024,0.137 0.125,0.556 -0.141,0.384 -0.143,-0.185 -0.376,-0.098 -0.538,0.013 -0.225,0.208 -0.285,-0.252 -0.354,-0.233 -0.234,0.198 -0.595,0.15 -0.831,-0.02 -0.008,0.176 0.137,0.605 -0.214,0.408 z m 3.158,-11.237 c 0.03,0.359 0.659,0.422 0.491,0.44 0.347,0.21 0.482,0.937 0.888,0.56 0.307,0.38 0.464,0.919 0.93,1.146 -0.263,-0.229 -0.563,-1.245 -0.112,-0.49 0.34,0.379 0.39,0.02 0.122,-0.227 0.134,-0.482 0.443,0.44 0.718,0.511 0.263,0.248 0.99,0.514 0.488,-0.042 -0.291,-0.8 0.52,0.2 0.603,0.457 0.124,0.292 0.726,0.555 0.77,0.432 -0.096,-0.27 -0.373,-1.252 0.09,-0.557 0.155,0.309 0.471,0.205 0.229,-0.095 0.467,-0.215 0.652,0.997 0.53,0.26 -0.03,-0.738 0.81,0.62 0.581,-0.103 0.864,0.345 0.95,1.38 1.23,2.141 0.236,0.472 -0.222,0.378 -0.155,-0.055 -0.005,-0.249 -0.44,-0.93 -0.276,-0.312 0.115,0.316 0.375,1.613 0.004,0.752 -0.482,-0.437 0.124,0.636 -0.327,0.097 -0.205,-0.326 -0.353,-0.37 -0.13,0.04 0.127,0.248 0.746,1.028 0.219,1.007 -0.332,-0.525 -0.735,-1.113 -1.416,-1.008 -0.218,-0.16 -0.952,-0.49 -0.648,0.085 -0.879,-0.73 -2.018,-0.997 -3.113,-1.208 -0.428,0.118 -0.924,-0.484 -1.113,-0.358 0.102,0.42 -0.585,-0.473 -0.583,0.2 -0.242,0.671 -1.14,-0.073 -1.191,-0.57 0.378,0.728 -1.118,1.575 -1.22,0.721 -0.189,0.095 -0.585,0.499 -0.375,-0.051 0.158,-0.486 -0.06,-0.353 -0.177,0 -0.34,0.523 -0.68,-0.46 -0.626,-0.217 -0.105,0.206 -0.53,1.025 -0.607,0.417 -0.65,0.496 -1.433,0.736 -2.156,1.073 -0.781,0.077 -1.338,0.723 -2.025,0.893 0.311,-0.728 -0.472,-0.017 -0.716,0.182 -0.302,0.057 -1.156,0.347 -0.6,-0.186 0.088,-0.684 -0.37,0.55 -0.655,0.34 0.14,-0.167 0.801,-1.188 0.246,-0.604 -0.254,-0.199 0.367,-1.023 -0.102,-0.347 -0.52,0.482 0.168,-0.686 0.277,-0.915 0.292,-0.524 0.659,-1.018 1.142,-1.38 0.264,0.49 1.262,-0.77 0.83,0.052 -0.216,0.716 0.727,-0.858 0.449,-0.126 -0.37,0.276 0.073,0.51 0.125,0.042 0.495,-0.743 1.275,-1.254 1.706,-2.045 0.618,-0.431 -0.075,0.31 0.015,0.488 0.484,-0.114 0.78,-1.359 1.07,-1.074 -0.212,0.364 0.576,0.457 0.436,0.041 0.635,0.65 1.491,-0.243 1.799,-0.606 -0.126,0.89 1.11,0.547 1.63,0.378 0.191,0.03 0.666,-0.482 0.705,-0.18"
        id="path1" />
      <path fill-rule="evenodd"
        d="m 108.06,143.086 c -0.365,-0.126 -0.26,-0.326 -0.279,-0.346 -0.02,-0.02 1.498,0.586 2.864,0.586 3.335,0 4.236,-0.158 5.712,-0.998 0.557,-0.318 0.798,-0.408 0.493,-0.186 -1.342,0.977 -2.925,1.335 -5.984,1.353 -1.101,0.007 -2.096,-0.3 -2.805,-0.41 z m 4.138,-2.603 c 1.632,0.278 3.422,-0.867 4.926,0.153 0.188,0.235 2.19,0.546 2.302,0.4 0.039,-0.051 0.374,-0.157 0.437,-0.06 0.03,0.046 0.033,0.402 -0.886,0.606 -1.788,0.307 -4.158,0.071 -5.506,0.529 -2.09,0.267 -4.578,-0.133 -6.647,0.369 -0.99,0.09 -3.531,-0.531 -0.16,-0.844 1.581,-0.601 3.2,-1.425 4.947,-1.144 0.196,0.004 0.392,0.001 0.587,-0.01 z m 1.044,1.208 c 1.446,-0.342 6.966,0.092 4.401,-0.539 -1.053,-1.09 -2.565,-0.741 -3.837,-0.413 -1.823,0.477 -3.622,-0.614 -5.779,0.606 -2.243,0.67 -2.176,0.499 -1.904,0.78 0.208,0.218 3.093,-0.088 3.4,-0.248 1.177,-0.197 2.537,-0.203 3.719,-0.186 z"
        id="path2" />
      <g fill-rule="evenodd" id="g4">
        <!-- NOSELINE -->
        <path
          d="m 109.512,128.996 c 0.075,-0.112 0.277,-0.355 0.448,-0.541 0.29,-0.316 0.309,-0.356 0.269,-0.609 -0.08,-0.498 -0.1,-0.742 -0.094,-1.071 0.003,-0.214 -0.02,-0.312 -0.066,-0.284 -0.08,0.05 -0.097,-0.05 -0.02,-0.127 0.113,-0.113 0.073,-1.199 -0.044,-1.159 -0.088,0.03 -0.086,0.02 0.01,-0.055 0.065,-0.05 0.119,-0.138 0.119,-0.195 a 0.76,0.76 0 0 1 0.084,-0.266 c 0.07,-0.136 0.085,0.066 0.085,1.193 0,0.745 0.014,1.569 0.03,1.829 0.028,0.473 0.028,0.473 -0.465,0.98 -0.27,0.28 -0.43,0.416 -0.356,0.305 z m -0.52,6.297 c -0.038,0.057 -0.088,0.038 -0.137,-0.055 -0.044,-0.08 -0.126,-0.145 -0.183,-0.145 -0.064,0 -0.054,0.035 0.025,0.088 0.112,0.076 0.11,0.089 -0.016,0.089 -0.284,0.003 -0.254,-0.19 0.086,-0.544 0.189,-0.196 0.32,-0.357 0.29,-0.357 -0.03,0 0.052,-0.103 0.183,-0.23 0.13,-0.126 0.237,-0.253 0.237,-0.284 0,-0.07 -0.324,0.215 -0.585,0.514 -0.17,0.193 -0.21,0.206 -0.29,0.09 -0.078,-0.113 -0.086,-0.108 -0.043,0.029 0.072,0.231 -0.112,0.583 -0.216,0.412 -0.15,-0.249 0.159,-0.793 0.373,-0.655 0.058,0.037 0.07,0.02 0.032,-0.046 -0.039,-0.064 0.149,-0.356 0.472,-0.735 0.294,-0.347 0.51,-0.63 0.478,-0.63 -0.07,0 -0.865,0.894 -1.211,1.364 -0.143,0.193 -0.286,0.351 -0.319,0.351 -0.138,0 -0.156,-0.31 -0.027,-0.458 0.078,-0.09 0.115,-0.205 0.084,-0.257 -0.031,-0.052 -0.006,-0.078 0.057,-0.056 0.062,0.022 0.21,-0.09 0.327,-0.249 0.118,-0.159 0.148,-0.233 0.065,-0.165 -0.308,0.255 -0.13,-0.052 0.336,-0.575 0.265,-0.298 0.52,-0.623 0.568,-0.722 0.047,-0.1 -0.038,-0.039 -0.188,0.135 l -0.592,0.678 c -0.532,0.606 -0.587,0.691 -0.394,0.616 0.143,-0.055 0.149,-0.045 0.049,0.083 -0.065,0.083 -0.175,0.123 -0.253,0.092 -0.103,-0.041 -0.125,-0.017 -0.084,0.092 0.03,0.082 0.021,0.17 -0.019,0.196 -0.142,0.091 -0.155,-0.403 -0.016,-0.579 0.077,-0.096 0.225,-0.289 0.328,-0.428 0.112,-0.152 0.228,-0.301 0.346,-0.449 a 46.278,46.278 0 0 0 0.663,-0.835 c 0.176,-0.22 0.23,-0.366 0.193,-0.52 -0.035,-0.145 -0.009,-0.23 0.08,-0.266 a 0.22,0.22 0 0 0 0.133,-0.186 c 0,-0.08 -0.085,-0.027 -0.217,0.136 -0.222,0.276 -0.283,0.431 -0.13,0.332 0.188,-0.12 -0.084,0.393 -0.387,0.732 -0.05,0.056 -0.206,0.254 -0.349,0.442 -0.682,0.895 -0.708,0.917 -0.669,0.56 a 0.963,0.963 0 0 1 0.244,-0.523 c 0.115,-0.113 0.208,-0.24 0.208,-0.285 0,-0.045 -0.06,-0.017 -0.136,0.06 -0.254,0.265 -0.319,0.144 -0.09,-0.167 0.296,-0.405 0.29,-0.493 -0.013,-0.171 -0.267,0.285 -0.453,0.67 -0.453,0.936 0,0.097 -0.04,0.176 -0.087,0.176 -0.048,0 -0.088,-0.05 -0.088,-0.112 -10e-4,-0.077 -0.028,-0.07 -0.082,0.02 -0.045,0.073 -0.048,0.154 -0.007,0.18 0.07,0.045 -0.07,0.813 -0.247,1.372 -0.06,0.19 -0.05,0.231 0.044,0.194 0.169,-0.068 0.154,0.24 -0.026,0.515 -0.145,0.223 -0.145,0.223 0.037,0.058 0.193,-0.176 0.409,0.028 0.413,0.391 0,0.084 0.068,0.126 0.179,0.11 0.561,-0.08 0.897,0.164 0.996,0.187 0.07,-0.002 0.08,-0.064 0.08,-0.11 0,-0.045 -0.049,-0.1 -0.108,-0.122 -0.07,-0.026 -0.034,-0.103 0.103,-0.229 z m 6.712,0.085 c 0.041,-0.112 0.02,-0.137 -0.08,-0.096 -0.196,0.078 -0.255,-0.022 -0.106,-0.177 0.07,-0.073 0.105,-0.17 0.078,-0.214 -0.027,-0.046 0.005,-0.061 0.07,-0.035 0.64,0.256 1.062,-1.696 0.58,-2.681 -0.485,-0.99 -0.482,-1.321 0.007,-0.742 0.893,1.06 1.003,2.516 0.255,3.377 -0.19,0.218 -0.344,0.43 -0.344,0.473 0,0.043 -0.078,0.052 -0.174,0.02 -0.123,-0.04 -0.173,-0.016 -0.173,0.085 0,0.078 -0.038,0.142 -0.084,0.142 -0.046,0 -0.06,-0.068 -0.028,-0.152 z"
          id="path3" />
        <!-- NOSTRILS -->
        <path
          d="m 113.887,134.659 c 0.06,-0.01 0.158,-0.061 0.308,-0.207 0.149,-0.146 0.398,-0.291 0.553,-0.321 0.155,-0.031 0.281,-0.091 0.281,-0.135 0,-0.043 0.177,0.01 0.392,0.12 0.285,0.144 0.377,0.236 0.337,0.337 a 0.918,0.918 0 0 0 -0.06,0.251 c -0.003,0.063 -0.024,0.093 -0.048,0.068 -0.024,-0.025 -0.241,0.07 -0.484,0.212 -0.242,0.141 -0.49,0.24 -0.551,0.217 -0.061,-0.022 -0.168,0.01 -0.238,0.07 -0.09,0.077 -0.132,0.092 -0.134,0.018 -0.012,-0.126 -0.237,-0.195 -0.345,0.088 -0.028,0.074 -0.195,-0.168 -0.195,-0.21 0.003,-0.383 0.171,-0.38 0.119,-0.504 -0.025,-0.058 0.037,0 0.065,-0.004 z m -4.923,0.478 c -0.126,-0.082 -0.108,-0.498 0.022,-0.498 0.06,0 0.255,-0.08 0.433,-0.18 0.178,-0.1 0.323,-0.138 0.323,-0.085 0,0.053 0.04,0.07 0.089,0.039 0.048,-0.03 0.066,-0.093 0.04,-0.137 -0.058,-0.097 0.14,-0.449 0.252,-0.449 0.044,0 0.014,0.076 -0.066,0.168 -0.08,0.092 -0.122,0.23 -0.093,0.308 0.079,0.215 0.322,0.277 0.438,0.112 0.093,-0.132 0.155,-0.127 0.687,0.052 1.044,0.351 2.081,0.135 2.932,-0.61 0.196,-0.173 0.268,-0.195 0.324,-0.103 0.055,0.09 0.073,0.091 0.074,0.006 0,-0.062 0.064,-0.113 0.142,-0.113 0.12,0 0.124,0.02 0.021,0.152 -0.104,0.133 -0.1,0.145 0.033,0.093 0.21,-0.082 0.19,-0.003 -0.032,0.122 -0.102,0.057 -0.16,0.062 -0.13,0.012 0.029,-0.049 -0.015,-0.116 -0.097,-0.15 -0.082,-0.032 -0.163,-0.016 -0.18,0.037 -0.016,0.052 -0.082,0.095 -0.146,0.095 -0.064,0 -0.333,0.207 -0.6,0.46 -0.265,0.253 -0.482,0.42 -0.482,0.371 0,-0.05 0.063,-0.115 0.142,-0.147 0.078,-0.031 0.123,-0.077 0.099,-0.102 -0.085,-0.088 -0.328,0.072 -0.33,0.217 0,0.092 -0.025,0.112 -0.064,0.05 -0.069,-0.105 -1.408,-0.156 -1.394,-0.053 0.02,0.156 -0.025,0.27 -0.093,0.27 -0.041,0 -0.052,-0.095 -0.031,-0.231 0.038,-0.249 0.038,-0.249 -0.081,-0.023 -0.1,0.192 -0.113,0.228 -0.011,0.336 0.056,-0.007 -0.052,0.082 -0.113,0.082 -0.907,0.662 -0.712,0.348 -1.453,0.086 -0.369,-0.13 -0.34,-0.09 -0.481,-0.038 -0.096,-0.042 -0.125,-0.116 -0.174,-0.15 z"
          id="path4" />
      </g>
      <path fill-rule="evenodd"
        d="m 101.574,117.865 c -0.977,0.049 -1.93,0.465 -2.678,1.088 -0.214,0.022 -0.299,-0.21 -0.326,0.102 -0.37,0.24 -0.802,0.424 -1.196,0.658 -0.378,0.247 -0.407,0.755 -0.611,1.125 -0.12,0.409 -0.54,0.646 -0.425,1.106 -0.382,0.16 0.35,0.204 0.012,0.421 -0.155,0.123 0.203,-0.082 0.054,0.14 0.226,-0.065 0.412,-0.081 0.155,0.133 -0.226,0.243 -0.357,0.267 0.161,0.12 a 4.613,4.613 0 0 1 1.651,-0.995 c 0.11,-0.079 0.438,-0.184 0.228,0.042 0.345,-0.045 0.611,-0.297 0.95,-0.379 0.333,-0.116 0.6,0.222 0.878,-0.133 0.354,-0.143 0.762,0.135 1.09,-0.043 0.312,-0.148 0.174,0.33 0.484,0.03 0.316,-0.129 0.746,-0.109 1.048,0.008 0.346,0.06 0.667,-0.158 0.906,0.069 0.493,0.182 1.007,-0.04 1.512,-0.005 0.134,-0.028 0.672,-0.01 0.943,0.03 0.29,-0.036 0.502,-0.42 0.552,-0.533 0.37,0.02 0.578,-0.196 0.812,-0.502 0.258,-0.3 0.638,-0.491 0.875,-0.79 -0.235,-0.385 -0.625,-0.667 -0.793,-1.103 -0.19,0.006 0.217,0.654 0.157,0.819 -0.366,-0.21 -0.586,-0.613 -0.96,-0.823 -0.096,-0.18 -0.664,-0.22 -0.546,-0.117 0.173,0.116 0.473,0.374 0.523,0.59 -0.363,-0.28 -0.753,-0.565 -1.235,-0.571 -1.062,-0.058 -2.127,-0.066 -3.19,-0.128 a 6.076,6.076 0 0 0 -1.698,0.15 c -0.215,-0.052 0.462,-0.225 0.588,-0.284 0.26,-0.057 0.709,-0.254 0.178,-0.212 l -0.094,0.007 z m 20.419,-1.068 c -0.07,0.117 0.078,0.185 -0.194,0.18 0.011,0.315 -0.955,0.041 -1.295,0.233 -0.895,0.162 -1.79,0.337 -2.68,0.507 -0.087,-0.405 -1.05,0.167 -1.375,0.36 -0.727,0.513 0.352,-0.737 -0.318,-0.294 -0.208,0.15 -0.579,0.592 -0.445,0.075 -0.294,0.107 -0.437,0.625 -0.63,0.265 -0.076,0.383 -0.769,1.345 -0.477,0.43 -0.187,-0.073 -0.774,1.215 -0.303,1.455 0.399,0.452 0.855,0.363 1.292,0.106 0.256,0.141 -0.475,0.986 0.08,0.449 0.326,-0.192 0.369,0.312 0.044,0.127 0.022,0.712 0.783,-0.57 0.736,0.15 0.426,-0.431 1.202,-0.297 1.811,-0.35 0.668,-0.24 0.306,0.152 0.336,0.156 0.482,-0.203 1.387,-0.456 1.687,-0.384 -0.524,0.506 0.714,-0.437 1.05,-0.352 0.308,-0.093 0.573,-0.03 0.196,0.21 0.514,-0.367 1.14,-0.623 1.784,-0.501 0.457,-0.056 0.216,0.01 0.065,0.205 0.068,0.182 -0.146,0.467 0.225,0.223 0.254,-0.32 1.237,-0.128 1.235,-0.19 -0.386,0.06 -0.553,0.31 -0.06,0.16 0.38,-0.106 0.732,0.195 0.17,0.213 -0.64,-0.032 -0.428,0.335 0.068,0.2 0.616,-0.31 1.244,-0.29 1.884,-0.172 0.75,-0.283 -0.098,-1.112 -0.371,-1.502 -0.738,-0.441 -1.241,-1.343 -2.173,-1.526 -0.737,-0.304 -1.585,-0.42 -2.342,-0.433 z"
        id="path5" />
      <path fill-rule="evenodd"
        d="m 130.21,118.209 c -1.094,0.077 -0.32,5.493 -0.645,7.678 -0.272,4.68 -0.404,9.388 -1.202,14.015 -0.314,1.563 -0.97,4.241 -2.154,4.707 -0.28,0.723 -0.112,0.407 -0.43,0.878 -0.532,-0.262 -1.591,3.31 -2.555,1.376 0.73,1.726 -0.253,0.912 -0.621,-0.2 0.55,0.847 0.687,2.33 -0.038,0.698 -0.583,-0.434 0.863,2.487 -0.344,0.69 -0.549,-0.823 -0.912,-1.355 -0.309,-0.034 0.47,1.134 -0.363,0.843 -0.715,0.053 0.648,1.398 0.01,1.09 -0.457,-0.019 -0.827,-1.213 0.988,2.747 -0.516,0.662 -1.326,-2.062 1.295,2.388 -0.348,0.682 -0.247,-0.79 0.318,2.3 -0.25,0.63 -0.46,-2.643 -0.033,2.618 -0.595,0.028 -0.683,-0.58 -0.187,2.003 -0.69,0.244 -0.426,-0.536 -0.212,2.42 -0.756,0.66 -10e-4,-0.873 -0.895,-1.869 -0.617,-0.34 -0.174,2.256 -1.696,-2.28 -1.667,-1.128 1.058,0.807 0.354,3.199 0.098,0.893 0,0.968 0.28,2.368 -0.23,0.48 -0.609,-0.69 -0.26,3.03 -0.418,0.926 -0.297,-2.384 -0.852,2.741 -0.697,-0.09 0.007,-0.821 -1.17,-2.114 -0.542,-0.536 0.455,0.75 -0.63,2.29 -0.216,0.696 0.087,-0.982 -0.874,-2.506 -0.466,-0.649 0.374,0.675 -0.474,2.24 -0.296,0.554 -0.053,-1.362 -0.6,1 -0.42,-0.703 -0.088,-1.475 -0.294,-1.086 -0.232,0.101 -0.01,1.28 -0.558,1.455 -0.848,0.259 -0.27,0.877 -0.087,1.477 -0.383,0.168 -1.354,0.026 -0.63,-1.523 -0.584,-2.007 -0.28,0.74 -0.994,2.996 -0.855,0.885 -0.105,0.793 -0.32,3.074 -0.504,0.889 0.105,-0.89 0.381,-2.394 -0.315,-0.709 -0.042,0.97 -0.609,1.76 -0.406,0.32 0.363,-0.961 1.136,-2.388 -0.13,-0.891 -0.44,0.948 -0.842,2.26 -0.41,0.434 0.178,-1.993 -1.06,1.598 -0.515,-0.659 0.073,-2.275 -0.732,2.81 -0.988,0.637 0.237,-1.594 -0.98,0.837 -0.674,-0.572 0.346,-0.746 1.377,-2.148 0.14,-0.738 -1.384,2.372 -0.488,-1.268 0.054,-1.66 -0.985,0.223 -1.648,3.665 -1.404,1.403 0.289,-0.748 1.512,-2.102 0.147,-0.84 -0.687,0.337 1.032,-1.385 -0.075,-0.295 -0.667,0.285 -0.27,-0.243 -1.07,0.345 0.169,-0.815 0.831,-1.47 -0.211,-0.363 -0.26,0.986 -1.753,1.682 -0.906,0.098 0.605,-0.972 -1.222,1.358 -0.971,0.314 -1.644,-0.137 -2.263,-2.62 -2.632,-4.148 -1.585,-4.444 -2.037,-9.175 -2.977,-13.775 -0.26,-1.794 -0.534,-3.613 -0.503,-5.418 -0.706,-2.329 -4.518,-1.344 -3.142,1.16 0.532,4.073 1.845,8.149 4.382,11.43 0.368,2.804 1.518,5.428 1.877,8.225 1.022,2.439 0.201,5.122 0.134,7.661 0.197,1.454 -1.238,5 0.89,5.03 -0.356,-2.157 -0.775,-4.513 -0.406,-6.806 0.294,-1.058 -0.097,-5.3 1.49,-2.766 2.903,2.483 6.205,4.783 10.069,5.342 1.997,0.385 4.136,0.619 5.95,-0.532 1.988,-0.803 4.808,-1.93 6.202,-2.638 0.178,1.445 -1.303,4.36 -0.884,4.864 0.597,-2.098 0.896,-4.326 1.882,-6.283 0.361,-0.974 2.415,-2.364 1.82,-0.325 -0.737,2.897 -0.63,5.926 -1.25,8.853 2.016,1.616 0.537,-4.148 1.287,-1.34 -0.825,1.37 1.72,2.079 1.59,1.56 -0.65,-1.022 -1.91,-2.773 -1.2,-3.784 0.814,0.918 2.524,2.497 3.189,2.59 -1.805,-1.326 -4.005,-3.049 -3.553,-5.594 0.575,-2.356 0.41,-5.004 2.084,-6.95 0.899,-1.718 1.98,-3.396 1.925,-5.432 0.15,-1.164 0.375,-4.44 0.905,-3.944 0.296,0.277 1.231,-0.823 1.438,-1.004 1.693,-3.104 2.058,-6.665 2.796,-10.064 0.74,-2.343 -1.717,-4.421 -3.475,-2.544 -1.623,2.683 0.785,-1.19 -0.652,-3.338 z m 2.633,3.078 c 1.908,1.691 0.37,4.369 0.39,6.485 -0.27,1.759 -0.922,3.492 -2.057,4.88 1.998,-1.07 -1.331,3.87 -1.582,1.156 -0.97,-2.493 3.241,-3.109 2.507,-5.499 -0.247,-1.223 -0.991,-1.403 -0.34,-0.05 0.532,1.36 -1.535,2.726 -1.343,0.569 -0.71,-1.357 1.626,-5.555 2.35,-2.994 0.344,-0.053 0.854,-4.69 -0.535,-2.412 -0.587,0.84 -2.24,4.406 -2.192,1.447 -0.118,-1.74 1.07,-3.29 2.802,-3.582 z m -40.304,2.735 c 1.676,-0.417 2.484,4.567 0.81,2.202 -1.602,-1.911 -0.187,1.268 -0.21,2.133 0.416,1.139 0.477,-1.397 1.124,-0.033 0.596,1.7 -0.873,3.778 0.981,5.145 0.697,0.868 0.732,3.848 -0.225,1.639 -1.429,-2.933 -2.48,-6.091 -2.869,-9.334 -0.03,-0.603 0.055,-1.235 0.389,-1.752 z m 2.24,1.205 0.008,0.007 z m 30.318,33.115 c -0.236,0.624 0.18,0.218 0,0 z"
        id="path6" />
      <path fill-rule="evenodd"
        d="m 100.862,125.868 c -0.528,-0.03 -0.93,-0.605 -1.488,-0.401 -0.22,0.028 -0.717,0.324 -0.361,-0.025 0.281,-0.527 0.825,-0.826 1.379,-0.993 0.79,-0.323 1.589,-0.688 2.452,-0.756 0.5,-0.3 1.089,-0.075 1.63,-0.128 0.545,0.011 1.063,0.185 1.557,0.4 a 5.976,5.976 0 0 1 1.49,0.833 c 0.284,0.48 -0.45,0.7 -0.81,0.625 -0.488,-0.1 0.47,-0.577 -0.212,-0.787 -0.409,-0.2 -0.88,-0.387 -1.332,-0.369 -0.12,0.371 0.081,0.94 -0.377,1.223 -0.53,0.384 -1.26,0.53 -1.891,0.337 -0.533,-0.15 -0.81,-0.704 -0.793,-1.227 -0.157,-0.533 -0.777,0.217 -1.095,0.298 -0.657,0.221 0.228,0.61 0.074,0.994 -0.067,0.05 -0.157,0 -0.223,-0.024 z m -1.71,-1.311 c 0.519,-0.578 1.105,-1.113 1.77,-1.514 0.422,-0.221 0.89,-0.373 1.37,-0.335 0.755,-0.261 1.575,-0.166 2.357,-0.27 0.66,-0.076 1.247,0.144 1.86,0.381 0.28,0.108 1.015,0.84 0.413,0.888 -0.464,-0.27 -0.98,-0.525 -1.496,-0.755 -0.388,-0.132 -0.807,-0.148 -1.21,-0.181 -0.938,0.06 -1.89,0.142 -2.787,0.437 -0.463,0.15 -0.848,0.453 -1.215,0.757 -0.4,0.158 -0.63,0.647 -1.04,0.713 -0.06,-0.008 -0.055,-0.09 -0.021,-0.121 z m 17.941,0.153 c -0.182,-0.191 -0.632,-0.129 -0.566,-0.503 0.078,-0.35 0.393,-0.578 0.63,-0.825 0.243,-0.231 0.576,-0.328 0.845,-0.527 0.278,-0.21 0.613,-0.281 0.932,-0.4 1.365,-0.515 2.89,-0.24 4.185,0.344 0.359,0.173 0.736,0.327 1.043,0.585 0.084,0.169 0.585,0.152 0.307,0.438 -0.41,0.196 -0.848,0.355 -1.297,0.438 -0.314,0.02 0.167,-0.327 0.028,-0.519 0,-0.38 -0.404,-0.532 -0.702,-0.64 -0.217,-0.09 -0.85,-0.244 -0.592,0.166 -0.044,0.29 0.092,0.606 -0.04,0.893 -0.243,0.676 -1.063,0.945 -1.722,0.806 a 1.279,1.279 0 0 1 -0.982,-0.681 c -0.162,-0.303 -0.31,-0.727 -0.064,-1.026 -0.192,-0.225 -0.627,-0.035 -0.893,0.028 -0.252,0.172 -0.605,0.233 -0.764,0.492 -0.189,0.303 0.118,0.768 -0.211,0.987 -0.054,0.007 -0.1,-0.023 -0.137,-0.056 z m -0.733,-1.67 c 0.095,-0.362 0.292,-0.705 0.546,-0.979 0.361,-0.142 0.597,-0.518 0.994,-0.577 0.273,-0.155 0.548,-0.343 0.877,-0.337 0.33,-0.036 0.606,-0.257 0.979,-0.168 1.157,0.068 2.305,0.286 3.414,0.617 0.377,0.109 0.732,0.278 1.042,0.52 0.32,0.082 0.389,0.409 0.607,0.574 0.118,0.125 -0.538,0.569 -0.552,0.176 a 4.982,4.982 0 0 0 -1.362,-1.079 c -0.691,-0.27 -1.449,-0.305 -2.182,-0.355 -0.55,-0.009 -1.123,-0.053 -1.655,0.117 -0.436,0.198 -0.936,0.302 -1.268,0.673 -0.218,0.193 -0.499,0.153 -0.708,0.364 -0.301,0.022 -0.41,0.445 -0.728,0.468 z m -17.772,26.618 c 0.135,-0.686 0.823,1.007 -3.488,2.769 -2.792,1.14 -2.818,2 -4.155,2.693 -1.727,0.895 -6.957,3.062 -8.257,3.686 -1.853,0.89 -4.802,2.747 -5.539,3.201 -5.341,3.293 -3.42,3.45 -4.983,4.453 -1.648,1.058 -2.14,3.074 -2.929,4.855 -0.78,1.76 -0.602,3.55 -1.294,5.503 -0.69,1.953 -0.44,4.225 -0.367,6.907 -0.756,7.285 -0.418,8.77 0.36,9.338 0.573,0.312 1.73,1.196 3.32,0.644 0.477,0.054 -0.114,-0.736 2.722,-0.46 3.4,-0.867 19.265,9.042 32.97,9.779 11.482,-1.507 24.475,-3.91 33.242,-6.782 2.532,-2.29 2.658,1.086 2.658,-2.925 0,-4.234 0,-10.847 -0.397,-16.526 -0.103,-1.458 1.117,-3.185 -2.792,-10.78 -0.9,-1.749 -2.79,-2.744 -4.056,-3.922 -1.266,-1.177 -2.34,-1.823 -3.691,-2.816 -1.436,-1.117 -2.261,-1.788 -2.983,-2.114 -1.228,-0.554 -3.473,-3.276 -3.473,-3.276 -1.124,-1.742 -0.966,1.051 -1.232,2.583 -0.197,1.133 -0.1,1.365 -0.61,2.911 -1.228,12.029 -26.543,6.447 -24.965,-5.412 -0.025,-1.43 0.2,-2.91 -0.06,-4.31 z"
        id="path7" />
      <path fill-rule="evenodd"
        d="m 93.649,119.592 c -0.156,-0.584 -0.094,-1.144 0.086,-0.833 0.034,0.058 0.096,0.106 0.138,0.106 0.042,0 0.006,-0.072 -0.08,-0.16 -0.086,-0.088 -0.183,-0.145 -0.214,-0.126 -0.051,0.03 -0.083,-0.253 -0.086,-0.752 0,-0.09 0.021,-0.243 0.049,-0.341 0.038,-0.137 0.025,-0.178 -0.053,-0.178 -0.057,0 -0.103,-0.03 -0.103,-0.065 0,-0.036 0.038,-0.066 0.085,-0.066 0.057,0 0.052,-0.02 -0.015,-0.062 -0.055,-0.033 -0.078,-0.08 -0.051,-0.106 0.026,-0.026 0.011,-0.089 -0.033,-0.14 -0.112,-0.13 -0.123,-0.21 -0.147,-1.022 -0.012,-0.392 -0.052,-0.787 -0.09,-0.876 -0.047,-0.11 -0.046,-0.176 0,-0.205 0.045,-0.027 0.03,-0.082 -0.042,-0.15 a 0.492,0.492 0 0 1 -0.122,-0.282 c -0.03,-0.478 -0.02,-0.557 0.071,-0.646 0.088,-0.084 0.087,-0.105 -0.011,-0.174 -0.061,-0.043 -0.124,-0.178 -0.139,-0.3 a 1.538,1.538 0 0 0 -0.076,-0.333 c -0.027,-0.06 -0.026,-0.145 0,-0.188 0.033,-0.052 0.021,-0.061 -0.036,-0.027 -0.145,0.086 -0.053,-1.022 0.13,-1.574 0.153,-0.461 0.154,-0.477 0.036,-0.689 -0.19,-0.337 -0.03,-1.424 0.189,-1.293 0.037,0.023 0.047,0.008 0.021,-0.032 -0.09,-0.142 0.528,-1.123 1.026,-1.627 0.199,-0.201 0.213,-0.237 0.118,-0.304 -0.297,-0.209 0.359,-1.651 0.75,-1.651 0.05,0 -0.058,-0.173 -0.24,-0.383 -0.184,-0.213 -0.35,-0.479 -0.373,-0.6 a 68.07,68.07 0 0 0 -0.076,-0.38 c -0.06,-0.297 0.29,-0.942 0.436,-0.802 0.017,0.016 -0.013,0.056 -0.066,0.088 -0.24,0.143 -0.023,1.017 0.328,1.323 0.078,0.067 0.13,0.14 0.115,0.162 -0.014,0.022 0.047,0.044 0.136,0.05 0.089,0.005 0.145,-0.017 0.124,-0.05 -0.02,-0.031 0.04,-0.057 0.136,-0.057 0.192,0 0.217,-0.048 0.08,-0.155 -0.313,-0.247 -0.403,-1.164 -0.173,-1.756 0.186,-0.479 0.232,-0.486 0.229,-0.035 0,0.208 0.014,0.374 0.033,0.369 0.02,-0.005 0.12,0.043 0.22,0.109 0.338,0.217 0.855,-0.15 0.902,-0.64 0.07,-0.71 0.497,-1.253 1.12,-1.424 0.278,-0.076 0.389,-0.138 0.39,-0.218 0.01,-0.705 0.773,-1.8 1.563,-2.247 0.297,-0.167 0.658,-0.541 0.658,-0.68 0,-0.037 0.039,-0.09 0.085,-0.119 a 1.66,1.66 0 0 0 0.264,-0.279 c 0.526,-0.667 0.61,-0.717 0.389,-0.23 -0.113,0.25 -0.239,0.49 -0.28,0.538 -0.128,0.15 -0.023,0.147 0.454,-0.014 0.465,-0.157 0.465,-0.157 0.695,-0.611 0.347,-0.685 1.053,-1.518 1.243,-1.467 0.104,0.029 0.121,0.022 0.057,-0.02 -0.113,-0.076 0.017,-0.175 0.135,-0.104 0.048,0.028 0.06,0.018 0.032,-0.026 -0.028,-0.044 0.061,-0.126 0.223,-0.205 0.307,-0.15 0.439,-0.17 0.368,-0.051 -0.028,0.047 -0.023,0.058 0.013,0.027 a 0.2,0.2 0 0 0 0.062,-0.13 c 0,-0.36 1.847,-0.278 2.66,0.119 0.389,0.19 0.472,0.2 0.472,0.059 0,-0.057 0.061,-0.119 0.135,-0.137 0.074,-0.019 0.135,-0.063 0.135,-0.099 0,-0.035 -0.045,-0.047 -0.1,-0.027 -0.156,0.058 0.253,-0.68 0.517,-0.934 0.532,-0.513 1.098,-0.538 2.17,-0.096 0.255,0.105 0.335,0.105 0.607,-0.003 0.1,-0.04 0.117,-0.03 0.074,0.041 -0.033,0.055 -0.03,0.07 0.006,0.038 a 0.195,0.195 0 0 0 0.06,-0.126 c 0,-0.26 1.383,-0.47 1.603,-0.244 0.067,0.069 0.04,0.077 -0.14,0.045 -0.249,-0.045 -0.803,0.075 -0.846,0.184 -0.017,0.043 0.088,0.075 0.273,0.083 0.4,0.017 1.373,0.242 1.688,0.392 0.139,0.065 0.47,0.189 0.736,0.274 0.266,0.085 0.471,0.175 0.455,0.2 -0.016,0.025 0.027,0.031 0.095,0.014 0.153,-0.038 0.956,0.274 1.071,0.417 0.12,0.15 0.16,0.072 0.06,-0.116 -0.06,-0.114 -0.067,-0.226 -0.023,-0.387 0.035,-0.125 0.048,-0.387 0.029,-0.584 -0.034,-0.357 -0.034,-0.357 0.07,-0.13 0.11,0.24 0.146,0.767 0.07,1.038 -0.12,0.426 0.362,0.671 1.01,0.515 0.637,-0.154 1.652,-0.184 2.274,-0.067 0.905,0.17 2.35,1.034 2.23,1.334 -0.022,0.058 -0.005,0.093 0.043,0.083 0.045,-0.008 0.078,0.036 0.073,0.098 -0.005,0.062 0.015,0.098 0.045,0.08 0.071,-0.042 0.224,0.643 0.214,0.959 -0.009,0.296 -0.003,0.296 0.345,0.032 0.5,-0.378 0.516,-0.405 0.516,-0.823 0,-0.448 -0.059,-0.62 -0.297,-0.861 -0.163,-0.165 -0.226,-0.311 -0.133,-0.311 0.082,0 0.533,0.444 0.565,0.47 0.133,0.11 0.385,0.396 0.465,0.6 0.194,0.498 0.107,1.287 -0.32,1.736 -0.21,0.222 -0.164,0.273 0.169,0.184 0.372,-0.1 1.169,-0.083 1.37,0.028 0.334,0.183 0.361,0.146 0.315,-0.433 -0.049,-0.61 -0.242,-0.972 -0.605,-1.132 -0.215,-0.094 -0.215,-0.094 0.088,-0.052 0.918,0.128 1.74,1.034 1.894,2.091 0.065,0.44 0.022,0.657 -0.27,1.362 -0.17,0.414 -0.17,0.41 -0.023,0.357 0.847,-0.301 1.278,-1.356 0.867,-2.125 -0.22,-0.412 -0.185,-0.44 0.11,-0.088 0.478,0.567 0.785,1.536 0.545,1.717 -0.058,0.044 -0.072,0.091 -0.033,0.114 0.036,0.022 0.08,0.004 0.099,-0.042 0.06,-0.149 -0.028,0.433 -0.103,0.679 -0.04,0.132 -0.096,0.228 -0.123,0.211 -0.028,-0.016 -0.064,0.043 -0.082,0.13 -0.017,0.088 -0.007,0.145 0.022,0.128 0.2,-0.12 0.592,0.854 0.497,1.236 -0.115,0.465 -0.118,0.506 -0.034,0.456 0.089,-0.052 0.032,0.342 -0.066,0.455 -0.043,0.05 -0.056,0.152 -0.03,0.23 0.025,0.079 0.066,0.116 0.09,0.085 0.061,-0.082 0.278,-0.088 0.278,-0.008 0,0.037 0.061,0.015 0.135,-0.05 0.352,-0.306 -0.004,-1.715 -0.571,-2.26 -0.082,-0.08 -0.088,-0.108 -0.023,-0.108 0.05,0 0.126,0.055 0.17,0.123 0.044,0.068 0.284,0.216 0.534,0.33 0.296,0.135 0.423,0.224 0.368,0.257 -0.064,0.038 -0.058,0.06 0.025,0.091 0.065,0.024 0.093,0.014 0.07,-0.023 -0.087,-0.135 0.083,-0.057 0.257,0.117 0.19,0.191 0.24,0.313 0.096,0.234 -0.049,-0.027 -0.06,-0.022 -0.028,0.012 a 0.22,0.22 0 0 0 0.135,0.06 c 0.043,0 0.074,0.052 0.07,0.113 -0.005,0.062 0.016,0.096 0.047,0.078 0.16,-0.095 0.525,1.043 0.405,1.259 -0.053,0.094 -0.03,0.115 0.146,0.127 0.527,0.04 1.274,0.45 1.492,0.823 0.106,0.18 0.095,0.176 -0.133,-0.053 -0.47,-0.47 -1.477,-0.796 -1.477,-0.478 0,0.085 0.133,0.172 0.472,0.309 0.43,0.173 0.784,0.423 1.04,0.731 0.148,0.18 0.256,1.056 0.174,1.417 -0.106,0.465 -0.136,0.419 -0.136,-0.205 0,-0.315 -0.023,-0.558 -0.05,-0.542 -0.029,0.016 -0.051,-0.025 -0.051,-0.091 0,-0.156 -0.315,-0.623 -0.473,-0.702 a 6.31,6.31 0 0 1 -0.543,-0.376 c -0.23,-0.173 -0.405,-0.276 -0.387,-0.227 0.018,0.048 -0.023,0.139 -0.091,0.201 -0.068,0.063 -0.123,0.083 -0.123,0.045 0,-0.038 -0.032,-0.05 -0.07,-0.027 -0.044,0.025 0.019,0.149 0.158,0.312 0.126,0.149 0.25,0.333 0.275,0.41 a 0.566,0.566 0 0 0 0.154,0.227 c 0.14,0.111 0.073,-0.131 -0.12,-0.44 -0.125,-0.198 -0.177,-0.61 -0.077,-0.607 0.245,0.007 0.833,1.38 0.916,2.14 0.017,0.161 0.04,0.322 0.051,0.357 0.036,0.116 -0.076,0.737 -0.207,1.153 -0.11,0.353 -0.12,0.522 -0.078,1.314 0.05,0.932 -0.048,1.644 -0.213,1.546 -0.038,-0.023 -0.05,-0.011 -0.027,0.025 0.024,0.036 -0.022,0.194 -0.1,0.35 -0.153,0.304 -0.163,0.407 -0.094,0.967 0.161,1.313 0.177,2.078 0.046,2.23 -0.048,0.055 -0.072,0.124 -0.054,0.152 0.018,0.028 0.053,0.329 0.077,0.668 0.025,0.34 0.44,3.487 0.233,3.3 -0.279,0.187 -0.767,-1.07 -1.03,-1.453 -0.839,-1.226 -3.138,-2.86 -3.057,-3.086 -0.006,-0.093 -0.102,-0.263 -0.213,-0.379 -0.112,-0.115 -0.18,-0.231 -0.152,-0.258 0.028,-0.027 0.182,0.097 0.342,0.275 0.161,0.178 0.314,0.303 0.34,0.277 0.055,-0.05 -0.322,-0.539 -0.556,-0.721 -0.084,-0.065 -0.152,-0.158 -0.152,-0.206 0,-0.048 -0.024,-0.097 -0.052,-0.109 -0.096,-0.04 -0.571,-0.638 -0.507,-0.638 0.105,0 0.362,0.298 0.307,0.356 -0.029,0.03 -0.015,0.034 0.03,0.01 0.045,-0.025 0.14,0.006 0.212,0.07 0.496,0.443 0.616,0.563 0.616,0.612 0,0.03 0.03,0.056 0.068,0.056 0.142,0 0.056,-0.179 -0.204,-0.424 -0.149,-0.14 -0.256,-0.291 -0.238,-0.337 0.018,-0.045 0.01,-0.076 -0.016,-0.068 -0.026,0.007 -0.33,-0.256 -0.673,-0.585 -0.942,-0.901 -0.708,-0.84 0.297,0.078 0.31,0.283 0.564,0.482 0.564,0.442 0,-0.04 -0.03,-0.09 -0.068,-0.112 -0.037,-0.023 -0.067,-0.07 -0.067,-0.105 0,-0.036 0.028,-0.048 0.063,-0.028 0.034,0.02 0.08,0.01 0.103,-0.025 0.022,-0.035 -0.02,-0.052 -0.093,-0.038 -0.13,0.024 -0.348,-0.174 -0.73,-0.664 -0.208,-0.265 -0.496,-0.794 -0.436,-0.8 0.027,-0.003 -0.018,-0.03 -0.1,-0.06 -0.135,-0.054 -0.491,-0.656 -0.491,-0.834 0,-0.041 -0.038,-0.077 -0.084,-0.08 -0.068,-0.004 -0.068,-0.012 0,-0.038 0.14,-0.054 0.094,-0.163 -0.05,-0.119 -0.094,0.029 -0.136,0.012 -0.136,-0.055 0,-0.054 1.266,-0.433 1.031,-0.544 a 2.36,2.36 0 0 1 -0.702,-0.508 c -1.222,-1.347 -1.244,-1.38 -1.47,-2.2 -0.253,-0.913 -0.285,-0.86 -0.141,0.235 0.011,0.089 0.101,0.332 0.2,0.54 0.098,0.207 0.148,0.36 0.111,0.337 -0.213,-0.127 0.074,0.195 0.539,0.605 0.296,0.261 0.52,0.502 0.5,0.536 -0.023,0.034 -0.013,0.054 0.02,0.044 0.033,-0.01 0.173,0.077 0.31,0.193 0.29,0.243 0.273,0.26 -0.082,0.085 a 2.088,2.088 0 0 0 -0.625,-0.156 c -0.615,-0.05 -1.381,-0.508 -1.51,-0.9 -0.022,-0.064 -0.06,-0.116 -0.086,-0.116 -0.06,0 -0.231,-0.33 -0.38,-0.73 -0.147,-0.397 -0.196,-0.39 -0.692,0.102 -0.288,0.286 -0.502,0.437 -0.704,0.498 -0.35,0.105 -0.46,0.134 -0.594,0.154 a 0.733,0.733 0 0 0 -0.169,0.046 c -0.11,0.053 -1.046,-0.011 -1.01,-0.07 0.02,-0.029 -0.026,-0.037 -0.102,-0.018 -0.297,0.074 -1.39,-0.525 -1.504,-0.826 -0.048,-0.125 -0.376,-0.664 -0.45,-0.739 -0.031,-0.032 -0.054,0.033 -0.05,0.144 0.003,0.11 0.028,0.188 0.055,0.172 0.1,-0.06 -0.078,0.51 -0.21,0.671 -0.228,0.28 -0.89,0.542 -1.081,0.429 -0.067,-0.04 0.043,-0.111 0.567,-0.364 0.363,-0.176 0.666,-0.767 0.393,-0.767 -0.082,0 -0.215,0.265 -0.169,0.337 0.026,0.04 0.016,0.054 -0.022,0.032 -0.037,-0.022 -0.102,0.031 -0.143,0.12 -0.042,0.088 -0.113,0.16 -0.158,0.16 -0.044,0 -0.156,0.065 -0.249,0.146 -0.168,0.146 -0.168,0.146 -0.016,-0.065 0.083,-0.116 0.178,-0.211 0.212,-0.211 0.083,0 0.241,-0.253 0.294,-0.47 0.06,-0.252 -0.04,-0.222 -0.196,0.057 -0.15,0.268 -0.59,0.58 -0.714,0.506 -0.047,-0.028 -0.064,-0.021 -0.04,0.017 0.024,0.036 -0.085,0.105 -0.242,0.153 -0.156,0.049 -0.307,0.119 -0.334,0.156 -0.035,0.047 -0.067,0.046 -0.101,-0.003 -0.084,-0.118 -0.601,-0.217 -0.689,-0.133 -0.055,0.053 -0.09,0.05 -0.13,-0.014 -0.03,-0.047 -0.113,-0.08 -0.183,-0.07 a 0.672,0.672 0 0 1 -0.262,-0.034 c -0.322,-0.118 -0.484,-0.202 -0.493,-0.257 -0.016,-0.1 -0.353,-0.103 -0.393,-0.004 -0.035,0.087 0.13,0.297 0.516,0.653 0.211,0.197 1.389,0.757 1.768,0.842 0.028,0.006 0.18,0.018 0.337,0.026 0.286,0.015 0.286,0.015 0.017,0.077 -0.243,0.057 -0.722,0.044 -1.179,-0.033 -0.746,-0.124 -2.377,-0.878 -2.254,-1.041 0.017,-0.022 0.01,-0.025 -0.015,-0.007 -0.026,0.019 -0.141,-0.055 -0.258,-0.163 -0.21,-0.198 -0.211,-0.198 -0.335,-0.066 -0.068,0.072 -0.154,0.131 -0.192,0.131 -0.038,0 -0.003,-0.068 0.078,-0.15 0.257,-0.264 -0.086,-0.7 -0.352,-0.447 -0.11,0.104 -0.115,0.101 -0.079,-0.052 0.044,-0.188 -0.122,-0.412 -0.36,-0.485 -0.137,-0.042 -0.149,-0.03 -0.109,0.105 0.03,0.1 0.024,0.124 -0.016,0.068 -0.042,-0.058 -0.258,-0.09 -0.676,-0.098 -0.476,-0.01 -0.64,-0.037 -0.729,-0.122 -0.107,-0.104 -0.105,-0.108 0.042,-0.071 0.114,0.029 0.142,0.017 0.105,-0.04 -0.038,-0.06 0.006,-0.072 0.172,-0.047 0.3,0.046 0.632,-0.156 0.797,-0.484 0.136,-0.272 0.077,-0.337 -0.112,-0.124 -0.064,0.071 -0.141,0.13 -0.173,0.13 -0.031,0 -0.153,0.068 -0.27,0.151 -0.363,0.257 -0.803,0.313 -1.1,0.14 -0.247,-0.144 -0.247,-0.144 -0.052,-0.141 0.197,0.003 0.362,-0.028 0.735,-0.137 a 0.74,0.74 0 0 1 0.303,-0.03 c 0.075,0.02 0.08,0.012 0.016,-0.031 -0.065,-0.044 -0.044,-0.095 0.084,-0.211 0.168,-0.153 0.233,-0.455 0.098,-0.455 -0.04,0 -0.055,0.026 -0.034,0.059 0.088,0.137 -0.038,0.266 -0.185,0.19 -0.105,-0.054 -0.148,-0.054 -0.167,0 -0.014,0.04 -0.07,0.074 -0.124,0.074 -0.054,0 -0.241,0.073 -0.415,0.162 -0.174,0.09 -0.364,0.163 -0.423,0.163 -0.222,0 -1.194,0.895 -1.434,1.322 -0.592,1.05 0.568,2.049 1.712,1.474 0.333,-0.167 0.36,-0.154 0.28,0.133 -0.04,0.143 -0.099,0.215 -0.171,0.21 -0.062,-0.005 -0.097,0.014 -0.078,0.043 0.065,0.102 -0.392,0.387 -0.493,0.307 -0.069,-0.055 -0.105,-0.053 -0.144,0.009 -0.03,0.045 -0.114,0.073 -0.187,0.06 -0.074,-0.011 -0.137,0.008 -0.14,0.044 -0.02,0.208 -0.821,0.034 -0.824,-0.18 0,-0.055 -0.019,-0.052 -0.06,0.01 -0.05,0.075 -0.14,0.052 -0.502,-0.123 -0.244,-0.117 -0.426,-0.24 -0.405,-0.273 0.022,-0.032 -0.107,-0.196 -0.284,-0.363 -0.177,-0.168 -0.306,-0.26 -0.285,-0.207 0.12,0.32 0.097,0.374 -0.043,0.097 -0.09,-0.178 -0.165,-0.377 -0.167,-0.44 -0.01,-0.246 -0.314,-0.421 -0.695,-0.401 -0.432,0.022 -0.543,-0.028 -1.022,-0.457 -0.319,-0.285 -0.532,-0.896 -0.54,-1.55 -0.008,-0.52 -0.548,0.783 -0.511,0.836 0.025,0.036 0.097,0.198 0.159,0.36 0.111,0.292 0.609,0.839 0.69,0.76 0.023,-0.022 -0.05,-0.152 -0.16,-0.288 -0.112,-0.136 -0.216,-0.35 -0.233,-0.475 a 2.087,2.087 0 0 0 -0.078,-0.357 c -0.026,-0.071 0,-0.051 0.057,0.045 0.058,0.095 0.113,0.228 0.124,0.294 0.01,0.066 0.102,0.257 0.203,0.423 0.102,0.167 0.177,0.34 0.167,0.385 -0.033,0.15 0.422,0.316 0.756,0.277 0.705,-0.082 1.073,-0.041 0.691,0.077 a 7.43,7.43 0 0 0 -0.219,0.073 c -0.67,0.239 -1.367,0.083 -1.975,-0.441 -0.174,-0.15 -0.315,-0.307 -0.315,-0.35 0,-0.043 -0.076,-0.147 -0.169,-0.23 -0.092,-0.085 -0.168,-0.2 -0.168,-0.259 0,-0.33 -0.27,-0.23 -0.57,0.213 -0.066,0.096 -0.16,0.175 -0.21,0.175 -0.198,0 -0.25,0.304 -0.133,0.763 0.15,0.587 1.054,0.991 1.713,0.766 0.357,-0.123 0.658,-0.14 0.457,-0.028 a 0.878,0.878 0 0 1 -0.236,0.088 c -0.061,0.01 -0.105,0.048 -0.097,0.085 0.035,0.154 -1.131,0.211 -1.506,0.075 -0.231,-0.084 -0.563,-0.377 -0.563,-0.496 0,-0.115 -0.065,-0.107 -0.224,0.028 -0.13,0.11 -0.132,0.109 -0.092,-0.049 0.022,-0.09 0.014,-0.204 -0.019,-0.255 -0.043,-0.067 -0.073,-0.023 -0.108,0.16 -0.031,0.16 -0.023,0.26 0.022,0.274 0.098,0.032 -0.027,0.452 -0.197,0.664 -0.57,0.708 -0.797,0.978 -0.797,0.945 0,-0.022 -0.107,0.064 -0.238,0.19 -0.378,0.364 -1.174,0.684 -1.701,0.684 -0.197,0 -0.032,-0.119 0.49,-0.353 0.404,-0.181 1.3,-1.199 1.108,-1.26 a 0.96,0.96 0 0 1 -0.251,-0.185 c -0.154,-0.149 -0.17,-0.151 -0.33,-0.05 -0.092,0.058 -0.151,0.121 -0.131,0.14 0.02,0.02 -0.069,0.193 -0.197,0.386 -0.128,0.193 -0.232,0.378 -0.232,0.412 0,0.034 -0.058,0.091 -0.13,0.128 -0.07,0.037 -0.164,0.17 -0.207,0.294 -0.06,0.177 -0.114,0.228 -0.241,0.228 -0.176,0 -0.253,0.415 -0.087,0.468 0.115,0.037 0.776,0.919 0.414,1.294 -0.292,0.303 -0.55,0.725 -0.483,0.789 0.037,0.036 0.585,-0.56 0.585,-0.636 0,-0.03 0.027,-0.055 0.06,-0.055 0.12,0 -0.015,0.298 -0.295,0.649 -0.335,0.42 -0.44,0.6 -0.44,0.752 0,0.072 0.09,0.004 0.245,-0.189 0.134,-0.166 0.276,-0.283 0.314,-0.26 0.044,0.026 0.055,0.004 0.03,-0.06 a 0.163,0.163 0 0 1 0.047,-0.174 c 0.217,-0.174 -0.006,0.323 -0.375,0.834 -0.217,0.3 -0.395,0.575 -0.395,0.61 0,0.034 -0.042,0.095 -0.094,0.135 -0.148,0.113 -0.195,0.342 -0.08,0.385 0.064,0.023 0.088,0.006 0.067,-0.047 -0.019,-0.046 0.059,-0.18 0.171,-0.296 0.113,-0.116 0.206,-0.231 0.206,-0.256 0,-0.025 0.126,-0.16 0.28,-0.302 0.248,-0.226 0.265,-0.233 0.147,-0.061 -0.074,0.107 -0.217,0.35 -0.318,0.541 -0.102,0.19 -0.291,0.493 -0.421,0.671 -0.34,0.466 -0.21,0.478 0.218,0.02 0.2,-0.213 0.346,-0.338 0.323,-0.275 -0.023,0.062 -0.065,0.114 -0.094,0.114 -0.03,0 -0.073,0.08 -0.098,0.178 -0.024,0.098 -0.187,0.38 -0.36,0.627 -0.228,0.321 -0.291,0.456 -0.225,0.478 0.077,0.026 0.077,0.04 0,0.092 -0.075,0.05 -0.073,0.057 0.01,0.036 0.055,-0.015 0.1,-0.054 0.1,-0.086 0,-0.08 0.454,-0.683 0.488,-0.65 0.028,0.027 -0.092,0.25 -0.318,0.59 -0.197,0.296 -0.426,0.773 -0.437,0.91 -0.003,0.036 -0.076,0.162 -0.162,0.28 -0.087,0.117 -0.135,0.233 -0.108,0.258 0.028,0.025 0.064,0.008 0.08,-0.036 0.017,-0.045 -0.514,0.543 -0.532,0.576 -0.234,0.42 -0.557,6.176 -0.55,5.934 -0.733,-2.362 -1.528,-4.074 -1.22,-4.35 -0.486,-0.217 -0.45,-0.268 -0.398,-1.011 m 28.309,-15 c -0.022,-0.056 -0.017,-0.087 0.012,-0.07 0.076,0.045 0.34,-0.54 0.38,-0.84 0.018,-0.14 0.052,-0.372 0.075,-0.515 0.06,-0.363 0.06,-0.461 0.004,-0.949 -0.051,-0.444 0.218,-0.565 0.703,-0.315 0.36,0.185 1.455,0.015 1.919,-0.299 0.395,-0.267 0.396,-0.233 0.007,0.123 -0.22,0.202 -0.487,0.382 -0.6,0.406 -0.47,0.1 -0.658,0.233 -0.27,0.192 0.43,-0.046 0.968,-0.306 1.232,-0.596 0.109,-0.12 0.228,-0.217 0.265,-0.217 0.036,0 0.181,-0.19 0.322,-0.42 0.14,-0.232 0.29,-0.41 0.33,-0.395 0.055,0.019 0.06,-0.043 0.022,-0.21 -0.03,-0.131 -0.028,-0.45 0.006,-0.71 0.075,-0.566 0,-1.017 -0.246,-1.488 -0.097,-0.184 -0.16,-0.36 -0.139,-0.391 0.02,-0.032 -0.04,-0.064 -0.134,-0.071 -0.16,-0.013 -0.169,0 -0.128,0.197 0.127,0.613 0.123,0.949 -0.016,1.23 a 4.62,4.62 0 0 0 -0.227,0.563 c -0.256,0.823 -1.339,1.403 -2.278,1.22 -0.846,-0.166 -1.899,-0.993 -1.164,-0.915 0.22,0.023 0.193,-0.008 -0.15,-0.167 -0.166,-0.078 -0.303,-0.168 -0.303,-0.2 0,-0.082 0.043,-0.076 0.268,0.036 0.149,0.075 0.201,0.078 0.227,0.016 0.022,-0.052 0.054,-0.057 0.09,-0.015 0.03,0.035 0.177,0.073 0.325,0.083 0.583,0.04 1.28,0.01 1.176,-0.053 -0.038,-0.022 0.01,-0.075 0.105,-0.116 0.234,-0.103 0.289,-0.096 0.13,0.015 -0.072,0.051 -0.111,0.111 -0.087,0.135 0.047,0.045 0.328,-0.088 0.41,-0.194 0.031,-0.042 0.05,-0.04 0.05,0.007 0,0.129 -0.258,0.395 -0.468,0.478 -0.212,0.085 -0.255,0.158 -0.135,0.23 0.075,0.044 0.874,-0.286 0.874,-0.362 0,-0.025 0.106,-0.157 0.235,-0.293 0.13,-0.136 0.236,-0.273 0.236,-0.304 0,-0.03 0.03,-0.038 0.068,-0.016 0.037,0.022 0.067,-0.017 0.067,-0.087 0,-0.157 -0.128,-0.206 -0.64,-0.242 a 3.683,3.683 0 0 1 -0.525,-0.066 c -0.067,-0.02 -0.158,-0.009 -0.203,0.026 -0.044,0.035 -0.232,0.083 -0.417,0.106 -0.348,0.045 -0.64,0.182 -0.64,0.301 0,0.098 -1.08,0.032 -1.321,-0.08 -0.295,-0.136 -0.21,-0.199 0.295,-0.218 0.48,-0.019 0.88,-0.175 1.108,-0.43 0.064,-0.072 0.144,-0.115 0.178,-0.094 0.034,0.02 0.099,-0.007 0.144,-0.06 0.046,-0.054 0.063,-0.097 0.039,-0.097 -0.025,0 0.045,-0.127 0.157,-0.283 0.257,-0.36 0.415,-0.742 0.431,-1.04 0.015,-0.274 0.03,-0.285 0.112,-0.089 0.043,0.103 0.062,0.114 0.065,0.039 0.004,-0.108 -0.335,-0.658 -0.38,-0.616 -0.012,0.012 0.022,0.105 0.076,0.206 0.055,0.101 0.081,0.212 0.06,0.246 a 0.864,0.864 0 0 0 -0.065,0.259 c -0.069,0.57 -1.372,1.77 -1.707,1.57 -0.031,-0.018 -0.137,-0.004 -0.235,0.032 a 2.302,2.302 0 0 1 -0.393,0.095 c -0.33,0.046 -0.604,0.103 -0.666,0.14 -0.075,0.045 -0.477,-0.198 -0.866,-0.523 -0.33,-0.277 -0.858,-0.71 -1.142,-0.936 -0.093,-0.074 -0.147,-0.135 -0.12,-0.136 0.116,-0.006 1.105,0.6 1.214,0.744 0.028,0.037 0.05,0.018 0.05,-0.045 0,-0.06 -0.12,-0.191 -0.267,-0.292 -0.297,-0.202 -0.32,-0.247 -0.163,-0.306 0.068,-0.025 0.257,0.068 0.512,0.253 0.222,0.16 0.462,0.292 0.532,0.292 h 0.145 c 0.01,0 0.16,0.043 0.335,0.094 0.195,0.057 0.334,0.068 0.358,0.03 0.04,-0.06 0.233,-0.046 0.504,0.037 0.166,0.051 0.182,-0.084 0.016,-0.144 -0.122,-0.043 -0.658,-0.362 -1.131,-0.672 a 2.927,2.927 0 0 0 -0.64,-0.288 13.48,13.48 0 0 1 -0.62,-0.2 c -0.29,-0.103 -0.339,-0.018 -0.083,0.143 0.281,0.178 0.137,0.176 -0.255,-0.003 -0.201,-0.092 -0.422,-0.167 -0.49,-0.167 -0.116,0 -0.3,-0.05 -1.602,-0.43 -0.697,-0.204 -1.731,-0.209 -1.731,-0.008 0,0.04 0.114,0.05 0.3,0.026 0.208,-0.027 0.426,0 0.711,0.087 0.227,0.07 0.531,0.158 0.677,0.196 0.146,0.038 0.266,0.097 0.266,0.131 0,0.034 0.081,0.062 0.181,0.062 0.168,0 0.83,0.578 0.83,0.725 0,0.028 0.094,0.154 0.21,0.281 0.116,0.128 0.188,0.253 0.16,0.278 -0.029,0.026 -0.066,0.01 -0.083,-0.035 -0.016,-0.044 -0.062,-0.062 -0.102,-0.038 -0.04,0.023 -0.054,0.016 -0.033,-0.018 0.156,-0.243 -1.243,-1.19 -1.96,-1.325 -0.598,-0.113 -0.574,-0.047 0.055,0.153 0.487,0.155 0.592,0.22 1.081,0.676 0.298,0.277 0.676,0.577 0.84,0.667 0.165,0.089 0.354,0.206 0.42,0.26 a 0.523,0.523 0 0 0 0.221,0.106 c 0.055,0.004 0.153,0.03 0.218,0.055 0.066,0.026 0.118,0.018 0.118,-0.019 0,-0.036 -0.097,-0.098 -0.215,-0.137 -0.227,-0.077 -0.46,-0.249 -0.46,-0.34 0,-0.108 0.777,0.456 0.894,0.648 0.175,0.288 0.144,0.335 -0.133,0.198 a 1.195,1.195 0 0 0 -0.4,-0.122 c -0.082,0 -0.168,-0.028 -0.189,-0.061 -0.021,-0.034 -0.092,-0.06 -0.156,-0.059 -0.064,0 -0.192,-0.016 -0.285,-0.039 a 4.65,4.65 0 0 0 -2.038,-0.06 c -0.257,0.047 -0.232,0.146 0.034,0.137 a 3.7,3.7 0 0 1 0.505,0.031 c 0.157,0.022 0.301,0.016 0.32,-0.013 0.018,-0.03 0.138,-0.03 0.266,-0.004 0.128,0.028 0.246,0.039 0.261,0.024 0.153,-0.147 1.289,0.602 1.718,1.132 0.195,0.24 0.283,0.412 0.523,1.02 0.05,0.123 0.053,0.122 0.079,-0.02 0.029,-0.159 -0.161,-0.832 -0.275,-0.974 -0.08,-0.099 -0.103,-0.469 -0.027,-0.424 0.092,0.055 0.588,0.728 0.588,0.798 0,0.037 0.03,0.068 0.067,0.068 0.13,0 -0.313,-0.94 -0.531,-1.13 -0.154,-0.134 -0.195,-0.327 -0.058,-0.28 0.046,0.017 0.079,0.057 0.072,0.09 -0.007,0.033 0.051,0.064 0.129,0.07 0.077,0.005 0.158,0.037 0.18,0.07 0.022,0.032 0.222,0.151 0.444,0.264 0.522,0.265 1.18,0.934 1.18,1.201 0,0.051 0.037,0.106 0.083,0.122 0.047,0.016 0.063,0.051 0.037,0.079 -0.027,0.027 -0.11,-0.053 -0.187,-0.178 -0.112,-0.182 -0.19,-0.233 -0.402,-0.26 -0.312,-0.041 -0.686,-0.299 -0.886,-0.61 -0.196,-0.306 -0.243,-0.223 -0.07,0.122 0.107,0.211 0.135,0.37 0.115,0.636 -0.014,0.196 0.005,0.392 0.043,0.436 0.038,0.044 0.054,0.138 0.035,0.208 -0.042,0.154 0.118,0.64 0.168,0.513 0.042,-0.105 0.01,-0.975 -0.049,-1.29 -0.04,-0.222 -0.04,-0.222 0.115,-0.085 0.085,0.075 0.28,0.197 0.433,0.271 0.153,0.074 0.297,0.181 0.32,0.239 0.023,0.057 0.068,0.088 0.102,0.068 0.08,-0.047 0.151,0.126 0.185,0.446 0.014,0.141 0.049,0.273 0.076,0.292 0.027,0.02 0.06,0.197 0.074,0.393 0.013,0.196 0.05,0.406 0.083,0.465 0.039,0.07 0.033,0.117 -0.017,0.133 -0.056,0.018 -0.056,0.06 -0.003,0.158 0.054,0.098 0.053,0.153 -0.006,0.21 -0.06,0.058 -0.06,0.104 0,0.197 0.086,0.132 0.013,0.858 -0.1,1 -0.13,0.16 -0.148,0.303 -0.04,0.303 0.069,0 0.092,-0.036 0.066,-0.1 z m -13.261,-2.828 c 0.502,-0.153 0.852,-0.336 1.067,-0.559 0.078,-0.08 0.159,-0.147 0.18,-0.147 0.02,0 0.145,-0.102 0.279,-0.227 0.133,-0.125 0.303,-0.227 0.376,-0.227 0.074,0 0.134,-0.03 0.134,-0.065 0,-0.036 -0.038,-0.066 -0.084,-0.066 -0.053,0 -0.059,-0.02 -0.017,-0.049 0.152,-0.107 0.572,-0.605 0.572,-0.677 0,-0.043 -0.128,0.042 -0.286,0.189 -0.519,0.482 -0.59,0.539 -0.59,0.47 0,-0.044 -0.124,-0.052 -0.353,-0.024 -0.672,0.083 -1.007,0.05 -1.364,-0.135 -0.462,-0.238 -0.601,-0.363 -0.49,-0.438 0.068,-0.047 0.067,-0.066 -0.007,-0.094 a 0.823,0.823 0 0 1 -0.222,-0.174 c -0.3,-0.318 -0.35,-0.363 -0.381,-0.333 -0.018,0.018 -0.079,-0.004 -0.135,-0.049 -0.087,-0.068 -0.097,-0.059 -0.063,0.066 0.021,0.08 0.011,0.13 -0.022,0.11 -0.034,-0.02 -0.095,-0.166 -0.137,-0.325 -0.09,-0.343 -0.23,-0.395 -0.165,-0.062 0.13,0.663 0.751,1.403 1.154,1.373 0.127,-0.01 0.232,0.005 0.232,0.034 0,0.238 1.46,0.365 1.81,0.157 0.041,-0.025 0.076,-0.018 0.076,0.017 0,0.08 -0.965,0.535 -1.2,0.565 -0.72,0.093 -1.842,0.01 -1.96,-0.146 a 0.853,0.853 0 0 0 -0.214,-0.139 c -0.281,-0.139 -0.95,-0.756 -1.078,-0.993 -0.064,-0.12 -0.18,-0.343 -0.255,-0.495 -0.075,-0.152 -0.173,-0.27 -0.216,-0.26 -0.05,0.011 -0.086,-0.082 -0.095,-0.242 -0.02,-0.345 -0.024,-0.357 -0.102,-0.357 -0.163,0 0.017,1.253 0.196,1.36 0.038,0.022 0.113,0.141 0.167,0.265 0.104,0.235 0.39,0.6 0.607,0.772 0.07,0.056 0.188,0.157 0.262,0.224 0.166,0.151 0.983,0.362 1.412,0.363 0.508,0 0.372,0.11 -0.157,0.125 -1.305,0.037 -2.926,-1.268 -2.643,-2.128 0.027,-0.084 0.021,-0.087 -0.033,-0.015 -0.078,0.106 -0.22,-0.094 -0.167,-0.236 0.016,-0.045 -0.003,-0.081 -0.043,-0.081 -0.092,0 -0.092,0.007 0.026,0.445 0.498,1.842 2.127,2.758 3.928,2.208 z m 1.449,-1.862 c -0.016,-0.07 0.206,-0.318 0.419,-0.468 0.074,-0.053 0.218,-0.193 0.32,-0.312 0.102,-0.119 0.185,-0.198 0.185,-0.176 0,0.022 0.06,0.009 0.134,-0.03 0.074,-0.038 0.135,-0.1 0.135,-0.14 0,-0.044 -0.045,-0.036 -0.118,0.019 -0.106,0.08 -0.109,0.078 -0.026,-0.024 0.05,-0.062 0.117,-0.098 0.147,-0.08 0.03,0.018 0.073,0.005 0.095,-0.029 0.22,-0.344 2.384,-0.625 2.673,-0.347 0.058,0.056 0.029,0.073 -0.117,0.07 -0.192,-0.003 -0.844,0.187 -1.307,0.382 -0.507,0.214 -0.637,0.276 -0.579,0.278 0.034,0 0.006,0.06 -0.062,0.133 -0.084,0.089 -0.139,0.107 -0.17,0.058 -0.035,-0.054 -0.06,-0.054 -0.094,0 -0.025,0.04 -0.012,0.071 0.03,0.071 0.041,0 0.056,0.03 0.033,0.065 -0.084,0.132 0.068,0.06 0.269,-0.129 0.353,-0.33 1.642,-0.707 1.988,-0.581 a 0.209,0.209 0 0 0 0.082,0.005 c 0.026,-0.004 0.033,0.03 0.015,0.076 -0.023,0.057 0.1,0.11 0.39,0.17 0.484,0.1 0.742,0.211 1.231,0.527 0.226,0.145 0.492,0.227 0.55,0.17 0.047,-0.045 -0.388,-0.577 -0.988,-1.208 -0.413,-0.436 -1.074,-0.817 -1.708,-0.984 -0.334,-0.089 -0.428,-0.1 -0.953,-0.123 -0.222,-0.01 -0.336,-0.03 -0.252,-0.045 0.148,-0.028 0.19,-0.09 0.112,-0.166 -0.037,-0.035 -0.144,-0.011 -0.702,0.158 -0.473,0.144 -1.751,1.059 -1.751,1.253 0,0.02 0.167,-0.097 0.373,-0.258 0.205,-0.16 0.419,-0.292 0.475,-0.292 0.056,0 0.316,-0.088 0.577,-0.195 0.261,-0.107 0.572,-0.195 0.69,-0.195 0.119,0 0.244,-0.027 0.28,-0.061 0.04,-0.039 0.314,-0.015 0.737,0.064 0.37,0.07 0.682,0.127 0.69,0.127 0.01,0 0.017,0.03 0.017,0.067 0,0.045 -0.044,0.044 -0.136,-0.003 -0.187,-0.097 -1.346,-0.155 -1.346,-0.067 0,0.037 -0.062,0.067 -0.139,0.067 -0.076,0 -0.305,0.073 -0.507,0.163 -0.203,0.089 -0.398,0.162 -0.434,0.162 a 0.065,0.065 0 0 0 -0.065,0.065 c 0,0.036 -0.04,0.065 -0.09,0.065 -0.108,0 -0.578,0.333 -0.581,0.412 0,0.031 -0.079,0.113 -0.171,0.184 -0.228,0.172 -0.803,0.956 -0.744,1.013 0.027,0.025 0.103,-0.02 0.171,-0.1 0.127,-0.152 0.27,-0.195 0.27,-0.081 0,0.035 -0.048,0.064 -0.105,0.064 -0.058,0 -0.087,0.029 -0.065,0.064 0.023,0.034 -0.014,0.144 -0.08,0.243 -0.12,0.18 -0.12,0.18 0.048,0.072 0.092,-0.06 0.162,-0.137 0.154,-0.172 z m -1.973,-2.067 c 0,-0.02 -0.055,-0.024 -0.121,-0.007 -0.174,0.044 -0.124,-0.612 0.07,-0.916 0.077,-0.121 0.216,-0.37 0.309,-0.552 0.202,-0.397 0.418,-0.708 0.462,-0.665 0.018,0.017 -0.036,0.12 -0.12,0.23 -0.25,0.326 -0.11,0.289 0.286,-0.076 0.203,-0.187 0.457,-0.404 0.565,-0.482 0.223,-0.162 0.19,-0.264 -0.048,-0.15 -0.122,0.06 -0.112,0.04 0.045,-0.09 0.111,-0.09 0.233,-0.166 0.27,-0.166 0.037,0 0.022,0.026 -0.033,0.06 -0.072,0.043 -0.08,0.08 -0.029,0.13 0.052,0.05 0.124,0.03 0.25,-0.066 0.099,-0.074 0.233,-0.146 0.299,-0.16 0.065,-0.015 0.315,-0.086 0.554,-0.157 0.239,-0.072 0.446,-0.12 0.461,-0.105 0.015,0.014 0.095,0 0.178,-0.029 0.111,-0.04 0.15,-0.03 0.15,0.037 0,0.05 -0.063,0.092 -0.14,0.093 -0.194,0 -0.65,0.16 -0.704,0.245 -0.055,0.084 -0.94,0.662 -1.016,0.662 -0.204,0 -1.468,1.558 -1.378,1.699 0.022,0.033 0.126,-0.072 0.232,-0.233 0.212,-0.321 0.789,-0.869 1.19,-1.128 0.14,-0.092 0.266,-0.19 0.278,-0.22 0.012,-0.03 0.049,-0.038 0.08,-0.02 0.032,0.02 0.158,-0.024 0.28,-0.096 0.123,-0.072 0.27,-0.13 0.325,-0.126 0.09,0.004 0.09,0.009 0,0.042 a 0.483,0.483 0 0 0 -0.18,0.146 c -0.045,0.059 -0.204,0.143 -0.354,0.187 -0.151,0.043 -0.275,0.107 -0.275,0.141 0,0.034 -0.046,0.062 -0.104,0.062 -0.13,0 -0.784,0.65 -1.044,1.039 -0.107,0.16 -0.221,0.322 -0.253,0.358 -0.077,0.09 -0.146,0.356 -0.091,0.354 0.024,0 0.12,-0.12 0.212,-0.264 0.093,-0.145 0.26,-0.318 0.374,-0.385 0.113,-0.068 0.3,-0.219 0.416,-0.336 0.47,-0.479 1.554,-1.135 1.97,-1.194 0.69,-0.096 2.226,0.023 2.226,0.174 0,0.033 0.121,0.06 0.27,0.06 0.483,0 -0.017,-0.343 -0.516,-0.353 -0.117,-0.003 -0.2,-0.023 -0.186,-0.046 0.051,-0.08 -0.294,-0.118 -0.822,-0.09 -0.532,0.028 -0.532,0.028 -0.161,-0.072 0.591,-0.16 1.938,-0.052 2.087,0.166 0.049,0.071 0.541,0.153 0.538,0.09 0,-0.03 -0.093,-0.153 -0.202,-0.277 -0.11,-0.124 -0.2,-0.25 -0.2,-0.282 0,-0.26 -1.363,-1.139 -1.481,-0.955 -0.031,0.049 -0.067,0.055 -0.092,0.017 -0.037,-0.058 -0.557,-0.163 -0.886,-0.179 -0.15,-0.007 -0.533,0.075 -0.74,0.159 -0.892,0.36 -1.322,0.563 -1.53,0.722 -0.136,0.105 -0.265,0.191 -0.285,0.191 -0.02,0 -0.147,0.11 -0.283,0.243 -0.135,0.134 -0.207,0.192 -0.16,0.129 0.1,-0.132 0.07,-0.194 -0.056,-0.12 -0.047,0.029 -0.09,0.113 -0.096,0.187 -0.005,0.075 -0.031,0.13 -0.056,0.124 -0.055,-0.014 -0.324,0.258 -0.472,0.478 -0.403,0.596 -0.735,1.727 -0.557,1.899 0.045,0.044 0.294,-0.063 0.294,-0.127 z"
        id="path8" />
    </g>
  </g>
</svg>