<!--Created with Inkscape (http://www.inkscape.org/)-->
<svg width="100%" height="100%" viewBox="0 0 210 297">
  <!-- MOUSTACHE -->
  <path fill-rule="evenodd"
    d="M110.568 146.75c.177-.223.014-.452-.234-.483-.172-.097-.158-.318-.384-.362-.312-.191-.688-.373-.831-.733-.087-.255.087-.505.269-.667.218-.42.7-.6 1.147-.626.422-.034.847-.01 1.268-.048.835.038 1.666-.342 2.496-.116.294.047.418.36.514.604.039.162.171.429.063.545-.122-.1-.188-.496-.343-.418.02.259.168.508.125.77-.22.1-.256-.259-.387-.338-.098.21-.024.47-.127.68-.134.116-.202-.356-.238-.092-.02.212-.241.536-.393.211-.114-.206-.025.2-.039.292.058.195-.101.419-.27.202-.217-.206-.077.346-.203.377-.119-.073-.241-.445-.355-.35.024.137.125.556-.141.384-.143-.185-.376-.098-.538.013-.225.208-.285-.252-.354-.233-.234.198-.595.15-.831-.02-.008.176.137.605-.214.408zm3.158-11.237c.03.359.659.422.491.44.347.21.482.937.888.56.307.38.464.919.93 1.146-.263-.229-.563-1.245-.112-.49.34.379.39.02.122-.227.134-.482.443.44.718.511.263.248.99.514.488-.042-.291-.8.52.2.603.457.124.292.726.555.77.432-.096-.27-.373-1.252.09-.557.155.309.471.205.229-.095.467-.215.652.997.53.26-.03-.738.81.62.581-.103.864.345.95 1.38 1.23 2.141.236.472-.222.378-.155-.055-.005-.249-.44-.93-.276-.312.115.316.375 1.613.004.752-.482-.437.124.636-.327.097-.205-.326-.353-.37-.13.04.127.248.746 1.028.219 1.007-.332-.525-.735-1.113-1.416-1.008-.218-.16-.952-.49-.648.085-.879-.73-2.018-.997-3.113-1.208-.428.118-.924-.484-1.113-.358.102.42-.585-.473-.583.2-.242.671-1.14-.073-1.191-.57.378.728-1.118 1.575-1.22.721-.189.095-.585.499-.375-.051.158-.486-.06-.353-.177 0-.34.523-.68-.46-.626-.217-.105.206-.53 1.025-.607.417-.65.496-1.433.736-2.156 1.073-.781.077-1.338.723-2.025.893.311-.728-.472-.017-.716.182-.302.057-1.156.347-.6-.186.088-.684-.37.55-.655.34.14-.167.801-1.188.246-.604-.254-.199.367-1.023-.102-.347-.52.482.168-.686.277-.915.292-.524.659-1.018 1.142-1.38.264.49 1.262-.77.83.052-.216.716.727-.858.449-.126-.37.276.073.51.125.042.495-.743 1.275-1.254 1.706-2.045.618-.431-.075.31.015.488.484-.114.78-1.359 1.07-1.074-.212.364.576.457.436.041.635.65 1.491-.243 1.799-.606-.126.89 1.11.547 1.63.378.191.03.666-.482.705-.18" />
  <!-- MOUTH -->
  <path fill-rule="evenodd"
    d="M108.06 143.086c-.365-.126-.26-.326-.279-.346-.02-.02 1.498.586 2.864.586 3.335 0 4.236-.158 5.712-.998.557-.318.798-.408.493-.186-1.342.977-2.925 1.335-5.984 1.353-1.101.007-2.096-.3-2.805-.41zm4.138-2.603c1.632.278 3.422-.867 4.926.153.188.235 2.19.546 2.302.4.039-.051.374-.157.437-.06.03.046.033.402-.886.606-1.788.307-4.158.071-5.506.529-2.09.267-4.578-.133-6.647.369-.99.09-3.531-.531-.16-.844 1.581-.601 3.2-1.425 4.947-1.144.196.004.392.001.587-.01zm1.044 1.208c1.446-.342 6.966.092 4.401-.539-1.053-1.09-2.565-.741-3.837-.413-1.823.477-3.622-.614-5.779.606-2.243.67-2.176.499-1.904.78.208.218 3.093-.088 3.4-.248 1.177-.197 2.537-.203 3.719-.186z" />
  <!-- NOSE -->
  <g fill-rule="evenodd">
    <!-- NOSELINE -->
    <path
      d="M109.512 128.996c.075-.112.277-.355.448-.541.29-.316.309-.356.269-.609-.08-.498-.1-.742-.094-1.071.003-.214-.02-.312-.066-.284-.08.05-.097-.05-.02-.127.113-.113.073-1.199-.044-1.159-.088.03-.086.02.01-.055.065-.05.119-.138.119-.195a.76.76 0 0 1 .084-.266c.07-.136.085.066.085 1.193 0 .745.014 1.569.03 1.829.028.473.028.473-.465.98-.27.28-.43.416-.356.305zm-.52 6.297c-.038.057-.088.038-.137-.055-.044-.08-.126-.145-.183-.145-.064 0-.054.035.025.088.112.076.11.089-.016.089-.284.003-.254-.19.086-.544.189-.196.32-.357.29-.357-.03 0 .052-.103.183-.23.13-.126.237-.253.237-.284 0-.07-.324.215-.585.514-.17.193-.21.206-.29.09-.078-.113-.086-.108-.043.029.072.231-.112.583-.216.412-.15-.249.159-.793.373-.655.058.037.07.02.032-.046-.039-.064.149-.356.472-.735.294-.347.51-.63.478-.63-.07 0-.865.894-1.211 1.364-.143.193-.286.351-.319.351-.138 0-.156-.31-.027-.458.078-.09.115-.205.084-.257-.031-.052-.006-.078.057-.056.062.022.21-.09.327-.249.118-.159.148-.233.065-.165-.308.255-.13-.052.336-.575.265-.298.52-.623.568-.722.047-.1-.038-.039-.188.135l-.592.678c-.532.606-.587.691-.394.616.143-.055.149-.045.049.083-.065.083-.175.123-.253.092-.103-.041-.125-.017-.084.092.03.082.021.17-.019.196-.142.091-.155-.403-.016-.579.077-.096.225-.289.328-.428.112-.152.228-.301.346-.449a46.278 46.278 0 0 0 .663-.835c.176-.22.23-.366.193-.52-.035-.145-.009-.23.08-.266a.22.22 0 0 0 .133-.186c0-.08-.085-.027-.217.136-.222.276-.283.431-.13.332.188-.12-.084.393-.387.732-.05.056-.206.254-.349.442-.682.895-.708.917-.669.56a.963.963 0 0 1 .244-.523c.115-.113.208-.24.208-.285 0-.045-.06-.017-.136.06-.254.265-.319.144-.09-.167.296-.405.29-.493-.013-.171-.267.285-.453.67-.453.936 0 .097-.04.176-.087.176-.048 0-.088-.05-.088-.112-.001-.077-.028-.07-.082.02-.045.073-.048.154-.007.18.07.045-.07.813-.247 1.372-.06.19-.05.231.044.194.169-.068.154.24-.026.515-.145.223-.145.223.037.058.193-.176.409.028.413.391 0 .084.068.126.179.11.561-.08.897.164.996.187.07-.002.08-.064.08-.11 0-.045-.049-.1-.108-.122-.07-.026-.034-.103.103-.229zm6.712.085c.041-.112.02-.137-.08-.096-.196.078-.255-.022-.106-.177.07-.073.105-.17.078-.214-.027-.046.005-.061.07-.035.64.256 1.062-1.696.58-2.681-.485-.99-.482-1.321.007-.742.893 1.06 1.003 2.516.255 3.377-.19.218-.344.43-.344.473 0 .043-.078.052-.174.02-.123-.04-.173-.016-.173.085 0 .078-.038.142-.084.142-.046 0-.06-.068-.028-.152z" />
    <!-- NOSTRILS -->
    <path
      d="M113.887 134.659c.06-.01.158-.061.308-.207.149-.146.398-.291.553-.321.155-.031.281-.091.281-.135 0-.043.177.01.392.12.285.144.377.236.337.337a.918.918 0 0 0-.06.251c-.003.063-.024.093-.048.068-.024-.025-.241.07-.484.212-.242.141-.49.24-.551.217-.061-.022-.168.01-.238.07-.09.077-.132.092-.134.018-.012-.126-.237-.195-.345.088-.028.074-.195-.168-.195-.21.003-.383.171-.38.119-.504-.025-.058.037 0 .065-.004zm-4.923.478c-.126-.082-.108-.498.022-.498.06 0 .255-.08.433-.18.178-.1.323-.138.323-.085 0 .053.04.07.089.039.048-.03.066-.093.04-.137-.058-.097.14-.449.252-.449.044 0 .014.076-.066.168-.08.092-.122.23-.093.308.079.215.322.277.438.112.093-.132.155-.127.687.052 1.044.351 2.081.135 2.932-.61.196-.173.268-.195.324-.103.055.09.073.091.074.006 0-.062.064-.113.142-.113.12 0 .124.02.021.152-.104.133-.1.145.033.093.21-.082.19-.003-.032.122-.102.057-.16.062-.13.012.029-.049-.015-.116-.097-.15-.082-.032-.163-.016-.18.037-.016.052-.082.095-.146.095-.064 0-.333.207-.6.46-.265.253-.482.42-.482.371 0-.05.063-.115.142-.147.078-.031.123-.077.099-.102-.085-.088-.328.072-.33.217 0 .092-.025.112-.064.05-.069-.105-1.408-.156-1.394-.053.02.156-.025.27-.093.27-.041 0-.052-.095-.031-.231.038-.249.038-.249-.081-.023-.1.192-.113.228-.011.336.056-.007-.052.082-.113.082-.907.662-.712.348-1.453.086-.369-.13-.34-.09-.481-.038-.096-.042-.125-.116-.174-.15z" />
  </g>
  <!-- **** EYEBROWS **** -->
  <path fill-rule="evenodd"
    d="M101.574 117.865c-.977.049-1.93.465-2.678 1.088-.214.022-.299-.21-.326.102-.37.24-.802.424-1.196.658-.378.247-.407.755-.611 1.125-.12.409-.54.646-.425 1.106-.382.16.35.204.012.421-.155.123.203-.082.054.14.226-.065.412-.081.155.133-.226.243-.357.267.161.12a4.613 4.613 0 0 1 1.651-.995c.11-.079.438-.184.228.042.345-.045.611-.297.95-.379.333-.116.6.222.878-.133.354-.143.762.135 1.09-.043.312-.148.174.33.484.03.316-.129.746-.109 1.048.008.346.06.667-.158.906.069.493.182 1.007-.04 1.512-.005.134-.028.672-.01.943.03.29-.036.502-.42.552-.533.37.02.578-.196.812-.502.258-.3.638-.491.875-.79-.235-.385-.625-.667-.793-1.103-.19.006.217.654.157.819-.366-.21-.586-.613-.96-.823-.096-.18-.664-.22-.546-.117.173.116.473.374.523.59-.363-.28-.753-.565-1.235-.571-1.062-.058-2.127-.066-3.19-.128a6.076 6.076 0 0 0-1.698.15c-.215-.052.462-.225.588-.284.26-.057.709-.254.178-.212l-.094.007zm20.419-1.068c-.07.117.078.185-.194.18.011.315-.955.041-1.295.233-.895.162-1.79.337-2.68.507-.087-.405-1.05.167-1.375.36-.727.513.352-.737-.318-.294-.208.15-.579.592-.445.075-.294.107-.437.625-.63.265-.076.383-.769 1.345-.477.43-.187-.073-.774 1.215-.303 1.455.399.452.855.363 1.292.106.256.141-.475.986.08.449.326-.192.369.312.044.127.022.712.783-.57.736.15.426-.431 1.202-.297 1.811-.35.668-.24.306.152.336.156.482-.203 1.387-.456 1.687-.384-.524.506.714-.437 1.05-.352.308-.093.573-.03.196.21.514-.367 1.14-.623 1.784-.501.457-.056.216.01.065.205.068.182-.146.467.225.223.254-.32 1.237-.128 1.235-.19-.386.06-.553.31-.06.16.38-.106.732.195.17.213-.64-.032-.428.335.068.2.616-.31 1.244-.29 1.884-.172.75-.283-.098-1.112-.371-1.502-.738-.441-1.241-1.343-2.173-1.526-.737-.304-1.585-.42-2.342-.433Z" />
  <path fill-rule="evenodd"
    d="M130.21 118.209c-1.094.077-.32 5.493-.645 7.678-.272 4.68-.404 9.388-1.202 14.015-.314 1.563-.97 4.241-2.154 4.707-.28.723-.112.407-.43.878-.532-.262-1.591 3.31-2.555 1.376.73 1.726-.253.912-.621-.2.55.847.687 2.33-.038.698-.583-.434.863 2.487-.344.69-.549-.823-.912-1.355-.309-.034.47 1.134-.363.843-.715.053.648 1.398.01 1.09-.457-.019-.827-1.213.988 2.747-.516.662-1.326-2.062 1.295 2.388-.348.682-.247-.79.318 2.3-.25.63-.46-2.643-.033 2.618-.595.028-.683-.58-.187 2.003-.69.244-.426-.536-.212 2.42-.756.66-.001-.873-.895-1.869-.617-.34-.174 2.256-1.696-2.28-1.667-1.128 1.058.807.354 3.199.098.893 0 .968.28 2.368-.23.48-.609-.69-.26 3.03-.418.926-.297-2.384-.852 2.741-.697-.09.007-.821-1.17-2.114-.542-.536.455.75-.63 2.29-.216.696.087-.982-.874-2.506-.466-.649.374.675-.474 2.24-.296.554-.053-1.362-.6 1-.42-.703-.088-1.475-.294-1.086-.232.101-.01 1.28-.558 1.455-.848.259-.27.877-.087 1.477-.383.168-1.354.026-.63-1.523-.584-2.007-.28.74-.994 2.996-.855.885-.105.793-.32 3.074-.504.889.105-.89.381-2.394-.315-.709-.042.97-.609 1.76-.406.32.363-.961 1.136-2.388-.13-.891-.44.948-.842 2.26-.41.434.178-1.993-1.06 1.598-.515-.659.073-2.275-.732 2.81-.988.637.237-1.594-.98.837-.674-.572.346-.746 1.377-2.148.14-.738-1.384 2.372-.488-1.268.054-1.66-.985.223-1.648 3.665-1.404 1.403.289-.748 1.512-2.102.147-.84-.687.337 1.032-1.385-.075-.295-.667.285-.27-.243-1.07.345.169-.815.831-1.47-.211-.363-.26.986-1.753 1.682-.906.098.605-.972-1.222 1.358-.971.314-1.644-.137-2.263-2.62-2.632-4.148-1.585-4.444-2.037-9.175-2.977-13.775-.26-1.794-.534-3.613-.503-5.418-.706-2.329-4.518-1.344-3.142 1.16.532 4.073 1.845 8.149 4.382 11.43.368 2.804 1.518 5.428 1.877 8.225 1.022 2.439.201 5.122.134 7.661.197 1.454-1.238 5 .89 5.03-.356-2.157-.775-4.513-.406-6.806.294-1.058-.097-5.3 1.49-2.766 2.903 2.483 6.205 4.783 10.069 5.342 1.997.385 4.136.619 5.95-.532 1.988-.803 4.808-1.93 6.202-2.638.178 1.445-1.303 4.36-.884 4.864.597-2.098.896-4.326 1.882-6.283.361-.974 2.415-2.364 1.82-.325-.737 2.897-.63 5.926-1.25 8.853 2.016 1.616.537-4.148 1.287-1.34-.825 1.37 1.72 2.079 1.59 1.56-.65-1.022-1.91-2.773-1.2-3.784.814.918 2.524 2.497 3.189 2.59-1.805-1.326-4.005-3.049-3.553-5.594.575-2.356.41-5.004 2.084-6.95.899-1.718 1.98-3.396 1.925-5.432.15-1.164.375-4.44.905-3.944.296.277 1.231-.823 1.438-1.004 1.693-3.104 2.058-6.665 2.796-10.064.74-2.343-1.717-4.421-3.475-2.544-1.623 2.683.785-1.19-.652-3.338zm2.633 3.078c1.908 1.691.37 4.369.39 6.485-.27 1.759-.922 3.492-2.057 4.88 1.998-1.07-1.331 3.87-1.582 1.156-.97-2.493 3.241-3.109 2.507-5.499-.247-1.223-.991-1.403-.34-.05.532 1.36-1.535 2.726-1.343.569-.71-1.357 1.626-5.555 2.35-2.994.344-.053.854-4.69-.535-2.412-.587.84-2.24 4.406-2.192 1.447-.118-1.74 1.07-3.29 2.802-3.582zm-40.304 2.735c1.676-.417 2.484 4.567.81 2.202-1.602-1.911-.187 1.268-.21 2.133.416 1.139.477-1.397 1.124-.033.596 1.7-.873 3.778.981 5.145.697.868.732 3.848-.225 1.639-1.429-2.933-2.48-6.091-2.869-9.334-.03-.603.055-1.235.389-1.752zm2.24 1.205.008.007zm30.318 33.115c-.236.624.18.218 0 0z" />
  <path fill-rule="evenodd"
    d="M100.862 125.868c-.528-.03-.93-.605-1.488-.401-.22.028-.717.324-.361-.025.281-.527.825-.826 1.379-.993.79-.323 1.589-.688 2.452-.756.5-.3 1.089-.075 1.63-.128.545.011 1.063.185 1.557.4a5.976 5.976 0 0 1 1.49.833c.284.48-.45.7-.81.625-.488-.1.47-.577-.212-.787-.409-.2-.88-.387-1.332-.369-.12.371.081.94-.377 1.223-.53.384-1.26.53-1.891.337-.533-.15-.81-.704-.793-1.227-.157-.533-.777.217-1.095.298-.657.221.228.61.074.994-.067.05-.157 0-.223-.024zm-1.71-1.311c.519-.578 1.105-1.113 1.77-1.514.422-.221.89-.373 1.37-.335.755-.261 1.575-.166 2.357-.27.66-.076 1.247.144 1.86.381.28.108 1.015.84.413.888-.464-.27-.98-.525-1.496-.755-.388-.132-.807-.148-1.21-.181-.938.06-1.89.142-2.787.437-.463.15-.848.453-1.215.757-.4.158-.63.647-1.04.713-.06-.008-.055-.09-.021-.121zm17.941.153c-.182-.191-.632-.129-.566-.503.078-.35.393-.578.63-.825.243-.231.576-.328.845-.527.278-.21.613-.281.932-.4 1.365-.515 2.89-.24 4.185.344.359.173.736.327 1.043.585.084.169.585.152.307.438-.41.196-.848.355-1.297.438-.314.02.167-.327.028-.519 0-.38-.404-.532-.702-.64-.217-.09-.85-.244-.592.166-.044.29.092.606-.04.893-.243.676-1.063.945-1.722.806a1.279 1.279 0 0 1-.982-.681c-.162-.303-.31-.727-.064-1.026-.192-.225-.627-.035-.893.028-.252.172-.605.233-.764.492-.189.303.118.768-.211.987-.054.007-.1-.023-.137-.056zm-.733-1.67c.095-.362.292-.705.546-.979.361-.142.597-.518.994-.577.273-.155.548-.343.877-.337.33-.036.606-.257.979-.168 1.157.068 2.305.286 3.414.617.377.109.732.278 1.042.52.32.082.389.409.607.574.118.125-.538.569-.552.176a4.982 4.982 0 0 0-1.362-1.079c-.691-.27-1.449-.305-2.182-.355-.55-.009-1.123-.053-1.655.117-.436.198-.936.302-1.268.673-.218.193-.499.153-.708.364-.301.022-.41.445-.728.468l-.004-.014zm-17.772 26.618c.135-.686.823 1.007-3.488 2.769-2.792 1.14-2.818 2-4.155 2.693-1.727.895-6.957 3.062-8.257 3.686-1.853.89-4.802 2.747-5.539 3.201-5.341 3.293-3.42 3.45-4.983 4.453-1.648 1.058-2.14 3.074-2.929 4.855-.78 1.76-.602 3.55-1.294 5.503-.69 1.953-.44 4.225-.367 6.907-.756 7.285-.418 8.77.36 9.338.573.312 1.73 1.196 3.32.644.477.054-.114-.736 2.722-.46 3.4-.867 19.265 9.042 32.97 9.779 11.482-1.507 24.475-3.91 33.242-6.782 2.532-2.29 2.658 1.086 2.658-2.925 0-4.234 0-10.847-.397-16.526-.103-1.458 1.117-3.185-2.792-10.78-.9-1.749-2.79-2.744-4.056-3.922-1.266-1.177-2.34-1.823-3.691-2.816-1.436-1.117-2.261-1.788-2.983-2.114-1.228-.554-3.473-3.276-3.473-3.276-1.124-1.742-.966 1.051-1.232 2.583-.197 1.133-.1 1.365-.61 2.911-1.228 12.029-26.543 6.447-24.965-5.412-.025-1.43.2-2.91-.06-4.31z" />
  <!-- **** HAIR **** -->
  <path fill-rule="evenodd"
    d="M93.649 119.592c-.156-.584-.094-1.144.086-.833.034.058.096.106.138.106.042 0 .006-.072-.08-.16-.086-.088-.183-.145-.214-.126-.051.03-.083-.253-.086-.752 0-.09.021-.243.049-.341.038-.137.025-.178-.053-.178-.057 0-.103-.03-.103-.065 0-.036.038-.066.085-.066.057 0 .052-.02-.015-.062-.055-.033-.078-.08-.051-.106.026-.026.011-.089-.033-.14-.112-.13-.123-.21-.147-1.022-.012-.392-.052-.787-.09-.876-.047-.11-.046-.176 0-.205.045-.027.03-.082-.042-.15a.492.492 0 0 1-.122-.282c-.03-.478-.02-.557.071-.646.088-.084.087-.105-.011-.174-.061-.043-.124-.178-.139-.3a1.538 1.538 0 0 0-.076-.333c-.027-.06-.026-.145 0-.188.033-.052.021-.061-.036-.027-.145.086-.053-1.022.13-1.574.153-.461.154-.477.036-.689-.19-.337-.03-1.424.189-1.293.037.023.047.008.021-.032-.09-.142.528-1.123 1.026-1.627.199-.201.213-.237.118-.304-.297-.209.359-1.651.75-1.651.05 0-.058-.173-.24-.383-.184-.213-.35-.479-.373-.6a68.07 68.07 0 0 0-.076-.38c-.06-.297.29-.942.436-.802.017.016-.013.056-.066.088-.24.143-.023 1.017.328 1.323.078.067.13.14.115.162-.014.022.047.044.136.05.089.005.145-.017.124-.05-.02-.031.04-.057.136-.057.192 0 .217-.048.08-.155-.313-.247-.403-1.164-.173-1.756.186-.479.232-.486.229-.035 0 .208.014.374.033.369.02-.005.12.043.22.109.338.217.855-.15.902-.64.07-.71.497-1.253 1.12-1.424.278-.076.389-.138.39-.218.01-.705.773-1.8 1.563-2.247.297-.167.658-.541.658-.68 0-.037.039-.09.085-.119a1.66 1.66 0 0 0 .264-.279c.526-.667.61-.717.389-.23-.113.25-.239.49-.28.538-.128.15-.023.147.454-.014.465-.157.465-.157.695-.611.347-.685 1.053-1.518 1.243-1.467.104.029.121.022.057-.02-.113-.076.017-.175.135-.104.048.028.06.018.032-.026-.028-.044.061-.126.223-.205.307-.15.439-.17.368-.051-.028.047-.023.058.013.027a.2.2 0 0 0 .062-.13c0-.36 1.847-.278 2.66.119.389.19.472.2.472.059 0-.057.061-.119.135-.137.074-.019.135-.063.135-.099 0-.035-.045-.047-.1-.027-.156.058.253-.68.517-.934.532-.513 1.098-.538 2.17-.096.255.105.335.105.607-.003.1-.04.117-.03.074.041-.033.055-.03.07.006.038a.195.195 0 0 0 .06-.126c0-.26 1.383-.47 1.603-.244.067.069.04.077-.14.045-.249-.045-.803.075-.846.184-.017.043.088.075.273.083.4.017 1.373.242 1.688.392.139.065.47.189.736.274.266.085.471.175.455.2-.016.025.027.031.095.014.153-.038.956.274 1.071.417.12.15.16.072.06-.116-.06-.114-.067-.226-.023-.387.035-.125.048-.387.029-.584-.034-.357-.034-.357.07-.13.11.24.146.767.07 1.038-.12.426.362.671 1.01.515.637-.154 1.652-.184 2.274-.067.905.17 2.35 1.034 2.23 1.334-.022.058-.005.093.043.083.045-.008.078.036.073.098-.005.062.015.098.045.08.071-.042.224.643.214.959-.009.296-.003.296.345.032.5-.378.516-.405.516-.823 0-.448-.059-.62-.297-.861-.163-.165-.226-.311-.133-.311.082 0 .533.444.565.47.133.11.385.396.465.6.194.498.107 1.287-.32 1.736-.21.222-.164.273.169.184.372-.1 1.169-.083 1.37.028.334.183.361.146.315-.433-.049-.61-.242-.972-.605-1.132-.215-.094-.215-.094.088-.052.918.128 1.74 1.034 1.894 2.091.065.44.022.657-.27 1.362-.17.414-.17.41-.023.357.847-.301 1.278-1.356.867-2.125-.22-.412-.185-.44.11-.088.478.567.785 1.536.545 1.717-.058.044-.072.091-.033.114.036.022.08.004.099-.042.06-.149-.028.433-.103.679-.04.132-.096.228-.123.211-.028-.016-.064.043-.082.13-.017.088-.007.145.022.128.2-.12.592.854.497 1.236-.115.465-.118.506-.034.456.089-.052.032.342-.066.455-.043.05-.056.152-.03.23.025.079.066.116.09.085.061-.082.278-.088.278-.008 0 .037.061.015.135-.05.352-.306-.004-1.715-.571-2.26-.082-.08-.088-.108-.023-.108.05 0 .126.055.17.123.044.068.284.216.534.33.296.135.423.224.368.257-.064.038-.058.06.025.091.065.024.093.014.07-.023-.087-.135.083-.057.257.117.19.191.24.313.096.234-.049-.027-.06-.022-.028.012a.22.22 0 0 0 .135.06c.043 0 .074.052.07.113-.005.062.016.096.047.078.16-.095.525 1.043.405 1.259-.053.094-.03.115.146.127.527.04 1.274.45 1.492.823.106.18.095.176-.133-.053-.47-.47-1.477-.796-1.477-.478 0 .085.133.172.472.309.43.173.784.423 1.04.731.148.18.256 1.056.174 1.417-.106.465-.136.419-.136-.205 0-.315-.023-.558-.05-.542-.029.016-.051-.025-.051-.091 0-.156-.315-.623-.473-.702a6.31 6.31 0 0 1-.543-.376c-.23-.173-.405-.276-.387-.227.018.048-.023.139-.091.201-.068.063-.123.083-.123.045 0-.038-.032-.05-.07-.027-.044.025.019.149.158.312.126.149.25.333.275.41a.566.566 0 0 0 .154.227c.14.111.073-.131-.12-.44-.125-.198-.177-.61-.077-.607.245.007.833 1.38.916 2.14.017.161.04.322.051.357.036.116-.076.737-.207 1.153-.11.353-.12.522-.078 1.314.05.932-.048 1.644-.213 1.546-.038-.023-.05-.011-.027.025.024.036-.022.194-.1.35-.153.304-.163.407-.094.967.161 1.313.177 2.078.046 2.23-.048.055-.072.124-.054.152.018.028.053.329.077.668.025.34.44 3.487.233 3.3-.279.187-.767-1.07-1.03-1.453-.839-1.226-3.138-2.86-3.057-3.086-.006-.093-.102-.263-.213-.379-.112-.115-.18-.231-.152-.258.028-.027.182.097.342.275.161.178.314.303.34.277.055-.05-.322-.539-.556-.721-.084-.065-.152-.158-.152-.206 0-.048-.024-.097-.052-.109-.096-.04-.571-.638-.507-.638.105 0 .362.298.307.356-.029.03-.015.034.03.01.045-.025.14.006.212.07.496.443.616.563.616.612 0 .03.03.056.068.056.142 0 .056-.179-.204-.424-.149-.14-.256-.291-.238-.337.018-.045.01-.076-.016-.068-.026.007-.33-.256-.673-.585-.942-.901-.708-.84.297.078.31.283.564.482.564.442 0-.04-.03-.09-.068-.112-.037-.023-.067-.07-.067-.105 0-.036.028-.048.063-.028.034.02.08.01.103-.025.022-.035-.02-.052-.093-.038-.13.024-.348-.174-.73-.664-.208-.265-.496-.794-.436-.8.027-.003-.018-.03-.1-.06-.135-.054-.491-.656-.491-.834 0-.041-.038-.077-.084-.08-.068-.004-.068-.012 0-.038.14-.054.094-.163-.05-.119-.094.029-.136.012-.136-.055 0-.054 1.266-.433 1.031-.544a2.36 2.36 0 0 1-.702-.508c-1.222-1.347-1.244-1.38-1.47-2.2-.253-.913-.285-.86-.141.235.011.089.101.332.2.54.098.207.148.36.111.337-.213-.127.074.195.539.605.296.261.52.502.5.536-.023.034-.013.054.02.044.033-.01.173.077.31.193.29.243.273.26-.082.085a2.088 2.088 0 0 0-.625-.156c-.615-.05-1.381-.508-1.51-.9-.022-.064-.06-.116-.086-.116-.06 0-.231-.33-.38-.73-.147-.397-.196-.39-.692.102-.288.286-.502.437-.704.498-.35.105-.46.134-.594.154a.733.733 0 0 0-.169.046c-.11.053-1.046-.011-1.01-.07.02-.029-.026-.037-.102-.018-.297.074-1.39-.525-1.504-.826-.048-.125-.376-.664-.45-.739-.031-.032-.054.033-.05.144.003.11.028.188.055.172.1-.06-.078.51-.21.671-.228.28-.89.542-1.081.429-.067-.04.043-.111.567-.364.363-.176.666-.767.393-.767-.082 0-.215.265-.169.337.026.04.016.054-.022.032-.037-.022-.102.031-.143.12-.042.088-.113.16-.158.16-.044 0-.156.065-.249.146-.168.146-.168.146-.016-.065.083-.116.178-.211.212-.211.083 0 .241-.253.294-.47.06-.252-.04-.222-.196.057-.15.268-.59.58-.714.506-.047-.028-.064-.021-.04.017.024.036-.085.105-.242.153-.156.049-.307.119-.334.156-.035.047-.067.046-.101-.003-.084-.118-.601-.217-.689-.133-.055.053-.09.05-.13-.014-.03-.047-.113-.08-.183-.07a.672.672 0 0 1-.262-.034c-.322-.118-.484-.202-.493-.257-.016-.1-.353-.103-.393-.004-.035.087.13.297.516.653.211.197 1.389.757 1.768.842.028.006.18.018.337.026.286.015.286.015.017.077-.243.057-.722.044-1.179-.033-.746-.124-2.377-.878-2.254-1.041.017-.022.01-.025-.015-.007-.026.019-.141-.055-.258-.163-.21-.198-.211-.198-.335-.066-.068.072-.154.131-.192.131-.038 0-.003-.068.078-.15.257-.264-.086-.7-.352-.447-.11.104-.115.101-.079-.052.044-.188-.122-.412-.36-.485-.137-.042-.149-.03-.109.105.03.1.024.124-.016.068-.042-.058-.258-.09-.676-.098-.476-.01-.64-.037-.729-.122-.107-.104-.105-.108.042-.071.114.029.142.017.105-.04-.038-.06.006-.072.172-.047.3.046.632-.156.797-.484.136-.272.077-.337-.112-.124-.064.071-.141.13-.173.13-.031 0-.153.068-.27.151-.363.257-.803.313-1.1.14-.247-.144-.247-.144-.052-.141.197.003.362-.028.735-.137a.74.74 0 0 1 .303-.03c.075.02.08.012.016-.031-.065-.044-.044-.095.084-.211.168-.153.233-.455.098-.455-.04 0-.055.026-.034.059.088.137-.038.266-.185.19-.105-.054-.148-.054-.167 0-.014.04-.07.074-.124.074-.054 0-.241.073-.415.162-.174.09-.364.163-.423.163-.222 0-1.194.895-1.434 1.322-.592 1.05.568 2.049 1.712 1.474.333-.167.36-.154.28.133-.04.143-.099.215-.171.21-.062-.005-.097.014-.078.043.065.102-.392.387-.493.307-.069-.055-.105-.053-.144.009-.03.045-.114.073-.187.06-.074-.011-.137.008-.14.044-.02.208-.821.034-.824-.18 0-.055-.019-.052-.06.01-.05.075-.14.052-.502-.123-.244-.117-.426-.24-.405-.273.022-.032-.107-.196-.284-.363-.177-.168-.306-.26-.285-.207.12.32.097.374-.043.097-.09-.178-.165-.377-.167-.44-.01-.246-.314-.421-.695-.401-.432.022-.543-.028-1.022-.457-.319-.285-.532-.896-.54-1.55-.008-.52-.548.783-.511.836.025.036.097.198.159.36.111.292.609.839.69.76.023-.022-.05-.152-.16-.288-.112-.136-.216-.35-.233-.475a2.087 2.087 0 0 0-.078-.357c-.026-.071 0-.051.057.045.058.095.113.228.124.294.01.066.102.257.203.423.102.167.177.34.167.385-.033.15.422.316.756.277.705-.082 1.073-.041.691.077a7.43 7.43 0 0 0-.219.073c-.67.239-1.367.083-1.975-.441-.174-.15-.315-.307-.315-.35 0-.043-.076-.147-.169-.23-.092-.085-.168-.2-.168-.259 0-.33-.27-.23-.57.213-.066.096-.16.175-.21.175-.198 0-.25.304-.133.763.15.587 1.054.991 1.713.766.357-.123.658-.14.457-.028a.878.878 0 0 1-.236.088c-.061.01-.105.048-.097.085.035.154-1.131.211-1.506.075-.231-.084-.563-.377-.563-.496 0-.115-.065-.107-.224.028-.13.11-.132.109-.092-.049.022-.09.014-.204-.019-.255-.043-.067-.073-.023-.108.16-.031.16-.023.26.022.274.098.032-.027.452-.197.664-.57.708-.797.978-.797.945 0-.022-.107.064-.238.19-.378.364-1.174.684-1.701.684-.197 0-.032-.119.49-.353.404-.181 1.3-1.199 1.108-1.26a.96.96 0 0 1-.251-.185c-.154-.149-.17-.151-.33-.05-.092.058-.151.121-.131.14.02.02-.069.193-.197.386s-.232.378-.232.412c0 .034-.058.091-.13.128-.07.037-.164.17-.207.294-.06.177-.114.228-.241.228-.176 0-.253.415-.087.468.115.037.776.919.414 1.294-.292.303-.55.725-.483.789.037.036.585-.56.585-.636 0-.03.027-.055.06-.055.12 0-.015.298-.295.649-.335.42-.44.6-.44.752 0 .072.09.004.245-.189.134-.166.276-.283.314-.26.044.026.055.004.03-.06a.163.163 0 0 1 .047-.174c.217-.174-.006.323-.375.834-.217.3-.395.575-.395.61 0 .034-.042.095-.094.135-.148.113-.195.342-.08.385.064.023.088.006.067-.047-.019-.046.059-.18.171-.296.113-.116.206-.231.206-.256 0-.025.126-.16.28-.302.248-.226.265-.233.147-.061-.074.107-.217.35-.318.541-.102.19-.291.493-.421.671-.34.466-.21.478.218.02.2-.213.346-.338.323-.275-.023.062-.065.114-.094.114-.03 0-.073.08-.098.178-.024.098-.187.38-.36.627-.228.321-.291.456-.225.478.077.026.077.04 0 .092-.075.05-.073.057.01.036.055-.015.1-.054.1-.086 0-.08.454-.683.488-.65.028.027-.092.25-.318.59-.197.296-.426.773-.437.91-.003.036-.076.162-.162.28-.087.117-.135.233-.108.258.028.025.064.008.08-.036.017-.045-.514.543-.532.576-.234.42-.557 6.176-.55 5.934-.733-2.362-1.528-4.074-1.22-4.35-.486-.217-.45-.268-.398-1.011m28.309-15c-.022-.056-.017-.087.012-.07.076.045.34-.54.38-.84.018-.14.052-.372.075-.515.06-.363.06-.461.004-.949-.051-.444.218-.565.703-.315.36.185 1.455.015 1.919-.299.395-.267.396-.233.007.123-.22.202-.487.382-.6.406-.47.1-.658.233-.27.192.43-.046.968-.306 1.232-.596.109-.12.228-.217.265-.217.036 0 .181-.19.322-.42.14-.232.29-.41.33-.395.055.019.06-.043.022-.21-.03-.131-.028-.45.006-.71.075-.566 0-1.017-.246-1.488-.097-.184-.16-.36-.139-.391.02-.032-.04-.064-.134-.071-.16-.013-.169 0-.128.197.127.613.123.949-.016 1.23a4.62 4.62 0 0 0-.227.563c-.256.823-1.339 1.403-2.278 1.22-.846-.166-1.899-.993-1.164-.915.22.023.193-.008-.15-.167-.166-.078-.303-.168-.303-.2 0-.082.043-.076.268.036.149.075.201.078.227.016.022-.052.054-.057.09-.015.03.035.177.073.325.083.583.04 1.28.01 1.176-.053-.038-.022.01-.075.105-.116.234-.103.289-.096.13.015-.072.051-.111.111-.087.135.047.045.328-.088.41-.194.031-.042.05-.04.05.007 0 .129-.258.395-.468.478-.212.085-.255.158-.135.23.075.044.874-.286.874-.362 0-.025.106-.157.235-.293.13-.136.236-.273.236-.304 0-.03.03-.038.068-.016.037.022.067-.017.067-.087 0-.157-.128-.206-.64-.242a3.683 3.683 0 0 1-.525-.066c-.067-.02-.158-.009-.203.026-.044.035-.232.083-.417.106-.348.045-.64.182-.64.301 0 .098-1.08.032-1.321-.08-.295-.136-.21-.199.295-.218.48-.019.88-.175 1.108-.43.064-.072.144-.115.178-.094.034.02.099-.007.144-.06.046-.054.063-.097.039-.097-.025 0 .045-.127.157-.283.257-.36.415-.742.431-1.04.015-.274.03-.285.112-.089.043.103.062.114.065.039.004-.108-.335-.658-.38-.616-.012.012.022.105.076.206.055.101.081.212.06.246a.864.864 0 0 0-.065.259c-.069.57-1.372 1.77-1.707 1.57-.031-.018-.137-.004-.235.032a2.302 2.302 0 0 1-.393.095c-.33.046-.604.103-.666.14-.075.045-.477-.198-.866-.523-.33-.277-.858-.71-1.142-.936-.093-.074-.147-.135-.12-.136.116-.006 1.105.6 1.214.744.028.037.05.018.05-.045 0-.06-.12-.191-.267-.292-.297-.202-.32-.247-.163-.306.068-.025.257.068.512.253.222.16.462.292.532.292h.145c.01 0 .16.043.335.094.195.057.334.068.358.03.04-.06.233-.046.504.037.166.051.182-.084.016-.144-.122-.043-.658-.362-1.131-.672a2.927 2.927 0 0 0-.64-.288 13.48 13.48 0 0 1-.62-.2c-.29-.103-.339-.018-.083.143.281.178.137.176-.255-.003-.201-.092-.422-.167-.49-.167-.116 0-.3-.05-1.602-.43-.697-.204-1.731-.209-1.731-.008 0 .04.114.05.3.026.208-.027.426 0 .711.087.227.07.531.158.677.196.146.038.266.097.266.131s.081.062.181.062c.168 0 .83.578.83.725 0 .028.094.154.21.281.116.128.188.253.16.278-.029.026-.066.01-.083-.035-.016-.044-.062-.062-.102-.038-.04.023-.054.016-.033-.018.156-.243-1.243-1.19-1.96-1.325-.598-.113-.574-.047.055.153.487.155.592.22 1.081.676.298.277.676.577.84.667.165.089.354.206.42.26a.523.523 0 0 0 .221.106c.055.004.153.03.218.055.066.026.118.018.118-.019 0-.036-.097-.098-.215-.137-.227-.077-.46-.249-.46-.34 0-.108.777.456.894.648.175.288.144.335-.133.198a1.195 1.195 0 0 0-.4-.122c-.082 0-.168-.028-.189-.061-.021-.034-.092-.06-.156-.059-.064 0-.192-.016-.285-.039a4.65 4.65 0 0 0-2.038-.06c-.257.047-.232.146.034.137a3.7 3.7 0 0 1 .505.031c.157.022.301.016.32-.013.018-.03.138-.03.266-.004.128.028.246.039.261.024.153-.147 1.289.602 1.718 1.132.195.24.283.412.523 1.02.05.123.053.122.079-.02.029-.159-.161-.832-.275-.974-.08-.099-.103-.469-.027-.424.092.055.588.728.588.798 0 .037.03.068.067.068.13 0-.313-.94-.531-1.13-.154-.134-.195-.327-.058-.28.046.017.079.057.072.09-.007.033.051.064.129.07.077.005.158.037.18.07.022.032.222.151.444.264.522.265 1.18.934 1.18 1.201 0 .051.037.106.083.122.047.016.063.051.037.079-.027.027-.11-.053-.187-.178-.112-.182-.19-.233-.402-.26-.312-.041-.686-.299-.886-.61-.196-.306-.243-.223-.07.122.107.211.135.37.115.636-.014.196.005.392.043.436.038.044.054.138.035.208-.042.154.118.64.168.513.042-.105.01-.975-.049-1.29-.04-.222-.04-.222.115-.085.085.075.28.197.433.271.153.074.297.181.32.239.023.057.068.088.102.068.08-.047.151.126.185.446.014.141.049.273.076.292.027.02.06.197.074.393.013.196.05.406.083.465.039.07.033.117-.017.133-.056.018-.056.06-.003.158.054.098.053.153-.006.21-.06.058-.06.104 0 .197.086.132.013.858-.1 1-.13.16-.148.303-.04.303.069 0 .092-.036.066-.1zm-13.261-2.828c.502-.153.852-.336 1.067-.559.078-.08.159-.147.18-.147.02 0 .145-.102.279-.227.133-.125.303-.227.376-.227.074 0 .134-.03.134-.065 0-.036-.038-.066-.084-.066-.053 0-.059-.02-.017-.049.152-.107.572-.605.572-.677 0-.043-.128.042-.286.189-.519.482-.59.539-.59.47 0-.044-.124-.052-.353-.024-.672.083-1.007.05-1.364-.135-.462-.238-.601-.363-.49-.438.068-.047.067-.066-.007-.094a.823.823 0 0 1-.222-.174c-.3-.318-.35-.363-.381-.333-.018.018-.079-.004-.135-.049-.087-.068-.097-.059-.063.066.021.08.011.13-.022.11-.034-.02-.095-.166-.137-.325-.09-.343-.23-.395-.165-.062.13.663.751 1.403 1.154 1.373.127-.01.232.005.232.034 0 .238 1.46.365 1.81.157.041-.025.076-.018.076.017 0 .08-.965.535-1.2.565-.72.093-1.842.01-1.96-.146a.853.853 0 0 0-.214-.139c-.281-.139-.95-.756-1.078-.993-.064-.12-.18-.343-.255-.495-.075-.152-.173-.27-.216-.26-.05.011-.086-.082-.095-.242-.02-.345-.024-.357-.102-.357-.163 0 .017 1.253.196 1.36.038.022.113.141.167.265.104.235.39.6.607.772.07.056.188.157.262.224.166.151.983.362 1.412.363.508 0 .372.11-.157.125-1.305.037-2.926-1.268-2.643-2.128.027-.084.021-.087-.033-.015-.078.106-.22-.094-.167-.236.016-.045-.003-.081-.043-.081-.092 0-.092.007.026.445.498 1.842 2.127 2.758 3.928 2.208zm1.449-1.862c-.016-.07.206-.318.419-.468.074-.053.218-.193.32-.312.102-.119.185-.198.185-.176 0 .022.06.009.134-.03.074-.038.135-.1.135-.14 0-.044-.045-.036-.118.019-.106.08-.109.078-.026-.024.05-.062.117-.098.147-.08.03.018.073.005.095-.029.22-.344 2.384-.625 2.673-.347.058.056.029.073-.117.07-.192-.003-.844.187-1.307.382-.507.214-.637.276-.579.278.034 0 .006.06-.062.133-.084.089-.139.107-.17.058-.035-.054-.06-.054-.094 0-.025.04-.012.071.03.071.041 0 .056.03.033.065-.084.132.068.06.269-.129.353-.33 1.642-.707 1.988-.581a.209.209 0 0 0 .082.005c.026-.004.033.03.015.076-.023.057.1.11.39.17.484.1.742.211 1.231.527.226.145.492.227.55.17.047-.045-.388-.577-.988-1.208-.413-.436-1.074-.817-1.708-.984-.334-.089-.428-.1-.953-.123-.222-.01-.336-.03-.252-.045.148-.028.19-.09.112-.166-.037-.035-.144-.011-.702.158-.473.144-1.751 1.059-1.751 1.253 0 .02.167-.097.373-.258.205-.16.419-.292.475-.292.056 0 .316-.088.577-.195.261-.107.572-.195.69-.195.119 0 .244-.027.28-.061.04-.039.314-.015.737.064.37.07.682.127.69.127.01 0 .017.03.017.067 0 .045-.044.044-.136-.003-.187-.097-1.346-.155-1.346-.067 0 .037-.062.067-.139.067-.076 0-.305.073-.507.163-.203.089-.398.162-.434.162a.065.065 0 0 0-.065.065c0 .036-.04.065-.09.065-.108 0-.578.333-.581.412 0 .031-.079.113-.171.184-.228.172-.803.956-.744 1.013.027.025.103-.02.171-.1.127-.152.27-.195.27-.081 0 .035-.048.064-.105.064-.058 0-.087.029-.065.064.023.034-.014.144-.08.243-.12.18-.12.18.048.072.092-.06.162-.137.154-.172zm-1.973-2.067c0-.02-.055-.024-.121-.007-.174.044-.124-.612.07-.916.077-.121.216-.37.309-.552.202-.397.418-.708.462-.665.018.017-.036.12-.12.23-.25.326-.11.289.286-.076.203-.187.457-.404.565-.482.223-.162.19-.264-.048-.15-.122.06-.112.04.045-.09.111-.09.233-.166.27-.166.037 0 .022.026-.033.06-.072.043-.08.08-.029.13.052.05.124.03.25-.066.099-.074.233-.146.299-.16.065-.015.315-.086.554-.157.239-.072.446-.12.461-.105.015.014.095 0 .178-.029.111-.04.15-.03.15.037 0 .05-.063.092-.14.093-.194 0-.65.16-.704.245-.055.084-.94.662-1.016.662-.204 0-1.468 1.558-1.378 1.699.022.033.126-.072.232-.233.212-.321.789-.869 1.19-1.128.14-.092.266-.19.278-.22.012-.03.049-.038.08-.02.032.02.158-.024.28-.096.123-.072.27-.13.325-.126.09.004.09.009 0 .042a.483.483 0 0 0-.18.146c-.045.059-.204.143-.354.187-.151.043-.275.107-.275.141 0 .034-.046.062-.104.062-.13 0-.784.65-1.044 1.039-.107.16-.221.322-.253.358-.077.09-.146.356-.091.354.024 0 .12-.12.212-.264.093-.145.26-.318.374-.385.113-.068.3-.219.416-.336.47-.479 1.554-1.135 1.97-1.194.69-.096 2.226.023 2.226.174 0 .033.121.06.27.06.483 0-.017-.343-.516-.353-.117-.003-.2-.023-.186-.046.051-.08-.294-.118-.822-.09-.532.028-.532.028-.161-.072.591-.16 1.938-.052 2.087.166.049.071.541.153.538.09 0-.03-.093-.153-.202-.277-.11-.124-.2-.25-.2-.282 0-.26-1.363-1.139-1.481-.955-.031.049-.067.055-.092.017-.037-.058-.557-.163-.886-.179-.15-.007-.533.075-.74.159-.892.36-1.322.563-1.53.722-.136.105-.265.191-.285.191-.02 0-.147.11-.283.243-.135.134-.207.192-.16.129.1-.132.07-.194-.056-.12-.047.029-.09.113-.096.187-.005.075-.031.13-.056.124-.055-.014-.324.258-.472.478-.403.596-.735 1.727-.557 1.899.045.044.294-.063.294-.127z" />
</svg>