<svg viewBox="0 0 296.12 424.876" preserveAspectRatio="xMidYMid meet">
  <!-- Hair -->
  <g id=" hair">
    <path
      d="M1260.055-2774.706c-.608-2.326-.366-4.552.34-3.317.133.233.376.424.54.424.162 0 .021-.287-.316-.638-.337-.351-.714-.577-.838-.502-.2.12-.325-1.006-.335-2.995 0-.355.084-.966.19-1.357.149-.546.1-.71-.208-.71-.22 0-.4-.117-.4-.258 0-.143.148-.26.33-.263.223 0 .204-.082-.059-.244-.213-.132-.303-.324-.2-.425.104-.101.045-.352-.127-.557-.438-.516-.483-.836-.577-4.067-.045-1.564-.204-3.134-.351-3.489-.184-.442-.182-.7 0-.816.174-.109.113-.327-.166-.6-.24-.237-.457-.741-.48-1.122-.113-1.903-.08-2.217.282-2.57.344-.337.338-.419-.045-.693-.239-.171-.484-.71-.543-1.196-.06-.486-.195-1.083-.3-1.325-.105-.241-.102-.58 0-.75.13-.208.084-.243-.14-.107-.567.343-.208-4.067.51-6.267.6-1.835.603-1.898.14-2.741-.74-1.345-.119-5.67.74-5.151.148.09.185.034.084-.128-.357-.564 2.066-4.47 4.018-6.478.779-.8.833-.943.462-1.209-1.161-.831 1.407-6.575 2.94-6.575.194 0-.23-.686-.942-1.524-.722-.85-1.368-1.906-1.462-2.39a274.97 274.97 0 0 0-.296-1.513c-.237-1.183 1.135-3.75 1.707-3.194.067.066-.048.226-.26.353-.938.568-.087 4.049 1.289 5.266.302.268.504.558.45.646-.056.088.183.176.531.196.348.021.567-.066.487-.193-.08-.127.158-.231.53-.231.754 0 .851-.19.317-.618-1.227-.983-1.582-4.632-.68-6.99.728-1.906.908-1.933.897-.138 0 .829.054 1.49.132 1.468.078-.021.466.173.863.433 1.32.864 3.345-.597 3.531-2.547.27-2.825 1.945-4.988 4.39-5.67 1.086-.304 1.52-.55 1.524-.869.041-2.806 3.028-7.169 6.124-8.945 1.163-.667 2.579-2.156 2.579-2.71 0-.145.15-.357.331-.47.183-.114.647-.614 1.033-1.111 2.06-2.659 2.393-2.858 1.524-.915-.443.99-.934 1.952-1.092 2.138-.507.598-.093.585 1.773-.054 1.824-.624 1.824-.624 2.726-2.433 1.359-2.727 4.123-6.044 4.867-5.84.408.113.475.088.224-.084-.44-.299.066-.693.53-.412.186.112.234.071.124-.104-.109-.173.241-.5.873-.815 1.202-.6 1.72-.674 1.444-.204-.11.188-.09.233.051.108a.8.8 0 0 0 .24-.515c0-1.436 7.237-1.11 10.42.47 1.526.757 1.853.798 1.853.236 0-.226.237-.472.528-.547.29-.073.527-.25.527-.39 0-.141-.178-.19-.395-.107-.607.227.994-2.707 2.029-3.72 2.085-2.043 4.3-2.142 8.501-.383.998.418 1.312.417 2.379-.013.392-.158.456-.12.287.164-.129.218-.119.28.023.152.132-.118.24-.344.24-.501 0-1.035 5.416-1.873 6.278-.972.26.272.156.305-.55.176-.975-.178-3.145.302-3.315.734-.067.172.345.3 1.07.331 1.567.066 5.378.966 6.614 1.56.543.261 1.84.752 2.883 1.09 1.043.34 1.844.698 1.782.798-.062.1.104.125.373.057.599-.154 3.744 1.091 4.194 1.66.472.596.63.287.236-.462-.237-.452-.263-.9-.089-1.54.135-.497.186-1.544.112-2.326-.133-1.423-.133-1.423.275-.518.433.957.571 3.055.271 4.134-.47 1.694 1.419 2.672 3.96 2.048 2.496-.612 6.47-.731 8.909-.267 3.545.675 9.206 4.117 8.737 5.313-.091.231-.023.369.166.332.176-.034.304.141.284.388-.019.247.061.391.179.32.277-.168.876 2.559.838 3.818-.036 1.177-.014 1.18 1.352.129 1.955-1.508 2.022-1.616 2.022-3.278 0-1.787-.232-2.468-1.167-3.43-.638-.656-.883-1.238-.52-1.238.322 0 2.087 1.768 2.215 1.875.52.436 1.507 1.572 1.82 2.385.76 1.982.421 5.126-1.251 6.913-.827.884-.643 1.088.66.734 1.459-.397 4.579-.333 5.369.11 1.305.73 1.413.58 1.231-1.725-.191-2.43-.948-3.869-2.37-4.504-.84-.376-.84-.376.347-.208 3.595.509 6.812 4.118 7.42 8.326.253 1.747.084 2.616-1.058 5.42-.671 1.65-.67 1.63-.093 1.423 3.32-1.2 5.006-5.4 3.396-8.461-.861-1.639-.723-1.75.436-.35 1.868 2.255 3.071 6.114 2.132 6.837-.227.175-.281.363-.13.454.141.086.316.014.387-.169.238-.592-.108 1.725-.402 2.703-.16.528-.377.908-.484.843-.106-.065-.25.168-.318.517-.067.35-.03.578.087.508.783-.474 2.315 3.403 1.945 4.924-.449 1.849-.461 2.015-.133 1.816.347-.21.124 1.358-.257 1.808-.17.199-.222.605-.12.92.1.31.258.46.351.335.243-.327 1.093-.35 1.093-.03 0 .148.237.06.528-.199 1.377-1.22-.016-6.828-2.24-9.003-.32-.314-.343-.429-.086-.429.193 0 .492.222.665.492.172.27 1.112.861 2.09 1.313 1.16.537 1.66.891 1.442 1.023-.252.153-.228.24.1.363.252.094.364.056.27-.093-.338-.534.33-.224 1.008.47.743.76.942 1.245.38.929-.193-.109-.239-.088-.112.048a.86.86 0 0 0 .529.241c.169 0 .291.206.271.45-.019.243.064.382.188.307.622-.376 2.054 4.154 1.585 5.013-.206.376-.114.458.571.509 2.068.154 4.99 1.792 5.847 3.276.413.716.373.7-.523-.212-1.841-1.874-5.784-3.17-5.784-1.902 0 .338.52.684 1.847 1.228 1.682.69 3.072 1.684 4.072 2.913.585.719 1.008 4.202.685 5.641-.414 1.85-.534 1.667-.534-.817 0-1.252-.09-2.223-.198-2.158-.11.065-.198-.097-.198-.362 0-.623-1.231-2.48-1.853-2.795-.265-.134-1.22-.808-2.124-1.498-.903-.69-1.586-1.097-1.517-.904.07.192-.092.553-.358.802-.265.248-.482.329-.482.178 0-.15-.125-.198-.277-.107-.167.101.078.592.623 1.243.494.591.979 1.326 1.078 1.633.099.307.37.713.604.903.545.443.283-.523-.475-1.75-.487-.789-.69-2.43-.3-2.419.963.026 3.266 5.495 3.589 8.523.067.64.16 1.279.202 1.42.139.46-.298 2.933-.81 4.59-.434 1.406-.474 2.077-.308 5.23.195 3.713-.19 6.547-.835 6.156-.148-.09-.195-.044-.103.1.09.145-.087.774-.395 1.397-.599 1.209-.638 1.617-.368 3.847.632 5.229.694 8.274.18 8.88-.186.22-.281.492-.21.605.07.112.206 1.31.303 2.66.096 1.35 2.153 12.938 1.342 12.196-1.094.742-3.03-3.45-3.57-5.206-2.084-6.787-12.851-11.554-12.873-11.923-.02-.37-.396-1.048-.833-1.508-.437-.46-.705-.923-.596-1.03.109-.107.713.386 1.342 1.095.63.708 1.23 1.206 1.333 1.106.212-.204-1.264-2.147-2.182-2.873-.327-.26-.595-.627-.595-.818 0-.191-.091-.387-.203-.434-.377-.16-2.238-2.54-1.987-2.54.413 0 1.418 1.184 1.202 1.416-.11.12-.057.135.12.036.177-.098.55.028.83.282 1.941 1.763 2.413 2.24 2.413 2.436 0 .122.12.222.264.222.558 0 .222-.711-.797-1.685-.584-.558-1.004-1.162-.933-1.342.07-.18.042-.302-.061-.273-.104.029-1.291-1.019-2.639-2.329-3.69-3.588-2.772-3.341 1.166.313 1.215 1.127 2.208 1.918 2.208 1.76a.592.592 0 0 0-.264-.45c-.145-.088-.264-.275-.264-.418 0-.142.11-.191.246-.11a.298.298 0 0 0 .403-.1c.087-.137-.075-.204-.363-.15-.51.095-1.364-.694-2.862-2.643-.811-1.055-1.94-3.163-1.705-3.184.105-.014-.07-.119-.39-.245-.533-.21-1.927-2.608-1.927-3.316 0-.164-.148-.308-.33-.319-.263-.016-.263-.047 0-.15.55-.218.37-.652-.197-.476-.366.114-.528.047-.528-.219 0-.214 4.959-1.725 4.039-2.166-1.024-.49-2.068-1.258-2.752-2.024-4.789-5.363-4.874-5.492-5.761-8.76-.988-3.632-1.112-3.42-.551.936.045.356.399 1.323.784 2.15.386.828.582 1.432.436 1.344-.835-.506.287.775 2.11 2.409 1.161 1.039 2.041 2 1.956 2.135-.086.134-.048.212.081.173.13-.038.677.307 1.217.77 1.132.969 1.069 1.035-.325.339-.551-.276-1.652-.556-2.447-.623-2.408-.202-5.41-2.022-5.917-3.586-.083-.253-.233-.46-.335-.46-.235 0-.905-1.31-1.486-2.906-.576-1.582-.772-1.552-2.714.407-1.128 1.137-1.967 1.74-2.757 1.983-1.368.42-1.801.533-2.327.611-.22.034-.517.117-.66.186-.43.21-4.1-.047-3.956-.277.074-.117-.106-.152-.401-.076-1.166.298-5.445-2.088-5.894-3.287-.187-.497-1.47-2.642-1.761-2.942-.122-.127-.212.13-.199.572.014.441.11.749.22.684.389-.236-.31 2.033-.823 2.673-.894 1.112-3.49 2.158-4.237 1.706-.263-.159.17-.441 2.221-1.449 1.423-.698 2.61-3.053 1.54-3.053-.322 0-.842 1.056-.66 1.343.1.16.062.216-.087.126-.146-.088-.4.126-.563.477-.163.35-.44.638-.615.638-.176 0-.615.262-.976.581-.658.582-.658.582-.065-.258.325-.462.7-.84.832-.84.326 0 .944-1.007 1.15-1.873.236-1-.155-.883-.768.23-.586 1.067-2.31 2.309-2.795 2.015-.186-.113-.251-.086-.156.066.091.144-.334.417-.949.61-.612.194-1.202.473-1.31.621-.136.185-.26.182-.396-.014-.33-.466-2.355-.864-2.697-.53-.217.213-.351.199-.511-.053-.12-.19-.44-.316-.715-.282-.274.035-.735-.026-1.026-.133-1.261-.467-1.897-.804-1.932-1.024-.063-.4-1.384-.408-1.54-.014-.136.346.512 1.18 2.02 2.6.83.783 5.442 3.013 6.928 3.351.11.025.703.071 1.32.103 1.122.06 1.122.06.066.309-.951.226-2.83.172-4.619-.132-2.921-.496-9.312-3.497-8.828-4.146.064-.088.038-.1-.061-.026-.1.074-.553-.22-1.009-.652-.827-.785-.829-.785-1.312-.263-.266.288-.605.523-.752.523-.148 0-.014-.269.304-.598 1.009-1.05-.335-2.784-1.38-1.78-.43.416-.447.404-.308-.206.171-.75-.48-1.642-1.407-1.93-.54-.168-.586-.122-.43.419.115.4.093.491-.064.268-.164-.23-1.01-.354-2.648-.387-1.865-.04-2.508-.148-2.855-.488-.421-.414-.411-.43.165-.283.444.114.557.07.41-.162-.15-.238.023-.284.676-.184 1.175.182 2.475-.622 3.12-1.929.533-1.08.302-1.34-.44-.492-.248.284-.551.517-.674.517s-.6.272-1.063.603c-1.42 1.02-3.14 1.243-4.302.557-.97-.573-.97-.573-.205-.563.769.014 1.415-.112 2.875-.542.436-.13.97-.185 1.188-.125.296.082.312.05.062-.121-.252-.175-.172-.378.33-.84.66-.607.915-1.812.383-1.812-.154 0-.213.106-.13.235.343.544-.15 1.059-.725.757-.413-.216-.58-.215-.656 0-.055.163-.274.296-.486.296-.213 0-.944.29-1.626.646-.681.355-1.426.646-1.655.646-.871 0-4.677 3.567-5.62 5.265-2.319 4.183 2.225 8.157 6.71 5.868 1.3-.664 1.407-.613 1.095.532-.154.569-.386.856-.672.832-.24-.019-.376.06-.304.174.256.406-1.537 1.54-1.93 1.22-.27-.218-.41-.21-.566.038-.115.18-.444.29-.732.241-.288-.047-.534.03-.548.172-.08.83-3.216.135-3.227-.716 0-.22-.075-.207-.237.043-.191.295-.55.205-1.966-.492-.954-.468-1.666-.958-1.584-1.088.083-.129-.42-.78-1.114-1.446-.695-.666-1.198-1.036-1.118-.823.475 1.273.381 1.491-.166.388-.352-.711-.648-1.502-.657-1.757-.035-.975-1.228-1.674-2.722-1.595-1.692.089-2.127-.109-4.003-1.817-1.248-1.136-2.083-3.57-2.119-6.17-.029-2.075-2.144 3.117-1.998 3.328.097.142.378.788.622 1.435.436 1.158 2.385 3.336 2.704 3.023.09-.088-.193-.604-.629-1.146-.436-.543-.845-1.394-.91-1.891-.065-.497-.203-1.137-.306-1.421-.104-.285 0-.205.222.176.226.38.445.908.486 1.171.041.264.4 1.022.797 1.686.397.664.69 1.354.653 1.533-.128.594 1.654 1.256 2.96 1.101 2.764-.327 4.205-.163 2.71.31-.254.08-.64.21-.858.288-2.626.952-5.356.332-7.74-1.757-.678-.595-1.233-1.222-1.233-1.393 0-.172-.297-.585-.66-.919-.363-.334-.66-.796-.66-1.027 0-1.314-1.054-.915-2.233.847-.257.383-.627.697-.823.697-.773 0-.98 1.21-.52 3.04.588 2.336 4.13 3.945 6.71 3.047 1.399-.487 2.58-.558 1.79-.11-.268.152-.684.31-.924.35-.24.04-.41.192-.378.34.134.61-4.433.84-5.902.297-.904-.334-2.206-1.5-2.206-1.974 0-.46-.254-.427-.877.112-.506.439-.517.433-.362-.196.088-.356.057-.813-.072-1.015-.167-.266-.285-.091-.424.635-.122.636-.09 1.036.087 1.094.384.125-.106 1.797-.773 2.64-2.23 2.821-3.121 3.896-3.121 3.763 0-.085-.419.256-.93.757-1.481 1.45-4.6 2.723-6.666 2.723-.771 0-.125-.47 1.922-1.403 1.582-.721 5.087-4.774 4.34-5.019-.194-.062-.637-.394-.986-.735-.604-.592-.666-.601-1.291-.2-.362.232-.593.485-.515.561.078.076-.267.768-.769 1.535-.501.768-.911 1.505-.911 1.64 0 .134-.228.363-.507.51-.279.146-.644.673-.812 1.171-.238.705-.448.907-.945.907-.69 0-.992 1.65-.342 1.863.453.148 3.04 3.66 1.622 5.154-1.143 1.206-2.154 2.884-1.892 3.14.144.142 2.291-2.23 2.291-2.53 0-.122.108-.222.24-.222.469 0-.062 1.185-1.158 2.584-1.311 1.674-1.721 2.387-1.721 2.997 0 .285.347.013.956-.754.525-.66 1.08-1.126 1.232-1.034.169.103.214.014.116-.244-.089-.226 0-.536.183-.69.85-.69-.024 1.286-1.47 3.322-.85 1.197-1.544 2.29-1.544 2.427s-.166.379-.37.537c-.579.45-.765 1.365-.311 1.535.247.093.342.025.26-.188-.074-.183.23-.713.672-1.177.443-.463.804-.923.804-1.021 0-.1.495-.638 1.099-1.2.97-.903 1.038-.932.575-.246-.288.426-.85 1.396-1.246 2.156-.397.76-1.14 1.962-1.65 2.673-1.33 1.853-.823 1.9.855.08.787-.852 1.356-1.346 1.266-1.098-.09.25-.257.453-.37.453-.114 0-.286.32-.382.71-.096.391-.732 1.514-1.414 2.495-.89 1.282-1.138 1.819-.88 1.905.304.102.304.159 0 .367-.292.2-.286.227.038.141.218-.059.396-.212.397-.343 0-.318 1.774-2.719 1.91-2.586.11.109-.362.998-1.248 2.35-.772 1.178-1.667 3.076-1.709 3.623-.013.145-.298.645-.637 1.113-.34.467-.53.93-.421 1.028.108.1.25.034.314-.144s-2.014 2.163-2.085 2.293c-.916 1.675-2.157 24.546-2.128 23.582.16-5.35-2.218-11.775-2.028-11.046-1.905-.867-2.256-8.81-4.336-10.254m110.896-59.725c-.087-.22-.065-.345.048-.277.296.18 1.33-2.149 1.486-3.344a82 82 0 0 1 .298-2.05c.231-1.446.232-1.838.014-3.779-.202-1.77.854-2.25 2.755-1.254 1.407.737 5.697.057 7.516-1.192 1.546-1.061 1.553-.928.026.492-.862.801-1.906 1.518-2.35 1.614-1.841.396-2.578.928-1.057.764 1.687-.183 3.793-1.218 4.828-2.373.426-.474.891-.862 1.035-.862.144 0 .712-.755 1.262-1.677s1.134-1.628 1.297-1.57c.21.075.234-.17.081-.838-.119-.519-.108-1.789.026-2.821.293-2.258 0-4.051-.966-5.926-.377-.733-.622-1.435-.543-1.56.08-.125-.158-.253-.527-.282-.622-.05-.658 0-.5.785.499 2.443.481 3.777-.063 4.895a18.575 18.575 0 0 0-.889 2.242c-1.002 3.28-5.244 5.59-8.922 4.858-3.317-.66-7.44-3.952-4.562-3.643.864.093.757-.029-.584-.665-.654-.31-1.188-.669-1.188-.798 0-.322.167-.298 1.048.148.584.296.788.31.89.063.087-.207.21-.228.351-.062.12.142.693.292 1.274.332 2.283.16 5.013.036 4.607-.21-.147-.089.038-.298.412-.465.916-.409 1.13-.382.508.063-.282.202-.435.442-.34.535.185.181 1.287-.349 1.604-.772.125-.166.196-.155.199.029 0 .513-1.013 1.571-1.835 1.905-.829.336-.998.628-.528.913.293.177 3.422-1.139 3.422-1.44 0-.1.416-.624.924-1.167.508-.544.924-1.088.924-1.211 0-.122.119-.151.263-.063.146.088.264-.068.264-.345 0-.629-.5-.821-2.503-.966-.87-.062-1.795-.181-2.058-.263-.263-.082-.621-.035-.796.104-.174.14-.91.33-1.636.424-1.36.176-2.507.724-2.507 1.199 0 .387-4.226.126-5.175-.319-1.155-.542-.821-.793 1.156-.871 1.879-.073 3.451-.695 4.341-1.713.25-.286.563-.454.696-.374.133.081.388-.028.567-.238.18-.212.247-.385.15-.385-.098 0 .179-.507.615-1.127 1.008-1.436 1.628-2.953 1.69-4.14.059-1.09.116-1.137.438-.354.167.408.243.454.255.153.016-.428-1.312-2.62-1.485-2.45-.05.048.084.417.296.82.213.401.316.842.23.98-.087.137-.2.6-.25 1.028-.27 2.27-5.378 7.048-6.687 6.256-.123-.075-.538-.02-.922.123a8.896 8.896 0 0 1-1.54.378c-1.292.182-2.365.413-2.61.56-.293.178-1.866-.79-3.39-2.085a316.119 316.119 0 0 0-4.474-3.725c-.363-.294-.575-.539-.47-.544.454-.02 4.327 2.394 4.754 2.963.11.148.196.071.198-.177 0-.239-.469-.762-1.046-1.162-1.164-.807-1.258-.986-.638-1.219.266-.1 1.006.271 2.005 1.006.87.64 1.809 1.165 2.084 1.165h.568c.037 0 .627.171 1.313.373.762.225 1.308.272 1.403.121.151-.24.909-.184 1.971.146.653.203.713-.336.063-.572-.479-.175-2.577-1.443-4.43-2.677-.587-.391-1.715-.907-2.508-1.146a57.084 57.084 0 0 1-2.431-.797c-1.133-.412-1.324-.075-.322.57 1.101.706.536.7-.999-.015-.789-.365-1.653-.665-1.919-.665-.455 0-1.173-.196-6.277-1.713-2.73-.81-6.78-.83-6.78-.03 0 .162.448.203 1.175.105.815-.11 1.668 0 2.787.347.887.277 2.08.627 2.652.778.572.15 1.04.386 1.04.523 0 .136.32.248.71.248.659 0 3.248 2.3 3.248 2.887 0 .108.373.611.827 1.118.455.507.736 1.006.624 1.107-.112.102-.257.04-.322-.14-.064-.178-.245-.247-.4-.153-.155.094-.214.063-.13-.069.61-.968-4.871-4.737-7.675-5.277-2.345-.452-2.252-.186.213.61 1.908.615 2.317.875 4.234 2.69 1.167 1.105 2.648 2.3 3.291 2.655.644.355 1.385.82 1.647 1.033.262.213.651.404.865.424.214.019.597.12.851.221.26.104.462.072.462-.075 0-.143-.378-.39-.84-.548-.891-.304-1.8-.988-1.8-1.356 0-.424 3.04 1.82 3.498 2.582.689 1.149.567 1.334-.518.792-.539-.269-1.244-.49-1.568-.49-.324 0-.657-.108-.741-.241-.084-.133-.358-.239-.61-.234-.25 0-.753-.065-1.116-.155-2.774-.684-5.224-.757-7.983-.24-1.007.19-.912.582.131.546.472-.016 1.362.04 1.978.125.617.085 1.18.062 1.253-.054.072-.115.542-.118 1.044-.014.501.111.961.153 1.022.093.597-.585 5.05 2.397 6.729 4.507.763.96 1.107 1.64 2.051 4.06.192.491.207.487.308-.078.112-.631-.633-3.31-1.077-3.875-.31-.396-.403-1.869-.106-1.689.36.218 2.303 2.897 2.303 3.176 0 .148.12.27.264.27.506 0-1.226-3.744-2.081-4.498-.605-.534-.763-1.304-.228-1.112.181.065.308.225.282.355-.027.13.2.255.504.278.303.022.622.147.707.278.086.13.869.605 1.74 1.053 2.045 1.053 4.618 3.718 4.618 4.783 0 .203.149.422.33.485.182.064.246.204.143.313-.104.108-.432-.21-.732-.707-.438-.727-.747-.93-1.576-1.04-1.22-.16-2.686-1.185-3.47-2.426-.767-1.218-.952-.888-.272.487.416.84.528 1.471.45 2.533-.057.778.018 1.559.168 1.735.149.177.21.55.136.83-.163.61.463 2.545.66 2.04.163-.417.036-3.88-.192-5.132-.16-.889-.16-.889.449-.343.334.3 1.097.787 1.697 1.08.599.295 1.162.722 1.251.95.09.229.27.35.401.272.31-.188.592.504.724 1.778.058.562.193 1.085.3 1.163.106.078.236.781.288 1.563.052.782.199 1.615.327 1.853.151.278.128.466-.066.529-.22.072-.222.239-.014.627.214.391.208.61-.022.834-.237.232-.238.42 0 .786.335.526.048 3.418-.394 3.98-.506.644-.578 1.21-.154 1.21.268 0 .36-.143.259-.4zm-51.95-11.259c1.97-.61 3.338-1.339 4.18-2.224.307-.323.623-.587.703-.587.08 0 .573-.407 1.096-.905.523-.497 1.187-.904 1.474-.904.288 0 .523-.117.523-.258 0-.142-.148-.26-.33-.263-.204 0-.229-.076-.065-.194.594-.427 2.243-2.41 2.243-2.696 0-.17-.505.168-1.122.75-2.031 1.922-2.309 2.147-2.309 1.875 0-.174-.488-.208-1.386-.095-2.633.329-3.945.196-5.344-.539-1.807-.95-2.353-1.445-1.92-1.745.27-.186.264-.26-.026-.374-.2-.078-.59-.39-.87-.691-1.17-1.268-1.37-1.446-1.493-1.326-.07.07-.308-.018-.528-.195-.34-.273-.377-.234-.247.261.084.32.045.517-.087.437-.132-.079-.372-.66-.535-1.292-.35-1.365-.9-1.575-.646-.247.505 2.638 2.943 5.587 4.518 5.465.5-.039.91.023.91.138 0 .947 5.722 1.452 7.088.625.166-.1.302-.07.302.066 0 .322-3.78 2.13-4.705 2.25-2.816.37-7.211.037-7.674-.58-.087-.116-.464-.364-.84-.553-1.1-.554-3.722-3.01-4.221-3.954a83.205 83.205 0 0 1-.998-1.973c-.296-.606-.678-1.07-.85-1.033-.19.043-.334-.328-.37-.965-.08-1.374-.094-1.421-.4-1.421-.64 0 .067 4.988.77 5.413.146.089.44.564.652 1.056.406.938 1.526 2.386 2.379 3.075.276.222.737.624 1.025.891.649.604 3.851 1.441 5.533 1.447 1.988 0 1.454.437-.616.497-5.111.146-11.462-5.05-10.355-8.474.107-.335.084-.346-.127-.059-.307.422-.862-.374-.655-.94.064-.177-.014-.322-.168-.322-.363 0-.361.028.103 1.771 1.95 7.336 8.33 10.981 15.387 8.792zm5.676-7.414c-.062-.276.81-1.264 1.643-1.863.292-.21.856-.769 1.254-1.242.397-.472.723-.788.723-.701 0 .088.237.034.528-.118.29-.152.528-.403.528-.558 0-.174-.176-.146-.462.073-.418.321-.428.312-.102-.094.197-.247.456-.39.575-.319.12.072.286.02.371-.115.864-1.369 9.342-2.489 10.471-1.383.228.223.115.293-.459.282-.75-.015-3.305.744-5.116 1.52-1.99.851-2.498 1.1-2.269 1.105.132 0 .021.242-.244.53-.328.354-.543.428-.668.23-.134-.212-.233-.214-.365 0-.099.157-.048.286.115.286.162 0 .222.116.132.258-.332.526.263.235 1.052-.513 1.384-1.314 6.431-2.815 7.789-2.316a.805.805 0 0 0 .32.02c.104-.014.13.121.06.303-.09.226.39.44 1.528.68 1.893.4 2.906.84 4.823 2.094.884.579 1.924.906 2.156.679.182-.178-1.525-2.299-3.872-4.812-1.62-1.734-4.208-3.25-6.69-3.917-1.31-.352-1.678-.4-3.734-.489-.871-.037-1.317-.118-.99-.18.582-.11.747-.357.44-.658-.147-.143-.564-.047-2.75.63-1.853.573-6.861 4.213-6.861 4.987 0 .076.658-.386 1.462-1.027.804-.64 1.642-1.166 1.861-1.166.22 0 1.238-.348 2.261-.775 1.023-.426 2.24-.775 2.704-.775.464 0 .956-.11 1.094-.244.158-.154 1.23-.06 2.89.257 1.451.276 2.669.503 2.705.503.037 0 .065.12.065.268 0 .18-.173.177-.533-.013-.736-.385-5.273-.614-5.273-.266 0 .148-.245.269-.545.269-.3 0-1.194.29-1.987.646-.793.355-1.558.646-1.699.646a.259.259 0 0 0-.256.258c0 .143-.159.259-.353.259-.423 0-2.262 1.327-2.276 1.642 0 .122-.307.45-.67.73-.894.688-3.145 3.808-2.912 4.035.102.1.403-.079.668-.4.5-.602 1.057-.772 1.057-.322 0 .142-.185.258-.412.258-.226 0-.34.113-.253.251.088.138-.054.575-.314.97-.473.717-.473.717.187.286.363-.237.634-.545.603-.683zm-7.728-8.228c0-.083-.214-.096-.475-.029-.681.175-.482-2.436.278-3.65a32.3 32.3 0 0 0 1.208-2.196c.79-1.58 1.637-2.82 1.812-2.649.069.068-.143.48-.472.917-.98 1.296-.431 1.15 1.119-.301.797-.746 1.794-1.61 2.215-1.922.872-.644.744-1.05-.187-.594-.478.234-.44.155.176-.358.435-.363.91-.662 1.055-.665.146 0 .087.104-.129.239-.28.173-.311.323-.11.52.2.196.485.12.98-.262.385-.295.91-.584 1.168-.64.257-.058 1.234-.339 2.17-.625.936-.287 1.75-.474 1.808-.416.058.057.372 0 .696-.114.437-.163.589-.125.589.145 0 .201-.248.367-.55.37-.759 0-2.545.636-2.759.974-.212.337-3.684 2.64-3.98 2.64-.8 0-5.748 6.203-5.395 6.763.084.132.492-.285.907-.926.83-1.28 3.09-3.461 4.66-4.495.55-.363 1.042-.757 1.09-.874.049-.118.191-.152.315-.078.125.075.619-.1 1.1-.385.48-.287 1.05-.513 1.269-.502.352.016.352.037 0 .169-.218.082-.536.343-.708.58-.172.236-.795.57-1.386.744-.59.173-1.073.427-1.073.563 0 .136-.184.248-.408.248-.51 0-3.071 2.588-4.09 4.135-.422.64-.868 1.281-.99 1.426-.305.357-.575 1.418-.36 1.41.095 0 .47-.478.832-1.052.362-.575 1.022-1.265 1.465-1.533.444-.269 1.177-.871 1.63-1.339 1.842-1.906 6.087-4.517 7.72-4.75 2.7-.387 8.716.09 8.716.69 0 .13.475.238 1.056.238 1.896 0-.064-1.364-2.02-1.404-.457-.013-.784-.091-.727-.184.2-.32-1.153-.47-3.22-.358-2.083.112-2.083.112-.631-.286 2.315-.635 7.593-.209 8.176.66.19.284 2.119.61 2.106.356 0-.114-.363-.608-.792-1.1-.43-.492-.781-.997-.781-1.122 0-1.035-5.34-4.535-5.803-3.802-.122.192-.264.218-.36.066-.145-.23-2.18-.647-3.47-.712-.585-.029-2.088.298-2.903.632-3.49 1.432-5.175 2.24-5.989 2.875-.535.419-1.039.76-1.118.76-.08 0-.577.437-1.106.97-.53.533-.812.763-.626.51.386-.525.272-.771-.221-.473-.185.111-.354.446-.377.744-.022.297-.122.519-.219.493-.215-.057-1.27 1.027-1.852 1.9-1.578 2.376-2.878 6.88-2.18 7.562.177.175 1.152-.252 1.152-.504z"
      transform="translate(-1156.543 2876.707)" />
  </g>
  <!-- Nose-Moustace -->
  <g id="moustache-nose">
    <path
      d="M-276.868-2678.499c.164-.052.054-.074.388-.428.662-.705.895-1.728.346-1.517-.184.07-.262.318-.173.55.118.306.047.376-.26.259-.452-.174-1.245.402-1.734 1.26-.301.53-.301.53-.317 0-.015-.477-.042-.485-.279-.08-.183.314-.51.418-1.086.346-.603-.076-.96.05-1.333.476-.509.58-.509.58-.066-.147.244-.4.519-.729.611-.73.233 0 .854-1.384.695-1.544-.072-.07-.165-.08-.208-.019-2 2.809-3.142 3.85-2.007 1.83.327-.582.684-1.058.792-1.058.185 0 1.029-1.494 1.029-1.822 0-.084-.302.291-.671.834-1.166 1.715-1.568 1.278-.517-.56.949-1.66.81-1.712-.275-.102-.997 1.48-1.468 1.858-.82.658.215-.4.754-1.483 1.196-2.406.763-1.593 1.703-2.805 3.308-4.269.542-.495.674-.54.538-.184-.166.432-.103.427.766-.06.839-.472.928-.481.785-.082-.118.33.029.278.542-.19.387-.353.704-.8.704-.992 0-.193.129-.35.286-.35.158 0 .247.088.197.198-.049.109-.418.853-.82 1.653-.402.8-.52 1.164-.263.807.257-.356.711-.893 1.01-1.191.297-.299.621-.751.719-1.006.097-.254.287-.462.421-.462.296 0-.624 1.872-1.05 2.134-.165.102-.246.348-.18.546.073.22.413-.107.866-.829.41-.654.846-1.23.97-1.278.124-.049.225-.238.225-.422 0-.49.978-1.317 1.106-.934.056.17.597-.389 1.201-1.24.605-.852 1.588-2.016 2.186-2.586 1.13-1.08.549-1.918-1.166-1.683-.337.046-.544-.076-.547-.322-.012-1.065-.67-1.663-1.261-1.147-.556.485-.556.485-.112-.17.548-.804.595-1.708.079-1.51-.289.11-.317-.01-.133-.567.542-1.64.964-3.891.754-4.021-.125-.077-.116-.315.02-.53.166-.263.248-.283.25-.059.002.182.123.33.269.33.145 0 .265-.232.265-.516 0-.782.57-1.91 1.385-2.745.924-.944.944-.685.038.501-.697.914-.498 1.268.277.493.23-.229.416-.309.416-.178 0 .13-.286.505-.635.834-.366.343-.681.994-.745 1.536-.122 1.046-.042.981 2.042-1.644.436-.55.916-1.132 1.067-1.294.926-.995 1.754-2.5 1.182-2.146-.469.29-.283-.166.396-.974.402-.477.662-.633.662-.397 0 .214-.182.458-.403.544-.274.105-.353.355-.247.78.113.45-.052.877-.589 1.523-.41.494-.924 1.119-1.142 1.387-.219.27-.616.747-.883 1.062a45.1 45.1 0 0 0-1.058 1.316c-.315.408-.765.973-1 1.255-.427.514-.385 1.963.049 1.695.122-.076.148-.333.056-.572-.123-.32-.056-.392.257-.272.24.092.575-.025.773-.268.305-.375.286-.406-.15-.243-.588.22-.42-.03 1.205-1.807.533-.583 1.346-1.477 1.807-1.986.46-.51.719-.688.574-.397-.145.291-.926 1.244-1.735 2.117-1.42 1.533-1.968 2.434-1.025 1.686.252-.2.162.018-.198.483-.361.465-.812.794-1.001.73-.191-.064-.268.01-.173.163.095.153-.02.492-.257.753-.395.437-.338 1.344.084 1.344.1 0 .537-.464.972-1.03 1.059-1.377 3.484-3.997 3.7-3.997.096 0-.562.83-1.461 1.845-.986 1.112-1.559 1.968-1.442 2.157.118.19.08.243-.096.134-.654-.404-1.6 1.191-1.14 1.92.317.5.88-.53.66-1.208-.13-.401-.108-.416.129-.085.244.34.37.303.887-.264.797-.876 1.789-1.711 1.789-1.507 0 .09-.327.465-.725.834-.399.37-.651.673-.56.673.09 0-.308.471-.885 1.048-1.037 1.037-1.13 1.601-.262 1.593.385 0 .392-.039.05-.26-.242-.157-.273-.258-.079-.26.175 0 .426.19.559.426.152.273.304.328.414.15a.324.324 0 0 0-.096-.446c-.387-.239-.332-1.458.066-1.458.184 0 .78-.238 1.323-.53.543-.29.988-.403.988-.248 0 .154.121.206.27.114.147-.09.202-.272.122-.401-.175-.284.43-1.316.771-1.316.133 0 .042.221-.202.491-.244.27-.373.677-.285.905.241.63.985.81 1.34.326.282-.386.472-.372 2.096.153 3.19 1.03 6.358.397 8.958-1.79.598-.504.818-.57.99-.3.167.264.22.268.224.017.002-.182.197-.33.433-.33.37 0 .379.061.066.446-.318.39-.306.424.1.273.644-.242.58-.01-.098.356-.312.167-.489.183-.399.037.09-.145-.042-.342-.293-.439-.251-.096-.499-.049-.55.105-.051.154-.252.28-.447.28-.194 0-1.018.607-1.83 1.349s-1.476 1.231-1.476 1.087c0-.145.195-.338.434-.43.24-.092.376-.226.303-.3-.26-.259-1.002.21-1.006.637-.003.27-.077.326-.198.147-.209-.31-4.3-.459-4.258-.156.063.456-.058.84-.266.84-.125 0-.176-.327-.112-.727.115-.728.115-.728-.247-.066-.308.561-.307.718.004 1.035.362.37.83.052.844-.572.002-.11.142-.199.312-.199s.23.078.135.175c-.096.096-.04.336.125.535.237.285.21.326-.134.194-.272-.104-.434-.032-.432.193.005.951 3.945 1.502 3.987.557.013-.277.075-.33.155-.132.073.182.25.33.394.33.49 0 2.857-2.187 2.689-2.483-.093-.162-.076-.212.036-.11.112.1.578-.167 1.035-.595.456-.428 1.217-.852 1.69-.941.473-.09.86-.267.86-.394 0-.128.538.03 1.197.35.87.423 1.15.692 1.027.988a2.6 2.6 0 0 0-.183.738c-.007.182-.073.271-.146.198-.072-.073-.737.207-1.477.622-.74.414-1.497.701-1.684.636-.187-.064-.514.028-.728.205-.272.226-.388.233-.388.025 0-.355-.7-.398-.911-.056-.495.801.722 1.293 1.7.688.149-.09.27-.103.27-.027 0 .077-.328.317-.728.534-.838.455-.324.567.547.12.463-.239.515-.231.263.036-.246.261-.131.555.529 1.35 1.063 1.282 1.345 1.29 1.127.035-.173-.992-.173-.992.61.33.43.728 1.146 1.713 1.588 2.188.443.476.935 1.071 1.093 1.323.238.379.257.344.112-.203a3.512 3.512 0 0 0-.64-1.19c-.678-.77-1.134-1.739-.915-1.942.105-.097.24-.034.303.139.062.173.544.88 1.072 1.57 1.123 1.472 1.48 1.157.452-.398-1.04-1.57-.644-1.925.49-.44.537.703.976 1.389.976 1.524s.29.207.647.16c.451-.058.932.192 1.587.827.518.502.94.788.94.636 0-.151-.237-.49-.528-.754-.291-.263-.53-.602-.53-.752 0-.15-.258-.547-.574-.884-.316-.336-.496-.69-.4-.785.244-.244 1.763 1.424 3.094 3.398 1.124 1.669 1.124 1.669.956.61-.168-1.058-.168-1.058.382-.04.302.559.617.949.7.866.083-.083-.007-.342-.2-.574-.294-.354-.29-.463.028-.664.264-.167.279-.242.05-.245-.183 0-.335-.212-.34-.467-.005-.254-.183-.694-.397-.976-.213-.283-.388-.639-.388-.791 0-.305 1.116.82 2.05 2.068.735.98.791.33.066-.764-.289-.436-.525-.913-.526-1.058 0-.313 1.56 1.38 2.073 2.248.568.962 1.398 2.411 2.199 3.837.409.728.745 1.23.748 1.117.008-.337-1.852-3.99-2.262-4.444-.209-.23-.38-.677-.38-.993 0-.37-.165-.576-.462-.579-.395 0-.405-.04-.067-.256.253-.16.43-.159.486 0 .048.141.316.256.595.256.279 0 .507.16.507.356 0 .196.238.572.53.835.525.476.526.474.104-.372-.234-.468-.364-.913-.289-.987.075-.075.214.111.31.413.19.599.661.75.678.218.006-.181.19 0 .41.405.22.405.491.678.604.609.113-.07.197.135.186.455-.012.35.12.553.33.51.194-.04.285.034.204.166-.082.131.037.61.263 1.063.238.478.336 1.06.232 1.388-.132.415-.091.51.155.358.22-.137.267-.1.138.11-.108.175-.074.465.076.645.407.491.849 1.766.611 1.766-.231 0-1.18-2.028-1.237-2.646-.069-.742-.43-1.587-.677-1.587-.313 0-.325.978-.014 1.17.128.08.299.414.379.744.08.33.263 1.06.408 1.624.167.653.17 1.228.01 1.587-.251.563-.251.563-.141-.012.118-.619-.709-2.203-1.15-2.203-.371 0-.346.102.294 1.187.875 1.484.403 1.376-.562-.129-1.269-1.977-1.31-1.375-.05.72 1.277 2.12 1.735 3.192.992 2.323-.445-.521-.45-.52-.319.132.133.662.133.662-.311.01a9.589 9.589 0 0 0-.907-1.124c-.255-.258-.467-.558-.47-.667-.005-.11-.38-.556-.837-.992-.583-.56-.776-.649-.65-.302.127.355.074.453-.19.352-.203-.078-.502-.01-.665.155-.22.22-.297.207-.297-.049 0-.19-.17-.28-.378-.2-.439.168-1.034-.432-.744-.75.107-.12.055-.137-.117-.038-.172.1-.387.058-.478-.09-.215-.347-1.194-.35-1.194 0 0 .146.09.265.201.265.11 0 .356.248.546.551.458.734-.067.445-1.397-.768-.53-.482-1.105-.82-1.28-.748-.24.097-.237.134.012.15.182.012.33.146.33.299s-.386-.016-.859-.376-1.187-.736-1.588-.836c-.4-.1-.729-.318-.731-.484-.002-.18-.097-.155-.235.063-.147.232-.363.282-.591.137-.199-.125-.7-.246-1.117-.269-.914-.05-2.057-.623-1.865-.934.076-.123.013-.225-.141-.225-.377 0-.354.346.05.774.182.193.212.3.066.238-.145-.062-.728-.324-1.295-.582-.838-.381-1.072-.403-1.253-.118-.162.255-.223.205-.226-.187-.004-.562-.904-1.518-1.174-1.247-.087.086.102.434.42.772.507.54.362.932-.154.417-.109-.11-.302-.199-.43-.199-.126 0-.41-.238-.63-.529-.392-.518-.4-.515-.413.132-.011.629-.514 1.747-.535 1.191-.005-.146-.247.033-.537.397-.323.405-.463.48-.361.195.196-.553-.413-1.433-.686-.991-.416.673-1.474-.16-1.545-1.217-.038-.555-.137-1.074-.22-1.152-.084-.078-.102.304-.041.85.06.545.009.992-.117.992-.124 0-.16.109-.077.242.082.133 0 .302-.183.377-.258.104-.251.191.032.39.2.14.28.393.175.562-.133.214-.328.148-.646-.218-.45-.52-.463-.518-1.098.251-.757.917-.794.924-1.533.283-.642-.557-.728-.985-.239-1.183.26-.105.26-.138-.006-.154-.185-.012-.469.27-.631.626-.162.356-.46.71-.662.788-.274.105-.307.025-.132-.316.13-.252.18-.61.113-.797-.067-.187-.01-.485.127-.662.307-.396.621-1.247.462-1.247-.065 0-.315.38-.555.847-.706 1.363-1.93 2.233-1.508 1.07.108-.299-.036-.229-.41.2-.63.722-.598-.461.035-1.264.146-.185.194-.408.107-.496-.087-.087-.364.273-.616.8-.251.528-.554.96-.673.96-.118 0-.215.178-.215.396 0 .218-.209.399-.463.401-.361 0-.384.054-.104.232.231.146.261.287.084.397-.404.25-.65-.304-.463-1.045.222-.885-.015-.81-.674.214-.304.472-.477.621-.384.33.124-.389.007-.33-.443.224-.338.415-.81.711-1.052.661-.243-.05-.626.147-.853.438-.412.53-.412.53-.23 0 .16-.464.13-.486-.252-.175-.24.194-.56.276-.71.182-.153-.094-.277-.045-.277.11 0 .154-.186.28-.413.28-.226 0-.346.107-.266.237.08.13-.031.305-.249.388-.217.083-.395.018-.395-.145 0-.169-.21-.108-.485.141-.266.241-.56.362-.654.268-.094-.094-.418.115-.72.463-.55.632-.55.632-.371-.03.179-.66.179-.66-.466-.065-.355.327-.75.595-.876.595-.127 0-.508.26-.848.58-.339.319-1.178.34-1.207.666-.03.347-2.096.844-1.353.61zm11.072-16.61c-.073-.328-.011-.596.137-.596.149 0 .27.137.27.305 0 .183.195.13.485-.133.401-.363.485-.372.485-.053 0 .213-.1.325-.22.25-.122-.075-.221.05-.221.276 0 .227-.143.413-.317.413-.242 0-.239.079.01.328.262.262.374.256.552-.032.178-.288.277-.262.498.133.152.27.37.397.486.282.116-.116.091-.294-.055-.395-.327-.226-.33-.726-.007-1.022.134-.123.174-.102.09.048-.433.764.492 1.517.968.79.548-.837.644-.723-1.17-1.392-1.46-.538-1.46-.538-2.117 0-.43.353-.543.58-.327.656.182.064.33.226.33.36 0 .132-.148.243-.33.244-.265 0-1.957 1.808-3.643 3.889-1.154 1.424.184.472 1.985-1.411 1.778-1.86 2.216-2.472 2.111-2.943zM-260.566-2662.886c-.085-.086-.015-.325.156-.53.22-.267.228-.428.024-.554-.157-.098-.348-.476-.423-.84-.096-.468-.123-.397-.093.242.025.522-.096.95-.287 1.014-.229.076-.33-.223-.33-.97 0-.594-.12-1.08-.265-1.08a.265.265 0 0 0-.265.265c0 .145-.119.264-.264.264-.146 0-.265-.175-.265-.388 0-.235-.155-.33-.393-.238-.26.1-.486-.092-.666-.566-.226-.595-.34-.662-.665-.392-.261.217-.393.23-.393.037 0-.158-.16-.227-.356-.151-.404.154-.45-1.037-.055-1.398.13-.12.138-.05.016.16-.146.252-.116.31.094.18.17-.105.246-.294.168-.42-.078-.127.068-.354.326-.504.286-.166.334-.276.122-.28-.19 0-.271-.13-.18-.278.092-.147.269-.205.394-.128.125.077.303-.099.396-.393.093-.293.293-.533.444-.533.152 0 .218-.148.149-.33-.09-.234.23-.336 1.096-.347 1.02-.013 1.734-.114 2.678-.379.073-.02 1.174-.022 2.447 0 1.274.018 2.315-.063 2.316-.18 0-.118.625-.209 1.389-.2.764.01 1.508-.049 1.653-.126.47-.246.92-.245 1.074 0 .087.142.376.12.695-.05.794-.426 1.683.573 2.49 2.797.811 2.233.708 2.42-.286.521-.753-1.44-1.46-2.296-1.46-1.77 0 .146.164.4.365.567.2.166.443.8.54 1.408.098.609.295 1.249.44 1.423.187.226.127.305-.21.277-.29-.023-.757-.603-1.204-1.493-.403-.8-.652-1.158-.555-.794.456 1.702.55 2.381.332 2.381-.13 0-.236.245-.236.545 0 .978-.53.245-.548-.759-.015-.759-.065-.858-.228-.447-.115.291-.158.666-.096.833a.418.418 0 0 1-.17.48c-.156.095-.223.495-.149.886.133.699.128.698-.251-.082-.213-.437-.392-.995-.399-1.241-.007-.246-.124-.517-.26-.601-.23-.142-.201.474.12 2.56.061.394-.005.788-.145.875-.14.087-.256-.14-.256-.503 0-.364-.119-.735-.264-.825-.146-.09-.265-.023-.265.149 0 .22-.132.205-.448-.051-.246-.2-.389-.244-.318-.1.071.146.293.593.492.993.2.4.287.803.193.897-.194.194-1.22-.95-1.233-1.376-.005-.154-.183-.511-.395-.793-.427-.568-.108 1.005.433 2.132.247.516.241.515-.227-.012-1.007-1.132-1.346-1.257-1.228-.454.108.73.108.73-.333.135-.574-.777-.956-.764-.657.021.18.474.144.618-.154.618-.216 0-.456-.335-.539-.75-.083-.412-.246-.75-.363-.75-.117 0-.27-.267-.34-.595-.069-.327-.095-.01-.058.703.06 1.13.024 1.236-.28.82-.288-.393-.42-.418-.754-.14-.336.278-.405.262-.405-.094 0-.236-.12-.429-.265-.429-.146 0-.265-.178-.265-.397 0-.218-.11-.397-.246-.397-.152 0-.152.33 0 .859.136.472.246.876.246.897 0 .15-.772.294-.898.169zm-6.872-9.357c-.532-.087-1.015-.206-1.074-.265-.059-.059 3.306-.108 7.478-.108 10.188 0 12.94-.463 17.449-2.927 1.701-.93 2.438-1.196 1.505-.544-4.1 2.864-8.933 3.913-18.278 3.966-3.363.02-6.549-.036-7.08-.122z"
      style="fill: #000; fill-rule: evenodd" transform="matrix(1.28072 0 0 1.33457 504.449 3758.126)" />
  </g>
  <!-- Mouth upper -->
  <g id="mouth-upper">
    <path
      d="M-256.286-2680.951c.972-.381 2.639.64 5.576-.181 2.738-.766 3.805-.955 4.62-.817 1.588.267 3.758.834 3.76.982 0 .086.216.156.478.156s.59.083.728.184c.138.102.698.297 1.243.435.546.138 2.808 1.648 2.808 1.754.867.073-.199.288 1.385.043 1.754-.27 3.916-1.783 1.997-.027-.732.67-2.401 1.513-9.008 1.567-4.249.035-6.285.137-7.54.38-3.773.73-5.895.879-8.649.608-2.574-.252-6.611.053-10.799.818-1.79.326-6.238-.694-7.406-1.108l-.315-.278s-.28-.5-.065-.604c.18-.088.16-.08.273-.188.035-.033.673.412.875.28.265-.175.514-.18.896-.018.907.384 4.552-1.083 5.849-2.176.238-.2 3.839-1.248 4.29-1.248.243 0 .992-.246.992-.246s1.76-.809 5.661-.01c.755.046 1.524.017 2.351-.307zm3.188 3.542c4.16.14 7.035-1.396 8.459-1.276 1.293.108 2.394.383 6.185.516 1.548.054-.756-1.478-2.06-1.872-.643-.194-1.304-.353-1.47-.353-.164 0-.339-.091-.387-.203-.049-.112-.386-.23-.75-.262s-.72-.107-.794-.166c-.252-.206-2.684-.63-2.929-.51-.135.065-.246.028-.246-.084 0-.125-.298-.114-.777.028-.427.128-.707.322-.62.433.087.112.017.132-.16.046-.175-.085-.461-.065-.637.045-.175.11-.784.266-1.351.347-3.143.294-2.326.553-2.778.65-.593.125-.701.157-1.447.16-.494 0-2.216.062-2.302.038-.442-.12-1.059.25-1.424-.117-.25-.126-.718-.379-1.056-.242-.663-.4-1.113-.202-1.495-.258-.147-.02-.241.026-.241-.085s-.208-.171-.463-.132c-.255.039-.738.077-1.074.086-.391.01-.4.406-.67.36-.223.01-.767.271-.729.13.039-.142-.104-.2-.503-.119-.29.06-.529.193-.529.295 0 .101-.126.184-.28.184-.154 0-.2-.103-.1-.23.13-.166.028-.166-.367 0-.3.127-.62.327-.712.443a.347.347 0 0 1-.406.094c-.132-.065-.51 0-.841.146-.575.252-.731.298-1.213.357-.118.014-.447.197-.73.406-.284.21-.727 1.855-1.017 1.991-.764.36 2.027.175 3.509-.232v.001c.452-.124 1.508-.176 1.771-.162.032.026.053.026.113.01.038-.012.66-.298.75-.314.262-.044.563-.184.673-.208.109-.024.287-.066.396-.093.11-.027.526-.032.926-.01.4.02.728-.057.728-.174 0-.116.325-.164.722-.107.397.057.634.034 2.083.233z"
      style="fill: #000; fill-rule: evenodd; stroke-width: 0.889226"
      transform="matrix(1.28072 0 0 1.33457 504.449 3758.126)" />
  </g>
  <!-- Nose line -->
  <g id="nose-line">
    <path
      d="M1322.255-2741.433c.293-.437 1.082-1.39 1.752-2.117 1.137-1.234 1.208-1.394 1.052-2.381-.309-1.95-.393-2.902-.369-4.192.015-.835-.073-1.221-.255-1.109-.318.197-.381-.197-.08-.498.444-.443.284-4.69-.17-4.533-.345.119-.338.078.038-.214.255-.198.463-.542.463-.764 0-.222.149-.69.33-1.041.276-.53.332.258.334 4.666 0 2.917.053 6.137.114 7.156.11 1.852.11 1.852-1.816 3.836-1.059 1.091-1.686 1.627-1.392 1.19z"
      style="fill: #000; fill-rule: evenodd" transform="translate(-1156.543 2876.707)" />
  </g>
  <!-- Brows -->
  <g id="brow-left">
    <path
      d="M-300-2748.608c-2.99-.024-7.812 1.891-10.218 4.06-.387.348-.575.347-1.027.015-.305-.225-.449-.246-.32-.054.253.389-.868 1.487-1.364 1.337-.168-.05-.87.304-1.56.787-.69.484-1.375.88-1.522.88-.146 0-.626.316-1.064.704-.663.585-2.018 5.578-3.274 6.367a.308.308 0 0 1-.083.178l-.045.064c.015.146.026.315.037.51.057 1.015-.054 1.46-.37 1.46-.328 0-.312.088.06.302.473.274 1.284.267.115 1.15.005.013.01.018.016.026l.001.001h.001V-2730.806h.006c.438-.236.633-.245.396.108-.19.282-.035.323.57.15.801-.23.808-.217.217.39-.553.569-.827 1.378-.466 1.378.08 0 .944-.696 1.922-1.546.978-.85 2.6-1.877 3.607-2.278a69.26 69.26 0 0 0 2.441-1.016c.692-.324.76-.132.284.427a.69.69 0 0 1 .217-.035.19.19 0 0 0 .094-.017c.061-.013.109-.056.167-.074.075-.021.142-.034.218-.046.073-.022.145-.055.225-.056.046 0 .09-.013.134-.024.023-.013.045-.014.068-.02.28-.22.738-.465 1.386-.752 1.463-.649 1.791-.752 1.505-.38.021 0 .042-.013.063-.014h.002v-.001h.001l.001-.001v-.002h.002v-.003h.002v-.002l.001-.001v-.003h.001l.001-.001v-.002h.001v-.001l.001-.001v-.002h.001v-.001l.003-.012h.002v-.001h.001l.001-.002h.001v-.001h.002v-.008l.005-.013v-.001h.004v-.001h.003v-.001h.002v-.001h.002v-.001h.002v-.002l.002-.013V-2734.676a.097.097 0 0 0-.003.034h.019l.013-.038c-.023-.102-.038-.143-.024-.156h.016a.254.254 0 0 1 .1-.025c.038-.012.077-.012.115-.012h.114v-.001h.002c.004 0 .012 0 .022-.013a.18.18 0 0 1 .078-.02.27.27 0 0 1 .173.053h.001c.05.014.095.034.135.064h.006c.014 0 .046.024.056.033v-.001H-306.684v.001h.002v.001h.004v.017h.107c.278 0 .505.13.505.29 0 .16.414-.012.92-.374.604-.436 1.184-.667 1.534-.655.21.012.338.103.338.294.055-.017.113-.02.17-.033.04-.013.079-.013.118-.013.031-.001.063 0 .094 0h.405c.064 0 .127 0 .19.02.015.013.032.013.048.013.05 0 .096.017.142.032v.013h.001v.001h.001v.001h.001l.001.001h.001l.001.002H-302.09c.017 0 .046.014.079.016.017 0 .033.018.05.018h.01c.04-.027.081-.053.124-.077a2.02 2.02 0 0 1 .26-.106c.074-.023.151-.036.228-.052a.882.882 0 0 1 .184-.024c.153.025.193.119.155.24-.008.024-.038.053-.052.07a.772.772 0 0 0-.1.092c-.029.037-.071.066-.106.1.025 0 .05 0 .076.012.548-.376 1.042-.634 1.319-.634.458 0 .725.142.605.32-.298.443.228.384.925-.1.277-.194.852-.334 1.358-.341v.013h.212c.547.036 1.347.077 1.78.092.489.016.74.11.75.27a.393.393 0 0 1 .13-.023c.037 0 .076 0 .119.013a.792.792 0 0 1 .131.046h.007v.002h.003l.001.001v.004l.001.012h.002v.001h.002v.001h.003l.1.049h.007v.001l.001.001h.001v.004l.001.012h.001l.001.001h.003v.001l.002.001h.005c.011 0 .03.013.063.023.014.013.024.015.03.018.04.013.07.022.101.038.154-.133.533-.235 1.055-.277a.83.83 0 0 1 .128-.059c.09-.166.225-.243.349-.243a.29.29 0 0 1 .185.066c.024-.013.048-.017.072-.025h.016c.01 0 .02-.013.032-.015v-.001h.003v-.001h.002v-.001h.002v-.002l.001-.012h.002c.01 0 .02-.013.032-.015a.35.35 0 0 1 .141-.033c.03 0 .059 0 .084.015.036.015.067.037.1.056.045.04.07.092.084.146h.001v.001h.001l.001.001v.012a.647.647 0 0 1 .023.084.316.316 0 0 1-.01.16v.002h-.001v.013h-.001c-.007.019-.012.039-.02.055h-.002v.002l-.001.013h-.001l-.001.001-.001.001c.022.013.044.017.067.025.038 0 .096.04.135.066a.406.406 0 0 1 .059.073H-290.912h-.009a.386.386 0 0 1 .1-.022H-290.781c.038-.014.077-.014.115-.014h.301c.04 0 .074.011.11.021v-.001h.001v-.001c.012 0 .09.032.098.033a.124.124 0 0 0 .05.017c.06.023.027.013.094.035.032.012.06.026.09.04.03.017.034.02.038.024h-.003.004l.003.001v.001h.004v.001l.001.001h.001V-2734.775h.002l.001.002h.003l.002.001v.002s.001.013.003.013v.001l.002.001h.002-.001v-.002h-.001c-.001 0-.001-.013-.003-.013v-.002c.032.016.039.016.075.044h.008c.04.02.076.044.11.072.04.035.023.018.053.05a.386.386 0 0 1 .038.047c.04 0 .08 0 .118-.013.071-.012.14-.016.21-.028.053 0 .103-.018.154-.03.06-.015.121-.018.182-.03.049-.013.099-.013.148-.02.044-.013.09-.013.135-.023a.794.794 0 0 1 .175-.022c.04 0 .079-.014.118-.014.055-.013.11-.013.165-.013h.107c.055 0 .11-.015.166-.015h.095c.012 0 .022-.013.034-.013.043 0 .089-.017.133-.017h.11c.041.012.046 0 .074 0 .038 0 .077-.014.116-.014h.033a.1.1 0 0 1 .014 0h.002c.024-.012.049-.012.074-.012h.33c.038-.015.075-.015.114-.015h.032v.002h.046c.037-.016.076-.016.115-.016h.058c.014-.013.033-.013.046-.013.038-.012.077-.012.115-.012h.076c.001 0 .074-.013.083-.013h-.007a.52.52 0 0 1 .14-.024c.034-.013.068-.013.101-.013h.002c.01 0 .033-.013.043-.013.04-.012.081-.012.122-.012h.071c.028 0 .059-.015.088-.015.034-.012.067-.012.101-.012h.6c.056 0 .113.015.169.015H-283.658c.05 0 .1.012.15.012.044.013.09.013.135.013.044 0 .089.012.133.012.027 0 .052.015.079.015h.331c.01 0 .02 0 .03-.013.034-.013.069-.013.103-.013H-282.424c.01 0 .077-.013.081-.013.036 0 .067 0 .095.013v-.013h-.001c-.037-.058-.046-.093-.032-.106.035-.028.188.048.417.218.672.5 3.224-1.327 2.778-1.989-.119-.175-.045-.223.163-.104.209.117.474.074.59-.096.115-.171.44-.232.721-.132.282.099.513.027.513-.162 0-.437 3.57-3.755 4.508-4.185.036-.063.067-.128.103-.19.053-.097.11-.193.164-.288h.001c-.166-.508-.847-1.176-1.205-1.527-.487-.478-1.172-1.413-1.52-2.08-.333-.634-.494-.937-.551-.938h-.006c-.04.03-.01.274.047.718.07.548.311 1.312.537 1.698.822 1.41.129 1.343-1.173-.117-1.72-1.924-3.965-3.274-4.523-2.718-.151.15-.225.235-.22.263h.006c.023.013.1-.022.229-.086.237-.122.505.06.634.433.122.354.364.645.536.645.172 0 .482.29.687.641.5.857.332.81-1.009-.287-1.372-1.124-2.818-1.459-6.495-1.499-1.535-.017-4.99-.14-7.678-.277-3.86-.195-5.351-.148-7.098.23-2.749.595-2.4.237.816-.837 2.442-.816 2.442-.817.322-.834zm8.344 12.99h.001zm.435.45zm-.14.205v.002h-.001v.001l-.001.013v.001h.001v-.001h.001v-.015zm.004 0h.001zm4.627.085.001.001zm-20.395.249v.013h.003v-.014h-.001zm15.216.024h-.003v.002h-.002l-.002.001v.002l-.003.012v.002h-.001v.002h.017v-.001h-.002v-.002l-.001-.013v-.003h-.002v-.001zm-15.208 0h.001zm.052.013h-.002a.332.332 0 0 1-.099.018h.123-.002l-.001-.001h-.002l-.001-.001h-.003v-.001h-.002v-.002h-.004v-.002h-.001v-.003c-.001 0-.002-.013-.004-.013h-.001v-.001zm.067.057h.001zm8.82.045c-.07.11.155.212.155.17a.69.69 0 0 0 0-.056h-.002v.024a.285.285 0 0 0-.153-.138z"
      style="fill: #000; fill-rule: evenodd; stroke-width: 1.26322" transform="translate(434.66 2840.337)" />
  </g>
  <g id="brow-right">
    <path
      d="M-220.122-2752.784v.084c-.375.025-.442.087-.207.188.65.28.638.302-.174.344-.804.041-.817.066-.174.322.51.202.23.27-1.044.25-.957-.014-2.601.138-3.654.338s-3.167.585-4.699.854c-2.581.455-3.473.63-6.264 1.233-1.044.225-1.044.224-.174-.425.79-.59.63-.573-1.74.187-1.436.46-2.689.928-2.784 1.04-.303.352-1.883 1.276-2.184 1.276-.158 0 .111-.478.6-1.061 1.562-1.867.581-1.783-1.517.13-.592.538-1.076.835-1.076.657 0-.177.157-.411.348-.52.192-.107.348-.423.348-.702 0-.662-1.265.315-1.58 1.22-.287.82-.85.744-.882-.12-.023-.621-.08-.59-.437.237-1.366 3.165-2.918 4.75-1.848 1.888.453-1.21.464-1.409.059-1.102-.619.467-1.55 2.98-1.78 4.807-.066.514-.164.919-.319 1.23h.002a.82.82 0 0 0 .163.01v.014c.195-.012.313.056.357.14l.184.05c.129.038.257.075.386.11.134.031.263.08.39.129.115.046.23.091.34.146.084.047.17.093.25.146a.95.95 0 0 1 .164.146l.08.097c.039.05.061.109.08.168.014.045.024.088.037.132.005.016.01.032.022.046.02.026.037.053.056.08a.34.34 0 0 0 .043.057c.04.048.028.033.056.065h-.004v.002l.005.012v.002h.002l.001.001v.001h.002V-2738.889h.008v.001h.001v.012h-.005l.001.001h.006l-.001-.012a.63.63 0 0 1 .073.078c.009.014.01.013.042.039h.002v.002h.002l.003.013v.001h.001v.001h.002l.001.002h.001l.057.05a.063.063 0 0 0 .017.019h.001v-.002h-.002l-.001-.012c.041.021.078.048.12.07.036.02.072.038.108.055.017 0 .034-.01.05-.017l.08-.033a.856.856 0 0 1 .098-.039c.02-.012.023-.012.037-.012h.007a.24.24 0 0 1 .09-.026v-.001a.863.863 0 0 0 .073-.019h-.013c.024-.012.051-.014.078-.019v-.001h.016c.018 0 .016 0 .042-.016a.465.465 0 0 1 .123-.018.27.27 0 0 1 .09.011c.753-.499 1.69-1.028 2.354-1.296.145-.058.196.226.113.634-.083.407-.162.82-.176.918-.014.099-.345.491-.736.873-.11.109-.2.207-.267.294.104.079.209.176.312.29.252-.137.567-.392.826-.682.76-.849 1.826-.703 1.213.166-.29.408-.375.41-.701-.011-.295-.38-.327-.337-.16.21.105.338.085.553-.091.703h.07c.112-.01.223-.022.335-.022.135-.01.27-.01.405-.01h.015c1.806-1.63 2.526-1.968 1.863-.838-.232.393-.25.589-.042.472.194-.108.419-.09.5.041.025.042.046.065.059.07h.005l.001-.001h.002c.015-.016.01-.088-.023-.211a.534.534 0 0 1 .231-.574c.183-.102.339 0 .344.228.006.257.145.204.364-.138.269-.422.783-.545 2.164-.52.996.018 2.712-.102 3.813-.267 1.1-.164 2-.18 2-.034 0 .145-.225.265-.5.265-.277 0-.605.152-.732.338-.452.667.085.591 1.221-.173.805-.54 1.485-.74 2.237-.655.595.067 1.394-.057 1.777-.278 1.587-.912 2.92-.956 1.586-.046-.66.448-1.074.814-.92.814.153 0 .848-.408 1.546-.905 1.177-.84 2.33-1.262 4.053-1.485.382-.049 1.009-.186 1.392-.303.789-.242-.188.624-1.007.893-.212.07-.29.221-.172.337.117.117.709-.21 1.315-.725 1.017-.866 2.14-1.269 4.127-1.48.43-.046.783.04.783.19s.478.126 1.062-.065c.584-.185 1.164-.243 1.29-.13.125.115-.117.291-.54.392-.805.192-1.067.743-.353.743.228 0 .11.203-.26.45-.372.247-.572.544-.445.66.312.284 1.748-.439 1.524-.768-.097-.144.486-.265 1.296-.277.81-.011 2.177-.09 3.038-.183 1.454-.155 1.471-.152.244.086-.728.14-1.51.435-1.74.654-.333.32-.242.35.452.149.479-.139 1.184-.227 1.567-.197.382.03 1.087.063 1.566.076 1.273.034-1.57.996-2.959.996-.46 0-.708 0-.715.05-.004.054.328.167 1.04.4.849.277 1.448.33 1.577.14.202-.299 3.88-1.287 4.784-1.287.388 0 .509.194.4.398h.542c.047-.033.301.039.437.08v-.001h.271c.194-.012.384.023.568.08h.02c.064.013.127.013.191.013H-200.672c.07-.016.18-.034.248-.047h-.042a1.98 1.98 0 0 1 .2-.055c.108-.07.223-.126.356-.17.03-.012.06-.019.09-.026.45-.972-.553-2.957-2.48-5.493h-.002c-.017-.013-.04-.018-.049-.021h.003a.473.473 0 0 1-.171-.12c-.048-.065-.057-.074-.085-.137v-.001h-.003v-.003l-.002-.001V-2745.307h-.003c-.012-.024-.024-.046-.032-.07v-.001h-.002v-.002l-.003-.012v-.001h-.002v-.002h-.002l-.001-.001h-.001l-.001-.001v-.001c-.002 0-.002-.011-.004-.011l-.001-.001v.012l-.003-.012v-.002h-.004v-.003h-.002v-.004l-.002-.011h-.001v-.001l-.02-.023h-.002v-.001h-.001l-.001-.001-.001-.001-.002-.001s-.005-.016-.009-.022h-.002l-.002-.001h-.001v-.001h-.003l-.001-.002-.005-.01v-.001h-.002v-.002h-.002v-.001h-.006v-.002h-.005l-.001-.001h-.001c-.006 0-.014-.017-.018-.023h.008l-.001-.002h-.002v-.001l-.001-.001h-.001v-.001c-.002 0-.002-.012-.004-.012h-.001v-.001h-.007l-.001-.001h-.004l-.001-.002h-.001c-.006 0-.014-.017-.018-.023h.007v-.001l-.001-.001h-.002v-.002h-.001v-.001h-.001c-.001 0-.001-.012-.003-.012v-.001h-.001v-.001h-.006l-.001-.001h-.003v-.001h-.006l-.001-.001c-.006 0-.013-.017-.022-.024h-.002l-.001-.001h-.002l-.001-.001h-.005v-.002c-.007 0-.014-.017-.018-.024h.008-.002v-.001h-.001v-.001h-.001v-.001h-.001v-.001h-.001s-.001-.011-.003-.011v-.002h-.002v-.001h-.006l-.002-.001h-.005v-.002h-.005v-.001h-.002v-.002c-.001 0-.002 0-.002-.013h-.002l-.001-.001v-.001h-.002c-.001 0-.001-.014-.003-.014h-.002v-.002h-.004l-.001-.001h-.004v-.002h-.001v-.001l-.001-.011c-.008-.012-.017-.014-.023-.021l-.03-.03v-.002h-.002v-.001h-.001l-.001-.001-.001-.001h-.002v-.003l-.002-.012v-.001h-.005l-.001-.001h-.001l-.001-.002h-.001v-.001l-.001-.001-.004-.012v-.001h-.001v-.001h-.002v-.001h-.002v-.001h-.002v-.002h-.002v-.001h-.001s-.001-.013-.003-.013v-.001h-.005c-.008-.013-.026-.025-.041-.04-.026-.012-.055-.035-.074-.044l-.036-.025h-.001a.112.112 0 0 0-.041-.018c-.015-.01-.029-.01-.042-.018.133.512.211.813.193.792-.11-.12-3.433-3.96-5.66-5.137-4.857-1.887-6.397-2.289-9.364-2.441-.998-.052-1.68-.065-2.056-.041zm17.46 7.372zm-.487-.423zm.251.186h.006v.001h.002v.001h.002v.014h-.004l-.001-.001h-.005zm-.023 0h.002v.001h.002v.001h.001v.002h.001c.001 0 .001.012.003.012h-.003l-.001-.002h-.002l-.001-.002v-.01zm.183.13v.01h.002v-.012zm-47.344 5.99c.141.135.12.146.277.345.009.018.061.099.094.152l.082.068-.05-.028a.698.698 0 0 0 .097.055c.103.042.209.081.309.13h-.003a.566.566 0 0 1-.082-.175l-.036-.125c0-.012-.005-.015-.008-.024v-.001h-.002a2.507 2.507 0 0 1-.05-.058.438.438 0 0 0-.082-.074c-.058-.046-.132-.071-.193-.111-.091-.05-.192-.081-.288-.123-.022-.013-.043-.017-.065-.025zm47.937.218h-.006c.07.022.095.031.013 0h-.008zm1.636.07c-.014.001-.044 0-.097.013.044 0 .096-.012.105-.012h-.008zm.114 0v.001h-.005v.001h-.001v.001l-.001.001v.001h-.001l-.001.012c-.013.013-.042.034-.056.047.023-.02.047-.037.07-.055h-.005zm-48.08.564zm.282.146h-.001v.001zm.005 0zm0 .012.001.01v.001-.011zm3.703 2.291c-.065 0-.13.011-.197.016-.046 0-.092.012-.138.014.05.048.099.098.144.15l.191-.178z"
      style="fill: #000; fill-rule: evenodd; stroke-width: 1.25569" transform="translate(434.66 2840.337)" />
  </g>
  <!-- Face -->
  <g id="face-ears">
    <path
      d="M1401.59-2779.291c-2.998 6.853.041 14.493-.813 21.697-.14 14.23-1.778 28.388-2.424 42.58-1.908 12.14-2.183 25.479-10.235 35.508-1.881-3.573-.062 4.238-1.878.692 1.888 4.432-4.177-.874-1.424 3.302-3.556 3.21-6.761 10.371-8.92 3.975 1.69 3.176 1.476 7.326-.843 2.07-4.228-7.366 1.358 1.396.258 3.534-1.855-4.119-4.115-6.863-1.766-.687 3.169 8.406-8.166-11.274-3.023-1.4 1.429 5.685.684 5.455-2.558 1.205 1.76 3.672 1.714 6.74-.77 1.477-3.121-4.906-2.872-3.513-.832.827 2.93 9.552-7.914-9.091-2.653.3 3.438 7.13-.02 4.151-1.563 1.634 1.481 3.834.903 9.193-.6 2.248-1.407-8.366-.274 10.005-1.358 2.825-2.066-5.501-2.367.524-2.307 2.167-1.676-5.174-2.47-4.22-1.977.678-2.003 6.218-2.59-9.414-4.78-4.837 1.171 2.97-1.116 9.663-2.604 2.153-1.943-3.163-7.176-8.825-2.206-1.881 2.324 3.196-.238 10.1-.483 2.87-2.116-6.68 1.57 12.145-1.005 1.731-2.571-8.592-1.612 13.1-2.076 2.35-1.348-10.32-3.027 10.18-2.698 1.134.608-3.524-4.888-11.41-2.148-3.582 1.445 3.885-2.524 9.639-.847 2.723-.211-4.425-3.292-10.979-1.822-2.537 2.255 3.423-1.437 1.534-.531 5.899-1.013-2.264-.253-9.698-2.189-3.445.247-2.835-1.212-12.655-.904-4.151-.05 3.75-1.635 10.37-2.704 3.144-2.37-3.476-.315 9.047-1.936 1.07-.28-3.093-4.332-3.272-.772-7.807 3.171-8.81-5.754 11.917-2.235 1.447 2.599-10.4-4.236 13.009-2.52 1.85-1.16-5.107-.648 13.187-2.207 4.24-.808-3.997 2.606-12.734-1.36-4.45-.782 4.405-2.043 7.86-1.589 1.25.547-3.166 5.547-10.071.465-4.457-2.833 1.561-3.819 12.538-3.11 4.072 1.907-3.925-.322-6.616-1.444-1.152-1.631 4.106-.583-2.878.359-3.777-1.999 2.987 1.422-6.556-1.1-.165-2.307 1.418-1.439 10.673-2.75 3.649-1.45.681.223-5.828-1.918-.522-5.655 2.336 6.797-13.043.282-5.463-2.227 1.574-5.308 8.856-3.342 1.138-1.067-2.41 4.265-7.862 2.69-6.818-4.253 2.979-4.017 5.64-5.485 9.42-2.979-4.291 8.823-14.268.568-7.213-3.319 2.206 4.455-5.84-.296-1.156-3.461 3.004.027-3.364-2.847 1.199-5.41 1.682 5.312-7.946-1.624-2.184-5.945 10.27-6.112 3.56-3.112-.218-3.912 3.15-4.697 5.948-4.098 2.012-1.781 2.492-3.722.49-4.2-1.355-1.754.712-5.862-8.01-6.295-12.897-5.128-13.203-7.028-27.381-9.512-41.26-2.286-10.486-3.93-21.178-4.642-31.93 2.498-9.143-15.202-12.313-12.645-2.155 1.008 9.533 2.885 18.744 6.292 27.615 2.737 7.535 6.458 14.432 11.27 20.655 1.36 7.104 2.51 13.468 4.98 20.484 2.176 8.257 1.713 8.513 2.072 10.658.281 1.1 1.055 3.49 1.632 5.126 2.331 3.808-2.745 36.471-1.542 43.43.622 3.601 7.268 4.486 3.484-3.265-3.32-6.803.536-37.812 1.437-36.017 2.33 4.646 21.106 17.124 21.874 17.486 7.303 3.236 11.524 5.983 19.635 6.995 3.23 1.099 10.998 1.533 14.154 1.84 3.79-.387 7.33-2.106 12.342-4.361 8.491-4.096 15.23-4.332 22.239-10.52 1.478 5.406-2.895 11.532-3.527 19.097-.806 6.96 1.882-6.285 2.633-8.514 2.842-8.39 1.959-13.374 8.965-19.653 7.472-5.766.506 9.889 1.362 13.788-.963 8.045-1.578 16.144-3.087 24.113 8.422 4.986 1.533-9.78 4.673-8.88 1.291 4.25-1.9 12.052 5.33 9.461 5.596 5.193-3.875-5.786-3.534-9.036-1.486-3.651-1.365-8.679 2.082-3.11 4.513 3.646 8.684 7.935 11 8.285-.104-.592-11.278-8.183-12.146-11.66-5.281-7.685-.309-16.885.297-25.16.252-8.133 7.504-12.837 9.094-20.451 4.345-4.392 3.198-10.804 4.589-17.137-1.392-7.33 2.03-13.51 8.599-15.8 4.174-7.872 6.686-16.621 8.071-25.346 1.108-8.24 6.884-20.393-1.029-26.3-4.916-4.273-10.656 7.675-9.916-.296-1.913-1.586-2.245-4.334-3.967-6.099zm4.29 6.871zm7.644.83c6.209 4.605 3.016 14.086 2.003 20.45-.365 8.74-3.29 17.663-8.522 24.006 8.207-6.567-4.574 16.036-6.19 4.527-2.98-9.01 8.706-11.56 10.199-18.126.725-3.432-4.738-13.285-2.14-4.463 2.81 4.445-4.28 13.004-4.426 4.278-2.612-6.156 1.851-14.113 6.624-17.122 2.896 2.074 1.89 8.59 2.933 1.898.74-3.941 2.067-15.398-2.866-7.096-2.514 2.886-6.016 12.286-8.065 10.57-1.705-9.049.647-16.616 10.45-18.923zm-157.667 10.7c5.459-.924 9.337 13.531 5.367 11.547-2.293-3.558-8.278-9.99-4.224-1.728.357 3.607 1.72 13.645 3.399 5.348 7.978 3.773-2.388 13.24 4.038 18.651 2.85 3.265 5.294 11.003 3.615 13.634-5.786-8.458-8.368-18.706-11.632-28.322-.686-5.998-4.016-13.715-.563-19.13zm7.78.863.034.105zm.148.212.016.042zm.146.338h.001zm.69 3.298.029.029zm118.601 129.547c-.587 2.62.58.642 0 0z"
      style="fill: #000; fill-rule: evenodd; stroke-width: 1.30697" transform="translate(-1156.543 2876.707)" />
  </g>
  <!-- Eyes -->
  <g id="eye-left">
    <path
      d="M1288.417-2753.67c-.283-.166-.842-.304-1.242-.307-.4 0-1.084-.356-1.519-.785-.672-.664-1.287-.81-2.137-.508-.096.034-.46.034-.81 0-.35-.032-1.06.19-1.579.498-.942.559-.942.559-.15-.244.436-.442.704-.886.595-.987-.2-.185 2.696-2.534 3.124-2.534.232 0 2.65-.951 4.606-1.811 1.866-.82 5.23-1.752 6.357-1.76.603 0 1.292-.227 1.53-.493s.598-.39.8-.274c.202.116 1.763.202 3.468.192 1.706-.012 3.19.113 3.296.274.108.16.66.292 1.226.292.568 0 1.032.147 1.032.326 0 .179.249.325.553.325.828 0 5.363 2.31 6.553 3.339 1.351 1.166.776 2.208-1.445 2.616-1.822.334-3.037-.136-1.86-.72 2.113-1.05-.288-2.906-4.81-3.72-1.185-.213-1.185-.213-.96 1.09.471 2.736-1.24 4.536-4.959 5.215-3.939.72-6.748-1.18-6.748-4.562 0-.658-.091-1.281-.203-1.385-.213-.198-3.746 1.694-3.947 2.113-.065.135-.33.244-.592.244-.966 0-.915.734.135 1.946 1.111 1.283.907 2.337-.314 1.62zm-6.687-5.13c.596-1.032 6.263-5.92 6.864-5.92.21 0 .77-.254 1.247-.564.477-.31 1.16-.518 1.519-.461.373.059.558-.04.432-.23-.145-.217.123-.239.78-.064.582.155 1.257.133 1.614-.053.803-.417 1.797-.547 5.814-.761 1.833-.097 3.608-.23 3.945-.294.338-.064.617.053.62.26 0 .236.117.21.307-.066.325-.476 1.974-.138 3.95.81.511.245 1.182.446 1.49.446.307 0 .559.137.559.304 0 .166.318.397.706.511.389.115.623.334.52.488-.102.154.092.473.434.709.885.613.906 1.971.024 1.533-.356-.176-.801-.232-.99-.124-.189.108-.344-.012-.344-.256a.451.451 0 0 0-.438-.456c-.24 0-1.227-.452-2.192-1.001-1.864-1.062-4.524-1.866-5.092-1.54-.189.107-.343.076-.343-.067 0-.686-9.882.46-12.273 1.424-2.414.973-2.744 1.166-4.08 2.385-.746.679-1.473 1.167-1.618 1.084-.145-.082-.263.012-.263.202 0 .194-.404.496-.898.67-.546.192-.8.464-.647.693.146.22.098.288-.118.165-.202-.116-.458.012-.569.275-.11.267-.448.486-.75.486-.422 0-.47-.137-.21-.588z"
      style="fill: #000; fill-rule: evenodd; stroke-width: 1.27672" transform="translate(-1156.543 2876.707)" />
  </g>
  <g id="eye-right">
    <path
      d="M1351.91-2758.2c-.345-.308-.839-.574-1.097-.59-1.044-.063-1.448-1.088-.852-2.16.491-.883 2.894-3.245 3.277-3.222.082 0 .998-.52 2.035-1.166 1.037-.647 2.019-1.168 2.182-1.158.163.01.792-.18 1.398-.421 5.518-2.201 12.372-1.27 19.432 2.642.771.428 1.395.904 1.386 1.058-.01.155.272.298.627.32.946.057 1.07 1.015.18 1.39-3.34 1.404-6.023 2.021-5.147 1.183.641-.613.636-2.273-.01-2.939-1.229-1.27-5.58-2.312-4.794-1.149.215.317.311.572.214.566-.097-.01-.083.617.031 1.384.602 4.064-4.115 6.668-8.608 4.753-2.108-.899-3.687-4.65-2.523-5.99.91-1.05-3.282-.536-4.544.557-.332.286-.777.51-.99.498-.624-.038-1.238 1.36-1.083 2.466.235 1.662-.336 2.675-1.114 1.979zm-2.865-6.535c.052-.856 1.705-3.712 2.25-3.889.306-.098 1.088-.616 1.737-1.151s1.384-.96 1.633-.944c.248.015.852-.273 1.341-.64.49-.367 1.491-.71 2.226-.76.735-.052 1.337-.117 1.339-.146.104-1.713 16.11.965 19.178 3.216.762.558 1.642 1.123 1.956 1.257.315.133.644.56.734.95.089.389.401.721.695.739.373.023.26.237-.377.714-.958.72-1.665.855-1.632.314.038-.624-3.625-3.673-5.477-4.559-2.781-1.33-12.65-1.944-15.01-.933-.867.371-2.068.85-2.67 1.063-.6.212-1.538.833-2.085 1.378-.545.545-1.175.901-1.398.793-.224-.11-.618.046-.877.343-.259.297-.669.529-.91.514-.243-.015-.5.094-.572.242-.292.597-2.106 1.905-2.081 1.5z"
      style="fill: #000; fill-rule: evenodd; stroke-width: 1.33808" transform="translate(-1156.543 2876.707)" />
  </g>
  <!-- Body -->
  <g id="torso">
    <path
      d="M1279.521-2660.606c.526-2.682 3.218 3.94-13.645 10.833-10.921 4.464-11.024 7.825-16.254 10.536-6.757 3.503-27.215 11.978-32.3 14.419-7.25 3.479-18.786 10.745-21.67 12.523-20.896 12.883-13.379 13.496-19.495 17.421-6.444 4.136-8.37 12.026-11.455 18.99-3.052 6.89-2.358 13.886-5.062 21.527-2.703 7.641-1.725 16.528-1.436 27.022-2.96 28.497-1.636 34.307 1.41 36.53 2.24 1.219 6.765 4.68 12.982 2.52 1.867.21-.445-2.88 10.65-1.804 13.298-3.387 75.365 35.377 128.98 38.258 44.914-5.894 95.745-15.297 130.04-26.531 9.905-8.959 10.398 4.248 10.398-11.443 0-16.562 0-42.433-1.555-64.647-.4-5.704 4.37-12.461-10.922-42.175-3.52-6.839-10.91-10.732-15.864-15.338-4.955-4.605-9.155-7.134-14.442-11.017-5.616-4.372-8.844-6.997-11.667-8.27-4.803-2.168-13.588-12.815-13.588-12.815-4.396-6.816-3.779 4.112-4.82 10.102-.769 4.433-.392 5.34-2.386 11.39-4.804 47.055-103.835 25.218-97.662-21.174-.097-5.59.783-11.383-.237-16.857z"
      style="fill: #000; fill-rule: evenodd; stroke-width: 1.26832" transform="translate(-1156.543 2876.707)" />
  </g>
</svg>