<svg xmlns="http://www.w3.org/2000/svg" xmlns:xlink="http://www.w3.org/1999/xlink" fill="none" viewBox="0 0 138 132">
  <g id="Group">
    <path id="Vector" fill="url(#paint0_linear_990_2221)" d="M68.6 131a60.5 60.5 0 1 0 0-121 60.5 60.5 0 0 0 0 121"/>
    <g id="Group_2" fill="color(display-p3 .1882 .5176 .2314)" fill-opacity="1" opacity=".3">
      <path id="Vector_2" d="M61.6 17.2c2.7 2-7.5 3.1-7.8 6.5-7-14.5-39.7 8.5-41.5 27.6C44.9 32.3 94.8 5 61.6 17.2"/>
      <path id="Vector_3" d="M38.5 49.3c1.4 1.7-5.5 2.4-6.5.4-1 1 .9 1.8.9 3-2-3.3-6-.2-6.2 2-.5 0-3.5-2-3.5-2.3.2 2.3-7.1 7.7-9.8 8.7-.8-1.9-3.5-2.1-2.4.4-.4 1-1.9-3.6-1.9-2.5 1 2-.8 4.3-1 8.7 6.1 3.8 18-12.3 19.6-9.4.1-.9-1.2-2.9-.4-2.6.3 4.3 14.7-3.9 11.2-6.4"/>
      <path id="Vector_4" d="M93 15.1C90.2 44.6 29.3 47 14 77.5c-3.4-.6 11.7-1.3 10.5 2 2.3-.7 85-57 68.5-64.4M34 72.8q.4-.3 0 0m.7-.4c-.5-.8.6-.4 0 0"/>
      <path id="Vector_5" d="M115.5 55.2c-2.4-1.2 11-14.6 4.5-17.5 1.2.6-3.5 1.7-4 .4 1.3 1.1-3 4.5.1 5.2C100.7 40 84.8 65.1 87 80.7c-2.7 0 7.3-2.1 8 .4 8.5-6.9 9.6-27.7 20.5-26M93.9 70.9c0-.2.6.7 0 0m4.4 3.5q.1-.2 0 0m.3-.4c-.8-.6.3-.3 0 0"/>
      <path id="Vector_6" d="M81.7 95.1c0-9-28.2 5.7-29.3 9.2-8.1-3.6-30.7 5.5-24 11.4 8.3-1 53.9-22.8 53.3-20.6"/>
      <path id="Vector_7" d="M128.9 65.8c-1.4-18.2-22.9 29.7-38.7 38.8-1.5-2.8-29 11.6-32.6 13-.4-.7-19.3 3.8-20 4.9 18.5 11 62.1-11.5 73.2-29.7 7.3 8 8.7-32.4 18-27m-81.9 59q.4-.2 0 0m.8-.3c-.3-.9.8-.2 0 0"/>
      <path id="Vector_8" d="M108.4 25.4c-11 12.3-64.9 48.3-65.8 68-3 .1 7-2.5 9.1-.3 18.6-4.7 32.9-47.3 37.8-40 7.8-4.2 24-28 18.9-27.7M53.4 83c-.3-.5 0-.3 0 0m4.2 3.4c-.7-.7.4-.4 0 0"/>
    </g>
    <path id="Vector_9" fill="color(display-p3 .1882 .5176 .2314)" fill-opacity="1" d="M75.1 118a58.8 58.8 0 0 1-50-89.6 60.5 60.5 0 1 0 101.5 59.3A59 59 0 0 1 75 118" opacity=".4"/>
    <path id="Vector_10" stroke="color(display-p3 .149 .0863 .4275)" stroke-miterlimit="10" stroke-opacity="1" d="M68.6 131a60.5 60.5 0 1 0 0-121 60.5 60.5 0 0 0 0 121Z"/>
    <path id="Vector_11" fill="color(display-p3 .4314 .7098 .2314)" fill-opacity="1" d="m68 64.3.4.6c.1.7-.4 0-.6-.2v-.3c-1-1.2-.4.6-.7.7l-.6-1 .3 1q-.5-.4-.6-1c-.6-.3 0 .5-.5 0h-.1v.3c0-.2-.5-.6-.3-.6-.7-.3 0 1.1-.7.5-.2.6.5.7.7 1.8l-1.5-1.6.5.7-.4-.3c.2.6.3.3.5.9-.7-.5-.4.7-1.3-.4.3.6.5.3.5.8-.9-1.2-.1.4-.7 0-.4-.7 0-.5-.6-.9.7 1.2-.5 0-.6.4.6.8-.1.6-.2 1.1-.2-.3-1 0-1.4-.2l-.1-.2c.5 1 .1 1 0 1.3l-.5-1h-.2l.2.8-.4-.7c-.3.2 0 1.1-.7 1 .4.5 1.4 1.4 1.3 2-.2-.2-.6-.8-.6-1v.3l-.3-.7c-.3-.1.2.5 0 .5-.2-.4-.2-.2-.5-.6q.2.1.2-.1-.4 0-.9-.5.4.5.4.8c-.2.2-.5-.5-.8-.7.2.4-.2.2.2.9l-.4-.5c0 .4-.6.5 0 1.2 0 1-1.1.3-1.4.9l-.1-.3c-.1.5-.5.6-.4 1.2 0 0-.5-.3-.6-.6-.1.3 0 .6-.5.4 0-.5-.3-.3 0-.4-.4 0-.7-.4-.6.4q-.6-.8-.7-.3l.5.3q-.1.3-.4.2l-.5-.8c-1.1-.7.1 2.3-1.4.9.3.6.6.2.9 1-.3 0-1.3-1-1.4-1-.6-.2.4 1.4-.2 1.3q.6.6.7 1.5c-.3 0-1-1-1-1.4l.1.1-.2-.6.1.4c-.3-.3-.6 0-.8-.5q0 .6.4.5c-.6-.2-.5.4-1 .3l.3.4c-.7 0 .2.7-.1 1-.5-.3-.6-1-.7-.5-.4-.1-.5-.7-.6-1 0 .7-.8 0-1 0v-.4q0 .3-.2.3l.5.6q-.3 0-.4-.3c.1.5.7 1 .8 1.6-.3-.2-.2.5-.7-.2.5 0-.5-.8-.3-1H46l-.1-.2c-.8-.5.3 1 0 1.2q-.6-.8-.7-.6c.2-.1.5.7.6 1-.5-.1-.1.5-.3.5l.3.1q.2.6-.1.7l-.1-.4c.2.9-1-.5-1 .2-.2-.3-.4-.9-.6-1 0 .8-.7-.4-.8.3.5.5.4.3.5 1l.3-.7.1 1c.2 0 .2-.5.3-.4.1.5 0 .4.4.8-.7-.7-.1.8-.7.3l-.9-1.4c-.7-.5-.2 1.1-1 1l.4.2c.2.6-.3.3-.3.6l-.7-.9c.2.4-.4.2.1 1.2l-.6-.5c-.6 0 .3 1.6-.2 1.7l-.5-1.4q-.3-.1 0 .4c-.3-.3 0 .9-.4.5q.2.5.1.8L40 79q0 .3.4 1c-1.3-1.3-1.1.7-2.2-.4l-.7.8v-.2c-.7-.3.5 1.6-.2 1.3-.6-.7 0-.6-.3-.8-1-1.6-.4.5-1.2-.3v-.2c-.5-.4-.1 1-.6 1V81q0 1.4-.4 1.9c-.2-.7 0-.5-.4-1-.1 0 .6 1 .4 1.3q-.5-.3-1.1-1.2l.3-.2c-.7-.8-.4.2-.6.2l-.2-.4c-.4.3.1 1.3-.4 1.5l.2.3c.3 1-.5-.5-.3.4l-.6-1c0 .3-.1 1.3-.3 1.6l-.1-2q-.4.3-.4 1 0-.3.2-.3.2 1.3-.2 1.6c-1-2-1.2 0-2.2-1.5-.2 1-1.3.3-2 .8 1 1.4-.1.1.7 1.7h-.3l.1.1-1-.7c-.4-.4 0-.5-.2-.8q-.4-.2-1-1 .5 1 0 .8l.7.6c-.1 1.1-1.1-1-1.2 0v-.6c-.2.4-1 .5-.7 1.9 0-.2-.4-.6-.3-.8-.7.1-.7 2-1.6 1.5l-.1-.5c0 .2.1.9-.2.5l-.2-.4c0 .2 0 .9-.2.7l-.1-.5c-.8-.2-.4 1.5-.8 2q-.9-1.4-1.5-1.4V87c-.8.1-.8 1.5-1.3 2.2-1-1-1.6 0-2.5-.3l.3 1c-.3-.1-.1 1-.5 0-.6-1-.7-.6-1-.5l.6 1.4c-1.6-1.8-1.4 1.4-2.5-.2q0 .5-.3.9l-.3-.8a60 60 0 0 0 3.1 6.8c.2 0-.2-1 0-1.3l.3.8v-1l.5 1 .1-.3-.4-.6c.2-.4 1 .3 1.2.7l.4-1v.6c.1-.6.5 1 .5 0l-.2-.6q.5.5 1 0l.1.5c.6 0 1-.7 1.6-1-.3-.2-.7-1.2-.6-1.3l.5.8c-.1-.6-.3-.2-.4-1 .3 0 .6 1 .6 1.3l.1-.5.3.8c-.2-.6.8.6.6-.4v.3c.7-.3.8-.7 1.3-1-.4-.7 0-.6-.2-1.3.4.1 1 .5 1.5.2q0-.5-.3-1.1c.3.6.7.4.7 1 .5-.4.6-.5 1-1.3l-.4-.6q.2 0 .5.5c.3-1.2 2.6 1.2 2.5-.4l.3-1c.3 0 0 .6.4 1 .1-1.5 1.1-.4 1.3-1.4 1.3 1.8 1.3-.8 2.5.2l-.3-.5c0-.5.3.2.5.2q-.4-.3-.4-.6c1-1.1 2.8-.6 4.2-.8.5-.1-1-2.5.2-1.7l.2 1c.4-1.5 1.9-1 2.3-2.3q.2.4 0 .5c.6.5.8-.3.5-.8q.3.2.5.6c.4.3 0-1 .5-.5v.3c0-.3.6-.2.1-.8.5.1.5-.7 1-.4-.3-.9.7 0 .2-1 .6 1 1 .5 1-.1 0 .4.3.2.5.8q.4-.3 0-1c1.2 1 .2-1.7 1.4 0l1.2-2.4c.7 1-.6.5.1 1.6.3-.8.1-2 .9-2q.3.2.2.8c.3-.8 1.2-.6 1.4-1.5v.3c.1 0 .4 0 0-.4v.2c-.6-.7-.5-1.8-.7-2.2.7 1.5.7 0 1.5 2l-.2-.7q.2 0 .4.7c.2-.5-.2-1 .1-1.2l.3.7q-.3-1 .1-1.1.3.3.2.4c.4-.4 0-1.8.8-1.6.5 1.1.4.2 1 1.1l.1-.4-.4-.4c.3-.1 0-1 .5-.8v.5l.4-.4-.5-.2c0-.7-.7-1.2-.2-1.1 0 .1.2-.2.7.3q-.3-.7.2-.6l.7 1.2c-.4-.9.4-.6 0-1.5l.5.8-.3-.7q.3 0 .6.6c.4 0-.9-1-.2-.8l.1.3c.6 0 .5-1 1.1-.8.7.8-.2.4.4 1 .5-.4.4-1.7 1-1.8-.8-1.4.7.3.6-.5l.3.7c.5 0 .5-.8.8-1.6l.1.4c.4.2.7-.2 1-.2-.2-.4 0-.4-.4-.8 2 1.4.7-1.8 2.3-.7v.3l.4-.6c-.4-.5-.3-.3-.7-.6q-.3-.7 0-.9.2.9.8 1.2l-.3-.6c1 .8-.7-1.1.1-.7l.2.3V68c.6.6.1.4.5 1 .2-.3-.4-1.6.2-1v.5c.6.6.5.4.8.4l.5.1-.2-.1c-.9-1.9.3-.7 0-2 .3 1.2.3.6.7 1.3l.7.5c-.3-.6.6.3.2-.7.2.2.2 0 .6.5q-.2-.4-.6-.7c-.2-1 1.5.5 1.2-1 0-.7-.4-1.5-.3-2.2.4.3.5 1 .5 1q.7.2.6-.4 0 .2.5.6c0-.2-.5-1 0-.8q.1.6.4 1v-1.2l.4 1c0-.3.3-.7 0-1.4z"/>
    <path id="Vector_13" fill="color(display-p3 .4314 .7098 .2314)" fill-opacity="1" d="m126.2 52.2-1.5-1 1.2.4v-.2a60 60 0 0 0-3.2-7.9l-.4-.1c0 .3.5 1 .5 1.4q-.4-.4-.8-.4c.3.6-.5.9-1.2 1l.7.5-.5-.2c-.4 0 .4.3.7.5l-.7-.3c.5.6 1 1.5 0 1.4l-.1-.2c-.4.1 1.4 1 .6 1l-.1-.2c-.6.4-.1 1.2-1.5 1 1.1.7-.7.3.8 1.1-.9 0-1.1-.3-1.8-.1l1 .8-.8-.4.7.6-1-.4.2.2.6.2c.3.4-.8.2-1.2 0l.5.8-.6-.4c.7.6-.9-.4-.2.2l.6.3q-.7-.1-.6.4l-.5-.3c-.3.3 0 .9-.3 1.2.3 0 1.2.5 1.3.7l-.9-.4c.5.3.4 0 1 .5-.2.1-1-.4-1.3-.6l.2.3q-.2 0-.6-.4c.4.4-1-.1-.2.5l-.2-.2-.2 1c.8.4.5.5 1 .9-.3 0-1 0-1 .3q.3.4.9.7c-.7-.3-.8 0-1.1-.4-.1.4-.1.5.2 1.2q.4 0 .6.2l-.7-.1v-.1c.7 1-2.5 0-1.3 1.1l.4.7c-.2.1-.4-.4-.9-.5.8 1-.5.6 0 1.3-2-.8-.4 1-1.8.7l.5.2c.3.3-.4 0-.5 0q.5 0 .7.3c0 1-1.6 1.1-2.5 1.7-.2.2 2.2 1.5 1 1.2l-.8-.6c.6 1.2-.7 1.1-.3 2.2l-.3-.4c-.7-.2-.3.4.1.7l-.7-.3c-.4-.1.6.7 0 .4l-.2-.2c.2.3-.3.3.4.7-.5 0 0 .6-.5.5.7.6-.6 0 .5.8-1.1-.7-1.1-.2-.7.3l-.9-.5q-.1.2.6.8c-1.4-.6.7 1.2-1 .2q.4 1.2.4 2c-1.1-.7.1-.4-1-1.2.2.7 1 1.5.5 1.7q-.4-.2-.6-.5c.2.7-.6.6-.3 1.3l-.2-.2s-.3 0 .2.3v-.1c.7.4 1.2 1.3 1.6 1.6-1.3-1.1-.6 0-2.2-1.4l.6.6q-.3 0-.7-.5c.1.4.7.7.5 1l-.5-.6q.7.7.4 1l-.3-.4c-.1.4.8 1.4.2 1.4-1-.8-.4-.1-1.3-.7l.1.3.5.3c-.1.1.4.7 0 .6l-.3-.3v.4h.4c.4.5 1.1.9.7.9l-.7-.2q.5.5.2.5l-1.1-.8c.6.6-.1.5.6 1.2l-.7-.6.5.5-.7-.4c-.2.1 1.2.8.5.6l-.2-.2c-.4.1 0 .8-.4.8-1-.6-.1-.4-.9-.8 0 .4.5 1.5 0 1.6h.2c1.2 1-.8-.2-.3.4l-.5-.4c-.4 0-.1.6 0 1.3l-.3-.3q-.4 0-.6.2c.2.3.1.3.6.6-2-1 .3 1.6-1.5.8l-.2-.3v.6l.8.4q.5.5.4.7-.4-.6-1.2-.8.3 0 .5.4c-1-.6 1 .8.2.6l-.2-.3.2.6c-.7-.4-.2-.3-.7-.7 0 .2.9 1.2.2.8l-.2-.5c-.8-.4-.6-.2-.8-.2h-.5.3c1.4 1.5 0 .6.8 1.6-.8-1-.5-.5-1.2-1q-.4-.1-.6-.4c.4.5-.6-.2 0 .6l-.6-.4q.1.3.7.5c.5.9-1.3-.2-.6 1 .2.5.9 1.2 1 1.7q-.7-.5-.7-.7-.5-.2-.3.3l-.6-.5c0 .2.7.8.3.6l-.7-.8.4 1q-.5-.4-.7-.8-.2.4.6 1.2h.3c0 .2-.5-.3-.6-.5-.4-.5.3 0 .6.2v.2c1.3 1 .1-.5.3-.6l.9.9-.6-.8c.2.1.8.5.8.7.6.3-.2-.3.4 0l.1.1-.1-.3c.1.2.6.5.4.5.7.2-.3-1 .4-.4 0-.5-.6-.6-1.2-1.5l1.8 1.3-.6-.6.4.2-.7-.7c.7.4 0-.6 1.1.3-.4-.5-.5-.2-.7-.7 1.2 1 0-.3.6 0 .6.5.1.4.8.7-1-1 .4 0 .3-.4-.8-.6-.1-.5-.2-1 .3.3.7 0 1.2.1l.1.2c-.8-.7-.5-.8-.5-1q.6.4.8.8l.1-.2-.4-.5.6.5c.1-.2-.4-1 .2-.8-.6-.5-1.8-1.1-2-1.7l1 .9v-.3l.4.6c.3 0-.4-.4-.3-.5l.7.5q-.2 0 0 .1l.8.3-.6-.6c0-.2.6.4.9.5-.3-.3.1-.2-.6-.7l.6.3c-.2-.3.2-.5-.5-1h-.1c-.4-.8.8-.3.8-.8l.2.2c-.1-.4.2-.6-.2-1q.2-.1.7.4c0-.3-.3-.5.3-.4.2.4.3.2.1.4.4 0 .7.2.3-.5q.8.6.7.2l-.5-.2q0-.2.2-.2l.7.6c1.2.3-1-1.9.7-1-.5-.5-.5 0-1-.6l1.4.5c.6.1-1-1-.5-1-.3-.2-1-.7-1.1-1.1.2-.1 1.3.6 1.4.9h-.2l.5.4-.3-.2q.4-.2 1 .2l-.7-.4c.5.1.3-.3.7-.3l-.5-.3c.6-.1-.4-.6-.4-.9.5.2 1 .8.8.3q.6.2 1 .7c-.5-.6.5 0 .7-.1l.2.2v-.2l-.6-.4.4.1-1.4-1c.4 0 0-.5.7 0-.5 0 .7.5.7.8l.1-.2.2.2c.8.2-.8-.7-.6-1q.8.6.8.4l-1-.7c.5 0 0-.4 0-.5h-.2q-.5-.3-.3-.5l.3.3c-.6-.7 1 .2.6-.3q.7.3 1 .6c-.4-.6.8.2.5-.4-.6-.3-.5-.2-1-.7l.2.6-.7-.8.1.5-.7-.6c.9.4-.3-.6.3-.4l1.4 1c.8.1-.4-1 .2-1l-.3-.1c-.5-.5 0-.3 0-.6q.5.5 1 .6c-.4-.3.1-.3-.8-1l.7.3c.4 0-1.1-1.2-.8-1.3q.8.4 1.1 1 .2-.2 0-.4c.2.2-.6-.7 0-.4l-.6-.6.2.1c-.2-.1-.2-.3-.8-.6 1.7.7.4-.8 1.8-.2v-.8l.2.1c.6 0-1.3-1-.6-1 .9.4.3.5.7.6 1.6 1 0-.5 1-.1v.1c.7.2-.3-.7 0-.9l.2.2q-.9-1-.9-1.5c.6.4.3.3 1 .6 0-.1-1-.6-1.1-.9l1.4.6v.2c.9.5 0-.2.3-.2l.3.2c.1-.4-.9-1-.6-1.2l-.3-.2c-.9-.7.6.2 0-.4l1 .5c-.2-.2-.7-1-.7-1.2l1.2 1.4q.2-.2-.3-.8c0 .1.3.3 0 .3q-1-.9-.7-1.2c1.8 1.1.8-.3 2.4.4-.5-.8.7-.6.9-1.2-1.6-.7 0-.1-1.5-1v-.1h.1l1.1.2c.5.1.3.3.6.4q.5 0 1.2.4-.8-.4-.4-.6l-.8-.2c-.7-.8 1.4.5.8-.3l.4.4c-.2-.4.4-.7-.7-1.5q.4 0 .7.4c.4-.4-.8-1.7.1-1.6l.4.2c-.1 0-.7-.5-.2-.4q.2.3.4.2c-.1 0-.6-.5-.3-.5l.4.3c.7-.1-.7-1.2-.8-1.6q1.6.6 2 .4c.5-.4-.4-1.3-.6-2 1.3.4 1-.6 1.9-.7-.3 0-1-.5-1-.6.3 0-.6-.7.4-.1 1 .4.9 0 1 0l-1.4-.8c2.2.6-.1-1.5 1.8-.9l-.5-.6.7.3q.5-.2.5-.7zm-3.2-7.5v.2zm-.1.6V45l.6.3z"/>
    <path id="Vector_14" fill="color(display-p3 1 .9294 .7176)" fill-opacity="1" d="M93.3 55.3c-.8 1-1.8 2-3 2-1 0-1.7-.6-2.5-.9a4 4 0 0 0-5 3q-.2 1-.6 1.8c-1 1.1-2.7-.2-4-.8A4 4 0 0 0 73 63c-1.7-2.6-5.9-2.5-8.3-.5s-3.4 5.2-3.7 8.3c-2-4-8.5-4.8-11.5-1.3-.6.7-1.1 1.6-2 1.8q-1 0-2-.3-3-1.2-6-.5c-2.1.6-4 2.2-4.3 4.3a6 6 0 0 0-7-.8 7 7 0 0 0-3.5 6.2c-2.2-2-6.1-1.8-8 .5q-.8 1-1.7 1.7c-1.7 1-5.5-2.8-7-4 0 0-9 5.7-6.1 18 .5 2.4 2 5.3 4.3 4.6-.4 3.5 2.2 7 5.6 8.1a11 11 0 0 0 10-2.2c1-.8 2.1-1.9 3.4-1.7q1 .2 1.8.8 2.2 1.6 4.8 1.8c1.7 0 3.5-.7 4.3-2.2.4-.7.5-1.7 1.2-2.1 1-.7 2.4.1 3.6.6a6 6 0 0 0 7.8-4.2A10 10 0 0 0 60.5 92c4.4 0 8.4-4.2 8.2-8.6 4 .6 8.3-2.3 9-6.3 3.3 0 6.1-3.4 5.6-6.5 1.1 0 2-1 2.9-1.8q12-13.5 21-29.3z"/>
    <path id="Vector_15" fill="color(display-p3 1 .7882 .5686)" fill-opacity="1" d="M91.4 62a46 46 0 0 1-8.4 6.6c-2.6 1.5-5.7 2.7-8.6 2-.7 3.3-3 7-6.4 6q.1 2.3-1 4.1-.6.8-1.3.4c-1.5-1-3-1.6-4.6-.6s-2.5 2.5-3.4 3.9c-.3.6-1.6.6-1.7-.2q-.2-2-1-3.8c-.5-.9-1.6-1.8-2.6-1-1.4 1.2-1.2 4.3-1.2 6 0 2 .5 4.9-1.6 6.2-2 1.2-4 .5-5.4-1q-.5 2.9-3 4.3a4 4 0 0 1-4-.4q-1.5-1.3-2.4-3.3c-1.1-2.2-3.7-5.6-6.2-3.2-2.1 2-2.8 5.5-2.9 8.3 0 1.2-1.5 1.3-1.9.3-.5-1.6-3-5.7-4.9-3.3-1.4 1.6-1.4 4-2.2 5.9-.3.6-1.4 1-1.8.2q-1-2.7-2.5-5.2c-.3-.6-1-1.6-1.7-1.6-.9 0-1.5 1.3-1.8 1.9-.4.7-1.6.5-1.8-.3q-.7-4.2-.8-8.5c-1.5 0-2.3-1.3-2.4-3a17 17 0 0 0-2 13.8c.5 2.3 2 5.2 4.3 4.5-.4 3.5 2.2 7 5.6 8.1a11 11 0 0 0 10-2.2c1-.8 2.1-1.9 3.4-1.7q1 .2 1.8.8 2.2 1.6 4.8 1.8c1.7 0 3.5-.7 4.3-2.2.4-.7.5-1.7 1.2-2.1 1-.7 2.4.1 3.6.6a6 6 0 0 0 7.8-4.2A10 10 0 0 0 60.5 92c4.4 0 8.4-4.2 8.2-8.6 4 .6 8.3-2.3 9-6.3 3.3 0 6.1-3.4 5.6-6.5 1.1 0 2-1 2.9-1.8q4.4-5 8.4-10.2z"/>
    <path id="Vector_16" stroke="color(display-p3 .149 .0863 .4275)" stroke-miterlimit="10" stroke-opacity="1" d="M93.3 55.3c-.8 1-1.8 2-3 2-1 0-1.7-.6-2.5-.9a4 4 0 0 0-5 3q-.2 1-.6 1.8c-1 1.1-2.7-.2-4-.8A4 4 0 0 0 73 63c-1.7-2.6-5.9-2.5-8.3-.5s-3.4 5.2-3.7 8.3c-2-4-8.5-4.8-11.5-1.3-.6.7-1.1 1.6-2 1.8q-1 0-2-.3-3-1.2-6-.5c-2.1.6-4 2.2-4.3 4.3a6 6 0 0 0-7-.8 7 7 0 0 0-3.5 6.2c-2.2-2-6.1-1.8-8 .5q-.8 1-1.7 1.7c-1.7 1-5.5-2.8-7-4 0 0-9 5.7-6.1 18 .5 2.4 2 5.3 4.3 4.6-.4 3.5 2.2 7 5.6 8.1a11 11 0 0 0 10-2.2c1-.8 2.1-1.9 3.4-1.7q1 .2 1.8.8 2.2 1.6 4.8 1.8c1.7 0 3.5-.7 4.3-2.2.4-.7.5-1.7 1.2-2.1 1-.7 2.4.1 3.6.6a6 6 0 0 0 7.8-4.2A10 10 0 0 0 60.5 92c4.4 0 8.4-4.2 8.2-8.6 4 .6 8.3-2.3 9-6.3 3.3 0 6.1-3.4 5.6-6.5 1.1 0 2-1 2.9-1.8q12-13.5 21-29.3z"/>
    <path id="Vector_17" fill="color(display-p3 1 .9294 .7176)" fill-opacity="1" d="M135 34.9c-8.7-9-17.6-1.4-17.6-1.4-2.4 2-.2 6.5-2.4 8.6q-1.4 1-3.2 1.4a9 9 0 0 0-4.8 12.4c-4.7 2.2-6.3 9.3-3 13.3-2.5 1.5-5.1 3-7 5.4-1.7 2.3-2.6 5.6-1.4 8.3l-23.3 20q-1 1-2.4 1.3c-.9 0-1.8-.5-2.7-.2-1.4.4-1.4 2.4-1.2 3.8a8 8 0 0 0-8.2 6.4c2.5.5 3.6-3.7 6.2-3.9q1.5.2 2.8 1c4.3 1.9 10-1.4 10.4-6 2.2.8 4.9.5 6.8-1s2.8-4 2.4-6.5c2.9 1 6.4-1 7.1-3.8a12 12 0 0 0 15.7 2.8 12 12 0 0 0 3-15.7c3 .2 6-.5 8-2.6 2.2-2 3-5.3 1.6-7.9 2.7.5 5.2-2.1 5.7-4.9.5-2.7-.5-5.5-1.5-8 4-.1 6.7-4 8.2-7.7 2-4.8 4.5-11.4.9-15.1"/>
    <path id="Vector_18" fill="color(display-p3 1 .7882 .5686)" fill-opacity="1" d="M134.5 42.5a13 13 0 0 1-6 5.5c-1.5.5-4.6.2-5.6 1.7-.9 1.3 0 4.4 1 5.5.6.7-.3 2.1-1.2 1.5-2.8-2.2-1.5 5.7-1.4 6.8.3 2.6-4-2.3-5-.7-1.4 2.4 2 6.6 1.5 9.3a7.2 7.2 0 0 1-9.2 5.8c.7 4 1 8.8-1.7 12-4.3 4.9-9.2.4-13.3-2-1.4 2-4 7.2-7.2 4.9-1 2.3-5.2 11.3-9 7.5-1.2 2.5-2.2 5.3-4.6 6.5-1.9 1-5.6-.3-4.5-2.9-2.2-.3-2.6 2.2-2.3 4a8 8 0 0 0-8.2 6.3c2.5.5 3.6-3.7 6.2-3.9q1.5.2 2.8 1c4.3 1.9 10-1.4 10.4-6a6.8 6.8 0 0 0 9.2-7.5c2.9 1 6.4-.9 7.1-3.8a12 12 0 0 0 15.7 2.8 12 12 0 0 0 3-15.7c3 .2 6-.5 8-2.6 2.2-2 3-5.3 1.6-7.9 7.4 1.2 5.6-9.2 4.2-13 7.3-.1 11.8-13.5 10.8-19.4q-1 2.3-2.3 4.3"/>
    <path id="Vector_19" stroke="color(display-p3 .149 .0863 .4275)" stroke-miterlimit="10" stroke-opacity="1" d="M135 34.9c-8.7-9-17.6-1.4-17.6-1.4-2.4 2-.2 6.5-2.4 8.6q-1.4 1-3.2 1.4a9 9 0 0 0-4.8 12.4c-4.7 2.2-6.3 9.3-3 13.3-2.5 1.5-5.1 3-7 5.4-1.7 2.3-2.6 5.6-1.4 8.3l-23.3 20q-1 1-2.4 1.3c-.9 0-1.8-.5-2.7-.2-1.4.4-1.4 2.4-1.2 3.8a8 8 0 0 0-8.2 6.4c2.5.5 3.6-3.7 6.2-3.9q1.5.2 2.8 1c4.3 1.9 10-1.4 10.4-6 2.2.8 4.9.5 6.8-1s2.8-4 2.4-6.5c2.9 1 6.4-1 7.1-3.8a12 12 0 0 0 15.7 2.8 12 12 0 0 0 3-15.7c3 .2 6-.5 8-2.6 2.2-2 3-5.3 1.6-7.9 2.7.5 5.2-2.1 5.7-4.9.5-2.7-.5-5.5-1.5-8 4-.1 6.7-4 8.2-7.7 2-4.8 4.5-11.4.9-15.1Z"/>
    <path id="Vector_20" fill="color(display-p3 1 .9294 .7176)" fill-opacity="1" d="M90 5.5c-2.6-4.4-8.7-5.8-13.5-4.3a26 26 0 0 0-12 9.1l5.6-.6v4.1q.1.9-.4 1.5-.7.5-1.7.2a7 7 0 0 0-6.6 2.4c-1.5 1.9-1.5 5 .1 6.7-2.1-.6-4.3 1.4-4.7 3.6-.5 2.1.3 4.4 1.1 6.5-2.6-2.3-7.5-.3-7.8 3.2l-4.9.6c-.6-3-5.4-3.5-7.4-1-2 2.4-1.4 6 .4 8.7-2.2-.2-4.4-.4-6.3.5-2 .9-3.3 3.3-2.2 5.2-2.2-.7-4.6 0-6.3 1.4a21 21 0 0 0-4.5 5q4.8.6 9.1-1.4a9 9 0 0 0 8.8 5.3c3.7-.2 7-2.7 8.2-6.2 4.2 2.6 10.6-.4 11.3-5.3 2.2 1.4 5.2.3 6.8-1.7 1.7-2 2.3-4.5 2.8-7 4.3.5 8.5-4.2 7.4-8.4q1.5.4 3-.2c8-2.2 13.4-10.2 14.8-18.4.5-3.2.5-6.7-1.1-9.5"/>
    <path id="Vector_21" fill="color(display-p3 1 .7882 .5686)" fill-opacity="1" d="M87.7 21q-1.6 1.4-3.6 2-1.8.4-3.6-.2-.5 1.1-2 .7c-1-.3-1.8-1.6-2.9-1.6-2.6 0-2.6 5.3-2.8 7-.1.6-1 .9-1.4.6q-1.1-.9-2.4-1.1-.6-.1-.8.4c-.6.9-.5 2.3-.6 3.4q0 2.2-.3 4.5 0 2-1.5 3.4-1.4 1-2.9.6c0 2.3-1.2 4.8-3.5 5.4q-2.2.4-3.9-1-.9-1-2-.9-1.5.5-1.7 2c-.2 1-1.4 1-1.8.3-.7-1.3-2-2.7-3.6-1.6-1.5 1-1.3 3-.7 4.5.4.7-.7 1.5-1.4 1-.5-.3-1.4-1-2.1-.9q-.7.5-1 1.3c-.4 1.5-.5 3-1.5 4.2a5 5 0 0 1-5.6 2 9 9 0 0 1-3.3-1.6c-.9-.6-1.7-1.8-2.9-1.8-1.7 0-3.4.8-5.1.5h-.3a26 26 0 0 0-3.6 4.2q4.8.6 9.1-1.4a9 9 0 0 0 8.8 5.3c3.7-.2 7-2.7 8.2-6.2 4.2 2.6 10.6-.4 11.3-5.3 2.2 1.4 5.2.3 6.8-1.7 1.7-2 2.3-4.5 2.8-7 4.3.5 8.5-4.2 7.4-8.4q1.5.3 3-.2c7-2 11.8-8.1 14-15Q89 19.9 87.7 21"/>
    <path id="Vector_22" stroke="color(display-p3 .149 .0863 .4275)" stroke-miterlimit="10" stroke-opacity="1" d="M90 5.5c-2.6-4.4-8.7-5.8-13.5-4.3a26 26 0 0 0-12 9.1l5.6-.6v4.1q.1.9-.4 1.5-.7.5-1.7.2a7 7 0 0 0-6.6 2.4c-1.5 1.9-1.5 5 .1 6.7-2.1-.6-4.3 1.4-4.7 3.6-.5 2.1.3 4.4 1.1 6.5-2.6-2.3-7.5-.3-7.8 3.2l-4.9.6c-.6-3-5.4-3.5-7.4-1-2 2.4-1.4 6 .4 8.7-2.2-.2-4.4-.4-6.3.5-2 .9-3.3 3.3-2.2 5.2-2.2-.7-4.6 0-6.3 1.4a21 21 0 0 0-4.5 5q4.8.6 9.1-1.4a9 9 0 0 0 8.8 5.3c3.7-.2 7-2.7 8.2-6.2 4.2 2.6 10.6-.4 11.3-5.3 2.2 1.4 5.2.3 6.8-1.7 1.7-2 2.3-4.5 2.8-7 4.3.5 8.5-4.2 7.4-8.4q1.5.4 3-.2c8-2.2 13.4-10.2 14.8-18.4.5-3.2.5-6.7-1.1-9.5Z"/>
  </g>
  <defs>
    <linearGradient id="paint0_linear_990_2221" x1="16.2" x2="131.7" y1="137.6" y2="-10.5" gradientUnits="userSpaceOnUse">
      <stop offset="0" stop-color="color(display-p3 .4667 .8745 0)"/>
      <stop offset="1" stop-color="color(display-p3 .6941 .8392 .3529)"/>
    </linearGradient>
  </defs>
</svg>
