<!-- <svg xmlns="http://www.w3.org/2000/svg" width="358" height="358" fill="none" viewBox="0 0 358 358">
  <g filter="url(#a)">
    <circle cx="179" cy="179" r="145.5" fill="#afd84b" fill-opacity=".1"
      style="fill:#afd84b;fill:color(display-p3 .6863 .8471 .2941);fill-opacity:.05"
      transform="rotate(-88.7 179 179)" />
  </g>
  <path fill="#72b83a" fill-opacity=".2"
    d="M109.8 216.9a42 42 0 0 1 1.8-79l3-1a42 42 0 0 0 25.4-24.2l1.1-3a42 42 0 0 1 79 1.9l1 3a42 42 0 0 0 24.2 25.4l3 1.1a42 42 0 0 1-1.9 79l-3 1a42 42 0 0 0-25.4 24.2l-1.1 3a42 42 0 0 1-79-1.9l-1-3a42 42 0 0 0-24.2-25.4z"
    style="fill:#72b83a;fill:color(display-p3 .4471 .7216 .2275);fill-opacity:.2" />
  <path fill="#72b83a" stroke="#000" stroke-width="2.7"
    d="M118 207.2a31.6 31.6 0 0 1 1.3-59.2l7.7-2.7c9.5-3.2 17-10.5 20.8-19.8l3-7.5a31.6 31.6 0 0 1 59.2 1.3l2.7 7.7c3.2 9.5 10.5 17 19.8 20.8l7.5 3a31.6 31.6 0 0 1-1.3 59.2l-7.7 2.7a34 34 0 0 0-20.8 19.8l-3 7.5a31.6 31.6 0 0 1-59.2-1.3l-2.7-7.7a34 34 0 0 0-19.8-20.8z"
    style="fill:#72b83a;fill:color(display-p3 .4471 .7216 .2275);fill-opacity:1;stroke:#000;stroke-opacity:1" />
  <path fill="#afd84b"
    d="M176 237.3c8.1.2 6.6 5.4 14.5 9.5s-6.8 9-15 8.8c-3.2.8-11-4.5-14.4-9.5.1-5 6.8-9 14.9-8.8M129.4 175c4.2 7-1 8.4-.2 17.3s-11.2-.8-15.4-7.8c-2.5-2.3-2.2-11.7.1-17.3 4.4-2.6 11.3.8 15.5 7.8"
    style="fill:#afd84b;fill:color(display-p3 .6863 .8471 .2941);fill-opacity:1" />
  <path fill="#fcf2d7" d="M232 178.5c-5.7 3.9 3 20.3 4.8 23.1 18.1 5 26.1-64.6-4.8-23"
    style="fill:#fcf2d7;fill:color(display-p3 .9882 .949 .8431);fill-opacity:1" />
  <rect width="80.9" height="80.9" x="138.3" y="138.9" fill="#000" rx="17.3" style="fill:#000;fill-opacity:1"
    transform="rotate(-.4 138.3 139)" />
  <g fill="#fff">
    <path
      d="M165.2 152.6q-1 2.1-.1 3.4l.6 1.5c.2.9 3.4 4.3 4 4.3l1.7.6c1.2.6 1.8.7 5.7.6 3.7 0 4.8-.2 6.8-.7 3-1 3.6-1.2 5.5-3.2q3.5-3.6 3.6-7.6c0-2.4-.3-3-1.8-4l-1.3-.9-5.4.1a38 38 0 0 0-11.4 1.5c-2.2.4-5.8 1.8-6.8 2.7q-.6.6-1 1.7M166.1 177a56 56 0 0 0 1.5 14.3 94 94 0 0 0 3 13.9q.8 3.2 2.7 4.8c.9.7 1 .7 4.7.7 2.2 0 4.6-.2 5.5-.4 2-.5 4.4-2 4.8-2.9 1.1-2.1 1.4-3 1.8-6.3l1-6.5c.7-4.5 1.2-18.2.9-22.2-.3-3.5-.6-4.3-2-5.2-.7-.5-1.6-.5-6.2-.5-5.2 0-5.6.1-9 1-4.9 1.3-6.7 2.2-7.8 4-.8 1.4-.9 1.5-.9 5.3"
      style="fill:#fff;fill-opacity:1" />
  </g>
  <defs>
    <filter id="a" width="318.6" height="318.6" x="19.7" y="19.7" color-interpolation-filters="sRGB"
      filterUnits="userSpaceOnUse">
      <feFlood flood-opacity="0" result="BackgroundImageFix" />
      <feBlend in="SourceGraphic" in2="BackgroundImageFix" result="shape" />
      <feGaussianBlur result="effect1_foregroundBlur_1160_1027" stdDeviation="6.9" />
    </filter>
  </defs>
</svg> -->
<svg xmlns="http://www.w3.org/2000/svg" xmlns:xlink="http://www.w3.org/1999/xlink" fill="none" viewBox="0 0 127 127">
  <path fill="url(#paint0_linear_1097_941)" d="M63.5 126.4a63 63 0 1 1 .2-126 63 63 0 0 1-.2 126" />
  <path fill="color(display-p3 .149 .0863 .4275)"
    d="M63.5 1a62.4 62.4 0 1 1 0 125 62.4 62.4 0 0 1 0-125m0-1a63.5 63.5 0 1 0 .2 127 63.5 63.5 0 0 0-.2-127" />
  <path fill="#fff"
    d="M88 12c0 4.2 0 3.8-20.5 1.2-11.2-1.4-20.6 2.7-20.5-1.5 0-4.2 9.2-7.6 20.6-7.5C78.9 4.3 88 7.8 88 12m-48.1 2.3c0-1.6-1.7-2.9-3.9-2.9-2.1 0-3.9 1.3-3.9 2.9s1.7 2.9 3.9 2.9c2.1 0 3.9-1.3 3.9-2.9"
    opacity=".5" />
  <path fill="url(#paint1_linear_1097_941)"
    d="M101 26.1a23 23 0 0 0-9.9 6.5q-3.7 4.6-7 9.5c-6 8.5-13.8 16-24.5 17.9-9.6 1.8-19.4-.6-29.1-1-5-.2-10.3 0-15 1.5a22 22 0 0 0-9.3 6.2 36 36 0 0 0-4.4 6A62.5 62.5 0 1 0 111.9 24q-5.7.4-11 2.1" />
  <path fill="color(display-p3 .1882 .5176 .2314)" d="M1.8 72.6q.1 1.5.4 2.9V72zm.4-.6.9-1.4zm4.1 16.4v.2l-.2-.6z"
    opacity=".3" />
  <path fill="color(display-p3 .5059 .2039 .4706)"
    d="M47.6 111.2q-7-2.6-13-6.5a28 28 0 0 1-20-5.6 36 36 0 0 1-8-10l-.2-.5A62.4 62.4 0 0 0 121.8 86a62.5 62.5 0 0 1-74.2 25.2"
    opacity=".5" />
  <path fill="color(display-p3 .4078 .2275 .502)"
    d="M6.2 66.7a36 36 0 0 0-4 5.3v3.5a62 62 0 0 0 4 13l.4.6q3.1 5.8 8 10c5.8 5 13.8 6.1 21.3 5.5a81 81 0 0 0 22.7-5.5q10.7-3.9 18.9-11.7a59 59 0 0 0 11.3-16.5 173 173 0 0 0 8-21A70 70 0 0 1 107.2 29q2.1-2.6 4.5-5-5.6.5-10.8 2.1a23 23 0 0 0-9.8 6.5q-3.7 4.6-7 9.5c-6 8.5-13.8 16-24.5 17.9-9.7 1.8-19.4-.6-29.1-1-5-.2-10.3 0-15 1.5a22 22 0 0 0-9.3 6.2"
    opacity=".3" />
  <path fill="color(display-p3 .4078 .2275 .502)"
    d="M35.9 104.6a84 84 0 0 0 30-8.8l2.8-2q8.6-6 13.3-15.4c1.3-2.7 3-6.3 1.9-9.3-.9-2.3-3.6-2.6-5.7-3-5.2-1.2-10.4-2.4-15.7-2.6q-4.7-.3-9.2 1 .1.4-.4.8l-2.6 1.8q-6.8 4.4-13.2 9.3a42 42 0 0 0-11.2 12.4c-2.3 4.2-3 9.8 0 13.8q.8 1.2 2 1.9 4 .4 8 .1"
    opacity=".3" />
  <path fill="color(display-p3 .149 .0863 .4275)"
    d="M111.7 24q-2.4 2.4-4.5 5-7 9.6-10.4 21a173 173 0 0 1-8 20.9Q84.6 80 77.5 87.4 69.2 95 58.5 99a83 83 0 0 1-26 5.7c-6.5 0-13-1.5-18-5.7a36 36 0 0 1-7.9-10l-.3-.7a62 62 0 0 1-4-13L2.1 72q1.7-2.9 4-5.3 3.8-4.2 9.2-6.2a38 38 0 0 1 15-1.5c7.2.3 14.3 1.7 21.4 1.7q3.9 0 7.8-.7c10.7-2 18.4-9.4 24.5-17.9q3.3-5 7-9.5 4-4.5 9.8-6.5 5.2-1.7 10.8-2m0-1c-3.1.3-7.1.8-11 2.2A24 24 0 0 0 90.3 32a65 65 0 0 0-5.1 6.8l-2 2.8Q72.6 56.8 59.4 59q-3.4.7-7.6.7-6-.1-11.9-.9a146 146 0 0 0-12.7-.9 39 39 0 0 0-12 1.7A23 23 0 0 0 5.3 66a37 37 0 0 0-4.2 6v3.7a63 63 0 0 0 4.2 13.2l.1.2.3.5q3.7 6.7 8 10.3 7.1 5.9 18.6 5.9l3.6-.2c6.7-.5 14-2.3 23-5.6a54 54 0 0 0 19.2-12 59 59 0 0 0 11.5-16.7c3.2-6.6 5.5-13.4 8-21A68 68 0 0 1 108 29.6q2-2.7 4.4-4.9a1 1 0 0 0-.7-1.7" />
  <path fill="color(display-p3 1 .9294 .7176)" d="M42.6 89.6S35 62.9 53 55.3s32.4 8.1 32.4 8.1-6.5 22.4-43 26.2" />
  <path fill="color(display-p3 1 .7882 .5686)"
    d="M75 76a26 26 0 0 1-9.5 4q-4.5.8-8.3-1.6c-3-2-5-5.3-5.9-8.8-1-3.9-1.4-9-.2-13.3-15.5 8.7-8.5 33.3-8.5 33.3 21.7-2.3 32.8-11.1 38.2-18Q78 74 75 76" />
  <path fill="color(display-p3 .149 .0863 .4275)"
    d="M63.3 53.2c13 0 22.2 10.2 22.2 10.2s-6.5 22.4-43 26.2c0 0-7.5-26.7 10.6-34.3q5.4-2.1 10.2-2m0-1q-5.4 0-10.5 2.2C44.9 57.7 40.5 64.9 40 75.2a50 50 0 0 0 1.6 14.6 1 1 0 0 0 1 .8 60 60 0 0 0 35.8-14.8 31 31 0 0 0 8.1-12.1 1 1 0 0 0-.2-1c-.4-.4-9.7-10.5-23-10.5" />
  <path fill="color(display-p3 .4078 .2275 .502)"
    d="M17.2 81.5c4.2 0 7.5-2.8 7.5-6.2S21.4 69 17.2 69c-4.1 0-7.5 2.8-7.5 6.2s3.4 6.2 7.5 6.2M26 67.6a3.1 3.1 0 1 0 0-6.2 3.1 3.1 0 0 0 0 6.2m7.4 9.5a3.4 3.4 0 1 0 0-6.8 3.4 3.4 0 0 0 0 6.8m81.6-20a3.8 3.8 0 1 0 0-7.5 3.8 3.8 0 0 0 0 7.5M53.1 118a3.8 3.8 0 1 0 0-7.5 3.8 3.8 0 0 0 0 7.6M117.2 76a3.7 3.7 0 1 0 0-7.4 3.7 3.7 0 0 0 0 7.4m-8.1-9a1.5 1.5 0 1 0 0-3 1.5 1.5 0 0 0 0 3m-43.7 54.5a1.6 1.6 0 1 0 0-3 1.6 1.6 0 0 0 0 3"
    opacity=".3" />
  <path fill="color(display-p3 1 .7882 .5686)"
    d="M62 61.4c2.2 0 4-1 4-2.1S64.2 57 62 57c-2.1 0-4 1-4 2.2 0 1.1 1.9 2 4 2M72.6 63a1.9 1.9 0 1 0 0-3.7 1.9 1.9 0 0 0 0 3.8m-6.5 2.4a1.4 1.4 0 1 0 0-2.8 1.4 1.4 0 0 0 0 2.8" />
  <defs>
    <linearGradient id="paint0_linear_1097_941" x1="44.4" x2="63.6" y1="25" y2="63.7" gradientUnits="userSpaceOnUse">
      <stop stop-color="color(display-p3 .8431 .9529 .9137)" />
      <stop offset="1" stop-color="color(display-p3 .651 .8 .9765)" />
    </linearGradient>
    <linearGradient id="paint1_linear_1097_941" x1="1.8" x2="126" y1="74.9" y2="74.9" gradientUnits="userSpaceOnUse">
      <stop stop-color="color(display-p3 1 .2039 .6118)" />
      <stop offset="1" stop-color="color(display-p3 .6471 .0039 .8078)" />
    </linearGradient>
  </defs>
</svg>