<!-- <svg xmlns="http://www.w3.org/2000/svg" width="350" height="350" fill="none" viewBox="0 0 350 350">
  <g filter="url(#a)">
    <circle cx="175" cy="175" r="142.8" fill="#afd84b" fill-opacity=".1"
      style="fill:#afd84b;fill:color(display-p3 .6863 .8471 .2941);fill-opacity:.05" transform="rotate(-1.1 175 175)" />
  </g>
  <path fill="#72b83a" fill-opacity=".2"
    d="M134.1 111.2a42.3 42.3 0 0 1 79.3-1.6 42 42 0 0 0 25.4 24.5 42.3 42.3 0 0 1 1.6 79.3 42 42 0 0 0-24.5 25.4 42.3 42.3 0 0 1-79.3 1.6 42 42 0 0 0-25.4-24.5 42.3 42.3 0 0 1-1.6-79.3 42 42 0 0 0 24.5-25.4"
    style="fill:#72b83a;fill:color(display-p3 .4471 .7216 .2275);fill-opacity:.2" />
  <path fill="#72b83a" stroke="#000" stroke-width="2.7"
    d="M144.3 118a31.6 31.6 0 0 1 59.2-1.2l2.2 5.6a34 34 0 0 0 20.7 19.9l5.7 2a31.6 31.6 0 0 1 1.1 59.2l-5.6 2.2a34 34 0 0 0-19.9 20.7l-2 5.7a31.6 31.6 0 0 1-59.2 1.1l-2.2-5.6a34 34 0 0 0-20.7-19.9l-5.7-2a31.6 31.6 0 0 1-1.1-59.2l5.6-2.2a34 34 0 0 0 19.9-20.7z"
    style="fill:#72b83a;fill:color(display-p3 .4471 .7216 .2275);fill-opacity:1;stroke:#000;stroke-opacity:1" />
  <path fill="#fcf2d7" d="M174.7 222.2c-7.4 3.2 2.8 19.8 4.9 22.6 22.6 6.3 36-60.2-4.9-22.6"
    style="fill:#fcf2d7;fill:color(display-p3 .9882 .949 .8431);fill-opacity:1" />
  <path fill="#afd84b"
    d="M191 131.7c-6-.2-9.1 3.2-15.4-.3-6.2-3.4-13 3.2-22.1 11.8-15.2 14.3-7.3-16.5-3.1-25.6 4.7-10.4 25.1-14.5 25.1-14.5s30.5 29.1 15.5 28.6M171.3 213.3c.2 6-8.3 5.2-14.5 11.3-6.2 6-14.9-4.7-15-10.8-1.5-2.4 6.7-8.5 14.6-11.3 8.1-.2 14.8 4.7 15 10.8"
    style="fill:#afd84b;fill:color(display-p3 .6863 .8471 .2941);fill-opacity:1" />
  <path fill="#d9d9d9"
    d="M108.2 160.6c0-1.6 1-3 2.4-3h15.7c1.3 0 2.4 1.4 2.4 3V184c0 1.7-1.1 3-2.4 3h-15.7c-1.4 0-2.4-1.3-2.4-3zM135.9 160.6c0-1.6 1-3 2.4-3H154c1.3 0 2.4 1.4 2.4 3V184c0 1.7-1 3-2.4 3h-15.7c-1.3 0-2.4-1.3-2.4-3zM163.6 160.6c0-1.6 1.1-3 2.4-3h15.7c1.3 0 2.4 1.4 2.4 3V184c0 1.7-1 3-2.4 3H166c-1.3 0-2.4-1.3-2.4-3zM191.4 160.6c0-1.6 1-3 2.4-3h15.6c1.4 0 2.5 1.4 2.5 3V184c0 1.7-1.1 3-2.5 3h-15.6c-1.4 0-2.4-1.3-2.4-3zM220.3 160.6c0-1.6 1-3 2.4-3h15.7c1.3 0 2.4 1.4 2.4 3V184c0 1.7-1 3-2.4 3h-15.7c-1.3 0-2.4-1.3-2.4-3z"
    style="fill:#d9d9d9;fill:color(display-p3 .851 .851 .851);fill-opacity:1" />
  <path fill="#000"
    d="M114.9 194.8q-3.3 0-5.5-1.4-2.4-1.5-3.7-4-1.2-2.5-1.2-5.5v-17.3q0-3 1.2-5.5a10 10 0 0 1 9.2-5.4h7.2a10 10 0 0 1 9.2 5.4q1.2 2.4 1.2 5.5v17.3q0 3-1.2 5.5-1.3 2.5-3.7 4-2.3 1.4-5.5 1.4zm-3.4-13h2.8l.6-8.6h8.7l.7 8.7h2.7l-1.9-21.3-1.5-1.8-3-.6H118l-3.1.6-1.5 1.8zm3.6-11.4.7-8.7 2.3-.4h2.3l2.2.4.8 8.7z"
    style="fill:#000;fill-opacity:1" />
  <path fill="#000"
    d="M142.7 194.8q-3.1 0-5.5-1.4-2.2-1.5-3.6-4t-1.3-5.5v-17.3q0-3 1.3-5.5a10 10 0 0 1 9.1-5.4h7.3a10 10 0 0 1 9.1 5.4q1.3 2.4 1.3 5.5v17.3q0 3-1.3 5.5-1.2 2.5-3.6 4-2.3 1.4-5.5 1.4zm1.4-13h6l2.5-.3 1.5-1.8.3-2.4v-4.4l-.3-2.4-1.5-1.8-2.5-.3H145l-1.5-.4-.3-1.7v-3l.3-1.7 1.6-.3h6l2.2.5.5-3.1-2.7-.5h-6.2l-2.3.4-1.6 1.9-.3 2.4v3.9l.3 2.4 1.6 1.8 2.3.4h5.3l1.5.3.3 1.5v3.8l-.3 1.6-1.6.3h-5.8l-2.3-.5-.6 3z"
    style="fill:#000;fill-opacity:1" />
  <path fill="#000"
    d="M170.6 194.8q-3.1 0-5.5-1.4-2.2-1.5-3.6-4t-1.3-5.5v-17.3q0-3 1.3-5.5a10 10 0 0 1 9.1-5.4h7.3a10 10 0 0 1 9.1 5.4q1.3 2.4 1.3 5.5v17.3q0 3-1.3 5.5-1.2 2.5-3.6 4-2.4 1.4-5.5 1.4zm1.3-13h5.7l2.7-.3-.6-3.1-2.2.5H172l-1.5-.3-.3-1.7V163l.2-1.6 1.6-.3h5.4l2.5.5.4-3-2.7-.5h-5.7l-2.4.4-1.5 1.8-.4 2.4v14.5l.4 2.4 1.5 1.8z"
    style="fill:#000;fill-opacity:1" />
  <path fill="#000"
    d="M198.5 194.8q-3.2 0-5.5-1.4-2.4-1.5-3.6-4T188 184v-17.3q0-3 1.3-5.5a10 10 0 0 1 9.1-5.4h7.3a10 10 0 0 1 9.1 5.4q1.3 2.4 1.3 5.5v17.3q0 3-1.3 5.5-1.2 2.5-3.6 4-2.4 1.4-5.5 1.4zm-1.9-13h13.6v-3h-5.5v-17.5h5.5v-3h-13.6v3h5.6v17.6h-5.6z"
    style="fill:#000;fill-opacity:1" />
  <path fill="#000"
    d="M226.4 194.8q-3.2 0-5.5-1.4-2.4-1.5-3.6-4T216 184v-17.3q0-3 1.3-5.5a10 10 0 0 1 9-5.4h7.3a10 10 0 0 1 9.2 5.4q1.3 2.4 1.3 5.5v17.3q0 3-1.3 5.5t-3.6 4q-2.4 1.4-5.6 1.4zm-1.9-13h13.6v-3h-5.5v-17.5h5.5v-3h-13.6v3h5.6v17.6h-5.6z"
    style="fill:#000;fill-opacity:1" />
  <defs>
    <filter id="a" width="313.1" height="313.1" x="18.4" y="18.4" color-interpolation-filters="sRGB"
      filterUnits="userSpaceOnUse">
      <feFlood flood-opacity="0" result="BackgroundImageFix" />
      <feBlend in="SourceGraphic" in2="BackgroundImageFix" result="shape" />
      <feGaussianBlur result="effect1_foregroundBlur_1160_1215" stdDeviation="6.9" />
    </filter>
  </defs>
</svg> -->
<svg xmlns="http://www.w3.org/2000/svg" xmlns:xlink="http://www.w3.org/1999/xlink" fill="none" viewBox="0 0 134 131">
  <path fill="color(display-p3 .1882 .9137 .149)"
    d="M9.8 54.8A9.4 9.4 0 0 1 .6 45a9.4 9.4 0 0 1 16.5-6.1 9.4 9.4 0 0 1-7.3 16" />
  <path fill="color(display-p3 .149 .0863 .4275)"
    d="M10.1 36.4h.4a9 9 0 1 1-.4 0m0-1a10 10 0 1 0 0 20 10 10 0 0 0 0-20" />
  <path fill="color(display-p3 .9176 1 .7725)" d="M16.3 44.5a1 1 0 1 0 0-2.1 1 1 0 0 0 0 2.1" />
  <path fill="color(display-p3 .1608 .2314 .4431)" d="M11.1 52.5A9 9 0 0 1 3.6 39 9 9 0 1 0 18 49.7a9 9 0 0 1-6.8 2.8"
    opacity=".2" />
  <path fill="url(#paint0_linear_1097_869)" stroke="color(display-p3 .149 .0863 .4275)" stroke-miterlimit="10"
    d="M72.5 121.7a60.5 60.5 0 1 0 0-121 60.5 60.5 0 0 0 0 121Z" />
  <path fill="color(display-p3 .1608 .2314 .4431)"
    d="M41.3 93.2a60.5 60.5 0 0 1-13.4-73l-.6.7a60.5 60.5 0 1 0 99 68 60.5 60.5 0 0 1-85 4.3" opacity=".2" />
  <path fill="color(display-p3 .1608 .2314 .4431)" d="M97.4 55.2a3.3 3.3 0 1 0 0-6.5 3.3 3.3 0 0 0 0 6.5"
    opacity=".3" />
  <path fill="color(display-p3 .8 1 .498)" stroke="color(display-p3 .149 .0863 .4275)" stroke-miterlimit="10"
    d="M97.4 54.1a2.2 2.2 0 1 0 0-4.3 2.2 2.2 0 0 0 0 4.3Z" />
  <path fill="color(display-p3 .1608 .2314 .4431)" d="M97.4 69.7a3.3 3.3 0 1 0 0-6.6 3.3 3.3 0 0 0 0 6.6"
    opacity=".3" />
  <path fill="color(display-p3 .8 1 .498)" stroke="color(display-p3 .149 .0863 .4275)" stroke-miterlimit="10"
    d="M97.4 68.6a2.2 2.2 0 1 0 0-4.4 2.2 2.2 0 0 0 0 4.4Z" />
  <path fill="color(display-p3 .1608 .2314 .4431)" d="M29.8 57a3.3 3.3 0 1 0 0-6.6 3.3 3.3 0 0 0 0 6.6" opacity=".3" />
  <path fill="color(display-p3 .8 1 .498)" stroke="color(display-p3 .149 .0863 .4275)" stroke-miterlimit="10"
    d="M29.8 55.8a2.2 2.2 0 1 0 0-4.3 2.2 2.2 0 0 0 0 4.3Z" />
  <path fill="color(display-p3 .1608 .2314 .4431)" d="M82 112a3.3 3.3 0 1 0 0-6.7 3.3 3.3 0 0 0 0 6.6" opacity=".3" />
  <path fill="color(display-p3 .8 1 .498)" stroke="color(display-p3 .149 .0863 .4275)" stroke-miterlimit="10"
    d="M82 110.8a2.2 2.2 0 1 0 0-4.3 2.2 2.2 0 0 0 0 4.3Z" />
  <path fill="color(display-p3 .1608 .2314 .4431)" d="M128.7 83.7a61 61 0 0 0 4.1-27l-12.5-2s3 11.5-4.3 26.7z"
    opacity=".3" />
  <path stroke="color(display-p3 .149 .0863 .4275)" stroke-miterlimit="10"
    d="M128.7 83.7a61 61 0 0 0 4.1-27l-12.5-2s3 11.5-4.3 26.7z" />
  <path fill="color(display-p3 .1608 .2314 .4431)" d="m107.4 36.9 22.4 4.9A60 60 0 0 0 64.3 1.2c.6.2 34.8 11.9 43 35.7"
    opacity=".3" />
  <path stroke="color(display-p3 .149 .0863 .4275)" stroke-miterlimit="10"
    d="m107.4 36.9 22.4 4.9A60 60 0 0 0 64.3 1.2c.6.2 34.8 11.9 43 35.7ZM23.3 79.6l40.3-21" />
  <path fill="color(display-p3 .5059 .5216 .9137)" d="M62.7 84.7a25.1 25.1 0 1 0 0-50.3 25.1 25.1 0 0 0 0 50.3" />
  <path stroke="color(display-p3 .149 .0863 .4275)" stroke-miterlimit="10"
    d="M62.7 84.7a25.1 25.1 0 1 0 0-50.3 25.1 25.1 0 0 0 0 50.3Z" />
  <path fill="url(#paint1_linear_1097_869)" d="M63.6 80.7a22.1 22.1 0 1 0 0-44.3 22.1 22.1 0 0 0 0 44.3" />
  <path fill="color(display-p3 .5059 .2039 .4706)"
    d="M81.2 68.7a22.1 22.1 0 0 1-38.5-17.5 22.1 22.1 0 1 0 42.8 10.2 22 22 0 0 1-4.3 7.3" opacity=".5" />
  <path fill="color(display-p3 .5059 .2039 .4706)" d="M62.1 64.3a6.1 6.1 0 1 0 0-12.3 6.1 6.1 0 0 0 0 12.3"
    opacity=".8" />
  <path stroke="color(display-p3 .149 .0863 .4275)" stroke-miterlimit="10"
    d="M63.6 80.7a22.1 22.1 0 1 0 0-44.3 22.1 22.1 0 0 0 0 44.3Z" />
  <path fill="color(display-p3 1 .5961 .7686)"
    d="M78 63c3.5-1.7 4.3-7.5 1.6-12.8s-7.6-8.3-11.1-6.6-4.3 7.5-1.7 12.9c2.7 5.3 7.7 8.2 11.2 6.5" opacity=".5" />
  <path stroke="color(display-p3 .149 .0863 .4275)" stroke-miterlimit="10"
    d="M80.5 77.3s17.3 20.2 37.1 24.2m-17.4-77.1a45 45 0 0 0-19.9 15.4l-.8 1" />
  <path fill="color(display-p3 .1608 .2314 .4431)"
    d="M18.9 33a60.5 60.5 0 0 0 51.4 88.6l-2.3-10s-24.3-1-40.5-24.3-1.9-52-1.9-52z" opacity=".3" />
  <path stroke="color(display-p3 .149 .0863 .4275)" stroke-miterlimit="10"
    d="M18.9 33a60.5 60.5 0 0 0 51.4 88.6l-2.3-10s-24.3-1-40.5-24.3-1.9-52-1.9-52z" />
  <path fill="color(display-p3 .1608 .2314 .4431)"
    d="M89.7 83.2a1.3 1.3 0 1 0 0-2.6 1.3 1.3 0 0 0 0 2.6m-49.9-6a1.3 1.3 0 1 0 0-2.6 1.3 1.3 0 0 0 0 2.6m-5.2 3a1.3 1.3 0 1 0 0-2.6 1.3 1.3 0 0 0 0 2.6M29 82.6a1.3 1.3 0 1 0 0-2.6 1.3 1.3 0 0 0 0 2.6m50.7-46.9a1.3 1.3 0 1 0 0-2.6 1.3 1.3 0 0 0 0 2.6m4.4-4.9a1.3 1.3 0 1 0 0-2.6 1.3 1.3 0 0 0 0 2.6m5.4-4a1.3 1.3 0 1 0 0-2.6 1.3 1.3 0 0 0 0 2.6m16.9 68.6a1.3 1.3 0 1 0 0-2.5 1.3 1.3 0 0 0 0 2.5m-8.7-5.1a1.3 1.3 0 1 0 0-2.6 1.3 1.3 0 0 0 0 2.6m16.9 8.3a1.3 1.3 0 1 0 0-2.6 1.3 1.3 0 0 0 0 2.6" />
  <path fill="color(display-p3 .1882 .9137 .149)"
    d="M104.2 130.3h-.5a13.6 13.6 0 0 1-13.2-14.2 13.7 13.7 0 0 1 14.2-13.2 13.7 13.7 0 0 1-.5 27.4" />
  <path fill="color(display-p3 .149 .0863 .4275)"
    d="M104.2 103.4h.5a13.2 13.2 0 1 1-.5 0m0-1a14.2 14.2 0 0 0-10.4 23.9 14 14 0 0 0 10.4 4.5 14.2 14.2 0 0 0 0-28.5" />
  <path fill="color(display-p3 .9176 1 .7725)"
    d="M112.2 110.7c-.7 1.5-2.5 0-5-1.2-2.4-1.3-4.6-1.9-4-3.3.8-1.4 3.4-1.6 5.9-.3 2.4 1.2 3.8 3.4 3 4.8m1.2 4.7a1.6 1.6 0 1 0 0-3.2 1.6 1.6 0 0 0 0 3.2"
    opacity=".4" />
  <path fill="color(display-p3 .1608 .2314 .4431)"
    d="M105.7 127a13.2 13.2 0 0 1-11-19.6 13.2 13.2 0 1 0 21.1 15.6 13 13 0 0 1-10 4" opacity=".2" />
  <path fill="color(display-p3 .1882 .9137 .149)"
    d="M79.5 26.9a12 12 0 0 1-5.6-23 12 12 0 0 1 16.4 5.3 12 12 0 0 1-10.8 17.7" />
  <path fill="color(display-p3 .149 .0863 .4275)"
    d="M79.5 3.1a11.6 11.6 0 1 1 0 23.3 11.6 11.6 0 0 1 0-23.3m0-1a12.7 12.7 0 0 0-11.2 18.4 12.6 12.6 0 0 0 23.2-2q1.5-4.8-.8-9.5a13 13 0 0 0-11.2-7" />
  <path fill="color(display-p3 .9176 1 .7725)"
    d="M83 6.8c.1 1.4-1.8 1.1-4.3 1.2-2.4.1-4.3.6-4.4-.8 0-1.4 1.8-2.6 4.3-2.7 2.4-.1 4.4 1 4.5 2.3m2.1 3.2a1.4 1.4 0 1 0 0-2.7 1.4 1.4 0 0 0 0 2.8"
    opacity=".4" />
  <path fill="color(display-p3 .1608 .2314 .4431)"
    d="M85.2 22.1a11.6 11.6 0 0 1-17-10.2q-1 4 1 8.2A11.6 11.6 0 0 0 91 14.7c-.8 3-2.9 5.8-6 7.4" opacity=".2" />
  <defs>
    <linearGradient id="paint0_linear_1097_869" x1="27.3" x2="117.6" y1="20.9" y2="101.5"
      gradientUnits="userSpaceOnUse">
      <stop stop-color="color(display-p3 .5255 .5216 .9137)" />
      <stop offset="1" stop-color="color(display-p3 .651 .8 .9765)" />
    </linearGradient>
    <linearGradient id="paint1_linear_1097_869" x1="41.5" x2="85.7" y1="57.7" y2="59.4" gradientUnits="userSpaceOnUse">
      <stop stop-color="color(display-p3 1 .2039 .6118)" />
      <stop offset="1" stop-color="color(display-p3 .6471 .0039 .8078)" />
    </linearGradient>
  </defs>
</svg>