<!-- <svg xmlns="http://www.w3.org/2000/svg" width="350" height="350" fill="none" viewBox="0 0 350 350">
  <g filter="url(#a)">
    <circle cx="217.2" cy="217.3" r="145.5" fill="#afd84b" fill-opacity=".1"
      style="fill:#afd84b;fill:color(display-p3 .6863 .8471 .2941);fill-opacity:.05"
      transform="rotate(-106.4 217.2 217.3)" />
  </g>
  <path fill="#72b83a" fill-opacity=".2"
    d="M162.8 274.4a42 42 0 0 1-22.2-75.7l2.5-2a42 42 0 0 0 16.8-30.8l.2-3a42 42 0 0 1 75.7-22.3l2 2.5a42 42 0 0 0 30.8 16.8l3 .2a42 42 0 0 1 22.3 75.7l-2.5 2a42 42 0 0 0-16.8 30.8l-.2 3a42 42 0 0 1-75.7 22.3l-2-2.5a42 42 0 0 0-30.8-16.8z"
    style="fill:#72b83a;fill:color(display-p3 .4471 .7216 .2275);fill-opacity:.2" />
  <path fill="#72b83a" stroke="#000" stroke-width="2.7"
    d="M167.7 262.7a31.6 31.6 0 0 1-16.7-56.9l6.5-4.8c8-6 13-15.2 13.7-25.2l.6-8.1a31.6 31.6 0 0 1 56.8-16.7l4.9 6.5c6 8 15.2 13 25.2 13.7l8.1.6a31.6 31.6 0 0 1 16.7 56.8l-6.5 5c-8 5.9-13 15-13.8 25l-.5 8.2a31.6 31.6 0 0 1-56.9 16.7L201 277c-6-8-15.2-13-25.2-13.8z"
    style="fill:#72b83a;fill:color(display-p3 .4471 .7216 .2275);fill-opacity:1;stroke:#000;stroke-opacity:1" />
  <path fill="#afd84b"
    d="M232.1 273.7c7.8-2.3 8 3.1 16.7 4.6 8.8 1.5-3.7 10.7-11.5 13-3 1.8-11.9-1-16.7-4.7-1.4-4.8 3.7-10.6 11.5-13M168.8 228.5c6.1 5.3 1.6 8.4 5.1 16.6s-11 2.6-17.1-2.8c-3-1.4-5.6-10.5-5.1-16.5 3.3-3.8 11-2.6 17 2.7"
    style="fill:#afd84b;fill:color(display-p3 .6863 .8471 .2941);fill-opacity:1" />
  <path fill="#fcf2d7" d="M267.6 200.7c-4.3 5.4 9 18.4 11.6 20.5 18.8-.7 5.2-69.5-11.6-20.5"
    style="fill:#fcf2d7;fill:color(display-p3 .9882 .949 .8431);fill-opacity:1" />
  <ellipse cx="207.8" cy="246.8" fill="#6354a7" rx="26.8" ry="10.3"
    style="fill:#6354a7;fill:color(display-p3 .3882 .3294 .6549);fill-opacity:1" transform="rotate(-9.4 207.8 246.8)" />
  <path fill="#67558e"
    d="M187 209c19.8-9 31.5-9 53.2-4.1 12 8.2 15.5 14.6 19 27.8a51 51 0 0 1-17.4 15c-13.5-28-28.6-26.9-46.5-23.9-23 7.6-19.6 9.4-23.3 26.8-2.3 2.3-2.2-2-3.5-4.4l4-20.6c4.6-8.4 7.9-12.1 14.6-16.6"
    style="fill:#67558e;fill:color(display-p3 .4039 .3333 .5569);fill-opacity:1" />
  <path fill="#3b2f58" d="m194.3 230.2 21.9-1.8 12.4 7.6-34.7 4.5z"
    style="fill:#3b2f58;fill:color(display-p3 .2314 .1843 .3451);fill-opacity:1" />
  <path fill="#cf9393"
    d="M219.5 180.8c-1.2 11.4-6.8 16.3-14 15.6s-12-10.1-10.8-21.6c-.6-11.3 5.9-20.5 15-20 7.2.7 11 14.5 9.8 26"
    style="fill:#cf9393;fill:color(display-p3 .8118 .5765 .5765);fill-opacity:1" />
  <path fill="#e8c8c5"
    d="M206 163.5q0-.5-.2-.8c-1.6-1.7-3.8-3.3-6.4-2a1 1 0 0 0-.5.8c-.3 5 .2 8 0 12.8a1 1 0 0 0 1 1.2l3.6.2q1 0 1.2-.9zM203.8 180.2q0-.4-.2-.7c-1-1.2-2.5-2.3-4.2-1.4l-.5.7c-.2 3.5.1 5.7 0 9a1 1 0 0 0 1 1.2l1.9.1q.9 0 1-1z"
    style="fill:#e8c8c5;fill:color(display-p3 .9098 .7843 .7725);fill-opacity:1" />
  <path fill="#6958b0" d="M177.5 248c1-6 3.7-15.5 16.4-17.7l-.4 9.8c-4.6 2.6-8 5.3-14.4 11.7z"
    style="fill:#6958b0;fill:color(display-p3 .4118 .3451 .6902);fill-opacity:1" />
  <path fill="#3b2f58"
    d="M176.1 234.2c11.1-8.4 18.2-14.2 48.2-10 9.9 6.8 13.4 12 16.9 23.4l-6.5-.3c-11.9-27.3-33.6-19.2-48.5-14.8-6.4 2.6-8.2 9.3-8.8 20.3-2.4.2-3.8.2-5.7-1.4.1-6.4 1-10.2 4.4-17.2"
    style="fill:#3b2f58;fill:color(display-p3 .2314 .1843 .3451);fill-opacity:1" />
  <path fill="#000" fill-rule="evenodd"
    d="M203.6 154.4c-2 .7-4.8 2.6-5.9 4.2-2.2 3.3-3.1 7.4-3.4 15.8-.4 10 .3 15.2 2.2 18.1 3.6 5.4 11 6.6 17.5 2.7q4.9-2.9 5.9-9.8c.4-2.8.4-14.6 0-18.8q-1.1-10.2-9-12.4-3.7-.9-7.3.2m6.2 1.4c3.6.7 6.3 3.6 7.5 7.8a78 78 0 0 1 0 24.3c-.7 2-2.2 4.3-3.7 5.4a15 15 0 0 1-7.8 2.4c-4.8-.3-8.7-3.8-9.5-8.6-.5-3-.2-15.8.5-20.5.7-5 2.2-7.5 5.6-9.5q3.6-2 7.4-1.3m-10.3 47c-16 4-27.3 15.2-30.2 30-1 5.3-1.3 14.8-.5 17.4a7 7 0 0 0 4.4 4q5.1 1.4 10.4-5c2.9-3.5 5.6-5.6 9.6-7.2 4.7-2 18.2-4 29.6-4.4 5.8-.2 5.5-.3 6.7 1.5.6.9 1.4 2.7 1.8 4 1 3 3 5.3 5.2 5.9 1.8.5 5.4 0 7.8-1.2 5.7-2.7 14-11 15-15 .4-1.2.3-1.8-.4-4.4a43 43 0 0 0-10.7-18.5q-12-11.9-38.7-8.8l-6.3.8zm19.3-.4c7.1 0 10.6.4 16.2 2 4.2 1.4 5.1 1.8 7.7 3.6a31 31 0 0 1 8.6 8.8c2.3 3.6 4.8 9.2 5.7 12.6.6 2.7.6 3 0 4.1-.8 1.4-5 6-8 8.6-2.1 1.9-5.6 4-7 4.3-.9.1-1 0-1.8-2.7a30 30 0 0 0-17.8-20 56 56 0 0 0-27.2-.1 33 33 0 0 0-17.2 7.6 25 25 0 0 0-7 16l-.2 2.9a46 46 0 0 1 3.3-25.8 37 37 0 0 1 22.5-18.7l3.5-1a110 110 0 0 1 18.7-2.2m-11 21.5a37 37 0 0 1 12.7 1.3c3 .8 4 1.3 7 3.6 4.2 3 6 5 8.5 9.7a33 33 0 0 1 3 8.5l-1.6.1c-2.2 0-3-.8-4-4a23 23 0 0 0-9-11.8c-6-4.3-16.8-5.3-29-2.8-8.2 1.7-11.6 3.7-15.3 8.8a16 16 0 0 0-3 5.9c-.8 2.6-.8 3-.3 5.8l.5 3-1 .2c-1.9.3-3.6 0-3.7-.8-.2-1 .7-7.6 1.2-9.8.7-2.4 2.2-5.4 3.8-7.4 2.5-3 7.2-6 11.7-7.4 3.3-1 14.2-2.8 18.5-3m-15 7.8c-.2 1.6-.3 5-.3 6.6v1.9l-1.6.7c-1 .4-2.6 1.4-3.7 2.2a44 44 0 0 0-6.7 6.5c-1.6 1.7-1.8 1.6-2-1.3-.2-4.1.4-6.1 2.8-9.5s5-5.4 8.8-7c3-1 2.8-1 2.7-.1m13-2.6c6.7-.4 14.3 1.4 18.3 4.3l2.2 1.8-5.8.5c-4.3.2-8.3.7-15.8 1.9-8.8 1.4-10.2 1.6-10.2 1.1-.2-1 0-5.6.4-6.9l.3-1.3 3.6-.6c2-.3 5-.7 7-.8m43.7-2.8c-.7.7-3 2.5-5 4-1.9 1.4-3.5 2.7-3.6 3-.1 1 1.8.5 4-.9 2.6-1.7 7.2-5.8 7.3-6.5.3-1.5-1-1.3-2.7.4"
    clip-rule="evenodd" style="fill:#000;fill-opacity:1" />
  <ellipse cx="206.5" cy="250.2" fill="#8866c7" rx="10.8" ry="3.1"
    style="fill:#8866c7;fill:color(display-p3 .5333 .4 .7804);fill-opacity:1" transform="rotate(-9.4 206.5 250.2)" />
  <defs>
    <filter id="a" width="318.6" height="318.6" x="57.9" y="57.9" color-interpolation-filters="sRGB"
      filterUnits="userSpaceOnUse">
      <feFlood flood-opacity="0" result="BackgroundImageFix" />
      <feBlend in="SourceGraphic" in2="BackgroundImageFix" result="shape" />
      <feGaussianBlur result="effect1_foregroundBlur_1160_1065" stdDeviation="6.9" />
    </filter>
  </defs>
</svg> -->
<svg xmlns="http://www.w3.org/2000/svg" xmlns:xlink="http://www.w3.org/1999/xlink" fill="none" viewBox="0 0 128 132">
  <path fill="url(#paint0_linear_990_2170)" d="M64 128A60 60 0 0 0 64 7C31 7 4 35 4 68s27 60 60 60" />
  <path fill="color(display-p3 .6353 .2471 .3725)"
    d="M24 23v4c2 7 15 10 30 7 14-4 24-13 22-21q-1-3-4-5a60 60 0 0 0-48 15" opacity=".4" />
  <path stroke="color(display-p3 .149 .0863 .4275)" stroke-miterlimit="10"
    d="M64 128A60 60 0 0 0 64 7C31 7 4 35 4 68s27 60 60 60Z" />
  <path fill="color(display-p3 .6353 .2471 .3725)" d="M84 106q9 0 10-8-1-7-10-8-10 1-11 8 1 8 11 8" opacity=".4" />
  <path fill="color(display-p3 .6353 .2471 .3725)"
    d="M75 116c-11-10 1-22-8-33-5-6-29 0-29-8l1-23q0-4-5-9-5-3-11-1L6 51 4 68a60 60 0 0 0 78 58q-1-4-7-10m49-48q0-12-5-23l-12 5q-6 2-9 5-4 5-3 9l2 9 2 6v6l-3 12q-2 8 2 14l5 3q20-18 21-46"
    opacity=".4" />
  <path fill="color(display-p3 .6353 .2471 .3725)"
    d="M45 70c9 7 24 0 34 7 9 7 8-19 16-28 12-14-12-23-43 1-10 7-11 18-7 20" opacity=".4" />
  <path fill="color(display-p3 .6353 .2471 .3725)" d="M102 27q2-7-5-12-9-3-12 3t5 11q8 3 12-2" opacity=".4" />
  <path fill="color(display-p3 1 .8667 .5059)"
    d="m75 130 3-3q0-4-3-6l-7-9-1-11V91q-1-5-7-7l-6-1h-7q-7 1-11-5V66l1-11q1-5-3-9-5-3-10-1l-12 5-10 8-1 10a63 63 0 0 0 74 62" />
  <path stroke="color(display-p3 .149 .0863 .4275)" stroke-miterlimit="10"
    d="m75 130 3-3q0-4-3-6l-7-9-1-11V91q-1-5-7-7l-6-1h-7q-7 1-11-5V66l1-11q1-5-3-9-5-3-10-1l-12 5-10 8-1 10a63 63 0 0 0 74 62Z" />
  <path fill="color(display-p3 .9098 .7451 .3569)"
    d="m64 131 11-1-2-6q-6-3-8-10l-1-11v-9q-1-6-6-7l-7-1h-7q-7 0-10-5l-1-7v-6l1-11q1-5-3-9-4-2-10-1L9 53l-7 4-1 11c0 35 28 63 63 63" />
  <path fill="color(display-p3 .9098 .6118 .3569)"
    d="M47 120h4q3-1 2-5-4-2-5-6l-1-7v-6q0-3-4-4l-4-1h-4q-5 1-7-3l-1-4 1-4v-7q1-3-2-6h-6l-8 3-3 3-1 1-1 6c0 22 18 40 40 40" />
  <path fill="color(display-p3 .9098 .5176 .3569)"
    d="M48 114q1 4 4 6 2-2 1-5-4-2-5-6l-1-2zM27 86v3l1 4q2 4 7 3h4l4 1q3 1 4 4l1 1-1-6q-1-3-4-4l-4-1h-4q-5 1-7-3zM8 79l1-1 3-3 8-3h6l2 4v-3q1-3-2-6h-6l-8 3-3 3-1 1-1 8z" />
  <path fill="color(display-p3 1 .8667 .5059)"
    d="M98 97q-1 7 3 13 3 3 7 3a62 62 0 0 0 15-66l-2-1-12 5q-6 2-9 5-3 4-3 8l3 9 1 6v6z" />
  <path stroke="color(display-p3 .149 .0863 .4275)" stroke-miterlimit="10"
    d="M98 97q-1 7 3 13 3 3 7 3a62 62 0 0 0 15-66l-2-1-12 5q-6 2-9 5-3 4-3 8l3 9 1 6v6z" />
  <path fill="color(display-p3 .9098 .7451 .3569)"
    d="M127 68q0-10-4-21h-2l-1 1-9 3-8 5q-3 3-3 8l3 9 1 6v6l-3 12q-1 7 3 13l4 3q18-19 19-45" />
  <path fill="color(display-p3 .9098 .6118 .3569)"
    d="m116 95 5-2a63 63 0 0 0 5-36q-6-1-10 1c-3 2-8 5-6 9l2 4 2 6-2 11c0 3 0 8 4 7" />
  <path fill="color(display-p3 .9098 .5176 .3569)"
    d="m116 88 2-11-2-6-2-4c-2-4 3-7 6-9l5-1q-5-1-9 1c-3 2-8 5-6 9l2 4 2 6-2 11c0 3 0 8 4 7h2q-2-3-2-7" />
  <path fill="color(display-p3 1 .8667 .5059)"
    d="M48 68c8 6 21-1 30 6 8 6 7-17 15-26 10-12-11-20-39 1-9 7-10 16-6 19" />
  <path stroke="color(display-p3 .149 .0863 .4275)" stroke-miterlimit="10"
    d="M48 68c8 6 21-1 30 6 8 6 7-17 15-26 10-12-11-20-39 1-9 7-10 16-6 19Z" />
  <path fill="color(display-p3 .9098 .7451 .3569)"
    d="M47 66c8 6 21-1 30 6 8 6 7-17 14-26 11-12-10-20-38 1-9 6-10 16-6 19" />
  <path fill="color(display-p3 .9098 .6118 .3569)" d="M55 61c5 4 14 0 19 4s4-11 9-16c7-7-7-12-24 0-5 4-6 11-4 12" />
  <path fill="color(display-p3 .9098 .5176 .3569)" d="M60 53q18-12 25-7c1-5-11-8-26 3q-7 8-4 12 0-4 5-8" />
  <path fill="color(display-p3 1 .8667 .5059)" d="M53 31q21-6 20-17c-1-6-13-8-26-5q-20 6-20 17 5 10 26 5" />
  <path stroke="color(display-p3 .149 .0863 .4275)" stroke-miterlimit="10"
    d="M53 31q21-6 20-17c-1-6-13-8-26-5q-20 6-20 17 5 10 26 5Z" />
  <path fill="color(display-p3 .9098 .7451 .3569)" d="M52 29q21-7 21-18c-2-6-14-8-26-5q-21 7-20 17c1 6 13 9 25 6" />
  <path fill="color(display-p3 .9098 .6118 .3569)" d="M51 24q13-4 12-10t-15-3q-13 4-12 10 3 6 15 3" />
  <path fill="color(display-p3 .9098 .5176 .3569)" d="M49 14q10-2 14 2v-2q-1-6-15-3-13 4-12 10l1 2q1-6 12-9" />
  <path fill="color(display-p3 1 .8667 .5059)" d="M84 106q7 0 8-7-1-6-8-6-8 0-9 6 1 6 9 7" />
  <path stroke="color(display-p3 .149 .0863 .4275)" stroke-miterlimit="10"
    d="M84 106q7 0 8-7-1-6-8-6-8 0-9 6 1 6 9 7Z" />
  <path fill="color(display-p3 .9098 .7451 .3569)" d="M84 108q7 0 8-7-1-5-8-6-8 1-9 6 1 7 9 7" />
  <path stroke="color(display-p3 .149 .0863 .4275)" stroke-miterlimit="10"
    d="M84 108q7 0 8-7-1-5-8-6-8 1-9 6 1 7 9 7Z" />
  <path fill="color(display-p3 1 .8667 .5059)" d="M101 25q2-6-4-10-7-3-11 2-1 6 5 10 7 3 10-2" />
  <path stroke="color(display-p3 .149 .0863 .4275)" stroke-miterlimit="10"
    d="M101 25q2-6-4-10-7-3-11 2-1 6 5 10 7 3 10-2Z" />
  <path fill="color(display-p3 .9098 .7451 .3569)" d="M102 23q3-5-5-9-6-3-10 2-3 5 4 9 8 4 11-2" />
  <path stroke="color(display-p3 .149 .0863 .4275)" stroke-miterlimit="10"
    d="m64 131 11-1-2-6q-6-3-8-10l-1-11v-9q-1-6-6-7l-7-1h-7q-7 0-10-5l-1-7v-6l1-11q1-5-3-9-4-2-10-1L9 53l-7 4-1 11c0 35 28 63 63 63Zm63-63q0-10-4-21h-2l-1 1-9 3-8 5q-3 3-3 8l3 9 1 6v6l-3 12q-1 7 3 13l4 3q18-19 19-45Zm-80-2c8 6 21-1 30 6 8 6 7-17 14-26 11-12-10-20-38 1-9 6-10 16-6 19Zm5-37q21-7 21-18c-2-6-14-8-26-5q-21 7-20 17c1 6 13 9 25 6Zm50-6q3-5-5-9-7-3-10 2-2 5 4 9 8 4 11-2Z" />
  <defs>
    <linearGradient id="paint0_linear_990_2170" x1="94" x2="42.9" y1="2.6" y2="113.5" gradientUnits="userSpaceOnUse">
      <stop stop-color="color(display-p3 .9529 .4627 .3725)" />
      <stop offset="1" stop-color="color(display-p3 .6667 .3176 .4824)" />
    </linearGradient>
  </defs>
</svg>