<!-- <svg xmlns="http://www.w3.org/2000/svg" width="476" height="476" fill="none" viewBox="0 0 476 476">
  <g filter="url(#a)">
    <circle cx="237.6" cy="237.6" r="145.5" fill="#afd84b" fill-opacity=".1"
      style="fill:#afd84b;fill:color(display-p3 .6863 .8471 .2941);fill-opacity:.05"
      transform="rotate(-118.7 237.6 237.6)" />
  </g>
  <path fill="#72b83a" fill-opacity=".2"
    d="M196.6 305a42 42 0 0 1-38-69.2l2.1-2.3a42 42 0 0 0 9.9-33.8l-.5-3a42 42 0 0 1 69.2-38l2.4 2a42 42 0 0 0 33.7 9.9l3.1-.5a42 42 0 0 1 38 69.2l-2 2.4a42 42 0 0 0-10 33.7l.6 3.1a42 42 0 0 1-69.3 38l-2.3-2a42 42 0 0 0-33.8-10z"
    style="fill:#72b83a;fill:color(display-p3 .4471 .7216 .2275);fill-opacity:.2" />
  <path fill="#72b83a" stroke="#000" stroke-width="2.7"
    d="M198.9 292.6a31.6 31.6 0 0 1-28.5-52l5.3-6.1a34 34 0 0 0 8-27.6l-1.1-8a31.6 31.6 0 0 1 52-28.5l6 5.3a34 34 0 0 0 27.6 8l8-1.1a31.6 31.6 0 0 1 28.6 52l-5.4 6a34 34 0 0 0-8 27.6l1.2 8a31.6 31.6 0 0 1-52 28.6l-6.1-5.4a34 34 0 0 0-27.6-8z"
    style="fill:#72b83a;fill:color(display-p3 .4471 .7216 .2275);fill-opacity:1;stroke:#000;stroke-opacity:1" />
  <path fill="#afd84b"
    d="M264.2 289.5c7-3.9 8.4 1.4 17.3 1s-1.4 11.2-8.5 15c-2.5 2.5-11.8 1.7-17.3-.9-2.5-4.4 1.3-11.2 8.5-15M192.7 259c7 3.8 3.4 7.8 8.5 15s-10.2 5-17.3 1c-3.3-.7-7.7-9-8.5-15 2.4-4.5 10.1-5 17.3-1"
    style="fill:#afd84b;fill:color(display-p3 .6863 .8471 .2941);fill-opacity:1" />
  <g clip-path="url(#b)">
    <path fill="#e4982d" stroke="#000" stroke-width="2"
      d="M220.6 205.8A37 37 0 0 1 271 220a37 37 0 0 1-15.2 50.1 37 37 0 0 1-50.4-14.2 37 37 0 0 1 15.2-50.1Z"
      style="fill:#e4982d;fill:color(display-p3 .8942 .5951 .1763);fill-opacity:1;stroke:#000;stroke-opacity:1" />
    <path fill="#0d1723"
      d="M253 264.8c15-8.3 20.6-27 12.5-41.7a31 31 0 0 0-42-11.8c-15 8.3-20.6 27-12.5 41.7a31 31 0 0 0 42 11.8"
      style="fill:#0d1723;fill:color(display-p3 .051 .0902 .1373);fill-opacity:1" />
    <path fill="#e4982d" stroke="#000" stroke-width="2"
      d="m199.3 200.6 6.5 14.5c2.9-1.6 1.5-2.8 7.4-7.4s9.7-5.5 12.5-6.9a46 46 0 0 1 10.8-2.2c-2.4-3.8-7.6-11.8-9-13.5a3 3 0 0 0-3.9-.6l-21.4 11.8q-.4 0-2.2 1.4c-1 .9-.9 2.3-.7 2.9ZM277.4 275.4l-6.5-14.5c-3 1.6-1.5 2.8-7.4 7.4s-9.7 5.5-12.5 6.9a46 46 0 0 1-10.8 2.2c2.4 3.8 7.5 11.9 9 13.5a3 3 0 0 0 3.8.6l21.5-11.7c.2-.2 1-.4 2.2-1.5.9-.8.8-2.3.7-2.9Z"
      style="fill:#e4982d;fill:color(display-p3 .8942 .5951 .1763);fill-opacity:1;stroke:#000;stroke-opacity:1" />
    <path fill="#f2e8cb" stroke="#000" stroke-width=".2"
      d="M225.7 215.2c13-7 29-2.6 35.9 10s2 28.4-11 35.5c-12.8 7-28.8 2.6-35.7-10a26.3 26.3 0 0 1 10.8-35.5Z"
      style="fill:#f2e8cb;fill:color(display-p3 .949 .9098 .7961);fill-opacity:1;stroke:#000;stroke-opacity:1" />
    <path fill="#0e1924" stroke="#000" stroke-width=".2"
      d="M227 217.4q1.3-.4 2 .6l1.3 2.5a1.4 1.4 0 1 1-2.4 1.3l-1.4-2.5q-.4-1.2.6-1.9ZM246.8 253.7q1.1-.5 2 .5l1.3 2.5a1.4 1.4 0 1 1-2.5 1.4l-1.3-2.5q-.6-1.2.5-2ZM260.1 226q.5 1-.5 1.8l-2.9 1.6a1.4 1.4 0 0 1-1.3-2.4l2.9-1.6q1-.5 1.8.6ZM221.8 247q.6 1-.5 1.8l-2.9 1.6a1.4 1.4 0 0 1-1.3-2.4l2.9-1.6c.6-.4 1.5-.1 1.8.5ZM243.8 215.9q.7-.9 1.5-.9l.7.4.4 1-5.6 18.5v.1l1 1.1a4 4 0 0 1-1.6 5.4 4 4 0 0 1-5.8-2.7h-.1l-14-2q-1-.7-1-1.5.1-.8 1.6-1.3l14 2a4 4 0 0 1 3.2-1.9z"
      style="fill:#0e1924;fill:color(display-p3 .0549 .098 .1412);fill-opacity:1;stroke:#000;stroke-opacity:1" />
    <path fill="#e4982d" stroke="#000" stroke-width=".2"
      d="M237.7 237.1a1 1 0 0 1 1.5.4 1 1 0 0 1-.4 1.5 1 1 0 0 1-1.5-.4 1 1 0 0 1 .4-1.5Z"
      style="fill:#e4982d;fill:color(display-p3 .8942 .5951 .1763);fill-opacity:1;stroke:#000;stroke-opacity:1" />
    <path fill="#e4982d" stroke="#000" stroke-width="2"
      d="m271 213 4-.9q.4-.1.7.4l4.2 7.6q.3.5-.1.9l-3 2.8q-.6.6-1-.1l-5.4-9.7q-.3-.8.5-1Z"
      style="fill:#e4982d;fill:color(display-p3 .8942 .5951 .1763);fill-opacity:1;stroke:#000;stroke-opacity:1" />
  </g>
  <path fill="#fcf2d7" d="M283.2 210.6c-3 6.2 12.8 16 15.7 17.6 18.2-4.7-9.7-69-15.7-17.6"
    style="fill:#fcf2d7;fill:color(display-p3 .9882 .949 .8431);fill-opacity:1" />
  <defs>
    <clipPath id="b">
      <path fill="#fff" d="M0 0h83.9v110.5H0z" style="fill:#fff;fill-opacity:1"
        transform="rotate(-28.7 493.6 -243.4)" />
    </clipPath>
    <filter id="a" width="318.6" height="318.6" x="78.3" y="78.3" color-interpolation-filters="sRGB"
      filterUnits="userSpaceOnUse">
      <feFlood flood-opacity="0" result="BackgroundImageFix" />
      <feBlend in="SourceGraphic" in2="BackgroundImageFix" result="shape" />
      <feGaussianBlur result="effect1_foregroundBlur_1159_962" stdDeviation="6.9" />
    </filter>
  </defs>
</svg> -->
<svg xmlns="http://www.w3.org/2000/svg" xmlns:xlink="http://www.w3.org/1999/xlink" fill="none" viewBox="0 0 123 123">
  <path fill="color(display-p3 .1608 .2314 .4431)" stroke="color(display-p3 .149 .0863 .4275)" stroke-miterlimit="10"
    d="M107.9 92a9.8 9.8 0 1 1 9.6-8.2A60.3 60.3 0 0 0 61.3.7a60.5 60.5 0 1 0 54 88A10 10 0 0 1 108 92ZM68.3 6.3c6.6 0 12 6.7 12 15s-5.3 15-12 15c-6.5 0-11.9-6.7-12-15s5.4-15 12-15ZM17 41.8c0-11.5 7.4-21 16.4-21 9.1 0 16.5 9.4 16.5 21s-7.3 21-16.4 21S17 53.4 17 41.8Zm5.3 39.9a9.2 9.2 0 1 1 18.5 0 9.2 9.2 0 0 1-18.5 0Zm19.6 35a12.2 12.2 0 1 1 0-24.5 12.2 12.2 0 0 1 0 24.5Zm12-65.8c0-5 4.7-9.1 10.5-9.2s10.5 4.1 10.5 9.2S70 60 64.3 60 54 56 54 51ZM70 91.1a13.5 13.5 0 1 1 0-27 13.5 13.5 0 0 1 0 27Zm22.5-33.9a7.7 7.7 0 1 1 15.3 0 7.7 7.7 0 0 1-15.3 0Z" />
  <path fill="url(#paint0_linear_1097_981)" d="M64.6 88.5a28.2 28.2 0 1 0 0-56.4 28.2 28.2 0 0 0 0 56.4" />
  <path fill="color(display-p3 .5059 .2039 .4706)"
    d="M66.7 80.8a28.2 28.2 0 0 1-28-31.6 28 28 0 0 0 26 39.3 28 28 0 0 0 27.8-24.8c-4.3 10-14.2 17-25.8 17.1"
    opacity=".5" />
  <path stroke="color(display-p3 .149 .0863 .4275)" stroke-miterlimit="10"
    d="M64.6 88.5a28.2 28.2 0 1 0 0-56.4 28.2 28.2 0 0 0 0 56.4Z" />
  <path fill="color(display-p3 1 .5961 .7686)"
    d="M63 51.5c7.9-2.2 13.3-7.5 12-11.8-1.2-4.2-8.6-5.9-16.5-3.7s-13.4 7.5-12.2 11.8 8.6 6 16.6 3.7" opacity=".5" />
  <path fill="color(display-p3 .2706 .651 .7412)"
    d="M102.2 16.5A14 14 0 0 1 77.5 2.9a60.5 60.5 0 1 0 24.7 13.6m-78 69.4a11.5 11.5 0 1 1 0-23 11.5 11.5 0 0 1 0 23m.6-32.2c-6-9.3 0-23.8 13.3-32.3s29-8 34.9 1.4C79 32 73 46.6 59.7 55c-13.2 8.6-28.9 8-34.9-1.4m36.3 59.6c-10.5 0-19-9.8-19-22s8.4-22 18.9-22.1c10.4 0 18.9 9.8 18.9 22s-8.4 22-18.8 22m41.7-81.8a6.5 6.5 0 1 1 0 13 6.5 6.5 0 0 1 0-13m-6 59.8c-7.4-2.2-10.6-13.1-7.2-24.3 3.5-11.1 12.2-18.3 19.6-16 7.3 2.2 10.5 13 7.1 24.2s-12.2 18.4-19.5 16.1" />
  <path fill="color(display-p3 .3843 .8902 .8157)"
    d="M88 23.3q-.6 0-1.1-.2h-.5l-1-.4-.4-.2-1.2-.5h-.2q-3-1.5-4.8-4.1a14 14 0 0 1-5-15.9A60.3 60.3 0 0 0 1 61.3 60.5 60.5 0 1 0 102.6 17l-.4-.4a14 14 0 0 1-13.7 6.9zm-52.7-4.7c12.8-8.3 27.8-8 34.2.5l1 .7.2.3 1.4 1.4.2.3.7 1C79 32 73 46.6 59.7 55l-2.3 1.4h-.1L55 57.8l-.2.1-2.3 1h-.2l-2.3.9h-.2l-2.2.6h-.3l-4.6.8H40l-2-.1h-.3q-1 0-2-.3h-.1l-2-.5-2-.8-1.8-.9a15 15 0 0 1-4.4-3.9q-2-1.5-3.5-3.7c-6-9.3 0-23.8 13.3-32.3M24.2 86l-1.4-.1h-.4l-2.2-.6-.3-.1-1-.5h-.1l-1.2-.8-1-.8h-.1l-.8-.9-.2-.1-.8-1a11.5 11.5 0 1 1 16-16l1 .7.2.2.8.8v.1l.9 1 .7 1.2.5 1.1.1.3.6 2.2v.4l.1 1.3c0 6.4-5 11.6-11.4 11.6M61 113.3h-1.3l-.7-.1h-.3l-.7-.2h-.3l-.6-.2h-.3l-.7-.2-.2-.1-.7-.2-.2-.1-.7-.3h-.1l-.8-.4-.8-.5h-.1l-.7-.5h-.1l-.8-.5-.7-.6-.8-.7-2-2.2c-5-4-8.2-10.5-8.2-18 0-12.2 8.4-22 18.9-22.1 5.3 0 10.2 2.6 13.6 6.8a19 19 0 0 1 4 4.4l.7 1 1.2 2.3.4 1 .1.3.4.9v.3l.4 1v.2l.3 1.2v.1l.2 1 .1.5.2 2.1v.4l.1 1.3c0 12.2-8.4 22-18.8 22M111.7 52l.4.4.6.4.5.5.5.5 1.6 2.4.7 1.4.3.6.3 1 .2.5.4 1.6v.4l.3 1.3v.6l.1 1.1v.8a26 26 0 0 1-.3 5v.7l-.3 1.3-.2.6-.5 2c-3.4 11.2-12.2 18.4-19.5 16.1l-1.2-.4-.2-.1a10 10 0 0 1-3-2.3l-1-1.2c-5.5-3.7-7.6-13.3-4.6-23C90.3 53 99 45.8 106.4 48q3.2 1 5.3 4M99.9 28.7c2.5 0 4.7 1.5 5.8 3.5l1.4 1q.7.6 1.1 1.3v.1l.4.7.3.8v.2l.2.6v.3a6.4 6.4 0 0 1-8 7h-.2l-.7-.3h-.1l-.7-.4q-.8-.5-1.4-1.1l-1-1.5a6.5 6.5 0 0 1 3-12.2" />
  <path fill="color(display-p3 .2706 .651 .7412)"
    d="M74.8 106.3a18 18 0 0 1-14.7 7h-.3l-.7-.1h-.3l-.7-.2h-.3l-.6-.2h-.3l-.7-.2-.2-.1-.7-.2-.2-.1-.7-.3h-.1l-.8-.4-.8-.5h-.1l-.7-.5h-.1l-.8-.5-.7-.6a19 19 0 0 1-2.9-2.9 21 21 0 0 1-5-5.8 59 59 0 0 1-19-14.9h-.9l-2.2-.6-.3-.1-1-.5h-.1L16.7 83h-.1l-.8-.9-.2-.1-.8-1a11.5 11.5 0 0 1-2.7-16 59 59 0 0 1 3.4-43.2 60.5 60.5 0 1 0 104.6 54.1 59 59 0 0 1-45.3 30.4"
    opacity=".3" />
  <path fill="color(display-p3 .2706 .651 .7412)"
    d="M75 61c2.6-2.2 3.5-5.7 1.8-7.8s-5.3-1.9-8 .4-3.5 5.7-1.8 7.7 5.2 2 8-.3m3.4 11.4a3 3 0 1 0 0-6 3 3 0 0 0 0 6m12.3-25.7a2.5 2.5 0 1 0 0-5 2.5 2.5 0 0 0 0 5m-5.2 51.9a3.7 3.7 0 1 0 0-7.4 3.7 3.7 0 0 0 0 7.4m9.9-1.6a1 1 0 1 0 0-2.1 1 1 0 0 0 0 2M33.3 95a3.8 3.8 0 1 0 0-7.5 3.8 3.8 0 0 0 0 7.5M22 94.4a2.2 2.2 0 1 0 0-4.5 2.2 2.2 0 0 0 0 4.5m-7.9-39.1a4.2 4.2 0 1 0 0-8.4 4.2 4.2 0 0 0 0 8.4m.3-13.5a1.8 1.8 0 1 0 0-3.5 1.8 1.8 0 0 0 0 3.5m49.3-31.3a2.8 2.8 0 1 0 0-5.7 2.8 2.8 0 0 0 0 5.7m23.5 21.1a1.8 1.8 0 1 0 0-3.6 1.8 1.8 0 0 0 0 3.6"
    opacity=".3" />
  <path stroke="color(display-p3 .149 .0863 .4275)" stroke-miterlimit="10"
    d="M88 23.3q-.6 0-1.1-.2h-.5l-1-.4-.4-.2-1.2-.5h-.2q-3-1.5-4.8-4.1a14 14 0 0 1-5-15.9A60.3 60.3 0 0 0 1 61.3 60.5 60.5 0 1 0 102.6 17l-.4-.4a14 14 0 0 1-13.7 6.9zm-52.7-4.7c12.8-8.3 27.8-8 34.2.5l1 .7.2.3 1.4 1.4.2.3.7 1C79 32 73 46.6 59.7 55l-2.3 1.4h-.1L55 57.8l-.2.1-2.3 1h-.2l-2.3.9h-.2l-2.2.6h-.3l-4.6.8H40l-2-.1h-.3q-1 0-2-.3h-.1l-2-.5-2-.8-1.8-.9a15 15 0 0 1-4.4-3.9q-2-1.5-3.5-3.7c-6-9.3 0-23.8 13.3-32.3Zm-11 67.3-1.4-.1h-.4l-2.2-.6-.3-.1-1-.5h-.1l-1.2-.8-1-.8h-.1l-.8-.9-.2-.1-.8-1a11.5 11.5 0 1 1 16-16l1 .7.2.2.8.8v.1l.9 1 .7 1.2.5 1.1.1.3.6 2.2v.4l.1 1.3c0 6.4-5 11.6-11.4 11.6ZM61 113.3h-1.3l-.7-.1h-.3l-.7-.2h-.3l-.6-.2h-.3l-.7-.2-.2-.1-.7-.2-.2-.1-.7-.3h-.1l-.8-.4-.8-.5h-.1l-.7-.5h-.1l-.8-.5-.7-.6-.8-.7-2-2.2c-5-4-8.2-10.5-8.2-18 0-12.2 8.4-22 18.9-22.1 5.3 0 10.2 2.6 13.6 6.8a19 19 0 0 1 4 4.4l.7 1 1.2 2.3.4 1 .1.3.4.9v.3l.4 1v.2l.3 1.2v.1l.2 1 .1.5.2 2.1v.4l.1 1.3c0 12.2-8.4 22-18.8 22ZM111.7 52l.4.4.6.4.5.5.5.5 1.6 2.4.7 1.4.3.6.3 1 .2.5.4 1.6v.4l.3 1.3v.6l.1 1.1v.8a26 26 0 0 1-.3 5v.7l-.3 1.3-.2.6-.5 2c-3.4 11.2-12.2 18.4-19.5 16.1l-1.2-.4-.2-.1a10 10 0 0 1-3-2.3l-1-1.2c-5.5-3.7-7.6-13.3-4.6-23C90.3 53 99 45.8 106.4 48q3.2 1 5.3 4ZM99.9 28.7c2.5 0 4.7 1.5 5.8 3.5l1.4 1q.7.6 1.1 1.3v.1l.4.7.3.8v.2l.2.6v.3a6.4 6.4 0 0 1-8 7h-.2l-.7-.3h-.1l-.7-.4q-.8-.5-1.4-1.1l-1-1.5a6.5 6.5 0 0 1 3-12.2Z" />
  <path stroke="color(display-p3 .149 .0863 .4275)" stroke-miterlimit="10"
    d="M102.2 16.5A14 14 0 0 1 77.5 2.9a60.5 60.5 0 1 0 24.7 13.6Zm-78 69.4a11.5 11.5 0 1 1 0-23 11.5 11.5 0 0 1 0 23Zm.6-32.2c-6-9.3 0-23.8 13.3-32.3s29-8 34.9 1.4C79 32 73 46.6 59.7 55c-13.2 8.6-28.9 8-34.9-1.4Zm36.3 59.6c-10.5 0-19-9.8-19-22s8.4-22 18.9-22.1c10.4 0 18.9 9.8 18.9 22s-8.4 22-18.8 22Zm41.7-81.8a6.5 6.5 0 1 1 0 13 6.5 6.5 0 0 1 0-13Zm-6 59.8c-7.4-2.2-10.6-13.1-7.2-24.3 3.5-11.1 12.2-18.3 19.6-16 7.3 2.2 10.5 13 7.1 24.2s-12.2 18.4-19.5 16.1Z" />
  <defs>
    <linearGradient id="paint0_linear_1097_981" x1="36.4" x2="92.8" y1="60.3" y2="60.3" gradientUnits="userSpaceOnUse">
      <stop stop-color="color(display-p3 1 .2039 .6118)" />
      <stop offset="1" stop-color="color(display-p3 .6471 .0039 .8078)" />
    </linearGradient>
  </defs>
</svg>