<!-- <svg xmlns="http://www.w3.org/2000/svg" width="342" height="342" fill="none" viewBox="0 0 342 342">
  <g filter="url(#a)">
    <circle cx="171" cy="171" r="142.2" fill="#afd84b" fill-opacity=".1"
      style="fill:#afd84b;fill:color(display-p3 .6863 .8471 .2941);fill-opacity:.05" transform="rotate(-90 171 171)" />
  </g>
  <path fill="#72b83a" fill-opacity=".2"
    d="M106.7 210.5a42 42 0 0 1 0-79 42 42 0 0 0 24.8-24.8 42 42 0 0 1 79 0 42 42 0 0 0 24.8 24.8 42 42 0 0 1 0 79 42 42 0 0 0-24.8 24.8 42 42 0 0 1-79 0 42 42 0 0 0-24.8-24.8"
    style="fill:#72b83a;fill:color(display-p3 .4471 .7216 .2275);fill-opacity:.2" />
  <path fill="#72b83a" stroke="#000" stroke-width="2.7"
    d="M114 200.6a31.6 31.6 0 0 1 0-59.2l5.1-2a34 34 0 0 0 20.3-20.3l2-5.2a31.6 31.6 0 0 1 59.2 0l2 5.2a34 34 0 0 0 20.2 20.3l5.2 2a31.6 31.6 0 0 1 0 59.2l-5.2 2a34 34 0 0 0-20.3 20.2l-1.9 5.2a31.6 31.6 0 0 1-59.2 0l-2-5.2a34 34 0 0 0-20.3-20.3z"
    style="fill:#72b83a;fill:color(display-p3 .4471 .7216 .2275);fill-opacity:1;stroke:#000;stroke-opacity:1" />
  <path fill="#afd84b"
    d="M169.4 228c7.9 0 6.5 5 14.3 9 7.8 3.8-6.4 8.9-14.3 8.9-3.2.9-10.9-4.2-14.4-9 0-5 6.4-9 14.4-9M122 168c4.2 6.8-.8 8.4.1 17s-11-.6-15.3-7.2c-2.4-2.3-2.3-11.4-.2-17 4.2-2.6 11 .6 15.3 7.3"
    style="fill:#afd84b;fill:color(display-p3 .6863 .8471 .2941);fill-opacity:1" />
  <path fill="#fcf2d7" d="M168.9 120.1c5.1 4.4 18.2-8.4 20.3-10.8-.3-18.3-67.7-6.7-20.3 10.8"
    style="fill:#fcf2d7;fill:color(display-p3 .9882 .949 .8431);fill-opacity:1" />
  <g clip-path="url(#b)">
    <ellipse cx="169.4" cy="171.5" fill="#000" rx="50.4" ry="50.5" style="fill:#000;fill-opacity:1" />
    <path fill="#fff"
      d="M201.2 194.6a23 23 0 0 1-10.5 18.3 38 38 0 0 1-23.5 6q-13.5-.7-22.4-4.3-9-3.5-8.7-7.4l.8-16q.1-3.4 2.6-3.2 2.6 0 3.4 3.4 5 19.3 23.5 20.2 8.5.4 14.2-3.4 5.5-4 6-10.3.3-6.2-4.6-11-5-4.7-12-8.4l-14.2-7.7q-7-4-11.8-10a20 20 0 0 1-4.4-13.7q.6-11.3 9.8-18.2a36 36 0 0 1 23.9-6.3q9.8.4 17.7 4.2 8 3.4 7.7 7.2l-.7 14.2q0 3.3-2.8 3.2-2.6-.2-3.2-3.5-4.2-17.3-20.4-18.2-7.4-.3-12.6 3.2a11 11 0 0 0-5.6 9.3q-.2 6 4.6 10.8a55 55 0 0 0 12.2 8.7q7.5 3.6 14.5 7.9 7.2 4 12 10.5a21 21 0 0 1 4.5 14.5"
      style="fill:#fff;fill-opacity:1" />
  </g>
  <defs>
    <clipPath id="b">
      <rect width="104" height="101" x="119" y="121" fill="#fff" rx="5" style="fill:#fff;fill-opacity:1" />
    </clipPath>
    <filter id="a" width="311.9" height="311.9" x="15" y="15.1" color-interpolation-filters="sRGB"
      filterUnits="userSpaceOnUse">
      <feFlood flood-opacity="0" result="BackgroundImageFix" />
      <feBlend in="SourceGraphic" in2="BackgroundImageFix" result="shape" />
      <feGaussianBlur result="effect1_foregroundBlur_1160_1087" stdDeviation="6.9" />
    </filter>
  </defs>
</svg> -->
<svg xmlns="http://www.w3.org/2000/svg" fill="none" viewBox="0 0 137 149">
  <path fill="color(display-p3 .9098 .7451 .3569)"
    d="M81.3 144.4c13.5 0 52.9-53.4 52-71 0-2-14-31.4-14-31.4l-51.7 68.4z" />
  <path fill="color(display-p3 .9098 .6118 .3569)"
    d="M133.3 73.4c0-.5-1-3-2.5-6.4-7.7 23.1-36.5 62.5-52.2 70.7l2.7 6.7c13.5 0 52.9-53.4 52-71" opacity=".4" />
  <path fill="color(display-p3 .9098 .6118 .3569)"
    d="M106.3 80.7q-.1 2.1.1 4.2.3 2 1 4 2.9 8.4 6.7 16.4l2 5.3a173 173 0 0 0 9.7-15.6q-5-13.5-8.4-27.7-1.6-7.7-6.4-14.3L99.8 67.8q2.6 2.2 4.5 4.8a14 14 0 0 1 2 8M88 128.2c-1.8 2.6-1.1 5.9 0 8.6l1.5 3.8q5-3.7 10.7-10c-2.3-2-5.2-4.3-8.2-4.5q-2.5 0-4 2.1m.7-18c1 .6 2.3 1.5 3.5 1.3 1.2-.3 1.4-1.7 1.4-2.6q.3-3.9-1-7.5c-2-4.7-5.4-8.8-8.5-12.8l-7.5 9.9q3.8 4.2 7.8 8.3 2 1.9 4.3 3.4" />
  <path stroke="color(display-p3 .149 .0863 .4275)" stroke-miterlimit="10"
    d="M81.3 144.4c13.5 0 52.9-53.4 52-71 0-2-14-31.4-14-31.4l-51.7 68.4z" />
  <path fill="color(display-p3 .9098 .6118 .3569)"
    d="M81.1 144 49.6 65.3 3 75.5s8.8 21.9 13 27.5c11.4 15.3 50.8 39.8 65.3 41.4z" />
  <path fill="color(display-p3 .9098 .7451 .3569)"
    d="M58.3 133.9c-.6-2.5-1-5-2.3-7.4-1.9-3.6-5-6.4-8.1-9l-10.1-7.3c-7-5-14.2-10.5-22.6-12.8l-2.8-.6q2.1 4 3.6 6.2c7.4 9.9 26.3 23.6 42.8 32.4z" />
  <path stroke="color(display-p3 .149 .0863 .4275)" stroke-miterlimit="10"
    d="M81.1 144 49.6 65.3 3 75.5s8.8 21.9 13 27.5c11.4 15.3 50.8 39.8 65.3 41.4z" />
  <path fill="color(display-p3 1 .8196 .3569)"
    d="M2.3 72.8C-.7 54.9 42 5.4 53.2 1.8c11-3.7 66.2 26.3 67.1 44 .9 17.5-37.3 71-50.9 71-13.5 0-64.2-26.1-67.1-44" />
  <path fill="color(display-p3 .9098 .6118 .3569)"
    d="M10 73.8C7 55.9 49.9 6.4 61 2.8l1-.3q-6-1.6-8.8-.8C42 5.4-.7 55 2.2 72.7c3 18 53.7 44 67.2 44h1.2c-18.8-5.3-58-27.2-60.5-42.9"
    opacity=".3" />
  <path fill="color(display-p3 .9098 .6118 .3569)"
    d="m64.3 87.1 3 3 3.8 3c4.9 4.1 8.7 9.3 13.3 13.7h.1q3.4-3.3 7-7.6c-2.2-4.3-5.5-8-8.3-11.9L72.6 72.8q-5-7.3-11.2-13.6-6.7-6.3-14.2-11.6-12-8.7-25.3-15-4.2 5.6-8 11.2 8.5 5.3 17.8 9.4C38.3 56 45.6 58.7 51 63.4c2.1 1.8 4.4 4.7 2.5 7.5s-5.6 2.1-8.3.9a49 49 0 0 1-10.5-7.6l-4.6-4-1.3-1 .3 1c.4.8-.6 1.4-1.4 1.2l-2.5-1c-4.5-2.2-8.6-5.2-12.7-8l-2.9-2a86 86 0 0 0-4.6 9c6 2.8 12.7 6.1 15.3 12.5 1.1 2.9 1.4 6.9 4.1 8.8 3 2.2 5.8-.5 8.5-1.8 1.9-.9 4.8-1.5 6.8-.4q1.2.8 1.9 2l2.8 3.8c1.2 1.6 3.7 5.3 6.2 3.9a9 9 0 0 0 2.7-2.8l3-4.5q.6-1 1.5-.4 3.6 3 6.4 6.6m37-42.6q-6.1-4.2-12.8-7.8a161 161 0 0 0-19-9.3q-4-1.6-8-2.5-1.5-.3-3-.2-1 0-1.7.6l-.4.6-.1 1.3c.2 1.4 1.3 2.5 2.3 3.4 3 2.5 6.9 4 10.4 5.7q2.2 1 4.5 2.3 2 1.5 3 3.7c2 3.9 2.1 9 5.5 12a6 6 0 0 0 3.4 1.7c1.2.2 2.4 0 3.6.3 2.7.6 4 2.6 5.4 4.9q2 3.5 4.9 6 3 2.4 5.1 5.4 1.8 3 2 6.4 5.6-9 9.5-17.2A34 34 0 0 0 111 53a41 41 0 0 0-9.8-8.5" />
  <path stroke="color(display-p3 .149 .0863 .4275)" stroke-miterlimit="10"
    d="M2.3 72.8C-.7 54.9 42 5.4 53.2 1.8c11-3.7 66.2 26.3 67.1 44 .9 17.5-37.3 71-50.9 71-13.5 0-64.2-26.1-67.1-44Z" />
  <path fill="color(display-p3 .3843 .8902 .8157)"
    d="M121.4 102.6a224 224 0 0 1 8.2 16q2 4 3.4 8.4 1.6 4.2 2.5 9a19 19 0 0 1-.1 6.7l-.3.8-.4.8q-.8 1.7-2.8 2.9-2 .8-3.7.8l-1.6-.1-1.4-.3a25 25 0 0 1-4.8-1.8q-4.4-2.1-8.2-5-3.8-2.6-7.3-5.5-7-6-13.4-12.3a279 279 0 0 1-26.9-30.6l-2.7-3.8q-1.4-1.9-2.6-3.9l-2.4-4A88 88 0 0 1 49.6 63a87 87 0 0 1-3.2-27.8v-8.7L46 23q-.3-1.6-.9-2.6a5 5 0 0 0-1.6-1.6 106 106 0 0 0-19.8-6.3 54 54 0 0 0-8.3-1 17 17 0 0 0-7.3.9Q6.6 13 6 14.2q-.8 1.3-.6 3.1.2 3.9 2.2 7.9 1.8 4 4.2 7.7 2.3 3.8 4.8 7.4A80 80 0 0 1 5 26.6l-2.2-4q-1.1-2.2-1.6-4.8t.4-5.6a9 9 0 0 1 4-4.5q2.4-1.5 5-2l4.8-.7A90 90 0 0 1 43 9.1c1.5.5 2.8.9 4.9 1.8a14 14 0 0 1 7.4 10q.7 2.6.9 5l.4 9.2a145 145 0 0 0 1.6 17 78 78 0 0 0 8.4 23.2l2.1 3.7 2.3 3.5 2.5 3.4 2.6 3.5a367 367 0 0 0 34.6 39.4c4.2 4 8.6 7.8 13.2 10.6q1.6 1 3.3 1.7 1.7.5 2 .4l.3-.2.1-.2.2-.3.2-.6q.3-1.6.2-3.7 0-4-1.2-8.4l-2.1-8.5-2.6-8.5z" />
  <path stroke="color(display-p3 .149 .0863 .4275)" stroke-linecap="round" stroke-linejoin="round"
    stroke-miterlimit="10"
    d="M121.4 102.6a224 224 0 0 1 8.2 16q2 4 3.4 8.4 1.6 4.2 2.5 9a19 19 0 0 1-.1 6.7l-.3.8-.4.8q-.8 1.7-2.8 2.9-2 .8-3.7.8l-1.6-.1-1.4-.3a25 25 0 0 1-4.8-1.8q-4.4-2.1-8.2-5-3.8-2.6-7.3-5.5-7-6-13.4-12.3a279 279 0 0 1-26.9-30.6l-2.7-3.8q-1.4-1.9-2.6-3.9l-2.4-4A88 88 0 0 1 49.6 63a87 87 0 0 1-3.2-27.8v-8.7L46 23q-.3-1.6-.9-2.6a5 5 0 0 0-1.6-1.6 106 106 0 0 0-19.8-6.3 54 54 0 0 0-8.3-1 17 17 0 0 0-7.3.9Q6.6 13 6 14.2q-.8 1.3-.6 3.1.2 3.9 2.2 7.9 1.8 4 4.2 7.7 2.3 3.8 4.8 7.4A80 80 0 0 1 5 26.6l-2.2-4q-1.1-2.2-1.6-4.8t.4-5.6a9 9 0 0 1 4-4.5q2.4-1.5 5-2l4.8-.7A90 90 0 0 1 43 9.1c1.5.5 2.8.9 4.9 1.8a14 14 0 0 1 7.4 10q.7 2.6.9 5l.4 9.2a145 145 0 0 0 1.6 17 78 78 0 0 0 8.4 23.2l2.1 3.7 2.3 3.5 2.5 3.4 2.6 3.5a367 367 0 0 0 34.6 39.4c4.2 4 8.6 7.8 13.2 10.6q1.6 1 3.3 1.7 1.7.5 2 .4l.3-.2.1-.2.2-.3.2-.6q.3-1.6.2-3.7 0-4-1.2-8.4l-2.1-8.5-2.6-8.5z" />
</svg>