<svg xmlns="http://www.w3.org/2000/svg" xmlns:xlink="http://www.w3.org/1999/xlink" fill="none" viewBox="0 0 128 132">
  <path fill="url(#paint0_linear_990_2170)" d="M64 128A60 60 0 0 0 64 7C31 7 4 35 4 68s27 60 60 60"/>
  <path fill="color(display-p3 .6353 .2471 .3725)" d="M24 23v4c2 7 15 10 30 7 14-4 24-13 22-21q-1-3-4-5a60 60 0 0 0-48 15" opacity=".4"/>
  <path stroke="color(display-p3 .149 .0863 .4275)" stroke-miterlimit="10" d="M64 128A60 60 0 0 0 64 7C31 7 4 35 4 68s27 60 60 60Z"/>
  <path fill="color(display-p3 .6353 .2471 .3725)" d="M84 106q9 0 10-8-1-7-10-8-10 1-11 8 1 8 11 8" opacity=".4"/>
  <path fill="color(display-p3 .6353 .2471 .3725)" d="M75 116c-11-10 1-22-8-33-5-6-29 0-29-8l1-23q0-4-5-9-5-3-11-1L6 51 4 68a60 60 0 0 0 78 58q-1-4-7-10m49-48q0-12-5-23l-12 5q-6 2-9 5-4 5-3 9l2 9 2 6v6l-3 12q-2 8 2 14l5 3q20-18 21-46" opacity=".4"/>
  <path fill="color(display-p3 .6353 .2471 .3725)" d="M45 70c9 7 24 0 34 7 9 7 8-19 16-28 12-14-12-23-43 1-10 7-11 18-7 20" opacity=".4"/>
  <path fill="color(display-p3 .6353 .2471 .3725)" d="M102 27q2-7-5-12-9-3-12 3t5 11q8 3 12-2" opacity=".4"/>
  <path fill="color(display-p3 1 .8667 .5059)" d="m75 130 3-3q0-4-3-6l-7-9-1-11V91q-1-5-7-7l-6-1h-7q-7 1-11-5V66l1-11q1-5-3-9-5-3-10-1l-12 5-10 8-1 10a63 63 0 0 0 74 62"/>
  <path stroke="color(display-p3 .149 .0863 .4275)" stroke-miterlimit="10" d="m75 130 3-3q0-4-3-6l-7-9-1-11V91q-1-5-7-7l-6-1h-7q-7 1-11-5V66l1-11q1-5-3-9-5-3-10-1l-12 5-10 8-1 10a63 63 0 0 0 74 62Z"/>
  <path fill="color(display-p3 .9098 .7451 .3569)" d="m64 131 11-1-2-6q-6-3-8-10l-1-11v-9q-1-6-6-7l-7-1h-7q-7 0-10-5l-1-7v-6l1-11q1-5-3-9-4-2-10-1L9 53l-7 4-1 11c0 35 28 63 63 63"/>
  <path fill="color(display-p3 .9098 .6118 .3569)" d="M47 120h4q3-1 2-5-4-2-5-6l-1-7v-6q0-3-4-4l-4-1h-4q-5 1-7-3l-1-4 1-4v-7q1-3-2-6h-6l-8 3-3 3-1 1-1 6c0 22 18 40 40 40"/>
  <path fill="color(display-p3 .9098 .5176 .3569)" d="M48 114q1 4 4 6 2-2 1-5-4-2-5-6l-1-2zM27 86v3l1 4q2 4 7 3h4l4 1q3 1 4 4l1 1-1-6q-1-3-4-4l-4-1h-4q-5 1-7-3zM8 79l1-1 3-3 8-3h6l2 4v-3q1-3-2-6h-6l-8 3-3 3-1 1-1 8z"/>
  <path fill="color(display-p3 1 .8667 .5059)" d="M98 97q-1 7 3 13 3 3 7 3a62 62 0 0 0 15-66l-2-1-12 5q-6 2-9 5-3 4-3 8l3 9 1 6v6z"/>
  <path stroke="color(display-p3 .149 .0863 .4275)" stroke-miterlimit="10" d="M98 97q-1 7 3 13 3 3 7 3a62 62 0 0 0 15-66l-2-1-12 5q-6 2-9 5-3 4-3 8l3 9 1 6v6z"/>
  <path fill="color(display-p3 .9098 .7451 .3569)" d="M127 68q0-10-4-21h-2l-1 1-9 3-8 5q-3 3-3 8l3 9 1 6v6l-3 12q-1 7 3 13l4 3q18-19 19-45"/>
  <path fill="color(display-p3 .9098 .6118 .3569)" d="m116 95 5-2a63 63 0 0 0 5-36q-6-1-10 1c-3 2-8 5-6 9l2 4 2 6-2 11c0 3 0 8 4 7"/>
  <path fill="color(display-p3 .9098 .5176 .3569)" d="m116 88 2-11-2-6-2-4c-2-4 3-7 6-9l5-1q-5-1-9 1c-3 2-8 5-6 9l2 4 2 6-2 11c0 3 0 8 4 7h2q-2-3-2-7"/>
  <path fill="color(display-p3 1 .8667 .5059)" d="M48 68c8 6 21-1 30 6 8 6 7-17 15-26 10-12-11-20-39 1-9 7-10 16-6 19"/>
  <path stroke="color(display-p3 .149 .0863 .4275)" stroke-miterlimit="10" d="M48 68c8 6 21-1 30 6 8 6 7-17 15-26 10-12-11-20-39 1-9 7-10 16-6 19Z"/>
  <path fill="color(display-p3 .9098 .7451 .3569)" d="M47 66c8 6 21-1 30 6 8 6 7-17 14-26 11-12-10-20-38 1-9 6-10 16-6 19"/>
  <path fill="color(display-p3 .9098 .6118 .3569)" d="M55 61c5 4 14 0 19 4s4-11 9-16c7-7-7-12-24 0-5 4-6 11-4 12"/>
  <path fill="color(display-p3 .9098 .5176 .3569)" d="M60 53q18-12 25-7c1-5-11-8-26 3q-7 8-4 12 0-4 5-8"/>
  <path fill="color(display-p3 1 .8667 .5059)" d="M53 31q21-6 20-17c-1-6-13-8-26-5q-20 6-20 17 5 10 26 5"/>
  <path stroke="color(display-p3 .149 .0863 .4275)" stroke-miterlimit="10" d="M53 31q21-6 20-17c-1-6-13-8-26-5q-20 6-20 17 5 10 26 5Z"/>
  <path fill="color(display-p3 .9098 .7451 .3569)" d="M52 29q21-7 21-18c-2-6-14-8-26-5q-21 7-20 17c1 6 13 9 25 6"/>
  <path fill="color(display-p3 .9098 .6118 .3569)" d="M51 24q13-4 12-10t-15-3q-13 4-12 10 3 6 15 3"/>
  <path fill="color(display-p3 .9098 .5176 .3569)" d="M49 14q10-2 14 2v-2q-1-6-15-3-13 4-12 10l1 2q1-6 12-9"/>
  <path fill="color(display-p3 1 .8667 .5059)" d="M84 106q7 0 8-7-1-6-8-6-8 0-9 6 1 6 9 7"/>
  <path stroke="color(display-p3 .149 .0863 .4275)" stroke-miterlimit="10" d="M84 106q7 0 8-7-1-6-8-6-8 0-9 6 1 6 9 7Z"/>
  <path fill="color(display-p3 .9098 .7451 .3569)" d="M84 108q7 0 8-7-1-5-8-6-8 1-9 6 1 7 9 7"/>
  <path stroke="color(display-p3 .149 .0863 .4275)" stroke-miterlimit="10" d="M84 108q7 0 8-7-1-5-8-6-8 1-9 6 1 7 9 7Z"/>
  <path fill="color(display-p3 1 .8667 .5059)" d="M101 25q2-6-4-10-7-3-11 2-1 6 5 10 7 3 10-2"/>
  <path stroke="color(display-p3 .149 .0863 .4275)" stroke-miterlimit="10" d="M101 25q2-6-4-10-7-3-11 2-1 6 5 10 7 3 10-2Z"/>
  <path fill="color(display-p3 .9098 .7451 .3569)" d="M102 23q3-5-5-9-6-3-10 2-3 5 4 9 8 4 11-2"/>
  <path stroke="color(display-p3 .149 .0863 .4275)" stroke-miterlimit="10" d="m64 131 11-1-2-6q-6-3-8-10l-1-11v-9q-1-6-6-7l-7-1h-7q-7 0-10-5l-1-7v-6l1-11q1-5-3-9-4-2-10-1L9 53l-7 4-1 11c0 35 28 63 63 63Zm63-63q0-10-4-21h-2l-1 1-9 3-8 5q-3 3-3 8l3 9 1 6v6l-3 12q-1 7 3 13l4 3q18-19 19-45Zm-80-2c8 6 21-1 30 6 8 6 7-17 14-26 11-12-10-20-38 1-9 6-10 16-6 19Zm5-37q21-7 21-18c-2-6-14-8-26-5q-21 7-20 17c1 6 13 9 25 6Zm50-6q3-5-5-9-7-3-10 2-2 5 4 9 8 4 11-2Z"/>
  <defs>
    <linearGradient id="paint0_linear_990_2170" x1="94" x2="42.9" y1="2.6" y2="113.5" gradientUnits="userSpaceOnUse">
      <stop stop-color="color(display-p3 .9529 .4627 .3725)"/>
      <stop offset="1" stop-color="color(display-p3 .6667 .3176 .4824)"/>
    </linearGradient>
  </defs>
</svg>
