<svg xmlns="http://www.w3.org/2000/svg" xmlns:xlink="http://www.w3.org/1999/xlink" fill="none" viewBox="0 0 123 123">
  <path fill="color(display-p3 .1608 .2314 .4431)" stroke="color(display-p3 .149 .0863 .4275)" stroke-miterlimit="10" d="M107.9 92a9.8 9.8 0 1 1 9.6-8.2A60.3 60.3 0 0 0 61.3.7a60.5 60.5 0 1 0 54 88A10 10 0 0 1 108 92ZM68.3 6.3c6.6 0 12 6.7 12 15s-5.3 15-12 15c-6.5 0-11.9-6.7-12-15s5.4-15 12-15ZM17 41.8c0-11.5 7.4-21 16.4-21 9.1 0 16.5 9.4 16.5 21s-7.3 21-16.4 21S17 53.4 17 41.8Zm5.3 39.9a9.2 9.2 0 1 1 18.5 0 9.2 9.2 0 0 1-18.5 0Zm19.6 35a12.2 12.2 0 1 1 0-24.5 12.2 12.2 0 0 1 0 24.5Zm12-65.8c0-5 4.7-9.1 10.5-9.2s10.5 4.1 10.5 9.2S70 60 64.3 60 54 56 54 51ZM70 91.1a13.5 13.5 0 1 1 0-27 13.5 13.5 0 0 1 0 27Zm22.5-33.9a7.7 7.7 0 1 1 15.3 0 7.7 7.7 0 0 1-15.3 0Z"/>
  <path fill="url(#paint0_linear_1097_981)" d="M64.6 88.5a28.2 28.2 0 1 0 0-56.4 28.2 28.2 0 0 0 0 56.4"/>
  <path fill="color(display-p3 .5059 .2039 .4706)" d="M66.7 80.8a28.2 28.2 0 0 1-28-31.6 28 28 0 0 0 26 39.3 28 28 0 0 0 27.8-24.8c-4.3 10-14.2 17-25.8 17.1" opacity=".5"/>
  <path stroke="color(display-p3 .149 .0863 .4275)" stroke-miterlimit="10" d="M64.6 88.5a28.2 28.2 0 1 0 0-56.4 28.2 28.2 0 0 0 0 56.4Z"/>
  <path fill="color(display-p3 1 .5961 .7686)" d="M63 51.5c7.9-2.2 13.3-7.5 12-11.8-1.2-4.2-8.6-5.9-16.5-3.7s-13.4 7.5-12.2 11.8 8.6 6 16.6 3.7" opacity=".5"/>
  <path fill="color(display-p3 .2706 .651 .7412)" d="M102.2 16.5A14 14 0 0 1 77.5 2.9a60.5 60.5 0 1 0 24.7 13.6m-78 69.4a11.5 11.5 0 1 1 0-23 11.5 11.5 0 0 1 0 23m.6-32.2c-6-9.3 0-23.8 13.3-32.3s29-8 34.9 1.4C79 32 73 46.6 59.7 55c-13.2 8.6-28.9 8-34.9-1.4m36.3 59.6c-10.5 0-19-9.8-19-22s8.4-22 18.9-22.1c10.4 0 18.9 9.8 18.9 22s-8.4 22-18.8 22m41.7-81.8a6.5 6.5 0 1 1 0 13 6.5 6.5 0 0 1 0-13m-6 59.8c-7.4-2.2-10.6-13.1-7.2-24.3 3.5-11.1 12.2-18.3 19.6-16 7.3 2.2 10.5 13 7.1 24.2s-12.2 18.4-19.5 16.1"/>
  <path fill="color(display-p3 .3843 .8902 .8157)" d="M88 23.3q-.6 0-1.1-.2h-.5l-1-.4-.4-.2-1.2-.5h-.2q-3-1.5-4.8-4.1a14 14 0 0 1-5-15.9A60.3 60.3 0 0 0 1 61.3 60.5 60.5 0 1 0 102.6 17l-.4-.4a14 14 0 0 1-13.7 6.9zm-52.7-4.7c12.8-8.3 27.8-8 34.2.5l1 .7.2.3 1.4 1.4.2.3.7 1C79 32 73 46.6 59.7 55l-2.3 1.4h-.1L55 57.8l-.2.1-2.3 1h-.2l-2.3.9h-.2l-2.2.6h-.3l-4.6.8H40l-2-.1h-.3q-1 0-2-.3h-.1l-2-.5-2-.8-1.8-.9a15 15 0 0 1-4.4-3.9q-2-1.5-3.5-3.7c-6-9.3 0-23.8 13.3-32.3M24.2 86l-1.4-.1h-.4l-2.2-.6-.3-.1-1-.5h-.1l-1.2-.8-1-.8h-.1l-.8-.9-.2-.1-.8-1a11.5 11.5 0 1 1 16-16l1 .7.2.2.8.8v.1l.9 1 .7 1.2.5 1.1.1.3.6 2.2v.4l.1 1.3c0 6.4-5 11.6-11.4 11.6M61 113.3h-1.3l-.7-.1h-.3l-.7-.2h-.3l-.6-.2h-.3l-.7-.2-.2-.1-.7-.2-.2-.1-.7-.3h-.1l-.8-.4-.8-.5h-.1l-.7-.5h-.1l-.8-.5-.7-.6-.8-.7-2-2.2c-5-4-8.2-10.5-8.2-18 0-12.2 8.4-22 18.9-22.1 5.3 0 10.2 2.6 13.6 6.8a19 19 0 0 1 4 4.4l.7 1 1.2 2.3.4 1 .1.3.4.9v.3l.4 1v.2l.3 1.2v.1l.2 1 .1.5.2 2.1v.4l.1 1.3c0 12.2-8.4 22-18.8 22M111.7 52l.4.4.6.4.5.5.5.5 1.6 2.4.7 1.4.3.6.3 1 .2.5.4 1.6v.4l.3 1.3v.6l.1 1.1v.8a26 26 0 0 1-.3 5v.7l-.3 1.3-.2.6-.5 2c-3.4 11.2-12.2 18.4-19.5 16.1l-1.2-.4-.2-.1a10 10 0 0 1-3-2.3l-1-1.2c-5.5-3.7-7.6-13.3-4.6-23C90.3 53 99 45.8 106.4 48q3.2 1 5.3 4M99.9 28.7c2.5 0 4.7 1.5 5.8 3.5l1.4 1q.7.6 1.1 1.3v.1l.4.7.3.8v.2l.2.6v.3a6.4 6.4 0 0 1-8 7h-.2l-.7-.3h-.1l-.7-.4q-.8-.5-1.4-1.1l-1-1.5a6.5 6.5 0 0 1 3-12.2"/>
  <path fill="color(display-p3 .2706 .651 .7412)" d="M74.8 106.3a18 18 0 0 1-14.7 7h-.3l-.7-.1h-.3l-.7-.2h-.3l-.6-.2h-.3l-.7-.2-.2-.1-.7-.2-.2-.1-.7-.3h-.1l-.8-.4-.8-.5h-.1l-.7-.5h-.1l-.8-.5-.7-.6a19 19 0 0 1-2.9-2.9 21 21 0 0 1-5-5.8 59 59 0 0 1-19-14.9h-.9l-2.2-.6-.3-.1-1-.5h-.1L16.7 83h-.1l-.8-.9-.2-.1-.8-1a11.5 11.5 0 0 1-2.7-16 59 59 0 0 1 3.4-43.2 60.5 60.5 0 1 0 104.6 54.1 59 59 0 0 1-45.3 30.4" opacity=".3"/>
  <path fill="color(display-p3 .2706 .651 .7412)" d="M75 61c2.6-2.2 3.5-5.7 1.8-7.8s-5.3-1.9-8 .4-3.5 5.7-1.8 7.7 5.2 2 8-.3m3.4 11.4a3 3 0 1 0 0-6 3 3 0 0 0 0 6m12.3-25.7a2.5 2.5 0 1 0 0-5 2.5 2.5 0 0 0 0 5m-5.2 51.9a3.7 3.7 0 1 0 0-7.4 3.7 3.7 0 0 0 0 7.4m9.9-1.6a1 1 0 1 0 0-2.1 1 1 0 0 0 0 2M33.3 95a3.8 3.8 0 1 0 0-7.5 3.8 3.8 0 0 0 0 7.5M22 94.4a2.2 2.2 0 1 0 0-4.5 2.2 2.2 0 0 0 0 4.5m-7.9-39.1a4.2 4.2 0 1 0 0-8.4 4.2 4.2 0 0 0 0 8.4m.3-13.5a1.8 1.8 0 1 0 0-3.5 1.8 1.8 0 0 0 0 3.5m49.3-31.3a2.8 2.8 0 1 0 0-5.7 2.8 2.8 0 0 0 0 5.7m23.5 21.1a1.8 1.8 0 1 0 0-3.6 1.8 1.8 0 0 0 0 3.6" opacity=".3"/>
  <path stroke="color(display-p3 .149 .0863 .4275)" stroke-miterlimit="10" d="M88 23.3q-.6 0-1.1-.2h-.5l-1-.4-.4-.2-1.2-.5h-.2q-3-1.5-4.8-4.1a14 14 0 0 1-5-15.9A60.3 60.3 0 0 0 1 61.3 60.5 60.5 0 1 0 102.6 17l-.4-.4a14 14 0 0 1-13.7 6.9zm-52.7-4.7c12.8-8.3 27.8-8 34.2.5l1 .7.2.3 1.4 1.4.2.3.7 1C79 32 73 46.6 59.7 55l-2.3 1.4h-.1L55 57.8l-.2.1-2.3 1h-.2l-2.3.9h-.2l-2.2.6h-.3l-4.6.8H40l-2-.1h-.3q-1 0-2-.3h-.1l-2-.5-2-.8-1.8-.9a15 15 0 0 1-4.4-3.9q-2-1.5-3.5-3.7c-6-9.3 0-23.8 13.3-32.3Zm-11 67.3-1.4-.1h-.4l-2.2-.6-.3-.1-1-.5h-.1l-1.2-.8-1-.8h-.1l-.8-.9-.2-.1-.8-1a11.5 11.5 0 1 1 16-16l1 .7.2.2.8.8v.1l.9 1 .7 1.2.5 1.1.1.3.6 2.2v.4l.1 1.3c0 6.4-5 11.6-11.4 11.6ZM61 113.3h-1.3l-.7-.1h-.3l-.7-.2h-.3l-.6-.2h-.3l-.7-.2-.2-.1-.7-.2-.2-.1-.7-.3h-.1l-.8-.4-.8-.5h-.1l-.7-.5h-.1l-.8-.5-.7-.6-.8-.7-2-2.2c-5-4-8.2-10.5-8.2-18 0-12.2 8.4-22 18.9-22.1 5.3 0 10.2 2.6 13.6 6.8a19 19 0 0 1 4 4.4l.7 1 1.2 2.3.4 1 .1.3.4.9v.3l.4 1v.2l.3 1.2v.1l.2 1 .1.5.2 2.1v.4l.1 1.3c0 12.2-8.4 22-18.8 22ZM111.7 52l.4.4.6.4.5.5.5.5 1.6 2.4.7 1.4.3.6.3 1 .2.5.4 1.6v.4l.3 1.3v.6l.1 1.1v.8a26 26 0 0 1-.3 5v.7l-.3 1.3-.2.6-.5 2c-3.4 11.2-12.2 18.4-19.5 16.1l-1.2-.4-.2-.1a10 10 0 0 1-3-2.3l-1-1.2c-5.5-3.7-7.6-13.3-4.6-23C90.3 53 99 45.8 106.4 48q3.2 1 5.3 4ZM99.9 28.7c2.5 0 4.7 1.5 5.8 3.5l1.4 1q.7.6 1.1 1.3v.1l.4.7.3.8v.2l.2.6v.3a6.4 6.4 0 0 1-8 7h-.2l-.7-.3h-.1l-.7-.4q-.8-.5-1.4-1.1l-1-1.5a6.5 6.5 0 0 1 3-12.2Z"/>
  <path stroke="color(display-p3 .149 .0863 .4275)" stroke-miterlimit="10" d="M102.2 16.5A14 14 0 0 1 77.5 2.9a60.5 60.5 0 1 0 24.7 13.6Zm-78 69.4a11.5 11.5 0 1 1 0-23 11.5 11.5 0 0 1 0 23Zm.6-32.2c-6-9.3 0-23.8 13.3-32.3s29-8 34.9 1.4C79 32 73 46.6 59.7 55c-13.2 8.6-28.9 8-34.9-1.4Zm36.3 59.6c-10.5 0-19-9.8-19-22s8.4-22 18.9-22.1c10.4 0 18.9 9.8 18.9 22s-8.4 22-18.8 22Zm41.7-81.8a6.5 6.5 0 1 1 0 13 6.5 6.5 0 0 1 0-13Zm-6 59.8c-7.4-2.2-10.6-13.1-7.2-24.3 3.5-11.1 12.2-18.3 19.6-16 7.3 2.2 10.5 13 7.1 24.2s-12.2 18.4-19.5 16.1Z"/>
  <defs>
    <linearGradient id="paint0_linear_1097_981" x1="36.4" x2="92.8" y1="60.3" y2="60.3" gradientUnits="userSpaceOnUse">
      <stop stop-color="color(display-p3 1 .2039 .6118)"/>
      <stop offset="1" stop-color="color(display-p3 .6471 .0039 .8078)"/>
    </linearGradient>
  </defs>
</svg>
